{
 "cells": [
  {
   "cell_type": "code",
   "execution_count": 12,
   "metadata": {},
   "outputs": [],
   "source": [
    "import numpy as np\n",
    "from mido import MidiFile\n",
    "\n",
    "mid = MidiFile('1.mid')\n",
    "chords = MidiFile('music.mid')"
   ]
  },
  {
   "cell_type": "code",
   "execution_count": 13,
   "metadata": {
    "scrolled": true
   },
   "outputs": [
    {
     "name": "stdout",
     "output_type": "stream",
     "text": [
      "note_on channel=1 note=36 velocity=119 time=2.6999999999999997\n",
      "note_off channel=1 note=36 velocity=0 time=0.28593749999999996\n",
      "note_on channel=1 note=39 velocity=116 time=0.014062499999999999\n",
      "note_off channel=1 note=39 velocity=0 time=0.0796875\n",
      "note_on channel=1 note=39 velocity=116 time=0.2203125\n",
      "note_off channel=1 note=39 velocity=0 time=0.28593749999999996\n",
      "note_on channel=1 note=36 velocity=113 time=0.014062499999999999\n",
      "note_off channel=1 note=36 velocity=0 time=0.07343749999999999\n",
      "note_on channel=1 note=36 velocity=121 time=0.22656249999999997\n",
      "note_off channel=1 note=36 velocity=0 time=0.2765625\n",
      "note_on channel=1 note=31 velocity=118 time=0.023437499999999997\n",
      "note_off channel=1 note=31 velocity=0 time=0.27031249999999996\n",
      "note_on channel=1 note=34 velocity=118 time=0.0296875\n",
      "note_off channel=1 note=34 velocity=0 time=0.2578125\n",
      "note_on channel=1 note=36 velocity=118 time=0.042187499999999996\n",
      "note_off channel=1 note=36 velocity=0 time=0.10156249999999999\n",
      "note_on channel=1 note=36 velocity=118 time=0.1984375\n",
      "note_off channel=1 note=36 velocity=0 time=0.28593749999999996\n",
      "note_on channel=1 note=39 velocity=111 time=0.014062499999999999\n",
      "note_off channel=1 note=39 velocity=0 time=0.08906249999999999\n",
      "note_on channel=1 note=39 velocity=115 time=0.21093749999999997\n",
      "note_off channel=1 note=39 velocity=0 time=0.28593749999999996\n",
      "note_on channel=1 note=36 velocity=119 time=0.014062499999999999\n",
      "note_off channel=1 note=36 velocity=0 time=0.08906249999999999\n",
      "note_on channel=1 note=36 velocity=120 time=0.21093749999999997\n",
      "note_off channel=1 note=36 velocity=0 time=0.2640625\n",
      "note_on channel=1 note=31 velocity=120 time=0.0359375\n",
      "note_off channel=1 note=31 velocity=0 time=0.2609375\n",
      "note_on channel=1 note=34 velocity=115 time=0.0390625\n",
      "note_off channel=1 note=34 velocity=0 time=0.28281249999999997\n",
      "note_on channel=9 note=42 velocity=80 time=0.017187499999999998\n",
      "note_on channel=1 note=36 velocity=116 time=0\n",
      "note_off channel=9 note=42 velocity=0 time=0.007812499999999999\n",
      "note_off channel=1 note=36 velocity=0 time=0.11249999999999999\n",
      "note_on channel=1 note=36 velocity=117 time=0.17968749999999997\n",
      "note_off channel=1 note=36 velocity=0 time=0.28593749999999996\n",
      "note_on channel=9 note=42 velocity=72 time=0.014062499999999999\n",
      "note_on channel=1 note=39 velocity=113 time=0\n",
      "note_off channel=9 note=42 velocity=0 time=0.007812499999999999\n",
      "note_off channel=1 note=39 velocity=0 time=0.090625\n",
      "note_on channel=1 note=39 velocity=116 time=0.20156249999999998\n",
      "note_off channel=1 note=39 velocity=0 time=0.2765625\n",
      "note_on channel=9 note=42 velocity=77 time=0.020312499999999997\n",
      "note_on channel=1 note=36 velocity=118 time=0.0031249999999999997\n",
      "note_off channel=9 note=42 velocity=0 time=0.0046875\n",
      "note_off channel=1 note=36 velocity=0 time=0.103125\n",
      "note_on channel=1 note=36 velocity=117 time=0.19218749999999998\n",
      "note_off channel=1 note=36 velocity=0 time=0.2609375\n",
      "note_on channel=1 note=31 velocity=117 time=0.0390625\n",
      "note_on channel=9 note=42 velocity=77 time=0.0031249999999999997\n",
      "note_off channel=9 note=42 velocity=0 time=0.007812499999999999\n",
      "note_off channel=1 note=31 velocity=0 time=0.23124999999999998\n",
      "note_on channel=1 note=34 velocity=114 time=0.057812499999999996\n",
      "note_off channel=1 note=34 velocity=0 time=0.2640625\n",
      "note_on channel=1 note=36 velocity=118 time=0.0359375\n",
      "note_on channel=9 note=42 velocity=68 time=0.009375\n",
      "note_off channel=9 note=42 velocity=0 time=0.007812499999999999\n",
      "note_off channel=1 note=36 velocity=0 time=0.075\n",
      "note_on channel=1 note=36 velocity=120 time=0.20781249999999998\n",
      "note_off channel=1 note=36 velocity=0 time=0.28593749999999996\n",
      "note_on channel=1 note=39 velocity=110 time=0.014062499999999999\n",
      "note_on channel=9 note=42 velocity=77 time=0.0031249999999999997\n",
      "note_off channel=9 note=42 velocity=0 time=0.007812499999999999\n",
      "note_off channel=1 note=39 velocity=0 time=0.08437499999999999\n",
      "note_on channel=1 note=39 velocity=120 time=0.2046875\n",
      "note_off channel=1 note=39 velocity=0 time=0.28593749999999996\n",
      "note_on channel=9 note=42 velocity=82 time=0.014062499999999999\n",
      "note_on channel=1 note=36 velocity=118 time=0\n",
      "note_off channel=9 note=42 velocity=0 time=0.007812499999999999\n",
      "note_off channel=1 note=36 velocity=0 time=0.071875\n",
      "note_on channel=1 note=36 velocity=120 time=0.2203125\n",
      "note_off channel=1 note=36 velocity=0 time=0.25156249999999997\n",
      "note_on channel=9 note=42 velocity=82 time=0.048437499999999994\n",
      "note_on channel=1 note=31 velocity=108 time=0\n",
      "note_off channel=9 note=42 velocity=0 time=0.007812499999999999\n",
      "note_off channel=1 note=31 velocity=0 time=0.27499999999999997\n",
      "note_on channel=1 note=34 velocity=118 time=0.017187499999999998\n",
      "note_off channel=1 note=34 velocity=0 time=0.14531249999999998\n",
      "note_on channel=9 note=42 velocity=80 time=0.15468749999999998\n",
      "note_on channel=9 note=35 velocity=111 time=0\n",
      "note_on channel=1 note=36 velocity=118 time=0\n",
      "note_off channel=9 note=35 velocity=0 time=0.007812499999999999\n",
      "note_off channel=9 note=42 velocity=0 time=0\n",
      "note_off channel=1 note=36 velocity=0 time=0.10625\n",
      "note_on channel=1 note=36 velocity=119 time=0.18593749999999998\n",
      "note_off channel=1 note=36 velocity=0 time=0.28593749999999996\n",
      "note_on channel=9 note=42 velocity=72 time=0.014062499999999999\n",
      "note_on channel=9 note=40 velocity=111 time=0\n",
      "note_on channel=9 note=35 velocity=111 time=0\n",
      "note_on channel=1 note=39 velocity=116 time=0\n",
      "note_off channel=9 note=35 velocity=0 time=0.007812499999999999\n",
      "note_off channel=9 note=40 velocity=0 time=0\n",
      "note_off channel=9 note=42 velocity=0 time=0\n",
      "note_off channel=1 note=39 velocity=0 time=0.071875\n",
      "note_on channel=1 note=39 velocity=116 time=0.2203125\n",
      "note_off channel=1 note=39 velocity=0 time=0.28593749999999996\n",
      "note_on channel=9 note=42 velocity=80 time=0.0109375\n",
      "note_on channel=9 note=35 velocity=111 time=0\n",
      "note_on channel=1 note=36 velocity=113 time=0.0031249999999999997\n",
      "note_off channel=9 note=35 velocity=0 time=0.0046875\n",
      "note_off channel=9 note=42 velocity=0 time=0\n",
      "note_off channel=1 note=36 velocity=0 time=0.06874999999999999\n",
      "note_on channel=1 note=36 velocity=121 time=0.22656249999999997\n",
      "note_off channel=1 note=36 velocity=0 time=0.2765625\n",
      "note_on channel=9 note=35 velocity=111 time=0.020312499999999997\n",
      "note_on channel=1 note=31 velocity=118 time=0.0031249999999999997\n",
      "note_on channel=9 note=42 velocity=77 time=0.0031249999999999997\n",
      "note_on channel=9 note=40 velocity=108 time=0\n",
      "note_off channel=9 note=35 velocity=0 time=0.0015624999999999999\n",
      "note_off channel=9 note=40 velocity=0 time=0.0062499999999999995\n",
      "note_off channel=9 note=42 velocity=0 time=0\n",
      "note_off channel=1 note=31 velocity=0 time=0.25937499999999997\n",
      "note_on channel=1 note=34 velocity=118 time=0.0296875\n",
      "note_off channel=1 note=34 velocity=0 time=0.2578125\n",
      "note_on channel=1 note=36 velocity=118 time=0.042187499999999996\n",
      "note_on channel=9 note=42 velocity=80 time=0.009375\n",
      "note_on channel=9 note=35 velocity=111 time=0\n",
      "note_off channel=9 note=35 velocity=0 time=0.007812499999999999\n",
      "note_off channel=9 note=42 velocity=0 time=0\n",
      "note_off channel=1 note=36 velocity=0 time=0.08437499999999999\n",
      "note_on channel=1 note=36 velocity=118 time=0.1984375\n",
      "note_off channel=1 note=36 velocity=0 time=0.28593749999999996\n",
      "note_on channel=1 note=39 velocity=111 time=0.014062499999999999\n",
      "note_on channel=9 note=42 velocity=77 time=0.0031249999999999997\n",
      "note_on channel=9 note=40 velocity=106 time=0\n",
      "note_on channel=9 note=35 velocity=111 time=0.0062499999999999995\n",
      "note_off channel=9 note=40 velocity=0 time=0.0015624999999999999\n",
      "note_off channel=9 note=42 velocity=0 time=0\n",
      "note_off channel=9 note=35 velocity=0 time=0.0062499999999999995\n",
      "note_off channel=1 note=39 velocity=0 time=0.071875\n",
      "note_on channel=1 note=39 velocity=115 time=0.21093749999999997\n",
      "note_off channel=1 note=39 velocity=0 time=0.28593749999999996\n",
      "note_on channel=9 note=42 velocity=82 time=0.014062499999999999\n",
      "note_on channel=9 note=35 velocity=111 time=0\n",
      "note_on channel=1 note=36 velocity=119 time=0\n",
      "note_off channel=9 note=35 velocity=0 time=0.007812499999999999\n",
      "note_off channel=9 note=42 velocity=0 time=0\n",
      "note_off channel=1 note=36 velocity=0 time=0.08124999999999999\n",
      "note_on channel=1 note=36 velocity=120 time=0.21093749999999997\n",
      "note_off channel=1 note=36 velocity=0 time=0.2640625\n",
      "note_on channel=9 note=42 velocity=64 time=0.0359375\n",
      "note_on channel=9 note=40 velocity=111 time=0\n",
      "note_on channel=9 note=35 velocity=111 time=0\n",
      "note_on channel=1 note=31 velocity=120 time=0\n",
      "note_off channel=9 note=35 velocity=0 time=0.007812499999999999\n",
      "note_off channel=9 note=40 velocity=0 time=0\n",
      "note_off channel=9 note=42 velocity=0 time=0\n",
      "note_off channel=1 note=31 velocity=0 time=0.253125\n",
      "note_on channel=1 note=34 velocity=115 time=0.0390625\n",
      "note_off channel=1 note=34 velocity=0 time=0.28281249999999997\n",
      "note_on channel=9 note=42 velocity=80 time=0.017187499999999998\n",
      "note_on channel=9 note=35 velocity=110 time=0\n",
      "note_on channel=6 note=63 velocity=99 time=0\n",
      "note_on channel=6 note=60 velocity=99 time=0\n",
      "note_on channel=1 note=36 velocity=116 time=0\n",
      "note_on channel=6 note=48 velocity=101 time=0.0031249999999999997\n",
      "note_off channel=9 note=35 velocity=0 time=0.0046875\n",
      "note_off channel=9 note=42 velocity=0 time=0\n",
      "note_off channel=1 note=36 velocity=0 time=0.11249999999999999\n",
      "note_off channel=6 note=60 velocity=0 time=0.024999999999999998\n",
      "note_off channel=6 note=48 velocity=0 time=0.0031249999999999997\n",
      "note_off channel=6 note=63 velocity=0 time=0.012499999999999999\n",
      "note_on channel=6 note=67 velocity=97 time=0.13906249999999998\n",
      "note_on channel=1 note=36 velocity=117 time=0\n",
      "note_on channel=6 note=63 velocity=115 time=0.0031249999999999997\n",
      "note_on channel=6 note=60 velocity=118 time=0\n",
      "note_on channel=6 note=55 velocity=117 time=0\n",
      "note_off channel=6 note=60 velocity=0 time=0.0796875\n",
      "note_off channel=6 note=67 velocity=0 time=0.009375\n",
      "note_off channel=6 note=55 velocity=0 time=0.0031249999999999997\n",
      "note_off channel=6 note=63 velocity=0 time=0.01875\n",
      "note_off channel=1 note=36 velocity=0 time=0.17187499999999997\n",
      "note_on channel=9 note=42 velocity=72 time=0.014062499999999999\n",
      "note_on channel=9 note=40 velocity=111 time=0\n",
      "note_on channel=9 note=35 velocity=110 time=0\n",
      "note_on channel=1 note=39 velocity=113 time=0\n",
      "note_off channel=9 note=35 velocity=0 time=0.007812499999999999\n",
      "note_off channel=9 note=40 velocity=0 time=0\n",
      "note_off channel=9 note=42 velocity=0 time=0\n",
      "note_off channel=1 note=39 velocity=0 time=0.090625\n",
      "note_on channel=6 note=67 velocity=97 time=0.05468749999999999\n",
      "note_on channel=6 note=63 velocity=115 time=0.0031249999999999997\n",
      "note_on channel=6 note=58 velocity=119 time=0\n",
      "note_on channel=6 note=55 velocity=117 time=0\n",
      "note_off channel=6 note=58 velocity=0 time=0.0984375\n",
      "note_off channel=6 note=63 velocity=0 time=0.021875\n",
      "note_off channel=6 note=67 velocity=0 time=0\n",
      "note_off channel=6 note=55 velocity=0 time=0.0031249999999999997\n",
      "note_on channel=1 note=39 velocity=116 time=0.020312499999999997\n",
      "note_off channel=1 note=39 velocity=0 time=0.2765625\n",
      "note_on channel=9 note=42 velocity=77 time=0.020312499999999997\n",
      "note_on channel=6 note=67 velocity=95 time=0\n",
      "note_on channel=9 note=35 velocity=111 time=0.0031249999999999997\n",
      "note_on channel=6 note=63 velocity=116 time=0\n",
      "note_on channel=6 note=60 velocity=118 time=0\n",
      "note_on channel=6 note=55 velocity=115 time=0\n",
      "note_on channel=1 note=36 velocity=118 time=0\n",
      "note_off channel=9 note=42 velocity=0 time=0.0046875\n",
      "note_off channel=9 note=35 velocity=0 time=0.0031249999999999997\n",
      "note_off channel=6 note=60 velocity=0 time=0.06562499999999999\n",
      "note_off channel=6 note=67 velocity=0 time=0.028124999999999997\n",
      "note_off channel=6 note=55 velocity=0 time=0.0031249999999999997\n",
      "note_off channel=6 note=63 velocity=0 time=0.0031249999999999997\n",
      "note_off channel=1 note=36 velocity=0 time=0\n",
      "note_on channel=1 note=36 velocity=117 time=0.19218749999999998\n",
      "note_on channel=6 note=62 velocity=89 time=0.15\n",
      "note_on channel=6 note=58 velocity=113 time=0.0062499999999999995\n",
      "note_on channel=6 note=55 velocity=119 time=0\n",
      "note_on channel=6 note=50 velocity=106 time=0\n",
      "note_off channel=1 note=36 velocity=0 time=0.10468749999999999\n",
      "note_on channel=9 note=35 velocity=111 time=0.0390625\n",
      "note_on channel=1 note=31 velocity=117 time=0\n",
      "note_on channel=9 note=42 velocity=77 time=0.0031249999999999997\n",
      "note_on channel=9 note=40 velocity=108 time=0\n",
      "note_off channel=9 note=35 velocity=0 time=0.0046875\n",
      "note_off channel=9 note=40 velocity=0 time=0.0031249999999999997\n",
      "note_off channel=9 note=42 velocity=0 time=0\n",
      "note_off channel=6 note=50 velocity=0 time=0.21562499999999998\n",
      "note_off channel=1 note=31 velocity=0 time=0.015624999999999998\n",
      "note_off channel=6 note=62 velocity=0 time=0.015624999999999998\n",
      "note_off channel=6 note=55 velocity=0 time=0.0062499999999999995\n",
      "note_on channel=6 note=62 velocity=108 time=0.0296875\n",
      "note_on channel=6 note=50 velocity=94 time=0.0031249999999999997\n",
      "note_on channel=6 note=53 velocity=110 time=0.0031249999999999997\n",
      "note_on channel=1 note=34 velocity=114 time=0\n",
      "note_off channel=6 note=62 velocity=0 time=0.22343749999999998\n",
      "note_off channel=6 note=53 velocity=0 time=0.0062499999999999995\n",
      "note_off channel=6 note=50 velocity=0 time=0.009375\n",
      "note_off channel=6 note=58 velocity=0 time=0.012499999999999999\n",
      "note_off channel=1 note=34 velocity=0 time=0.012499999999999999\n",
      "note_on channel=6 note=67 velocity=97 time=0.0359375\n",
      "note_on channel=6 note=63 velocity=97 time=0\n",
      "note_on channel=6 note=60 velocity=97 time=0\n",
      "note_on channel=1 note=36 velocity=118 time=0\n",
      "note_on channel=6 note=48 velocity=97 time=0.0031249999999999997\n",
      "note_on channel=9 note=42 velocity=68 time=0.0062499999999999995\n",
      "note_on channel=9 note=35 velocity=111 time=0\n",
      "note_off channel=9 note=35 velocity=0 time=0.007812499999999999\n",
      "note_off channel=9 note=42 velocity=0 time=0\n",
      "note_off channel=6 note=67 velocity=0 time=0.06562499999999999\n",
      "note_off channel=1 note=36 velocity=0 time=0.009375\n",
      "note_off channel=6 note=60 velocity=0 time=0.053125\n",
      "note_off channel=6 note=48 velocity=0 time=0.0031249999999999997\n",
      "note_off channel=6 note=63 velocity=0 time=0.012499999999999999\n",
      "note_on channel=6 note=55 velocity=118 time=0.1359375\n",
      "note_on channel=6 note=63 velocity=115 time=0.0031249999999999997\n",
      "note_on channel=1 note=36 velocity=120 time=0\n",
      "note_on channel=6 note=60 velocity=105 time=0.0062499999999999995\n",
      "note_off channel=6 note=60 velocity=0 time=0.0359375\n",
      "note_off channel=6 note=63 velocity=0 time=0.103125\n",
      "note_off channel=6 note=55 velocity=0 time=0.0031249999999999997\n",
      "note_off channel=1 note=36 velocity=0 time=0.13749999999999998\n",
      "note_on channel=1 note=39 velocity=110 time=0.014062499999999999\n",
      "note_on channel=9 note=42 velocity=77 time=0.0031249999999999997\n",
      "note_on channel=9 note=40 velocity=106 time=0\n",
      "note_on channel=9 note=35 velocity=111 time=0.0062499999999999995\n",
      "note_off channel=9 note=40 velocity=0 time=0.0015624999999999999\n",
      "note_off channel=9 note=42 velocity=0 time=0\n",
      "note_off channel=9 note=35 velocity=0 time=0.0062499999999999995\n",
      "note_off channel=1 note=39 velocity=0 time=0.078125\n",
      "note_on channel=6 note=55 velocity=112 time=0.0515625\n",
      "note_on channel=6 note=63 velocity=113 time=0.0031249999999999997\n",
      "note_on channel=6 note=58 velocity=105 time=0\n",
      "note_off channel=6 note=58 velocity=0 time=0.11718749999999999\n",
      "note_off channel=6 note=63 velocity=0 time=0.012499999999999999\n",
      "note_off channel=6 note=55 velocity=0 time=0.009375\n",
      "note_on channel=1 note=39 velocity=120 time=0.0109375\n",
      "note_off channel=1 note=39 velocity=0 time=0.28593749999999996\n",
      "note_on channel=9 note=42 velocity=82 time=0.014062499999999999\n",
      "note_on channel=9 note=35 velocity=111 time=0\n",
      "note_on channel=6 note=63 velocity=114 time=0\n",
      "note_on channel=6 note=55 velocity=114 time=0\n",
      "note_on channel=1 note=36 velocity=118 time=0\n",
      "note_on channel=6 note=60 velocity=117 time=0.0031249999999999997\n",
      "note_off channel=9 note=35 velocity=0 time=0.0046875\n",
      "note_off channel=9 note=42 velocity=0 time=0\n",
      "note_off channel=6 note=60 velocity=0 time=0.06249999999999999\n",
      "note_off channel=1 note=36 velocity=0 time=0.009375\n",
      "note_off channel=6 note=63 velocity=0 time=0.024999999999999998\n",
      "note_off channel=6 note=55 velocity=0 time=0.012499999999999999\n",
      "note_on channel=1 note=36 velocity=120 time=0.1828125\n",
      "note_on channel=6 note=58 velocity=113 time=0.15625\n",
      "note_on channel=6 note=55 velocity=117 time=0\n",
      "note_on channel=6 note=50 velocity=114 time=0\n",
      "note_off channel=1 note=36 velocity=0 time=0.0953125\n",
      "note_on channel=9 note=42 velocity=82 time=0.048437499999999994\n",
      "note_on channel=9 note=40 velocity=111 time=0\n",
      "note_on channel=9 note=35 velocity=111 time=0\n",
      "note_on channel=1 note=31 velocity=108 time=0\n",
      "note_off channel=9 note=35 velocity=0 time=0.007812499999999999\n",
      "note_off channel=9 note=40 velocity=0 time=0\n",
      "note_off channel=9 note=42 velocity=0 time=0\n",
      "note_off channel=6 note=55 velocity=0 time=0.23437499999999997\n",
      "note_off channel=1 note=31 velocity=0 time=0.040624999999999994\n",
      "note_on channel=6 note=53 velocity=117 time=0.014062499999999999\n",
      "note_on channel=1 note=34 velocity=118 time=0.0031249999999999997\n",
      "note_off channel=1 note=34 velocity=0 time=0.14531249999999998\n",
      "note_off channel=6 note=50 velocity=0 time=0.031249999999999997\n",
      "note_off channel=6 note=53 velocity=0 time=0.049999999999999996\n",
      "note_off channel=6 note=58 velocity=0 time=0\n",
      "note_on channel=15 note=72 velocity=1 time=0.07343749999999999\n",
      "note_on channel=9 note=70 velocity=97 time=0\n",
      "note_on channel=9 note=42 velocity=80 time=0\n",
      "note_on channel=9 note=35 velocity=111 time=0\n",
      "note_on channel=6 note=63 velocity=99 time=0\n",
      "note_on channel=6 note=60 velocity=99 time=0\n",
      "note_on channel=4 note=79 velocity=99 time=0\n",
      "note_on channel=3 note=79 velocity=124 time=0\n",
      "note_on channel=1 note=36 velocity=118 time=0\n",
      "note_on channel=6 note=48 velocity=101 time=0.0031249999999999997\n",
      "note_off channel=9 note=35 velocity=0 time=0.0046875\n",
      "note_off channel=9 note=42 velocity=0 time=0\n",
      "note_off channel=9 note=70 velocity=0 time=0\n",
      "note_off channel=1 note=36 velocity=0 time=0.10625\n",
      "note_off channel=6 note=60 velocity=0 time=0.031249999999999997\n",
      "note_off channel=6 note=48 velocity=0 time=0.0031249999999999997\n",
      "note_off channel=6 note=63 velocity=0 time=0.012499999999999999\n",
      "note_on channel=9 note=70 velocity=84 time=0.13906249999999998\n",
      "note_on channel=6 note=67 velocity=97 time=0\n",
      "note_on channel=1 note=36 velocity=119 time=0\n",
      "note_on channel=6 note=63 velocity=115 time=0.0031249999999999997\n",
      "note_on channel=6 note=60 velocity=118 time=0\n",
      "note_on channel=6 note=55 velocity=117 time=0\n",
      "note_off channel=9 note=70 velocity=0 time=0.0046875\n",
      "note_off channel=6 note=60 velocity=0 time=0.075\n",
      "note_off channel=6 note=67 velocity=0 time=0.009375\n",
      "note_off channel=6 note=55 velocity=0 time=0.0031249999999999997\n",
      "note_off channel=6 note=63 velocity=0 time=0.01875\n",
      "note_off channel=4 note=79 velocity=0 time=0.0062499999999999995\n",
      "note_off channel=3 note=79 velocity=0 time=0\n",
      "note_on channel=4 note=77 velocity=100 time=0.1640625\n",
      "note_on channel=3 note=77 velocity=125 time=0\n",
      "note_off channel=1 note=36 velocity=0 time=0.0015624999999999999\n",
      "note_off channel=15 note=72 velocity=0 time=0.009375\n",
      "note_on channel=15 note=67 velocity=1 time=0.0046875\n",
      "note_on channel=9 note=70 velocity=87 time=0\n",
      "note_on channel=9 note=42 velocity=72 time=0\n",
      "note_on channel=9 note=40 velocity=111 time=0\n",
      "note_on channel=9 note=35 velocity=111 time=0\n",
      "note_on channel=1 note=39 velocity=116 time=0\n",
      "note_off channel=9 note=35 velocity=0 time=0.007812499999999999\n",
      "note_off channel=9 note=40 velocity=0 time=0\n",
      "note_off channel=9 note=42 velocity=0 time=0\n",
      "note_off channel=9 note=70 velocity=0 time=0\n",
      "note_off channel=1 note=39 velocity=0 time=0.071875\n",
      "note_off channel=3 note=77 velocity=0 time=0.053125\n",
      "note_on channel=4 note=75 velocity=97 time=0.007812499999999999\n",
      "note_on channel=3 note=75 velocity=122 time=0\n",
      "note_off channel=4 note=77 velocity=0 time=0.0046875\n",
      "note_on channel=6 note=67 velocity=97 time=0.007812499999999999\n",
      "note_on channel=6 note=63 velocity=115 time=0.0031249999999999997\n",
      "note_on channel=6 note=58 velocity=119 time=0\n",
      "note_on channel=6 note=55 velocity=117 time=0\n",
      "note_off channel=6 note=58 velocity=0 time=0.0984375\n",
      "note_off channel=6 note=63 velocity=0 time=0.021875\n",
      "note_off channel=6 note=67 velocity=0 time=0\n",
      "note_off channel=6 note=55 velocity=0 time=0.0031249999999999997\n",
      "note_on channel=9 note=70 velocity=72 time=0.020312499999999997\n",
      "note_on channel=1 note=39 velocity=116 time=0\n",
      "note_off channel=9 note=70 velocity=0 time=0.007812499999999999\n",
      "note_off channel=4 note=75 velocity=0 time=0.08124999999999999\n",
      "note_off channel=3 note=75 velocity=0 time=0\n",
      "note_off channel=15 note=67 velocity=0 time=0.056249999999999994\n",
      "note_on channel=15 note=72 velocity=1 time=0.0046875\n",
      "note_on channel=4 note=79 velocity=98 time=0.024999999999999998\n",
      "note_on channel=3 note=79 velocity=123 time=0\n",
      "note_off channel=1 note=39 velocity=0 time=0.1109375\n",
      "note_on channel=9 note=42 velocity=80 time=0.0109375\n",
      "note_on channel=9 note=35 velocity=111 time=0\n",
      "note_on channel=6 note=67 velocity=95 time=0\n",
      "note_on channel=9 note=70 velocity=91 time=0.0031249999999999997\n",
      "note_on channel=6 note=63 velocity=116 time=0\n",
      "note_on channel=6 note=60 velocity=118 time=0\n",
      "note_on channel=6 note=55 velocity=115 time=0\n",
      "note_on channel=1 note=36 velocity=113 time=0\n",
      "note_off channel=9 note=35 velocity=0 time=0.0046875\n",
      "note_off channel=9 note=42 velocity=0 time=0\n",
      "note_off channel=9 note=70 velocity=0 time=0.0031249999999999997\n",
      "note_on channel=5 note=65 velocity=125 time=0.0109375\n",
      "note_off channel=6 note=60 velocity=0 time=0.05468749999999999\n",
      "note_off channel=1 note=36 velocity=0 time=0\n",
      "note_off channel=6 note=67 velocity=0 time=0.028124999999999997\n",
      "note_off channel=6 note=55 velocity=0 time=0.0031249999999999997\n",
      "note_off channel=6 note=63 velocity=0 time=0.0031249999999999997\n",
      "note_off channel=5 note=65 velocity=0 time=0.04687499999999999\n",
      "note_on channel=5 note=66 velocity=116 time=0.0015624999999999999\n",
      "note_off channel=5 note=66 velocity=0 time=0.1140625\n",
      "note_on channel=9 note=70 velocity=78 time=0.0296875\n",
      "note_on channel=1 note=36 velocity=121 time=0\n",
      "note_on channel=5 note=67 velocity=117 time=0.0062499999999999995\n",
      "note_off channel=9 note=70 velocity=0 time=0.0015624999999999999\n",
      "note_off channel=5 note=67 velocity=0 time=0.13124999999999998\n",
      "note_on channel=6 note=62 velocity=89 time=0.0109375\n",
      "note_on channel=6 note=58 velocity=113 time=0.0062499999999999995\n",
      "note_on channel=6 note=55 velocity=119 time=0\n",
      "note_on channel=6 note=50 velocity=106 time=0\n",
      "note_on channel=5 note=70 velocity=122 time=0.0031249999999999997\n",
      "note_off channel=4 note=79 velocity=0 time=0.0015624999999999999\n",
      "note_off channel=3 note=79 velocity=0 time=0\n",
      "note_off channel=5 note=70 velocity=0 time=0.08437499999999999\n",
      "note_on channel=5 note=75 velocity=121 time=0.0109375\n",
      "note_off channel=1 note=36 velocity=0 time=0.020312499999999997\n",
      "note_on channel=9 note=35 velocity=111 time=0.020312499999999997\n",
      "note_on channel=9 note=70 velocity=94 time=0.0031249999999999997\n",
      "note_on channel=1 note=31 velocity=118 time=0\n",
      "note_on channel=9 note=42 velocity=77 time=0.0031249999999999997\n",
      "note_on channel=9 note=40 velocity=108 time=0\n",
      "note_off channel=9 note=35 velocity=0 time=0.0015624999999999999\n",
      "note_off channel=9 note=70 velocity=0 time=0.0031249999999999997\n",
      "note_off channel=9 note=40 velocity=0 time=0.0031249999999999997\n",
      "note_off channel=9 note=42 velocity=0 time=0\n",
      "note_off channel=5 note=75 velocity=0 time=0.08437499999999999\n",
      "note_on channel=5 note=72 velocity=119 time=0.0390625\n",
      "note_off channel=6 note=50 velocity=0 time=0.09218749999999999\n",
      "note_off channel=5 note=72 velocity=0 time=0.012499999999999999\n",
      "note_off channel=6 note=62 velocity=0 time=0.01875\n",
      "note_off channel=6 note=55 velocity=0 time=0.0062499999999999995\n",
      "note_on channel=5 note=77 velocity=114 time=0.0046875\n",
      "note_off channel=1 note=31 velocity=0 time=0.0015624999999999999\n",
      "note_off channel=6 note=58 velocity=0 time=0.01875\n",
      "note_on channel=6 note=50 velocity=94 time=0.007812499999999999\n",
      "note_on channel=9 note=70 velocity=80 time=0.0031249999999999997\n",
      "note_on channel=6 note=58 velocity=90 time=0\n",
      "note_on channel=6 note=53 velocity=110 time=0\n",
      "note_on channel=1 note=34 velocity=118 time=0\n",
      "note_off channel=9 note=70 velocity=0 time=0.007812499999999999\n",
      "note_on channel=5 note=75 velocity=115 time=0.12968749999999998\n",
      "note_off channel=5 note=77 velocity=0 time=0.017187499999999998\n",
      "note_off channel=6 note=58 velocity=0 time=0.071875\n",
      "note_off channel=6 note=53 velocity=0 time=0.0031249999999999997\n",
      "note_off channel=6 note=50 velocity=0 time=0.009375\n",
      "note_off channel=1 note=34 velocity=0 time=0.01875\n",
      "note_off channel=15 note=72 velocity=0 time=0.0375\n",
      "note_on channel=9 note=70 velocity=85 time=0.0046875\n",
      "note_on channel=6 note=67 velocity=97 time=0\n",
      "note_on channel=6 note=63 velocity=97 time=0\n",
      "note_on channel=6 note=60 velocity=97 time=0\n",
      "note_on channel=1 note=36 velocity=118 time=0\n",
      "note_on channel=6 note=48 velocity=97 time=0.0031249999999999997\n",
      "note_off channel=9 note=70 velocity=0 time=0.0046875\n",
      "note_on channel=9 note=42 velocity=80 time=0.0015624999999999999\n",
      "note_on channel=9 note=35 velocity=111 time=0\n",
      "note_off channel=9 note=35 velocity=0 time=0.007812499999999999\n",
      "note_off channel=9 note=42 velocity=0 time=0\n",
      "note_off channel=6 note=67 velocity=0 time=0.06562499999999999\n",
      "note_off channel=1 note=36 velocity=0 time=0.01875\n",
      "note_off channel=6 note=60 velocity=0 time=0.04375\n",
      "note_off channel=6 note=48 velocity=0 time=0.0031249999999999997\n",
      "note_off channel=6 note=63 velocity=0 time=0.012499999999999999\n",
      "note_on channel=6 note=55 velocity=118 time=0.1359375\n",
      "note_on channel=9 note=70 velocity=82 time=0.0031249999999999997\n",
      "note_on channel=6 note=63 velocity=115 time=0\n",
      "note_on channel=1 note=36 velocity=118 time=0\n",
      "note_on channel=6 note=60 velocity=105 time=0.0062499999999999995\n",
      "note_off channel=9 note=70 velocity=0 time=0.0015624999999999999\n",
      "note_off channel=6 note=60 velocity=0 time=0.034374999999999996\n",
      "note_off channel=6 note=63 velocity=0 time=0.103125\n",
      "note_off channel=6 note=55 velocity=0 time=0.0031249999999999997\n",
      "note_off channel=1 note=36 velocity=0 time=0.13749999999999998\n",
      "note_on channel=9 note=70 velocity=91 time=0.014062499999999999\n",
      "note_on channel=1 note=39 velocity=111 time=0\n",
      "note_on channel=9 note=42 velocity=77 time=0.0031249999999999997\n",
      "note_on channel=9 note=40 velocity=106 time=0\n",
      "note_off channel=9 note=70 velocity=0 time=0.0046875\n",
      "note_on channel=9 note=35 velocity=111 time=0.0015624999999999999\n",
      "note_off channel=9 note=40 velocity=0 time=0.0015624999999999999\n",
      "note_off channel=9 note=42 velocity=0 time=0\n",
      "note_off channel=9 note=35 velocity=0 time=0.0062499999999999995\n",
      "note_off channel=1 note=39 velocity=0 time=0.071875\n",
      "note_on channel=6 note=55 velocity=112 time=0.057812499999999996\n",
      "note_on channel=6 note=63 velocity=113 time=0.0031249999999999997\n",
      "note_on channel=6 note=58 velocity=105 time=0\n",
      "note_off channel=6 note=58 velocity=0 time=0.11718749999999999\n",
      "note_off channel=6 note=63 velocity=0 time=0.012499999999999999\n",
      "note_off channel=6 note=55 velocity=0 time=0.009375\n",
      "note_on channel=9 note=70 velocity=81 time=0.0109375\n",
      "note_on channel=1 note=39 velocity=115 time=0\n",
      "note_off channel=9 note=70 velocity=0 time=0.007812499999999999\n",
      "note_off channel=1 note=39 velocity=0 time=0.27812499999999996\n",
      "note_on channel=9 note=70 velocity=85 time=0.014062499999999999\n",
      "note_on channel=9 note=42 velocity=82 time=0\n",
      "note_on channel=9 note=35 velocity=111 time=0\n",
      "note_on channel=6 note=63 velocity=114 time=0\n",
      "note_on channel=6 note=55 velocity=114 time=0\n",
      "note_on channel=1 note=36 velocity=119 time=0\n",
      "note_on channel=6 note=60 velocity=117 time=0.0031249999999999997\n",
      "note_off channel=9 note=35 velocity=0 time=0.0046875\n",
      "note_off channel=9 note=42 velocity=0 time=0\n",
      "note_off channel=9 note=70 velocity=0 time=0\n",
      "note_off channel=6 note=60 velocity=0 time=0.06249999999999999\n",
      "note_off channel=1 note=36 velocity=0 time=0.01875\n",
      "note_off channel=6 note=63 velocity=0 time=0.015624999999999998\n",
      "note_off channel=6 note=55 velocity=0 time=0.012499999999999999\n",
      "note_on channel=9 note=70 velocity=80 time=0.1828125\n",
      "note_on channel=1 note=36 velocity=120 time=0\n",
      "note_off channel=9 note=70 velocity=0 time=0.007812499999999999\n",
      "note_on channel=6 note=58 velocity=113 time=0.1484375\n",
      "note_on channel=6 note=55 velocity=117 time=0\n",
      "note_on channel=6 note=50 velocity=114 time=0\n",
      "note_off channel=1 note=36 velocity=0 time=0.10781249999999999\n",
      "note_on channel=9 note=70 velocity=91 time=0.0359375\n",
      "note_on channel=9 note=42 velocity=64 time=0\n",
      "note_on channel=9 note=40 velocity=111 time=0\n",
      "note_on channel=9 note=35 velocity=111 time=0\n",
      "note_on channel=1 note=31 velocity=120 time=0\n",
      "note_off channel=9 note=35 velocity=0 time=0.007812499999999999\n",
      "note_off channel=9 note=40 velocity=0 time=0\n",
      "note_off channel=9 note=42 velocity=0 time=0\n",
      "note_off channel=9 note=70 velocity=0 time=0\n",
      "note_off channel=6 note=55 velocity=0 time=0.23437499999999997\n",
      "note_off channel=1 note=31 velocity=0 time=0.01875\n",
      "note_off channel=5 note=75 velocity=0 time=0.009375\n",
      "note_on channel=6 note=53 velocity=117 time=0.0265625\n",
      "note_on channel=9 note=70 velocity=84 time=0.0031249999999999997\n",
      "note_on channel=1 note=34 velocity=115 time=0\n",
      "note_off channel=9 note=70 velocity=0 time=0.007812499999999999\n",
      "note_off channel=6 note=50 velocity=0 time=0.16874999999999998\n",
      "note_off channel=6 note=53 velocity=0 time=0.049999999999999996\n",
      "note_off channel=6 note=58 velocity=0 time=0\n",
      "note_off channel=1 note=34 velocity=0 time=0.056249999999999994\n",
      "note_on channel=15 note=72 velocity=1 time=0.017187499999999998\n",
      "note_on channel=9 note=70 velocity=97 time=0\n",
      "note_on channel=9 note=42 velocity=80 time=0\n",
      "note_on channel=9 note=35 velocity=110 time=0\n",
      "note_on channel=6 note=63 velocity=99 time=0\n",
      "note_on channel=6 note=60 velocity=99 time=0\n",
      "note_on channel=1 note=36 velocity=116 time=0\n",
      "note_on channel=6 note=48 velocity=101 time=0.0031249999999999997\n",
      "note_on channel=4 note=72 velocity=100 time=0\n",
      "note_on channel=3 note=72 velocity=125 time=0\n",
      "note_off channel=9 note=35 velocity=0 time=0.0046875\n",
      "note_off channel=9 note=42 velocity=0 time=0\n",
      "note_off channel=9 note=70 velocity=0 time=0\n",
      "note_off channel=1 note=36 velocity=0 time=0.11249999999999999\n",
      "note_off channel=6 note=60 velocity=0 time=0.024999999999999998\n",
      "note_off channel=6 note=48 velocity=0 time=0.0031249999999999997\n",
      "note_off channel=6 note=63 velocity=0 time=0.012499999999999999\n",
      "note_on channel=9 note=70 velocity=84 time=0.13906249999999998\n",
      "note_on channel=6 note=67 velocity=97 time=0\n",
      "note_on channel=1 note=36 velocity=117 time=0\n",
      "note_on channel=6 note=63 velocity=115 time=0.0031249999999999997\n",
      "note_on channel=6 note=60 velocity=118 time=0\n",
      "note_on channel=6 note=55 velocity=117 time=0\n",
      "note_off channel=9 note=70 velocity=0 time=0.0046875\n",
      "note_off channel=6 note=60 velocity=0 time=0.075\n",
      "note_off channel=6 note=67 velocity=0 time=0.009375\n",
      "note_off channel=6 note=55 velocity=0 time=0.0031249999999999997\n",
      "note_off channel=4 note=72 velocity=0 time=0.0031249999999999997\n",
      "note_off channel=3 note=72 velocity=0 time=0\n",
      "note_off channel=6 note=63 velocity=0 time=0.015624999999999998\n",
      "note_off channel=1 note=36 velocity=0 time=0.17187499999999997\n",
      "note_on channel=4 note=75 velocity=101 time=0.007812499999999999\n",
      "note_on channel=3 note=75 velocity=126 time=0\n",
      "note_off channel=15 note=72 velocity=0 time=0.0015624999999999999\n",
      "note_on channel=15 note=67 velocity=1 time=0.0046875\n",
      "note_on channel=9 note=70 velocity=87 time=0\n",
      "note_on channel=9 note=42 velocity=72 time=0\n",
      "note_on channel=9 note=40 velocity=111 time=0\n",
      "note_on channel=9 note=35 velocity=110 time=0\n",
      "note_on channel=1 note=39 velocity=113 time=0\n",
      "note_off channel=9 note=35 velocity=0 time=0.007812499999999999\n",
      "note_off channel=9 note=40 velocity=0 time=0\n",
      "note_off channel=9 note=42 velocity=0 time=0\n",
      "note_off channel=9 note=70 velocity=0 time=0\n",
      "note_off channel=1 note=39 velocity=0 time=0.090625\n",
      "note_off channel=4 note=75 velocity=0 time=0.024999999999999998\n",
      "note_off channel=3 note=75 velocity=0 time=0\n",
      "note_on channel=6 note=67 velocity=97 time=0.0296875\n",
      "note_on channel=6 note=63 velocity=115 time=0.0031249999999999997\n",
      "note_on channel=6 note=58 velocity=119 time=0\n",
      "note_on channel=6 note=55 velocity=117 time=0\n",
      "note_on channel=4 note=77 velocity=96 time=0\n",
      "note_on channel=3 note=77 velocity=121 time=0\n",
      "note_off channel=6 note=58 velocity=0 time=0.0984375\n",
      "note_off channel=6 note=63 velocity=0 time=0.021875\n",
      "note_off channel=6 note=67 velocity=0 time=0\n",
      "note_off channel=6 note=55 velocity=0 time=0.0031249999999999997\n",
      "note_on channel=9 note=70 velocity=72 time=0.020312499999999997\n",
      "note_on channel=1 note=39 velocity=116 time=0\n",
      "note_off channel=9 note=70 velocity=0 time=0.007812499999999999\n",
      "note_off channel=15 note=67 velocity=0 time=0.13749999999999998\n",
      "note_on channel=15 note=72 velocity=1 time=0.0046875\n",
      "note_off channel=4 note=77 velocity=0 time=0.0015624999999999999\n",
      "note_off channel=3 note=77 velocity=0 time=0\n",
      "note_on channel=4 note=72 velocity=100 time=0.0265625\n",
      "note_on channel=3 note=72 velocity=125 time=0\n",
      "note_off channel=1 note=39 velocity=0 time=0.0984375\n",
      "note_on channel=9 note=42 velocity=77 time=0.020312499999999997\n",
      "note_on channel=6 note=67 velocity=95 time=0\n",
      "note_on channel=9 note=70 velocity=91 time=0.0031249999999999997\n",
      "note_on channel=9 note=35 velocity=111 time=0\n",
      "note_on channel=6 note=63 velocity=116 time=0\n",
      "note_on channel=6 note=60 velocity=118 time=0\n",
      "note_on channel=6 note=55 velocity=115 time=0\n",
      "note_on channel=1 note=36 velocity=118 time=0\n",
      "note_on channel=5 note=65 velocity=125 time=0.0031249999999999997\n",
      "note_off channel=9 note=42 velocity=0 time=0.0015624999999999999\n",
      "note_off channel=9 note=35 velocity=0 time=0.0031249999999999997\n",
      "note_off channel=9 note=70 velocity=0 time=0\n",
      "note_off channel=6 note=60 velocity=0 time=0.06562499999999999\n",
      "note_off channel=6 note=67 velocity=0 time=0.028124999999999997\n",
      "note_off channel=6 note=55 velocity=0 time=0.0031249999999999997\n",
      "note_off channel=6 note=63 velocity=0 time=0.0031249999999999997\n",
      "note_off channel=1 note=36 velocity=0 time=0\n",
      "note_off channel=5 note=65 velocity=0 time=0.024999999999999998\n",
      "note_on channel=5 note=66 velocity=118 time=0.0109375\n",
      "note_off channel=5 note=66 velocity=0 time=0.1109375\n",
      "note_on channel=5 note=67 velocity=115 time=0.0390625\n",
      "note_on channel=9 note=70 velocity=78 time=0.0062499999999999995\n",
      "note_on channel=1 note=36 velocity=117 time=0\n",
      "note_off channel=9 note=70 velocity=0 time=0.007812499999999999\n",
      "note_off channel=5 note=67 velocity=0 time=0.11875\n",
      "note_on channel=5 note=70 velocity=121 time=0.017187499999999998\n",
      "note_on channel=6 note=62 velocity=89 time=0.0062499999999999995\n",
      "note_on channel=6 note=58 velocity=113 time=0.0062499999999999995\n",
      "note_on channel=6 note=55 velocity=119 time=0\n",
      "note_on channel=6 note=50 velocity=106 time=0\n",
      "note_off channel=5 note=70 velocity=0 time=0.07343749999999999\n",
      "note_off channel=4 note=72 velocity=0 time=0.021875\n",
      "note_off channel=3 note=72 velocity=0 time=0\n",
      "note_off channel=1 note=36 velocity=0 time=0.009375\n",
      "note_on channel=5 note=72 velocity=120 time=0.017187499999999998\n",
      "note_on channel=9 note=70 velocity=94 time=0.021875\n",
      "note_on channel=9 note=35 velocity=111 time=0\n",
      "note_on channel=1 note=31 velocity=117 time=0\n",
      "note_on channel=9 note=42 velocity=77 time=0.0031249999999999997\n",
      "note_on channel=9 note=40 velocity=108 time=0\n",
      "note_off channel=9 note=35 velocity=0 time=0.0046875\n",
      "note_off channel=9 note=70 velocity=0 time=0\n",
      "note_off channel=9 note=40 velocity=0 time=0.0031249999999999997\n",
      "note_off channel=9 note=42 velocity=0 time=0\n",
      "note_off channel=5 note=72 velocity=0 time=0.10937499999999999\n",
      "note_on channel=5 note=70 velocity=117 time=0.017187499999999998\n",
      "note_off channel=5 note=70 velocity=0 time=0.0828125\n",
      "note_off channel=6 note=50 velocity=0 time=0.0062499999999999995\n",
      "note_off channel=1 note=31 velocity=0 time=0.015624999999999998\n",
      "note_off channel=6 note=62 velocity=0 time=0.015624999999999998\n",
      "note_off channel=6 note=55 velocity=0 time=0.0062499999999999995\n",
      "note_on channel=5 note=75 velocity=111 time=0.007812499999999999\n",
      "note_on channel=6 note=62 velocity=68 time=0.021875\n",
      "note_on channel=6 note=50 velocity=94 time=0.0031249999999999997\n",
      "note_on channel=9 note=70 velocity=80 time=0.0031249999999999997\n",
      "note_on channel=6 note=53 velocity=110 time=0\n",
      "note_on channel=1 note=34 velocity=114 time=0\n",
      "note_off channel=9 note=70 velocity=0 time=0.007812499999999999\n",
      "note_off channel=5 note=75 velocity=0 time=0.11562499999999999\n",
      "note_on channel=5 note=72 velocity=117 time=0.007812499999999999\n",
      "note_off channel=6 note=62 velocity=0 time=0.09218749999999999\n",
      "note_off channel=6 note=53 velocity=0 time=0.0062499999999999995\n",
      "note_off channel=6 note=50 velocity=0 time=0.009375\n",
      "note_off channel=6 note=58 velocity=0 time=0.012499999999999999\n",
      "note_off channel=1 note=34 velocity=0 time=0.012499999999999999\n",
      "note_off channel=15 note=72 velocity=0 time=0.031249999999999997\n",
      "note_on channel=9 note=70 velocity=85 time=0.0046875\n",
      "note_on channel=6 note=67 velocity=97 time=0\n",
      "note_on channel=6 note=63 velocity=97 time=0\n",
      "note_on channel=6 note=60 velocity=97 time=0\n",
      "note_on channel=1 note=36 velocity=118 time=0\n",
      "note_on channel=6 note=48 velocity=97 time=0.0031249999999999997\n",
      "note_off channel=9 note=70 velocity=0 time=0.0046875\n",
      "note_on channel=9 note=42 velocity=68 time=0.0015624999999999999\n",
      "note_on channel=9 note=35 velocity=111 time=0\n",
      "note_off channel=9 note=35 velocity=0 time=0.007812499999999999\n",
      "note_off channel=9 note=42 velocity=0 time=0\n",
      "note_off channel=6 note=67 velocity=0 time=0.06562499999999999\n",
      "note_off channel=1 note=36 velocity=0 time=0.009375\n",
      "note_off channel=6 note=60 velocity=0 time=0.053125\n",
      "note_off channel=6 note=48 velocity=0 time=0.0031249999999999997\n",
      "note_off channel=6 note=63 velocity=0 time=0.012499999999999999\n",
      "note_on channel=6 note=55 velocity=118 time=0.1359375\n",
      "note_on channel=9 note=70 velocity=82 time=0.0031249999999999997\n",
      "note_on channel=6 note=63 velocity=115 time=0\n",
      "note_on channel=1 note=36 velocity=120 time=0\n",
      "note_on channel=6 note=60 velocity=105 time=0.0062499999999999995\n",
      "note_off channel=9 note=70 velocity=0 time=0.0015624999999999999\n",
      "note_off channel=6 note=60 velocity=0 time=0.034374999999999996\n",
      "note_off channel=6 note=63 velocity=0 time=0.103125\n",
      "note_off channel=6 note=55 velocity=0 time=0.0031249999999999997\n",
      "note_off channel=1 note=36 velocity=0 time=0.13749999999999998\n",
      "note_on channel=9 note=70 velocity=91 time=0.014062499999999999\n",
      "note_on channel=1 note=39 velocity=110 time=0\n",
      "note_on channel=9 note=42 velocity=77 time=0.0031249999999999997\n",
      "note_on channel=9 note=40 velocity=106 time=0\n",
      "note_off channel=9 note=70 velocity=0 time=0.0046875\n",
      "note_on channel=9 note=35 velocity=111 time=0.0015624999999999999\n",
      "note_off channel=9 note=40 velocity=0 time=0.0015624999999999999\n",
      "note_off channel=9 note=42 velocity=0 time=0\n",
      "note_off channel=9 note=35 velocity=0 time=0.0062499999999999995\n",
      "note_off channel=1 note=39 velocity=0 time=0.078125\n",
      "note_on channel=6 note=55 velocity=112 time=0.0515625\n",
      "note_on channel=6 note=63 velocity=113 time=0.0031249999999999997\n",
      "note_on channel=6 note=58 velocity=105 time=0\n",
      "note_off channel=6 note=58 velocity=0 time=0.11718749999999999\n",
      "note_off channel=6 note=63 velocity=0 time=0.012499999999999999\n",
      "note_off channel=6 note=55 velocity=0 time=0.009375\n",
      "note_on channel=9 note=70 velocity=81 time=0.0109375\n",
      "note_on channel=1 note=39 velocity=120 time=0\n",
      "note_off channel=9 note=70 velocity=0 time=0.007812499999999999\n",
      "note_off channel=1 note=39 velocity=0 time=0.27812499999999996\n",
      "note_on channel=9 note=70 velocity=85 time=0.014062499999999999\n",
      "note_on channel=9 note=42 velocity=82 time=0\n",
      "note_on channel=9 note=35 velocity=111 time=0\n",
      "note_on channel=6 note=63 velocity=114 time=0\n",
      "note_on channel=6 note=55 velocity=114 time=0\n",
      "note_on channel=1 note=36 velocity=118 time=0\n",
      "note_on channel=6 note=60 velocity=117 time=0.0031249999999999997\n",
      "note_off channel=9 note=35 velocity=0 time=0.0046875\n",
      "note_off channel=9 note=42 velocity=0 time=0\n",
      "note_off channel=9 note=70 velocity=0 time=0\n",
      "note_off channel=6 note=60 velocity=0 time=0.06249999999999999\n",
      "note_off channel=1 note=36 velocity=0 time=0.009375\n",
      "note_off channel=6 note=63 velocity=0 time=0.024999999999999998\n",
      "note_off channel=6 note=55 velocity=0 time=0.012499999999999999\n",
      "note_on channel=9 note=70 velocity=80 time=0.1828125\n",
      "note_on channel=1 note=36 velocity=120 time=0\n",
      "note_off channel=9 note=70 velocity=0 time=0.007812499999999999\n",
      "note_on channel=6 note=58 velocity=113 time=0.1484375\n",
      "note_on channel=6 note=55 velocity=117 time=0\n",
      "note_on channel=6 note=50 velocity=114 time=0\n",
      "note_off channel=1 note=36 velocity=0 time=0.0953125\n",
      "note_on channel=9 note=70 velocity=91 time=0.048437499999999994\n",
      "note_on channel=9 note=42 velocity=82 time=0\n",
      "note_on channel=9 note=40 velocity=111 time=0\n",
      "note_on channel=9 note=35 velocity=111 time=0\n",
      "note_on channel=1 note=31 velocity=108 time=0\n",
      "note_off channel=9 note=35 velocity=0 time=0.007812499999999999\n",
      "note_off channel=9 note=40 velocity=0 time=0\n",
      "note_off channel=9 note=42 velocity=0 time=0\n",
      "note_off channel=9 note=70 velocity=0 time=0\n",
      "note_off channel=6 note=55 velocity=0 time=0.23437499999999997\n",
      "note_off channel=5 note=72 velocity=0 time=0.015624999999999998\n",
      "note_off channel=1 note=31 velocity=0 time=0.024999999999999998\n",
      "note_on channel=6 note=53 velocity=117 time=0.014062499999999999\n",
      "note_on channel=9 note=70 velocity=84 time=0.0031249999999999997\n",
      "note_on channel=1 note=34 velocity=118 time=0\n",
      "note_off channel=9 note=70 velocity=0 time=0.007812499999999999\n",
      "note_off channel=1 note=34 velocity=0 time=0.13749999999999998\n",
      "note_off channel=6 note=50 velocity=0 time=0.031249999999999997\n",
      "note_off channel=6 note=53 velocity=0 time=0.049999999999999996\n",
      "note_off channel=6 note=58 velocity=0 time=0\n",
      "note_on channel=4 note=79 velocity=99 time=0.0640625\n",
      "note_on channel=3 note=79 velocity=124 time=0\n",
      "note_on channel=15 note=72 velocity=1 time=0.009375\n",
      "note_on channel=9 note=70 velocity=97 time=0\n",
      "note_on channel=9 note=42 velocity=80 time=0\n",
      "note_on channel=9 note=35 velocity=111 time=0\n",
      "note_on channel=6 note=63 velocity=99 time=0\n",
      "note_on channel=6 note=60 velocity=99 time=0\n",
      "note_on channel=1 note=36 velocity=118 time=0\n",
      "note_on channel=6 note=48 velocity=101 time=0.0031249999999999997\n",
      "note_off channel=9 note=35 velocity=0 time=0.0046875\n",
      "note_off channel=9 note=42 velocity=0 time=0\n",
      "note_off channel=9 note=70 velocity=0 time=0\n",
      "note_off channel=1 note=36 velocity=0 time=0.10625\n",
      "note_off channel=6 note=60 velocity=0 time=0.031249999999999997\n",
      "note_off channel=6 note=48 velocity=0 time=0.0031249999999999997\n",
      "note_off channel=6 note=63 velocity=0 time=0.012499999999999999\n",
      "note_on channel=9 note=70 velocity=84 time=0.13906249999999998\n",
      "note_on channel=6 note=67 velocity=97 time=0\n",
      "note_on channel=1 note=36 velocity=119 time=0\n",
      "note_on channel=6 note=63 velocity=115 time=0.0031249999999999997\n",
      "note_on channel=6 note=60 velocity=118 time=0\n",
      "note_on channel=6 note=55 velocity=117 time=0\n",
      "note_off channel=9 note=70 velocity=0 time=0.0046875\n",
      "note_off channel=6 note=60 velocity=0 time=0.075\n",
      "note_off channel=6 note=67 velocity=0 time=0.009375\n",
      "note_off channel=6 note=55 velocity=0 time=0.0031249999999999997\n",
      "note_off channel=6 note=63 velocity=0 time=0.01875\n",
      "note_off channel=4 note=79 velocity=0 time=0.0375\n",
      "note_off channel=3 note=79 velocity=0 time=0\n",
      "note_off channel=1 note=36 velocity=0 time=0.134375\n",
      "note_on channel=4 note=77 velocity=98 time=0.0046875\n",
      "note_on channel=3 note=77 velocity=123 time=0\n",
      "note_off channel=15 note=72 velocity=0 time=0.0046875\n",
      "note_on channel=15 note=67 velocity=1 time=0.0046875\n",
      "note_on channel=9 note=70 velocity=87 time=0\n",
      "note_on channel=9 note=42 velocity=72 time=0\n",
      "note_on channel=9 note=40 velocity=111 time=0\n",
      "note_on channel=9 note=35 velocity=111 time=0\n",
      "note_on channel=1 note=39 velocity=116 time=0\n",
      "note_off channel=9 note=35 velocity=0 time=0.007812499999999999\n",
      "note_off channel=9 note=40 velocity=0 time=0\n",
      "note_off channel=9 note=42 velocity=0 time=0\n",
      "note_off channel=9 note=70 velocity=0 time=0\n",
      "note_off channel=1 note=39 velocity=0 time=0.071875\n",
      "note_off channel=3 note=77 velocity=0 time=0.059375\n",
      "note_off channel=4 note=77 velocity=0 time=0.0031249999999999997\n",
      "note_on channel=4 note=75 velocity=99 time=0.0046875\n",
      "note_on channel=3 note=75 velocity=124 time=0\n",
      "note_on channel=6 note=67 velocity=97 time=0.0062499999999999995\n",
      "note_on channel=6 note=63 velocity=115 time=0.0031249999999999997\n",
      "note_on channel=6 note=58 velocity=119 time=0\n",
      "note_on channel=6 note=55 velocity=117 time=0\n",
      "note_off channel=6 note=58 velocity=0 time=0.0984375\n",
      "note_off channel=6 note=63 velocity=0 time=0.021875\n",
      "note_off channel=6 note=67 velocity=0 time=0\n",
      "note_off channel=6 note=55 velocity=0 time=0.0031249999999999997\n",
      "note_on channel=9 note=70 velocity=72 time=0.020312499999999997\n",
      "note_on channel=1 note=39 velocity=116 time=0\n",
      "note_off channel=9 note=70 velocity=0 time=0.007812499999999999\n",
      "note_off channel=15 note=67 velocity=0 time=0.13749999999999998\n",
      "note_on channel=15 note=72 velocity=1 time=0.0046875\n",
      "note_off channel=4 note=75 velocity=0 time=0.0015624999999999999\n",
      "note_off channel=3 note=75 velocity=0 time=0\n",
      "note_on channel=4 note=79 velocity=97 time=0.007812499999999999\n",
      "note_on channel=3 note=79 velocity=122 time=0\n",
      "note_off channel=1 note=39 velocity=0 time=0.1265625\n",
      "note_on channel=5 note=65 velocity=126 time=0.0046875\n",
      "note_on channel=9 note=42 velocity=80 time=0.0062499999999999995\n",
      "note_on channel=9 note=35 velocity=111 time=0\n",
      "note_on channel=6 note=67 velocity=95 time=0\n",
      "note_on channel=9 note=70 velocity=91 time=0.0031249999999999997\n",
      "note_on channel=6 note=63 velocity=116 time=0\n",
      "note_on channel=6 note=60 velocity=118 time=0\n",
      "note_on channel=6 note=55 velocity=115 time=0\n",
      "note_on channel=1 note=36 velocity=113 time=0\n",
      "note_off channel=9 note=35 velocity=0 time=0.0046875\n",
      "note_off channel=9 note=42 velocity=0 time=0\n",
      "note_off channel=9 note=70 velocity=0 time=0.0031249999999999997\n",
      "note_off channel=6 note=60 velocity=0 time=0.06562499999999999\n",
      "note_off channel=1 note=36 velocity=0 time=0\n",
      "note_off channel=6 note=67 velocity=0 time=0.028124999999999997\n",
      "note_off channel=6 note=55 velocity=0 time=0.0031249999999999997\n",
      "note_off channel=6 note=63 velocity=0 time=0.0031249999999999997\n",
      "note_off channel=5 note=65 velocity=0 time=0.012499999999999999\n",
      "note_on channel=5 note=66 velocity=121 time=0.0015624999999999999\n",
      "note_off channel=5 note=66 velocity=0 time=0.0953125\n",
      "note_on channel=5 note=67 velocity=116 time=0.0515625\n",
      "note_on channel=9 note=70 velocity=78 time=0.031249999999999997\n",
      "note_on channel=1 note=36 velocity=121 time=0\n",
      "note_off channel=9 note=70 velocity=0 time=0.007812499999999999\n",
      "note_off channel=5 note=67 velocity=0 time=0.10937499999999999\n",
      "note_on channel=5 note=70 velocity=122 time=0.007812499999999999\n",
      "note_on channel=6 note=62 velocity=89 time=0.024999999999999998\n",
      "note_on channel=6 note=58 velocity=113 time=0.0062499999999999995\n",
      "note_on channel=6 note=55 velocity=119 time=0\n",
      "note_on channel=6 note=50 velocity=106 time=0\n",
      "note_off channel=4 note=79 velocity=0 time=0.0390625\n",
      "note_off channel=3 note=79 velocity=0 time=0\n",
      "note_off channel=5 note=70 velocity=0 time=0.01875\n",
      "note_on channel=5 note=75 velocity=120 time=0.023437499999999997\n",
      "note_off channel=1 note=36 velocity=0 time=0.0390625\n",
      "note_on channel=9 note=35 velocity=111 time=0.020312499999999997\n",
      "note_on channel=9 note=70 velocity=94 time=0.0031249999999999997\n",
      "note_on channel=1 note=31 velocity=118 time=0\n",
      "note_on channel=9 note=42 velocity=77 time=0.0031249999999999997\n",
      "note_on channel=9 note=40 velocity=108 time=0\n",
      "note_off channel=9 note=35 velocity=0 time=0.0015624999999999999\n",
      "note_off channel=9 note=70 velocity=0 time=0.0031249999999999997\n",
      "note_off channel=9 note=40 velocity=0 time=0.0031249999999999997\n",
      "note_off channel=9 note=42 velocity=0 time=0\n",
      "note_off channel=5 note=75 velocity=0 time=0.049999999999999996\n",
      "note_on channel=5 note=72 velocity=120 time=0.042187499999999996\n",
      "note_off channel=5 note=72 velocity=0 time=0.1109375\n",
      "note_off channel=6 note=50 velocity=0 time=0.012499999999999999\n",
      "note_on channel=5 note=77 velocity=112 time=0.0265625\n",
      "note_off channel=6 note=62 velocity=0 time=0.0046875\n",
      "note_off channel=6 note=55 velocity=0 time=0.0062499999999999995\n",
      "note_off channel=1 note=31 velocity=0 time=0.0062499999999999995\n",
      "note_off channel=6 note=58 velocity=0 time=0.01875\n",
      "note_on channel=6 note=50 velocity=94 time=0.007812499999999999\n",
      "note_on channel=9 note=70 velocity=80 time=0.0031249999999999997\n",
      "note_on channel=6 note=58 velocity=90 time=0\n",
      "note_on channel=6 note=53 velocity=110 time=0\n",
      "note_on channel=1 note=34 velocity=118 time=0\n",
      "note_off channel=9 note=70 velocity=0 time=0.007812499999999999\n",
      "note_on channel=5 note=75 velocity=102 time=0.0953125\n",
      "note_off channel=5 note=77 velocity=0 time=0.007812499999999999\n",
      "note_off channel=6 note=58 velocity=0 time=0.11562499999999999\n",
      "note_off channel=6 note=53 velocity=0 time=0.0031249999999999997\n",
      "note_off channel=6 note=50 velocity=0 time=0.009375\n",
      "note_off channel=1 note=34 velocity=0 time=0.01875\n",
      "note_off channel=15 note=72 velocity=0 time=0.0375\n",
      "note_on channel=9 note=70 velocity=85 time=0.0046875\n",
      "note_on channel=6 note=67 velocity=97 time=0\n",
      "note_on channel=6 note=63 velocity=97 time=0\n",
      "note_on channel=6 note=60 velocity=97 time=0\n",
      "note_on channel=1 note=36 velocity=118 time=0\n",
      "note_on channel=6 note=48 velocity=97 time=0.0031249999999999997\n",
      "note_off channel=9 note=70 velocity=0 time=0.0046875\n",
      "note_on channel=9 note=42 velocity=80 time=0.0015624999999999999\n",
      "note_on channel=9 note=35 velocity=111 time=0\n",
      "note_off channel=9 note=35 velocity=0 time=0.007812499999999999\n",
      "note_off channel=9 note=42 velocity=0 time=0\n",
      "note_off channel=6 note=67 velocity=0 time=0.06562499999999999\n",
      "note_off channel=1 note=36 velocity=0 time=0.01875\n",
      "note_off channel=6 note=60 velocity=0 time=0.04375\n",
      "note_off channel=6 note=48 velocity=0 time=0.0031249999999999997\n",
      "note_off channel=6 note=63 velocity=0 time=0.012499999999999999\n",
      "note_on channel=6 note=55 velocity=118 time=0.1359375\n",
      "note_on channel=9 note=70 velocity=82 time=0.0031249999999999997\n",
      "note_on channel=6 note=63 velocity=115 time=0\n",
      "note_on channel=1 note=36 velocity=118 time=0\n",
      "note_on channel=6 note=60 velocity=105 time=0.0062499999999999995\n",
      "note_off channel=9 note=70 velocity=0 time=0.0015624999999999999\n",
      "note_off channel=6 note=60 velocity=0 time=0.034374999999999996\n",
      "note_off channel=6 note=63 velocity=0 time=0.103125\n",
      "note_off channel=6 note=55 velocity=0 time=0.0031249999999999997\n",
      "note_off channel=1 note=36 velocity=0 time=0.13749999999999998\n",
      "note_on channel=9 note=70 velocity=91 time=0.014062499999999999\n",
      "note_on channel=1 note=39 velocity=111 time=0\n",
      "note_on channel=9 note=42 velocity=77 time=0.0031249999999999997\n",
      "note_on channel=9 note=40 velocity=106 time=0\n",
      "note_off channel=9 note=70 velocity=0 time=0.0046875\n",
      "note_on channel=9 note=35 velocity=111 time=0.0015624999999999999\n",
      "note_off channel=9 note=40 velocity=0 time=0.0015624999999999999\n",
      "note_off channel=9 note=42 velocity=0 time=0\n",
      "note_off channel=9 note=35 velocity=0 time=0.0062499999999999995\n",
      "note_off channel=1 note=39 velocity=0 time=0.071875\n",
      "note_on channel=6 note=55 velocity=112 time=0.057812499999999996\n",
      "note_on channel=6 note=63 velocity=113 time=0.0031249999999999997\n",
      "note_on channel=6 note=58 velocity=105 time=0\n",
      "note_off channel=6 note=58 velocity=0 time=0.11718749999999999\n",
      "note_off channel=6 note=63 velocity=0 time=0.012499999999999999\n",
      "note_off channel=6 note=55 velocity=0 time=0.009375\n",
      "note_on channel=9 note=70 velocity=81 time=0.0109375\n",
      "note_on channel=1 note=39 velocity=115 time=0\n",
      "note_off channel=9 note=70 velocity=0 time=0.007812499999999999\n",
      "note_off channel=1 note=39 velocity=0 time=0.27812499999999996\n",
      "note_on channel=9 note=70 velocity=85 time=0.014062499999999999\n",
      "note_on channel=9 note=42 velocity=82 time=0\n",
      "note_on channel=9 note=35 velocity=111 time=0\n",
      "note_on channel=6 note=63 velocity=114 time=0\n",
      "note_on channel=6 note=55 velocity=114 time=0\n",
      "note_on channel=1 note=36 velocity=119 time=0\n",
      "note_on channel=6 note=60 velocity=117 time=0.0031249999999999997\n",
      "note_off channel=9 note=35 velocity=0 time=0.0046875\n",
      "note_off channel=9 note=42 velocity=0 time=0\n",
      "note_off channel=9 note=70 velocity=0 time=0\n",
      "note_off channel=6 note=60 velocity=0 time=0.06249999999999999\n",
      "note_off channel=1 note=36 velocity=0 time=0.01875\n",
      "note_off channel=6 note=63 velocity=0 time=0.015624999999999998\n",
      "note_off channel=6 note=55 velocity=0 time=0.012499999999999999\n",
      "note_on channel=9 note=70 velocity=80 time=0.1828125\n",
      "note_on channel=1 note=36 velocity=120 time=0\n",
      "note_off channel=9 note=70 velocity=0 time=0.007812499999999999\n",
      "note_on channel=6 note=58 velocity=113 time=0.1484375\n",
      "note_on channel=6 note=55 velocity=117 time=0\n",
      "note_on channel=6 note=50 velocity=114 time=0\n",
      "note_off channel=1 note=36 velocity=0 time=0.10781249999999999\n",
      "note_on channel=9 note=70 velocity=91 time=0.0359375\n",
      "note_on channel=9 note=42 velocity=64 time=0\n",
      "note_on channel=9 note=40 velocity=111 time=0\n",
      "note_on channel=9 note=35 velocity=111 time=0\n",
      "note_on channel=1 note=31 velocity=120 time=0\n",
      "note_off channel=9 note=35 velocity=0 time=0.007812499999999999\n",
      "note_off channel=9 note=40 velocity=0 time=0\n",
      "note_off channel=9 note=42 velocity=0 time=0\n",
      "note_off channel=9 note=70 velocity=0 time=0\n",
      "note_off channel=6 note=55 velocity=0 time=0.23437499999999997\n",
      "note_off channel=1 note=31 velocity=0 time=0.01875\n",
      "note_off channel=5 note=75 velocity=0 time=0.009375\n",
      "note_on channel=6 note=53 velocity=117 time=0.0265625\n",
      "note_on channel=9 note=70 velocity=84 time=0.0031249999999999997\n",
      "note_on channel=1 note=34 velocity=115 time=0\n",
      "note_off channel=9 note=70 velocity=0 time=0.007812499999999999\n",
      "note_off channel=6 note=50 velocity=0 time=0.16874999999999998\n",
      "note_off channel=6 note=53 velocity=0 time=0.049999999999999996\n",
      "note_off channel=6 note=58 velocity=0 time=0\n",
      "note_off channel=1 note=34 velocity=0 time=0.056249999999999994\n",
      "note_on channel=4 note=75 velocity=100 time=0.0046875\n",
      "note_on channel=3 note=75 velocity=125 time=0\n",
      "note_on channel=15 note=67 velocity=1 time=0.012499999999999999\n",
      "note_on channel=9 note=70 velocity=97 time=0\n",
      "note_on channel=9 note=42 velocity=80 time=0\n",
      "note_on channel=9 note=35 velocity=110 time=0\n",
      "note_on channel=6 note=63 velocity=99 time=0\n",
      "note_on channel=6 note=60 velocity=99 time=0\n",
      "note_on channel=1 note=36 velocity=116 time=0\n",
      "note_on channel=6 note=48 velocity=101 time=0.0031249999999999997\n",
      "note_off channel=9 note=35 velocity=0 time=0.0046875\n",
      "note_off channel=9 note=42 velocity=0 time=0\n",
      "note_off channel=9 note=70 velocity=0 time=0\n",
      "note_off channel=4 note=75 velocity=0 time=0.09999999999999999\n",
      "note_off channel=3 note=75 velocity=0 time=0\n",
      "note_off channel=1 note=36 velocity=0 time=0.012499999999999999\n",
      "note_off channel=6 note=60 velocity=0 time=0.024999999999999998\n",
      "note_off channel=6 note=48 velocity=0 time=0.0031249999999999997\n",
      "note_off channel=6 note=63 velocity=0 time=0.012499999999999999\n",
      "note_on channel=4 note=77 velocity=97 time=0.1140625\n",
      "note_on channel=3 note=77 velocity=122 time=0\n",
      "note_off channel=15 note=67 velocity=0 time=0.020312499999999997\n",
      "note_on channel=15 note=70 velocity=1 time=0.0046875\n",
      "note_on channel=9 note=70 velocity=84 time=0\n",
      "note_on channel=6 note=67 velocity=97 time=0\n",
      "note_on channel=1 note=36 velocity=117 time=0\n",
      "note_on channel=6 note=63 velocity=115 time=0.0031249999999999997\n",
      "note_on channel=6 note=60 velocity=118 time=0\n",
      "note_on channel=6 note=55 velocity=117 time=0\n",
      "note_off channel=9 note=70 velocity=0 time=0.0046875\n",
      "note_off channel=6 note=60 velocity=0 time=0.075\n",
      "note_off channel=6 note=67 velocity=0 time=0.009375\n",
      "note_off channel=6 note=55 velocity=0 time=0.0031249999999999997\n",
      "note_off channel=6 note=63 velocity=0 time=0.01875\n",
      "note_off channel=4 note=77 velocity=0 time=0.0031249999999999997\n",
      "note_off channel=3 note=77 velocity=0 time=0\n",
      "note_off channel=1 note=36 velocity=0 time=0.16874999999999998\n",
      "note_off channel=15 note=70 velocity=0 time=0.009375\n",
      "note_on channel=4 note=79 velocity=100 time=0.0015624999999999999\n",
      "note_on channel=3 note=79 velocity=125 time=0\n",
      "note_on channel=15 note=72 velocity=1 time=0.0031249999999999997\n",
      "note_on channel=9 note=70 velocity=87 time=0\n",
      "note_on channel=9 note=42 velocity=72 time=0\n",
      "note_on channel=9 note=40 velocity=111 time=0\n",
      "note_on channel=9 note=35 velocity=110 time=0\n",
      "note_on channel=1 note=39 velocity=113 time=0\n",
      "note_off channel=9 note=35 velocity=0 time=0.007812499999999999\n",
      "note_off channel=9 note=40 velocity=0 time=0\n",
      "note_off channel=9 note=42 velocity=0 time=0\n",
      "note_off channel=9 note=70 velocity=0 time=0\n",
      "note_off channel=4 note=79 velocity=0 time=0.075\n",
      "note_off channel=3 note=79 velocity=0 time=0\n",
      "note_off channel=1 note=39 velocity=0 time=0.015624999999999998\n",
      "note_on channel=4 note=82 velocity=99 time=0.0453125\n",
      "note_on channel=3 note=82 velocity=124 time=0\n",
      "note_off channel=15 note=72 velocity=0 time=0.0015624999999999999\n",
      "note_on channel=15 note=75 velocity=1 time=0.0046875\n",
      "note_on channel=6 note=67 velocity=97 time=0.0031249999999999997\n",
      "note_on channel=6 note=63 velocity=115 time=0.0031249999999999997\n",
      "note_on channel=6 note=58 velocity=119 time=0\n",
      "note_on channel=6 note=55 velocity=117 time=0\n",
      "note_off channel=6 note=58 velocity=0 time=0.0984375\n",
      "note_off channel=6 note=63 velocity=0 time=0.021875\n",
      "note_off channel=6 note=67 velocity=0 time=0\n",
      "note_off channel=6 note=55 velocity=0 time=0.0031249999999999997\n",
      "note_on channel=9 note=70 velocity=72 time=0.020312499999999997\n",
      "note_on channel=1 note=39 velocity=116 time=0\n",
      "note_off channel=9 note=70 velocity=0 time=0.007812499999999999\n",
      "note_off channel=4 note=82 velocity=0 time=0.01875\n",
      "note_off channel=3 note=82 velocity=0 time=0\n",
      "note_on channel=4 note=84 velocity=98 time=0.10156249999999999\n",
      "note_on channel=3 note=84 velocity=123 time=0\n",
      "note_off channel=15 note=75 velocity=0 time=0.017187499999999998\n",
      "note_on channel=15 note=75 velocity=1 time=0.0046875\n",
      "note_on channel=15 note=72 velocity=1 time=0\n",
      "note_off channel=1 note=39 velocity=0 time=0.1265625\n",
      "note_on channel=9 note=42 velocity=77 time=0.020312499999999997\n",
      "note_on channel=6 note=67 velocity=95 time=0\n",
      "note_on channel=9 note=70 velocity=91 time=0.0031249999999999997\n",
      "note_on channel=9 note=35 velocity=111 time=0\n",
      "note_on channel=6 note=63 velocity=116 time=0\n",
      "note_on channel=6 note=60 velocity=118 time=0\n",
      "note_on channel=6 note=55 velocity=115 time=0\n",
      "note_on channel=5 note=65 velocity=125 time=0\n",
      "note_on channel=1 note=36 velocity=118 time=0\n",
      "note_off channel=9 note=42 velocity=0 time=0.0046875\n",
      "note_off channel=9 note=35 velocity=0 time=0.0031249999999999997\n",
      "note_off channel=9 note=70 velocity=0 time=0\n",
      "note_off channel=6 note=60 velocity=0 time=0.06562499999999999\n",
      "note_off channel=6 note=67 velocity=0 time=0.028124999999999997\n",
      "note_off channel=6 note=55 velocity=0 time=0.0031249999999999997\n",
      "note_off channel=6 note=63 velocity=0 time=0.0031249999999999997\n",
      "note_off channel=1 note=36 velocity=0 time=0\n",
      "note_off channel=5 note=65 velocity=0 time=0.021875\n",
      "note_on channel=5 note=66 velocity=118 time=0.0109375\n",
      "note_off channel=5 note=66 velocity=0 time=0.1109375\n",
      "note_on channel=5 note=67 velocity=115 time=0.0390625\n",
      "note_on channel=9 note=70 velocity=78 time=0.009375\n",
      "note_on channel=1 note=36 velocity=117 time=0\n",
      "note_off channel=9 note=70 velocity=0 time=0.007812499999999999\n",
      "note_off channel=5 note=67 velocity=0 time=0.11562499999999999\n",
      "note_on channel=5 note=70 velocity=121 time=0.017187499999999998\n",
      "note_on channel=6 note=62 velocity=89 time=0.009375\n",
      "note_on channel=6 note=58 velocity=113 time=0.0062499999999999995\n",
      "note_on channel=6 note=55 velocity=119 time=0\n",
      "note_on channel=6 note=50 velocity=106 time=0\n",
      "note_off channel=5 note=70 velocity=0 time=0.0703125\n",
      "note_off channel=4 note=84 velocity=0 time=0.015624999999999998\n",
      "note_off channel=3 note=84 velocity=0 time=0\n",
      "note_off channel=1 note=36 velocity=0 time=0.01875\n",
      "note_on channel=5 note=72 velocity=120 time=0.014062499999999999\n",
      "note_on channel=9 note=70 velocity=94 time=0.024999999999999998\n",
      "note_on channel=9 note=35 velocity=111 time=0\n",
      "note_on channel=1 note=31 velocity=117 time=0\n",
      "note_on channel=9 note=42 velocity=77 time=0.0031249999999999997\n",
      "note_on channel=9 note=40 velocity=108 time=0\n",
      "note_off channel=9 note=35 velocity=0 time=0.0046875\n",
      "note_off channel=9 note=70 velocity=0 time=0\n",
      "note_off channel=9 note=40 velocity=0 time=0.0031249999999999997\n",
      "note_off channel=9 note=42 velocity=0 time=0\n",
      "note_off channel=5 note=72 velocity=0 time=0.10625\n",
      "note_on channel=5 note=70 velocity=117 time=0.017187499999999998\n",
      "note_off channel=5 note=70 velocity=0 time=0.0828125\n",
      "note_off channel=6 note=50 velocity=0 time=0.009375\n",
      "note_off channel=1 note=31 velocity=0 time=0.015624999999999998\n",
      "note_off channel=6 note=62 velocity=0 time=0.015624999999999998\n",
      "note_off channel=6 note=55 velocity=0 time=0.0062499999999999995\n",
      "note_on channel=5 note=75 velocity=111 time=0.0046875\n",
      "note_on channel=6 note=62 velocity=68 time=0.024999999999999998\n",
      "note_on channel=6 note=50 velocity=94 time=0.0031249999999999997\n",
      "note_on channel=9 note=70 velocity=80 time=0.0031249999999999997\n",
      "note_on channel=6 note=53 velocity=110 time=0\n",
      "note_on channel=1 note=34 velocity=114 time=0\n",
      "note_off channel=9 note=70 velocity=0 time=0.007812499999999999\n",
      "note_off channel=5 note=75 velocity=0 time=0.11249999999999999\n",
      "note_on channel=5 note=72 velocity=117 time=0.007812499999999999\n",
      "note_off channel=6 note=62 velocity=0 time=0.0953125\n",
      "note_off channel=6 note=53 velocity=0 time=0.0062499999999999995\n",
      "note_off channel=6 note=50 velocity=0 time=0.009375\n",
      "note_off channel=6 note=58 velocity=0 time=0.012499999999999999\n",
      "note_off channel=1 note=34 velocity=0 time=0.012499999999999999\n",
      "note_off channel=15 note=72 velocity=0 time=0.031249999999999997\n",
      "note_off channel=15 note=75 velocity=0 time=0\n",
      "note_on channel=9 note=70 velocity=85 time=0.0046875\n",
      "note_on channel=6 note=67 velocity=97 time=0\n",
      "note_on channel=6 note=63 velocity=97 time=0\n",
      "note_on channel=6 note=60 velocity=97 time=0\n",
      "note_on channel=1 note=36 velocity=118 time=0\n",
      "note_on channel=6 note=48 velocity=97 time=0.0031249999999999997\n",
      "note_off channel=9 note=70 velocity=0 time=0.0046875\n",
      "note_on channel=9 note=42 velocity=68 time=0.0015624999999999999\n",
      "note_on channel=9 note=35 velocity=111 time=0\n",
      "note_off channel=9 note=35 velocity=0 time=0.007812499999999999\n",
      "note_off channel=9 note=42 velocity=0 time=0\n",
      "note_off channel=6 note=67 velocity=0 time=0.06562499999999999\n",
      "note_off channel=1 note=36 velocity=0 time=0.009375\n",
      "note_off channel=6 note=60 velocity=0 time=0.053125\n",
      "note_off channel=6 note=48 velocity=0 time=0.0031249999999999997\n",
      "note_off channel=6 note=63 velocity=0 time=0.012499999999999999\n",
      "note_on channel=6 note=55 velocity=118 time=0.1359375\n",
      "note_on channel=9 note=70 velocity=82 time=0.0031249999999999997\n",
      "note_on channel=6 note=63 velocity=115 time=0\n",
      "note_on channel=1 note=36 velocity=120 time=0\n",
      "note_on channel=6 note=60 velocity=105 time=0.0062499999999999995\n",
      "note_off channel=9 note=70 velocity=0 time=0.0015624999999999999\n",
      "note_off channel=6 note=60 velocity=0 time=0.034374999999999996\n",
      "note_off channel=6 note=63 velocity=0 time=0.103125\n",
      "note_off channel=6 note=55 velocity=0 time=0.0031249999999999997\n",
      "note_off channel=1 note=36 velocity=0 time=0.13749999999999998\n",
      "note_on channel=9 note=70 velocity=91 time=0.014062499999999999\n",
      "note_on channel=1 note=39 velocity=110 time=0\n",
      "note_on channel=9 note=42 velocity=77 time=0.0031249999999999997\n",
      "note_on channel=9 note=40 velocity=106 time=0\n",
      "note_off channel=9 note=70 velocity=0 time=0.0046875\n",
      "note_on channel=9 note=35 velocity=111 time=0.0015624999999999999\n",
      "note_off channel=9 note=40 velocity=0 time=0.0015624999999999999\n",
      "note_off channel=9 note=42 velocity=0 time=0\n",
      "note_off channel=9 note=35 velocity=0 time=0.0062499999999999995\n",
      "note_off channel=1 note=39 velocity=0 time=0.078125\n",
      "note_on channel=6 note=55 velocity=112 time=0.0515625\n",
      "note_on channel=6 note=63 velocity=113 time=0.0031249999999999997\n",
      "note_on channel=6 note=58 velocity=105 time=0\n",
      "note_off channel=6 note=58 velocity=0 time=0.11718749999999999\n",
      "note_off channel=6 note=63 velocity=0 time=0.012499999999999999\n",
      "note_off channel=6 note=55 velocity=0 time=0.009375\n",
      "note_on channel=9 note=70 velocity=81 time=0.0109375\n",
      "note_on channel=1 note=39 velocity=120 time=0\n",
      "note_off channel=9 note=70 velocity=0 time=0.007812499999999999\n",
      "note_off channel=1 note=39 velocity=0 time=0.27812499999999996\n",
      "note_on channel=9 note=70 velocity=85 time=0.014062499999999999\n",
      "note_on channel=9 note=42 velocity=82 time=0\n",
      "note_on channel=9 note=35 velocity=111 time=0\n",
      "note_on channel=6 note=63 velocity=114 time=0\n",
      "note_on channel=6 note=55 velocity=114 time=0\n",
      "note_on channel=1 note=36 velocity=118 time=0\n",
      "note_on channel=6 note=60 velocity=117 time=0.0031249999999999997\n",
      "note_off channel=9 note=35 velocity=0 time=0.0046875\n",
      "note_off channel=9 note=42 velocity=0 time=0\n",
      "note_off channel=9 note=70 velocity=0 time=0\n",
      "note_off channel=6 note=60 velocity=0 time=0.06249999999999999\n",
      "note_off channel=1 note=36 velocity=0 time=0.009375\n",
      "note_off channel=6 note=63 velocity=0 time=0.024999999999999998\n",
      "note_off channel=6 note=55 velocity=0 time=0.012499999999999999\n",
      "note_on channel=9 note=70 velocity=80 time=0.1828125\n",
      "note_on channel=1 note=36 velocity=120 time=0\n",
      "note_off channel=9 note=70 velocity=0 time=0.007812499999999999\n",
      "note_on channel=6 note=58 velocity=113 time=0.1484375\n",
      "note_on channel=6 note=55 velocity=117 time=0\n",
      "note_on channel=6 note=50 velocity=114 time=0\n",
      "note_off channel=1 note=36 velocity=0 time=0.0953125\n",
      "note_on channel=9 note=70 velocity=91 time=0.048437499999999994\n",
      "note_on channel=9 note=42 velocity=82 time=0\n",
      "note_on channel=9 note=40 velocity=111 time=0\n",
      "note_on channel=9 note=35 velocity=111 time=0\n",
      "note_on channel=1 note=31 velocity=108 time=0\n",
      "note_off channel=9 note=35 velocity=0 time=0.007812499999999999\n",
      "note_off channel=9 note=40 velocity=0 time=0\n",
      "note_off channel=9 note=42 velocity=0 time=0\n",
      "note_off channel=9 note=70 velocity=0 time=0\n",
      "note_off channel=6 note=55 velocity=0 time=0.23437499999999997\n",
      "note_off channel=5 note=72 velocity=0 time=0.012499999999999999\n",
      "note_off channel=1 note=31 velocity=0 time=0.028124999999999997\n",
      "note_on channel=6 note=53 velocity=117 time=0.014062499999999999\n",
      "note_on channel=9 note=70 velocity=84 time=0.0031249999999999997\n",
      "note_on channel=1 note=34 velocity=118 time=0\n",
      "note_off channel=9 note=70 velocity=0 time=0.007812499999999999\n",
      "note_off channel=1 note=34 velocity=0 time=0.13749999999999998\n",
      "note_off channel=6 note=50 velocity=0 time=0.031249999999999997\n",
      "note_off channel=6 note=53 velocity=0 time=0.049999999999999996\n",
      "note_off channel=6 note=58 velocity=0 time=0\n",
      "note_on channel=9 note=70 velocity=97 time=0.07343749999999999\n",
      "note_on channel=9 note=42 velocity=80 time=0\n",
      "note_on channel=9 note=35 velocity=111 time=0\n",
      "note_on channel=6 note=63 velocity=99 time=0\n",
      "note_on channel=6 note=60 velocity=99 time=0\n",
      "note_on channel=1 note=36 velocity=118 time=0\n",
      "note_on channel=6 note=48 velocity=101 time=0.0031249999999999997\n",
      "note_off channel=9 note=35 velocity=0 time=0.0046875\n",
      "note_off channel=9 note=42 velocity=0 time=0\n",
      "note_off channel=9 note=70 velocity=0 time=0\n",
      "note_off channel=1 note=36 velocity=0 time=0.10625\n",
      "note_off channel=6 note=60 velocity=0 time=0.031249999999999997\n",
      "note_off channel=6 note=48 velocity=0 time=0.0031249999999999997\n",
      "note_off channel=6 note=63 velocity=0 time=0.012499999999999999\n",
      "note_on channel=9 note=70 velocity=84 time=0.13906249999999998\n",
      "note_on channel=6 note=67 velocity=97 time=0\n",
      "note_on channel=1 note=36 velocity=119 time=0\n",
      "note_on channel=6 note=63 velocity=115 time=0.0031249999999999997\n",
      "note_on channel=6 note=60 velocity=118 time=0\n",
      "note_on channel=6 note=55 velocity=117 time=0\n",
      "note_off channel=9 note=70 velocity=0 time=0.0046875\n",
      "note_off channel=6 note=60 velocity=0 time=0.075\n",
      "note_off channel=6 note=67 velocity=0 time=0.009375\n",
      "note_off channel=6 note=55 velocity=0 time=0.0031249999999999997\n",
      "note_off channel=6 note=63 velocity=0 time=0.01875\n",
      "note_off channel=1 note=36 velocity=0 time=0.17187499999999997\n",
      "note_on channel=9 note=70 velocity=87 time=0.014062499999999999\n",
      "note_on channel=9 note=42 velocity=72 time=0\n",
      "note_on channel=9 note=40 velocity=111 time=0\n",
      "note_on channel=9 note=35 velocity=111 time=0\n",
      "note_on channel=1 note=39 velocity=116 time=0\n",
      "note_off channel=9 note=35 velocity=0 time=0.007812499999999999\n",
      "note_off channel=9 note=40 velocity=0 time=0\n",
      "note_off channel=9 note=42 velocity=0 time=0\n",
      "note_off channel=9 note=70 velocity=0 time=0\n",
      "note_off channel=1 note=39 velocity=0 time=0.071875\n",
      "note_on channel=6 note=67 velocity=97 time=0.07343749999999999\n",
      "note_on channel=6 note=63 velocity=115 time=0.0031249999999999997\n",
      "note_on channel=6 note=58 velocity=119 time=0\n",
      "note_on channel=6 note=55 velocity=117 time=0\n",
      "note_off channel=6 note=58 velocity=0 time=0.0984375\n",
      "note_off channel=6 note=63 velocity=0 time=0.021875\n",
      "note_off channel=6 note=67 velocity=0 time=0\n",
      "note_off channel=6 note=55 velocity=0 time=0.0031249999999999997\n",
      "note_on channel=9 note=70 velocity=72 time=0.020312499999999997\n",
      "note_on channel=1 note=39 velocity=116 time=0\n",
      "note_off channel=9 note=70 velocity=0 time=0.007812499999999999\n",
      "note_off channel=1 note=39 velocity=0 time=0.27812499999999996\n",
      "note_on channel=9 note=42 velocity=80 time=0.0109375\n",
      "note_on channel=9 note=35 velocity=111 time=0\n",
      "note_on channel=6 note=67 velocity=95 time=0\n",
      "note_on channel=9 note=70 velocity=91 time=0.0031249999999999997\n",
      "note_on channel=6 note=63 velocity=116 time=0\n",
      "note_on channel=6 note=60 velocity=118 time=0\n",
      "note_on channel=6 note=55 velocity=115 time=0\n",
      "note_on channel=1 note=36 velocity=113 time=0\n",
      "note_off channel=9 note=35 velocity=0 time=0.0046875\n",
      "note_off channel=9 note=42 velocity=0 time=0\n",
      "note_off channel=9 note=70 velocity=0 time=0.0031249999999999997\n",
      "note_off channel=6 note=60 velocity=0 time=0.06562499999999999\n",
      "note_off channel=1 note=36 velocity=0 time=0\n",
      "note_off channel=6 note=67 velocity=0 time=0.028124999999999997\n",
      "note_off channel=6 note=55 velocity=0 time=0.0031249999999999997\n",
      "note_off channel=6 note=63 velocity=0 time=0.0031249999999999997\n",
      "note_on channel=9 note=70 velocity=78 time=0.19218749999999998\n",
      "note_on channel=1 note=36 velocity=121 time=0\n",
      "note_off channel=9 note=70 velocity=0 time=0.007812499999999999\n",
      "note_on channel=6 note=62 velocity=89 time=0.1421875\n",
      "note_on channel=6 note=58 velocity=113 time=0.0062499999999999995\n",
      "note_on channel=6 note=55 velocity=119 time=0\n",
      "note_on channel=6 note=50 velocity=106 time=0\n",
      "note_off channel=1 note=36 velocity=0 time=0.12031249999999999\n",
      "note_on channel=5 note=67 velocity=124 time=0.014062499999999999\n",
      "note_on channel=2 note=67 velocity=124 time=0\n",
      "note_on channel=9 note=35 velocity=111 time=0.0062499999999999995\n",
      "note_on channel=9 note=70 velocity=94 time=0.0031249999999999997\n",
      "note_on channel=1 note=31 velocity=118 time=0\n",
      "note_on channel=9 note=42 velocity=77 time=0.0031249999999999997\n",
      "note_on channel=9 note=40 velocity=108 time=0\n",
      "note_off channel=9 note=35 velocity=0 time=0.0015624999999999999\n",
      "note_off channel=9 note=70 velocity=0 time=0.0031249999999999997\n",
      "note_off channel=9 note=40 velocity=0 time=0.0031249999999999997\n",
      "note_off channel=9 note=42 velocity=0 time=0\n",
      "note_off channel=5 note=67 velocity=0 time=0.078125\n",
      "note_off channel=2 note=67 velocity=0 time=0\n",
      "note_on channel=5 note=68 velocity=124 time=0.0015624999999999999\n",
      "note_on channel=2 note=68 velocity=124 time=0\n",
      "note_off channel=5 note=68 velocity=0 time=0.08906249999999999\n",
      "note_off channel=2 note=68 velocity=0 time=0\n",
      "note_on channel=5 note=69 velocity=122 time=0.0109375\n",
      "note_on channel=2 note=69 velocity=122 time=0\n",
      "note_off channel=6 note=50 velocity=0 time=0.0359375\n",
      "note_off channel=6 note=62 velocity=0 time=0.031249999999999997\n",
      "note_off channel=6 note=55 velocity=0 time=0.0062499999999999995\n",
      "note_off channel=1 note=31 velocity=0 time=0.0062499999999999995\n",
      "note_off channel=5 note=69 velocity=0 time=0.009375\n",
      "note_off channel=2 note=69 velocity=0 time=0\n",
      "note_off channel=6 note=58 velocity=0 time=0.009375\n",
      "note_on channel=5 note=70 velocity=122 time=0.0015624999999999999\n",
      "note_on channel=2 note=70 velocity=122 time=0\n",
      "note_on channel=6 note=50 velocity=94 time=0.0062499999999999995\n",
      "note_on channel=9 note=70 velocity=80 time=0.0031249999999999997\n",
      "note_on channel=6 note=58 velocity=90 time=0\n",
      "note_on channel=6 note=53 velocity=110 time=0\n",
      "note_on channel=1 note=34 velocity=118 time=0\n",
      "note_off channel=9 note=70 velocity=0 time=0.007812499999999999\n",
      "note_off channel=5 note=70 velocity=0 time=0.071875\n",
      "note_off channel=2 note=70 velocity=0 time=0\n",
      "note_on channel=5 note=72 velocity=122 time=0.0109375\n",
      "note_on channel=2 note=72 velocity=122 time=0\n",
      "note_off channel=5 note=72 velocity=0 time=0.08906249999999999\n",
      "note_off channel=2 note=72 velocity=0 time=0\n",
      "note_on channel=5 note=75 velocity=123 time=0.0109375\n",
      "note_on channel=2 note=75 velocity=123 time=0\n",
      "note_off channel=6 note=58 velocity=0 time=0.0359375\n",
      "note_off channel=6 note=53 velocity=0 time=0.0031249999999999997\n",
      "note_off channel=6 note=50 velocity=0 time=0.009375\n",
      "note_off channel=1 note=34 velocity=0 time=0.01875\n",
      "note_off channel=5 note=75 velocity=0 time=0.021875\n",
      "note_off channel=2 note=75 velocity=0 time=0\n",
      "note_on channel=5 note=82 velocity=112 time=0.0109375\n",
      "note_on channel=2 note=82 velocity=112 time=0\n",
      "note_on channel=9 note=70 velocity=85 time=0.009375\n",
      "note_on channel=6 note=67 velocity=97 time=0\n",
      "note_on channel=6 note=63 velocity=97 time=0\n",
      "note_on channel=6 note=60 velocity=97 time=0\n",
      "note_on channel=1 note=36 velocity=118 time=0\n",
      "note_on channel=6 note=48 velocity=97 time=0.0031249999999999997\n",
      "note_off channel=9 note=70 velocity=0 time=0.0046875\n",
      "note_on channel=9 note=42 velocity=80 time=0.0015624999999999999\n",
      "note_on channel=9 note=35 velocity=111 time=0\n",
      "note_off channel=9 note=35 velocity=0 time=0.007812499999999999\n",
      "note_off channel=9 note=42 velocity=0 time=0\n",
      "note_off channel=6 note=67 velocity=0 time=0.06562499999999999\n",
      "note_off channel=1 note=36 velocity=0 time=0.01875\n",
      "note_off channel=6 note=60 velocity=0 time=0.04375\n",
      "note_off channel=6 note=48 velocity=0 time=0.0031249999999999997\n",
      "note_off channel=6 note=63 velocity=0 time=0.012499999999999999\n",
      "note_off channel=5 note=82 velocity=0 time=0.11875\n",
      "note_off channel=2 note=82 velocity=0 time=0\n",
      "note_on channel=6 note=55 velocity=118 time=0.017187499999999998\n",
      "note_on channel=9 note=70 velocity=82 time=0.0031249999999999997\n",
      "note_on channel=6 note=63 velocity=115 time=0\n",
      "note_on channel=1 note=36 velocity=118 time=0\n",
      "note_on channel=6 note=60 velocity=105 time=0.0062499999999999995\n",
      "note_off channel=9 note=70 velocity=0 time=0.0015624999999999999\n",
      "note_off channel=6 note=60 velocity=0 time=0.034374999999999996\n",
      "note_off channel=6 note=63 velocity=0 time=0.103125\n",
      "note_off channel=6 note=55 velocity=0 time=0.0031249999999999997\n",
      "note_off channel=1 note=36 velocity=0 time=0.13749999999999998\n",
      "note_on channel=9 note=70 velocity=91 time=0.014062499999999999\n",
      "note_on channel=1 note=39 velocity=111 time=0\n",
      "note_on channel=9 note=42 velocity=77 time=0.0031249999999999997\n",
      "note_on channel=9 note=40 velocity=106 time=0\n",
      "note_off channel=9 note=70 velocity=0 time=0.0046875\n",
      "note_on channel=9 note=35 velocity=111 time=0.0015624999999999999\n",
      "note_off channel=9 note=40 velocity=0 time=0.0015624999999999999\n",
      "note_off channel=9 note=42 velocity=0 time=0\n",
      "note_off channel=9 note=35 velocity=0 time=0.0062499999999999995\n",
      "note_off channel=1 note=39 velocity=0 time=0.071875\n",
      "note_on channel=6 note=55 velocity=112 time=0.057812499999999996\n",
      "note_on channel=6 note=63 velocity=113 time=0.0031249999999999997\n",
      "note_on channel=6 note=58 velocity=105 time=0\n",
      "note_off channel=6 note=58 velocity=0 time=0.11718749999999999\n",
      "note_off channel=6 note=63 velocity=0 time=0.012499999999999999\n",
      "note_off channel=6 note=55 velocity=0 time=0.009375\n",
      "note_on channel=9 note=70 velocity=81 time=0.0109375\n",
      "note_on channel=1 note=39 velocity=115 time=0\n",
      "note_on channel=5 note=79 velocity=114 time=0.0031249999999999997\n",
      "note_on channel=2 note=79 velocity=114 time=0\n",
      "note_off channel=9 note=70 velocity=0 time=0.0046875\n",
      "note_off channel=1 note=39 velocity=0 time=0.27812499999999996\n",
      "note_off channel=5 note=79 velocity=0 time=0.0031249999999999997\n",
      "note_off channel=2 note=79 velocity=0 time=0\n",
      "note_on channel=9 note=70 velocity=85 time=0.0109375\n",
      "note_on channel=9 note=42 velocity=82 time=0\n",
      "note_on channel=9 note=35 velocity=111 time=0\n",
      "note_on channel=6 note=63 velocity=114 time=0\n",
      "note_on channel=6 note=55 velocity=114 time=0\n",
      "note_on channel=1 note=36 velocity=119 time=0\n",
      "note_on channel=6 note=60 velocity=117 time=0.0031249999999999997\n",
      "note_off channel=9 note=35 velocity=0 time=0.0046875\n",
      "note_off channel=9 note=42 velocity=0 time=0\n",
      "note_off channel=9 note=70 velocity=0 time=0\n",
      "note_off channel=6 note=60 velocity=0 time=0.06249999999999999\n",
      "note_off channel=1 note=36 velocity=0 time=0.01875\n",
      "note_off channel=6 note=63 velocity=0 time=0.015624999999999998\n",
      "note_off channel=6 note=55 velocity=0 time=0.012499999999999999\n",
      "note_on channel=9 note=70 velocity=80 time=0.1828125\n",
      "note_on channel=1 note=36 velocity=120 time=0\n",
      "note_off channel=9 note=70 velocity=0 time=0.007812499999999999\n",
      "note_on channel=6 note=58 velocity=113 time=0.1484375\n",
      "note_on channel=6 note=55 velocity=117 time=0\n",
      "note_on channel=6 note=50 velocity=114 time=0\n",
      "note_off channel=1 note=36 velocity=0 time=0.10781249999999999\n",
      "note_on channel=5 note=77 velocity=116 time=0.0296875\n",
      "note_on channel=2 note=77 velocity=116 time=0\n",
      "note_on channel=9 note=70 velocity=91 time=0.0062499999999999995\n",
      "note_on channel=9 note=42 velocity=64 time=0\n",
      "note_on channel=9 note=40 velocity=111 time=0\n",
      "note_on channel=9 note=35 velocity=111 time=0\n",
      "note_on channel=1 note=31 velocity=120 time=0\n",
      "note_off channel=9 note=35 velocity=0 time=0.007812499999999999\n",
      "note_off channel=9 note=40 velocity=0 time=0\n",
      "note_off channel=9 note=42 velocity=0 time=0\n",
      "note_off channel=9 note=70 velocity=0 time=0\n",
      "note_off channel=6 note=55 velocity=0 time=0.23437499999999997\n",
      "note_off channel=1 note=31 velocity=0 time=0.01875\n",
      "note_off channel=5 note=77 velocity=0 time=0.028124999999999997\n",
      "note_off channel=2 note=77 velocity=0 time=0\n",
      "note_on channel=6 note=53 velocity=117 time=0.007812499999999999\n",
      "note_on channel=9 note=70 velocity=84 time=0.0031249999999999997\n",
      "note_on channel=1 note=34 velocity=115 time=0\n",
      "note_off channel=9 note=70 velocity=0 time=0.007812499999999999\n",
      "note_off channel=6 note=50 velocity=0 time=0.16874999999999998\n",
      "note_off channel=6 note=53 velocity=0 time=0.049999999999999996\n",
      "note_off channel=6 note=58 velocity=0 time=0\n",
      "note_off channel=1 note=34 velocity=0 time=0.056249999999999994\n",
      "note_on channel=9 note=70 velocity=97 time=0.017187499999999998\n",
      "note_on channel=9 note=42 velocity=80 time=0\n",
      "note_on channel=9 note=35 velocity=110 time=0\n",
      "note_on channel=6 note=63 velocity=99 time=0\n",
      "note_on channel=6 note=60 velocity=99 time=0\n",
      "note_on channel=1 note=36 velocity=116 time=0\n",
      "note_on channel=6 note=48 velocity=101 time=0.0031249999999999997\n",
      "note_off channel=9 note=35 velocity=0 time=0.0046875\n",
      "note_off channel=9 note=42 velocity=0 time=0\n",
      "note_off channel=9 note=70 velocity=0 time=0\n",
      "note_off channel=1 note=36 velocity=0 time=0.11249999999999999\n",
      "note_off channel=6 note=60 velocity=0 time=0.024999999999999998\n",
      "note_off channel=6 note=48 velocity=0 time=0.0031249999999999997\n",
      "note_off channel=6 note=63 velocity=0 time=0.012499999999999999\n",
      "note_on channel=5 note=75 velocity=114 time=0.12968749999999998\n",
      "note_on channel=2 note=75 velocity=114 time=0\n",
      "note_on channel=9 note=70 velocity=84 time=0.009375\n",
      "note_on channel=6 note=67 velocity=97 time=0\n",
      "note_on channel=1 note=36 velocity=117 time=0\n",
      "note_on channel=6 note=63 velocity=115 time=0.0031249999999999997\n",
      "note_on channel=6 note=60 velocity=118 time=0\n",
      "note_on channel=6 note=55 velocity=117 time=0\n",
      "note_off channel=9 note=70 velocity=0 time=0.0046875\n",
      "note_off channel=6 note=60 velocity=0 time=0.075\n",
      "note_off channel=6 note=67 velocity=0 time=0.009375\n",
      "note_off channel=6 note=55 velocity=0 time=0.0031249999999999997\n",
      "note_off channel=6 note=63 velocity=0 time=0.01875\n",
      "note_off channel=1 note=36 velocity=0 time=0.17187499999999997\n",
      "note_off channel=5 note=75 velocity=0 time=0.0031249999999999997\n",
      "note_off channel=2 note=75 velocity=0 time=0\n",
      "note_on channel=9 note=70 velocity=87 time=0.0109375\n",
      "note_on channel=9 note=42 velocity=72 time=0\n",
      "note_on channel=9 note=40 velocity=111 time=0\n",
      "note_on channel=9 note=35 velocity=110 time=0\n",
      "note_on channel=1 note=39 velocity=113 time=0\n",
      "note_off channel=9 note=35 velocity=0 time=0.007812499999999999\n",
      "note_off channel=9 note=40 velocity=0 time=0\n",
      "note_off channel=9 note=42 velocity=0 time=0\n",
      "note_off channel=9 note=70 velocity=0 time=0\n",
      "note_off channel=1 note=39 velocity=0 time=0.090625\n",
      "note_on channel=6 note=67 velocity=97 time=0.05468749999999999\n",
      "note_on channel=6 note=63 velocity=115 time=0.0031249999999999997\n",
      "note_on channel=6 note=58 velocity=119 time=0\n",
      "note_on channel=6 note=55 velocity=117 time=0\n",
      "note_off channel=6 note=58 velocity=0 time=0.0984375\n",
      "note_off channel=6 note=63 velocity=0 time=0.021875\n",
      "note_off channel=6 note=67 velocity=0 time=0\n",
      "note_off channel=6 note=55 velocity=0 time=0.0031249999999999997\n",
      "note_on channel=9 note=70 velocity=72 time=0.020312499999999997\n",
      "note_on channel=1 note=39 velocity=116 time=0\n",
      "note_off channel=9 note=70 velocity=0 time=0.007812499999999999\n",
      "note_off channel=1 note=39 velocity=0 time=0.26875\n",
      "note_on channel=9 note=42 velocity=77 time=0.020312499999999997\n",
      "note_on channel=6 note=67 velocity=95 time=0\n",
      "note_on channel=9 note=70 velocity=91 time=0.0031249999999999997\n",
      "note_on channel=9 note=35 velocity=111 time=0\n",
      "note_on channel=6 note=63 velocity=116 time=0\n",
      "note_on channel=6 note=60 velocity=118 time=0\n",
      "note_on channel=6 note=55 velocity=115 time=0\n",
      "note_on channel=5 note=70 velocity=116 time=0\n",
      "note_on channel=2 note=70 velocity=116 time=0\n",
      "note_on channel=1 note=36 velocity=118 time=0\n",
      "note_off channel=9 note=42 velocity=0 time=0.0046875\n",
      "note_off channel=9 note=35 velocity=0 time=0.0031249999999999997\n",
      "note_off channel=9 note=70 velocity=0 time=0\n",
      "note_off channel=6 note=60 velocity=0 time=0.06562499999999999\n",
      "note_off channel=6 note=67 velocity=0 time=0.028124999999999997\n",
      "note_off channel=6 note=55 velocity=0 time=0.0031249999999999997\n",
      "note_off channel=6 note=63 velocity=0 time=0.0031249999999999997\n",
      "note_off channel=1 note=36 velocity=0 time=0\n",
      "note_off channel=5 note=70 velocity=0 time=0.18125\n",
      "note_off channel=2 note=70 velocity=0 time=0\n",
      "note_on channel=9 note=70 velocity=78 time=0.0109375\n",
      "note_on channel=1 note=36 velocity=117 time=0\n",
      "note_off channel=9 note=70 velocity=0 time=0.007812499999999999\n",
      "note_on channel=6 note=62 velocity=89 time=0.1421875\n",
      "note_on channel=6 note=58 velocity=113 time=0.0062499999999999995\n",
      "note_on channel=6 note=55 velocity=119 time=0\n",
      "note_on channel=6 note=50 velocity=106 time=0\n",
      "note_off channel=1 note=36 velocity=0 time=0.10468749999999999\n",
      "note_on channel=9 note=70 velocity=94 time=0.0390625\n",
      "note_on channel=9 note=35 velocity=111 time=0\n",
      "note_on channel=5 note=72 velocity=122 time=0\n",
      "note_on channel=2 note=72 velocity=122 time=0\n",
      "note_on channel=1 note=31 velocity=117 time=0\n",
      "note_on channel=9 note=42 velocity=77 time=0.0031249999999999997\n",
      "note_on channel=9 note=40 velocity=108 time=0\n",
      "note_off channel=9 note=35 velocity=0 time=0.0046875\n",
      "note_off channel=9 note=70 velocity=0 time=0\n",
      "note_off channel=9 note=40 velocity=0 time=0.0031249999999999997\n",
      "note_off channel=9 note=42 velocity=0 time=0\n",
      "note_on channel=5 note=70 velocity=122 time=0.08906249999999999\n",
      "note_on channel=2 note=70 velocity=122 time=0\n",
      "note_off channel=5 note=72 velocity=0 time=0.020312499999999997\n",
      "note_off channel=2 note=72 velocity=0 time=0\n",
      "note_on channel=5 note=67 velocity=118 time=0.0796875\n",
      "note_on channel=2 note=67 velocity=118 time=0\n",
      "note_off channel=5 note=70 velocity=0 time=0.007812499999999999\n",
      "note_off channel=2 note=70 velocity=0 time=0\n",
      "note_off channel=6 note=50 velocity=0 time=0.01875\n",
      "note_off channel=1 note=31 velocity=0 time=0.015624999999999998\n",
      "note_off channel=6 note=62 velocity=0 time=0.015624999999999998\n",
      "note_off channel=6 note=55 velocity=0 time=0.0062499999999999995\n",
      "note_off channel=5 note=67 velocity=0 time=0.024999999999999998\n",
      "note_off channel=2 note=67 velocity=0 time=0\n",
      "note_on channel=6 note=62 velocity=68 time=0.0046875\n",
      "note_on channel=6 note=50 velocity=94 time=0.0031249999999999997\n",
      "note_on channel=9 note=70 velocity=80 time=0.0031249999999999997\n",
      "note_on channel=6 note=53 velocity=110 time=0\n",
      "note_on channel=5 note=65 velocity=118 time=0\n",
      "note_on channel=2 note=65 velocity=118 time=0\n",
      "note_on channel=1 note=34 velocity=114 time=0\n",
      "note_off channel=9 note=70 velocity=0 time=0.007812499999999999\n",
      "note_off channel=5 note=65 velocity=0 time=0.08124999999999999\n",
      "note_off channel=2 note=65 velocity=0 time=0\n",
      "note_on channel=5 note=63 velocity=118 time=0.0109375\n",
      "note_on channel=2 note=63 velocity=118 time=0\n",
      "note_off channel=5 note=63 velocity=0 time=0.08906249999999999\n",
      "note_off channel=2 note=63 velocity=0 time=0\n",
      "note_on channel=5 note=60 velocity=118 time=0.0109375\n",
      "note_on channel=2 note=60 velocity=118 time=0\n",
      "note_off channel=6 note=62 velocity=0 time=0.023437499999999997\n",
      "note_off channel=6 note=53 velocity=0 time=0.0062499999999999995\n",
      "note_off channel=6 note=50 velocity=0 time=0.009375\n",
      "note_off channel=6 note=58 velocity=0 time=0.012499999999999999\n",
      "note_off channel=1 note=34 velocity=0 time=0.012499999999999999\n",
      "note_off channel=5 note=60 velocity=0 time=0.024999999999999998\n",
      "note_off channel=2 note=60 velocity=0 time=0\n",
      "note_on channel=9 note=70 velocity=85 time=0.0109375\n",
      "note_on channel=6 note=67 velocity=97 time=0\n",
      "note_on channel=6 note=63 velocity=97 time=0\n",
      "note_on channel=6 note=60 velocity=97 time=0\n",
      "note_on channel=5 note=58 velocity=112 time=0\n",
      "note_on channel=2 note=58 velocity=112 time=0\n",
      "note_on channel=1 note=36 velocity=118 time=0\n",
      "note_on channel=6 note=48 velocity=97 time=0.0031249999999999997\n",
      "note_off channel=9 note=70 velocity=0 time=0.0046875\n",
      "note_on channel=9 note=42 velocity=68 time=0.0015624999999999999\n",
      "note_on channel=9 note=35 velocity=111 time=0\n",
      "note_off channel=9 note=35 velocity=0 time=0.007812499999999999\n",
      "note_off channel=9 note=42 velocity=0 time=0\n",
      "note_off channel=6 note=67 velocity=0 time=0.06562499999999999\n",
      "note_off channel=1 note=36 velocity=0 time=0.009375\n",
      "note_off channel=6 note=60 velocity=0 time=0.053125\n",
      "note_off channel=6 note=48 velocity=0 time=0.0031249999999999997\n",
      "note_off channel=6 note=63 velocity=0 time=0.012499999999999999\n",
      "note_on channel=6 note=55 velocity=118 time=0.1359375\n",
      "note_on channel=9 note=70 velocity=82 time=0.0031249999999999997\n",
      "note_on channel=6 note=63 velocity=115 time=0\n",
      "note_on channel=1 note=36 velocity=120 time=0\n",
      "note_on channel=6 note=60 velocity=105 time=0.0062499999999999995\n",
      "note_off channel=9 note=70 velocity=0 time=0.0015624999999999999\n",
      "note_off channel=6 note=60 velocity=0 time=0.034374999999999996\n",
      "note_off channel=6 note=63 velocity=0 time=0.103125\n",
      "note_off channel=6 note=55 velocity=0 time=0.0031249999999999997\n",
      "note_off channel=1 note=36 velocity=0 time=0.13749999999999998\n",
      "note_on channel=9 note=70 velocity=91 time=0.014062499999999999\n",
      "note_on channel=1 note=39 velocity=110 time=0\n",
      "note_on channel=9 note=42 velocity=77 time=0.0031249999999999997\n",
      "note_on channel=9 note=40 velocity=106 time=0\n",
      "note_off channel=9 note=70 velocity=0 time=0.0046875\n",
      "note_on channel=9 note=35 velocity=111 time=0.0015624999999999999\n",
      "note_off channel=9 note=40 velocity=0 time=0.0015624999999999999\n",
      "note_off channel=9 note=42 velocity=0 time=0\n",
      "note_off channel=9 note=35 velocity=0 time=0.0062499999999999995\n",
      "note_off channel=1 note=39 velocity=0 time=0.078125\n",
      "note_on channel=6 note=55 velocity=112 time=0.0515625\n",
      "note_on channel=6 note=63 velocity=113 time=0.0031249999999999997\n",
      "note_on channel=6 note=58 velocity=105 time=0\n",
      "note_off channel=6 note=58 velocity=0 time=0.11718749999999999\n",
      "note_off channel=6 note=63 velocity=0 time=0.012499999999999999\n",
      "note_off channel=6 note=55 velocity=0 time=0.009375\n",
      "note_on channel=9 note=70 velocity=81 time=0.0109375\n",
      "note_on channel=1 note=39 velocity=120 time=0\n",
      "note_off channel=9 note=70 velocity=0 time=0.007812499999999999\n",
      "note_off channel=1 note=39 velocity=0 time=0.27812499999999996\n",
      "note_on channel=9 note=70 velocity=85 time=0.014062499999999999\n",
      "note_on channel=9 note=42 velocity=82 time=0\n",
      "note_on channel=9 note=35 velocity=111 time=0\n",
      "note_on channel=6 note=63 velocity=114 time=0\n",
      "note_on channel=6 note=55 velocity=114 time=0\n",
      "note_on channel=1 note=36 velocity=118 time=0\n",
      "note_on channel=6 note=60 velocity=117 time=0.0031249999999999997\n",
      "note_off channel=9 note=35 velocity=0 time=0.0046875\n",
      "note_off channel=9 note=42 velocity=0 time=0\n",
      "note_off channel=9 note=70 velocity=0 time=0\n",
      "note_off channel=6 note=60 velocity=0 time=0.06249999999999999\n",
      "note_off channel=1 note=36 velocity=0 time=0.009375\n",
      "note_off channel=6 note=63 velocity=0 time=0.024999999999999998\n",
      "note_off channel=6 note=55 velocity=0 time=0.012499999999999999\n",
      "note_on channel=9 note=70 velocity=80 time=0.1828125\n",
      "note_on channel=1 note=36 velocity=120 time=0\n",
      "note_off channel=9 note=70 velocity=0 time=0.007812499999999999\n",
      "note_off channel=5 note=58 velocity=0 time=0.034374999999999996\n",
      "note_off channel=2 note=58 velocity=0 time=0\n",
      "note_on channel=6 note=58 velocity=113 time=0.1140625\n",
      "note_on channel=6 note=55 velocity=117 time=0\n",
      "note_on channel=6 note=50 velocity=114 time=0\n",
      "note_off channel=1 note=36 velocity=0 time=0.0953125\n",
      "note_on channel=5 note=58 velocity=116 time=0.0265625\n",
      "note_on channel=2 note=58 velocity=116 time=0\n",
      "note_on channel=9 note=70 velocity=91 time=0.021875\n",
      "note_on channel=9 note=42 velocity=82 time=0\n",
      "note_on channel=9 note=40 velocity=111 time=0\n",
      "note_on channel=9 note=35 velocity=111 time=0\n",
      "note_on channel=1 note=31 velocity=108 time=0\n",
      "note_off channel=9 note=35 velocity=0 time=0.007812499999999999\n",
      "note_off channel=9 note=40 velocity=0 time=0\n",
      "note_off channel=9 note=42 velocity=0 time=0\n",
      "note_off channel=9 note=70 velocity=0 time=0\n",
      "note_off channel=5 note=58 velocity=0 time=0.10625\n",
      "note_off channel=2 note=58 velocity=0 time=0\n",
      "note_on channel=5 note=70 velocity=120 time=0.020312499999999997\n",
      "note_on channel=2 note=70 velocity=120 time=0\n",
      "note_off channel=6 note=55 velocity=0 time=0.10781249999999999\n",
      "note_on channel=5 note=58 velocity=121 time=0.017187499999999998\n",
      "note_on channel=2 note=58 velocity=121 time=0\n",
      "note_off channel=5 note=70 velocity=0 time=0.0015624999999999999\n",
      "note_off channel=2 note=70 velocity=0 time=0\n",
      "note_off channel=1 note=31 velocity=0 time=0.021875\n",
      "note_on channel=6 note=53 velocity=117 time=0.014062499999999999\n",
      "note_on channel=9 note=70 velocity=84 time=0.0031249999999999997\n",
      "note_on channel=1 note=34 velocity=118 time=0\n",
      "note_off channel=9 note=70 velocity=0 time=0.007812499999999999\n",
      "note_on channel=5 note=59 velocity=117 time=0.12031249999999999\n",
      "note_on channel=2 note=59 velocity=117 time=0\n",
      "note_off channel=5 note=58 velocity=0 time=0.0109375\n",
      "note_off channel=2 note=58 velocity=0 time=0\n",
      "note_off channel=1 note=34 velocity=0 time=0.0062499999999999995\n",
      "note_off channel=6 note=50 velocity=0 time=0.031249999999999997\n",
      "note_off channel=6 note=53 velocity=0 time=0.049999999999999996\n",
      "note_off channel=6 note=58 velocity=0 time=0\n",
      "note_off channel=5 note=59 velocity=0 time=0.06249999999999999\n",
      "note_off channel=2 note=59 velocity=0 time=0\n",
      "note_on channel=5 note=72 velocity=105 time=0.007812499999999999\n",
      "note_on channel=2 note=72 velocity=105 time=0\n",
      "note_on channel=9 note=70 velocity=97 time=0.0031249999999999997\n",
      "note_on channel=9 note=42 velocity=80 time=0\n",
      "note_on channel=9 note=35 velocity=111 time=0\n",
      "note_on channel=6 note=63 velocity=99 time=0\n",
      "note_on channel=6 note=60 velocity=99 time=0\n",
      "note_on channel=5 note=60 velocity=125 time=0\n",
      "note_on channel=2 note=60 velocity=125 time=0\n",
      "note_on channel=1 note=36 velocity=118 time=0\n",
      "note_on channel=6 note=48 velocity=101 time=0.0031249999999999997\n",
      "note_off channel=9 note=35 velocity=0 time=0.0046875\n",
      "note_off channel=9 note=42 velocity=0 time=0\n",
      "note_off channel=9 note=70 velocity=0 time=0\n",
      "note_off channel=5 note=72 velocity=0 time=0.090625\n",
      "note_off channel=2 note=72 velocity=0 time=0\n",
      "note_off channel=5 note=60 velocity=0 time=0.015624999999999998\n",
      "note_off channel=2 note=60 velocity=0 time=0\n",
      "note_off channel=1 note=36 velocity=0 time=0\n",
      "note_off channel=6 note=60 velocity=0 time=0.031249999999999997\n",
      "note_off channel=6 note=48 velocity=0 time=0.0031249999999999997\n",
      "note_off channel=6 note=63 velocity=0 time=0.012499999999999999\n",
      "note_on channel=9 note=70 velocity=84 time=0.13906249999999998\n",
      "note_on channel=6 note=67 velocity=97 time=0\n",
      "note_on channel=1 note=36 velocity=119 time=0\n",
      "note_on channel=6 note=63 velocity=115 time=0.0031249999999999997\n",
      "note_on channel=6 note=60 velocity=118 time=0\n",
      "note_on channel=6 note=55 velocity=117 time=0\n",
      "note_off channel=9 note=70 velocity=0 time=0.0046875\n",
      "note_off channel=6 note=60 velocity=0 time=0.075\n",
      "note_off channel=6 note=67 velocity=0 time=0.009375\n",
      "note_off channel=6 note=55 velocity=0 time=0.0031249999999999997\n",
      "note_off channel=6 note=63 velocity=0 time=0.01875\n",
      "note_off channel=1 note=36 velocity=0 time=0.17187499999999997\n",
      "note_on channel=9 note=70 velocity=87 time=0.014062499999999999\n",
      "note_on channel=9 note=42 velocity=72 time=0\n",
      "note_on channel=9 note=40 velocity=111 time=0\n",
      "note_on channel=9 note=35 velocity=111 time=0\n",
      "note_on channel=1 note=39 velocity=116 time=0\n",
      "note_off channel=9 note=35 velocity=0 time=0.007812499999999999\n",
      "note_off channel=9 note=40 velocity=0 time=0\n",
      "note_off channel=9 note=42 velocity=0 time=0\n",
      "note_off channel=9 note=70 velocity=0 time=0\n",
      "note_off channel=1 note=39 velocity=0 time=0.071875\n",
      "note_on channel=6 note=67 velocity=97 time=0.07343749999999999\n",
      "note_on channel=6 note=63 velocity=115 time=0.0031249999999999997\n",
      "note_on channel=6 note=58 velocity=119 time=0\n",
      "note_on channel=6 note=55 velocity=117 time=0\n",
      "note_off channel=6 note=58 velocity=0 time=0.0984375\n",
      "note_off channel=6 note=63 velocity=0 time=0.021875\n",
      "note_off channel=6 note=67 velocity=0 time=0\n",
      "note_off channel=6 note=55 velocity=0 time=0.0031249999999999997\n",
      "note_on channel=9 note=70 velocity=72 time=0.020312499999999997\n",
      "note_on channel=1 note=39 velocity=116 time=0\n",
      "note_off channel=9 note=70 velocity=0 time=0.007812499999999999\n",
      "note_off channel=1 note=39 velocity=0 time=0.27812499999999996\n",
      "note_on channel=9 note=42 velocity=80 time=0.0109375\n",
      "note_on channel=9 note=35 velocity=111 time=0\n",
      "note_on channel=6 note=67 velocity=95 time=0\n",
      "note_on channel=9 note=70 velocity=91 time=0.0031249999999999997\n",
      "note_on channel=6 note=63 velocity=116 time=0\n",
      "note_on channel=6 note=60 velocity=118 time=0\n",
      "note_on channel=6 note=55 velocity=115 time=0\n",
      "note_on channel=1 note=36 velocity=113 time=0\n",
      "note_off channel=9 note=35 velocity=0 time=0.0046875\n",
      "note_off channel=9 note=42 velocity=0 time=0\n",
      "note_off channel=9 note=70 velocity=0 time=0.0031249999999999997\n",
      "note_off channel=6 note=60 velocity=0 time=0.06562499999999999\n",
      "note_off channel=1 note=36 velocity=0 time=0\n",
      "note_off channel=6 note=67 velocity=0 time=0.028124999999999997\n",
      "note_off channel=6 note=55 velocity=0 time=0.0031249999999999997\n",
      "note_off channel=6 note=63 velocity=0 time=0.0031249999999999997\n",
      "note_on channel=9 note=70 velocity=78 time=0.19218749999999998\n",
      "note_on channel=1 note=36 velocity=121 time=0\n",
      "note_off channel=9 note=70 velocity=0 time=0.007812499999999999\n",
      "note_on channel=6 note=62 velocity=89 time=0.1421875\n",
      "note_on channel=6 note=58 velocity=113 time=0.0062499999999999995\n",
      "note_on channel=6 note=55 velocity=119 time=0\n",
      "note_on channel=6 note=50 velocity=106 time=0\n",
      "note_off channel=1 note=36 velocity=0 time=0.12031249999999999\n",
      "note_on channel=9 note=35 velocity=111 time=0.020312499999999997\n",
      "note_on channel=9 note=70 velocity=94 time=0.0031249999999999997\n",
      "note_on channel=1 note=31 velocity=118 time=0\n",
      "note_on channel=9 note=42 velocity=77 time=0.0031249999999999997\n",
      "note_on channel=9 note=40 velocity=108 time=0\n",
      "note_off channel=9 note=35 velocity=0 time=0.0015624999999999999\n",
      "note_off channel=9 note=70 velocity=0 time=0.0031249999999999997\n",
      "note_off channel=9 note=40 velocity=0 time=0.0031249999999999997\n",
      "note_off channel=9 note=42 velocity=0 time=0\n",
      "note_off channel=6 note=50 velocity=0 time=0.21562499999999998\n",
      "note_off channel=6 note=62 velocity=0 time=0.031249999999999997\n",
      "note_off channel=6 note=55 velocity=0 time=0.0062499999999999995\n",
      "note_off channel=1 note=31 velocity=0 time=0.0062499999999999995\n",
      "note_off channel=6 note=58 velocity=0 time=0.01875\n",
      "note_on channel=6 note=50 velocity=94 time=0.007812499999999999\n",
      "note_on channel=9 note=70 velocity=80 time=0.0031249999999999997\n",
      "note_on channel=6 note=58 velocity=90 time=0\n",
      "note_on channel=6 note=53 velocity=110 time=0\n",
      "note_on channel=1 note=34 velocity=118 time=0\n",
      "note_off channel=9 note=70 velocity=0 time=0.007812499999999999\n",
      "note_off channel=6 note=58 velocity=0 time=0.21874999999999997\n",
      "note_off channel=6 note=53 velocity=0 time=0.0031249999999999997\n",
      "note_off channel=6 note=50 velocity=0 time=0.009375\n",
      "note_off channel=1 note=34 velocity=0 time=0.01875\n",
      "note_on channel=9 note=70 velocity=85 time=0.042187499999999996\n",
      "note_on channel=6 note=67 velocity=97 time=0\n",
      "note_on channel=6 note=63 velocity=97 time=0\n",
      "note_on channel=6 note=60 velocity=97 time=0\n",
      "note_on channel=1 note=36 velocity=118 time=0\n",
      "note_on channel=6 note=48 velocity=97 time=0.0031249999999999997\n",
      "note_off channel=9 note=70 velocity=0 time=0.0046875\n",
      "note_on channel=9 note=42 velocity=80 time=0.0015624999999999999\n",
      "note_on channel=9 note=35 velocity=111 time=0\n",
      "note_off channel=9 note=35 velocity=0 time=0.007812499999999999\n",
      "note_off channel=9 note=42 velocity=0 time=0\n",
      "note_off channel=6 note=67 velocity=0 time=0.06562499999999999\n",
      "note_off channel=1 note=36 velocity=0 time=0.01875\n",
      "note_off channel=6 note=60 velocity=0 time=0.04375\n",
      "note_off channel=6 note=48 velocity=0 time=0.0031249999999999997\n",
      "note_off channel=6 note=63 velocity=0 time=0.012499999999999999\n",
      "note_on channel=6 note=55 velocity=118 time=0.1359375\n",
      "note_on channel=9 note=70 velocity=82 time=0.0031249999999999997\n",
      "note_on channel=6 note=63 velocity=115 time=0\n",
      "note_on channel=1 note=36 velocity=118 time=0\n",
      "note_on channel=6 note=60 velocity=105 time=0.0062499999999999995\n",
      "note_off channel=9 note=70 velocity=0 time=0.0015624999999999999\n",
      "note_off channel=6 note=60 velocity=0 time=0.034374999999999996\n",
      "note_off channel=6 note=63 velocity=0 time=0.103125\n",
      "note_off channel=6 note=55 velocity=0 time=0.0031249999999999997\n",
      "note_off channel=1 note=36 velocity=0 time=0.13749999999999998\n",
      "note_on channel=9 note=70 velocity=91 time=0.014062499999999999\n",
      "note_on channel=1 note=39 velocity=111 time=0\n",
      "note_on channel=9 note=42 velocity=77 time=0.0031249999999999997\n",
      "note_on channel=9 note=40 velocity=106 time=0\n",
      "note_off channel=9 note=70 velocity=0 time=0.0046875\n",
      "note_on channel=9 note=35 velocity=111 time=0.0015624999999999999\n",
      "note_off channel=9 note=40 velocity=0 time=0.0015624999999999999\n",
      "note_off channel=9 note=42 velocity=0 time=0\n",
      "note_off channel=9 note=35 velocity=0 time=0.0062499999999999995\n",
      "note_off channel=1 note=39 velocity=0 time=0.071875\n",
      "note_on channel=6 note=55 velocity=112 time=0.057812499999999996\n",
      "note_on channel=6 note=63 velocity=113 time=0.0031249999999999997\n",
      "note_on channel=6 note=58 velocity=105 time=0\n",
      "note_off channel=6 note=58 velocity=0 time=0.11718749999999999\n",
      "note_off channel=6 note=63 velocity=0 time=0.012499999999999999\n",
      "note_off channel=6 note=55 velocity=0 time=0.009375\n",
      "note_on channel=9 note=70 velocity=81 time=0.0109375\n",
      "note_on channel=1 note=39 velocity=115 time=0\n",
      "note_off channel=9 note=70 velocity=0 time=0.007812499999999999\n",
      "note_off channel=1 note=39 velocity=0 time=0.27812499999999996\n",
      "note_on channel=9 note=70 velocity=85 time=0.014062499999999999\n",
      "note_on channel=9 note=42 velocity=82 time=0\n",
      "note_on channel=9 note=35 velocity=111 time=0\n",
      "note_on channel=6 note=63 velocity=114 time=0\n",
      "note_on channel=6 note=55 velocity=114 time=0\n",
      "note_on channel=1 note=36 velocity=119 time=0\n",
      "note_on channel=6 note=60 velocity=117 time=0.0031249999999999997\n",
      "note_off channel=9 note=35 velocity=0 time=0.0046875\n",
      "note_off channel=9 note=42 velocity=0 time=0\n",
      "note_off channel=9 note=70 velocity=0 time=0\n",
      "note_off channel=6 note=60 velocity=0 time=0.06249999999999999\n",
      "note_off channel=1 note=36 velocity=0 time=0.01875\n",
      "note_off channel=6 note=63 velocity=0 time=0.015624999999999998\n",
      "note_off channel=6 note=55 velocity=0 time=0.012499999999999999\n",
      "note_on channel=9 note=70 velocity=80 time=0.1828125\n",
      "note_on channel=1 note=36 velocity=120 time=0\n",
      "note_off channel=9 note=70 velocity=0 time=0.007812499999999999\n",
      "note_on channel=6 note=58 velocity=113 time=0.1484375\n",
      "note_on channel=6 note=55 velocity=117 time=0\n",
      "note_on channel=6 note=50 velocity=114 time=0\n",
      "note_off channel=1 note=36 velocity=0 time=0.10781249999999999\n",
      "note_on channel=9 note=70 velocity=91 time=0.0359375\n",
      "note_on channel=9 note=42 velocity=64 time=0\n",
      "note_on channel=9 note=40 velocity=111 time=0\n",
      "note_on channel=9 note=35 velocity=111 time=0\n",
      "note_on channel=1 note=31 velocity=120 time=0\n",
      "note_off channel=9 note=35 velocity=0 time=0.007812499999999999\n",
      "note_off channel=9 note=40 velocity=0 time=0\n",
      "note_off channel=9 note=42 velocity=0 time=0\n",
      "note_off channel=9 note=70 velocity=0 time=0\n",
      "note_off channel=6 note=55 velocity=0 time=0.23437499999999997\n",
      "note_off channel=1 note=31 velocity=0 time=0.01875\n",
      "note_on channel=6 note=53 velocity=117 time=0.0359375\n",
      "note_on channel=9 note=70 velocity=84 time=0.0031249999999999997\n",
      "note_on channel=1 note=34 velocity=115 time=0\n",
      "note_off channel=9 note=70 velocity=0 time=0.007812499999999999\n",
      "note_off channel=6 note=50 velocity=0 time=0.16874999999999998\n",
      "note_off channel=6 note=53 velocity=0 time=0.049999999999999996\n",
      "note_off channel=6 note=58 velocity=0 time=0\n",
      "note_off channel=1 note=34 velocity=0 time=0.056249999999999994\n",
      "note_on channel=9 note=70 velocity=97 time=0.017187499999999998\n",
      "note_on channel=9 note=42 velocity=80 time=0\n",
      "note_on channel=9 note=35 velocity=110 time=0\n",
      "note_on channel=6 note=63 velocity=99 time=0\n",
      "note_on channel=6 note=60 velocity=99 time=0\n",
      "note_on channel=1 note=36 velocity=116 time=0\n",
      "note_on channel=6 note=48 velocity=101 time=0.0031249999999999997\n",
      "note_off channel=9 note=35 velocity=0 time=0.0046875\n",
      "note_off channel=9 note=42 velocity=0 time=0\n",
      "note_off channel=9 note=70 velocity=0 time=0\n",
      "note_off channel=1 note=36 velocity=0 time=0.11249999999999999\n",
      "note_off channel=6 note=60 velocity=0 time=0.024999999999999998\n",
      "note_off channel=6 note=48 velocity=0 time=0.0031249999999999997\n",
      "note_off channel=6 note=63 velocity=0 time=0.012499999999999999\n",
      "note_on channel=9 note=70 velocity=84 time=0.13906249999999998\n",
      "note_on channel=6 note=67 velocity=97 time=0\n",
      "note_on channel=1 note=36 velocity=117 time=0\n",
      "note_on channel=6 note=63 velocity=115 time=0.0031249999999999997\n",
      "note_on channel=6 note=60 velocity=118 time=0\n",
      "note_on channel=6 note=55 velocity=117 time=0\n",
      "note_off channel=9 note=70 velocity=0 time=0.0046875\n",
      "note_off channel=6 note=60 velocity=0 time=0.075\n",
      "note_off channel=6 note=67 velocity=0 time=0.009375\n",
      "note_off channel=6 note=55 velocity=0 time=0.0031249999999999997\n",
      "note_off channel=6 note=63 velocity=0 time=0.01875\n",
      "note_off channel=1 note=36 velocity=0 time=0.17187499999999997\n",
      "note_on channel=9 note=70 velocity=87 time=0.014062499999999999\n",
      "note_on channel=9 note=42 velocity=72 time=0\n",
      "note_on channel=9 note=40 velocity=111 time=0\n",
      "note_on channel=9 note=35 velocity=110 time=0\n",
      "note_on channel=1 note=39 velocity=113 time=0\n",
      "note_off channel=9 note=35 velocity=0 time=0.007812499999999999\n",
      "note_off channel=9 note=40 velocity=0 time=0\n",
      "note_off channel=9 note=42 velocity=0 time=0\n",
      "note_off channel=9 note=70 velocity=0 time=0\n",
      "note_off channel=1 note=39 velocity=0 time=0.090625\n",
      "note_on channel=6 note=67 velocity=97 time=0.05468749999999999\n",
      "note_on channel=6 note=63 velocity=115 time=0.0031249999999999997\n",
      "note_on channel=6 note=58 velocity=119 time=0\n",
      "note_on channel=6 note=55 velocity=117 time=0\n",
      "note_off channel=6 note=58 velocity=0 time=0.0984375\n",
      "note_off channel=6 note=63 velocity=0 time=0.021875\n",
      "note_off channel=6 note=67 velocity=0 time=0\n",
      "note_off channel=6 note=55 velocity=0 time=0.0031249999999999997\n",
      "note_on channel=9 note=70 velocity=72 time=0.020312499999999997\n",
      "note_on channel=1 note=39 velocity=116 time=0\n",
      "note_off channel=9 note=70 velocity=0 time=0.007812499999999999\n",
      "note_off channel=1 note=39 velocity=0 time=0.26875\n",
      "note_on channel=9 note=42 velocity=77 time=0.020312499999999997\n",
      "note_on channel=6 note=67 velocity=95 time=0\n",
      "note_on channel=9 note=70 velocity=91 time=0.0031249999999999997\n",
      "note_on channel=9 note=35 velocity=111 time=0\n",
      "note_on channel=6 note=63 velocity=116 time=0\n",
      "note_on channel=6 note=60 velocity=118 time=0\n",
      "note_on channel=6 note=55 velocity=115 time=0\n",
      "note_on channel=1 note=36 velocity=118 time=0\n",
      "note_off channel=9 note=42 velocity=0 time=0.0046875\n",
      "note_off channel=9 note=35 velocity=0 time=0.0031249999999999997\n",
      "note_off channel=9 note=70 velocity=0 time=0\n",
      "note_off channel=6 note=60 velocity=0 time=0.06562499999999999\n",
      "note_off channel=6 note=67 velocity=0 time=0.028124999999999997\n",
      "note_off channel=6 note=55 velocity=0 time=0.0031249999999999997\n",
      "note_off channel=6 note=63 velocity=0 time=0.0031249999999999997\n",
      "note_off channel=1 note=36 velocity=0 time=0\n",
      "note_on channel=9 note=70 velocity=78 time=0.19218749999999998\n",
      "note_on channel=1 note=36 velocity=117 time=0\n",
      "note_off channel=9 note=70 velocity=0 time=0.007812499999999999\n",
      "note_on channel=6 note=62 velocity=89 time=0.1421875\n",
      "note_on channel=6 note=58 velocity=113 time=0.0062499999999999995\n",
      "note_on channel=6 note=55 velocity=119 time=0\n",
      "note_on channel=6 note=50 velocity=106 time=0\n",
      "note_off channel=1 note=36 velocity=0 time=0.10468749999999999\n",
      "note_on channel=9 note=70 velocity=94 time=0.0390625\n",
      "note_on channel=9 note=35 velocity=111 time=0\n",
      "note_on channel=1 note=31 velocity=117 time=0\n",
      "note_on channel=9 note=42 velocity=77 time=0.0031249999999999997\n",
      "note_on channel=9 note=40 velocity=108 time=0\n",
      "note_off channel=9 note=35 velocity=0 time=0.0046875\n",
      "note_off channel=9 note=70 velocity=0 time=0\n",
      "note_off channel=9 note=40 velocity=0 time=0.0031249999999999997\n",
      "note_off channel=9 note=42 velocity=0 time=0\n",
      "note_off channel=6 note=50 velocity=0 time=0.21562499999999998\n",
      "note_off channel=1 note=31 velocity=0 time=0.015624999999999998\n",
      "note_off channel=6 note=62 velocity=0 time=0.015624999999999998\n",
      "note_off channel=6 note=55 velocity=0 time=0.0062499999999999995\n",
      "note_on channel=6 note=62 velocity=68 time=0.0296875\n",
      "note_on channel=6 note=50 velocity=94 time=0.0031249999999999997\n",
      "note_on channel=9 note=70 velocity=80 time=0.0031249999999999997\n",
      "note_on channel=6 note=53 velocity=110 time=0\n",
      "note_on channel=1 note=34 velocity=114 time=0\n",
      "note_off channel=9 note=70 velocity=0 time=0.007812499999999999\n",
      "note_off channel=6 note=62 velocity=0 time=0.21562499999999998\n",
      "note_off channel=6 note=53 velocity=0 time=0.0062499999999999995\n",
      "note_off channel=6 note=50 velocity=0 time=0.009375\n",
      "note_off channel=6 note=58 velocity=0 time=0.012499999999999999\n",
      "note_off channel=1 note=34 velocity=0 time=0.012499999999999999\n",
      "note_on channel=9 note=70 velocity=85 time=0.0359375\n",
      "note_on channel=6 note=67 velocity=97 time=0\n",
      "note_on channel=6 note=63 velocity=97 time=0\n",
      "note_on channel=6 note=60 velocity=97 time=0\n",
      "note_on channel=1 note=36 velocity=118 time=0\n",
      "note_on channel=6 note=48 velocity=97 time=0.0031249999999999997\n",
      "note_off channel=9 note=70 velocity=0 time=0.0046875\n",
      "note_on channel=9 note=42 velocity=68 time=0.0015624999999999999\n",
      "note_on channel=9 note=35 velocity=111 time=0\n",
      "note_off channel=9 note=35 velocity=0 time=0.007812499999999999\n",
      "note_off channel=9 note=42 velocity=0 time=0\n",
      "note_off channel=6 note=67 velocity=0 time=0.06562499999999999\n",
      "note_off channel=1 note=36 velocity=0 time=0.009375\n",
      "note_off channel=6 note=60 velocity=0 time=0.053125\n",
      "note_off channel=6 note=48 velocity=0 time=0.0031249999999999997\n",
      "note_off channel=6 note=63 velocity=0 time=0.012499999999999999\n",
      "note_on channel=6 note=55 velocity=118 time=0.1359375\n",
      "note_on channel=9 note=70 velocity=82 time=0.0031249999999999997\n",
      "note_on channel=9 note=40 velocity=106 time=0\n",
      "note_on channel=6 note=63 velocity=115 time=0\n",
      "note_on channel=1 note=36 velocity=120 time=0\n",
      "note_on channel=6 note=60 velocity=105 time=0.0062499999999999995\n",
      "note_off channel=9 note=40 velocity=0 time=0.0015624999999999999\n",
      "note_off channel=9 note=70 velocity=0 time=0\n",
      "note_off channel=6 note=60 velocity=0 time=0.034374999999999996\n",
      "note_off channel=6 note=63 velocity=0 time=0.103125\n",
      "note_off channel=6 note=55 velocity=0 time=0.0031249999999999997\n",
      "note_off channel=1 note=36 velocity=0 time=0.13749999999999998\n",
      "note_on channel=9 note=70 velocity=91 time=0.014062499999999999\n",
      "note_on channel=9 note=43 velocity=106 time=0\n",
      "note_on channel=1 note=39 velocity=110 time=0\n",
      "note_on channel=9 note=42 velocity=77 time=0.0031249999999999997\n",
      "note_off channel=9 note=43 velocity=0 time=0.0046875\n",
      "note_off channel=9 note=70 velocity=0 time=0\n",
      "note_on channel=9 note=35 velocity=111 time=0.0015624999999999999\n",
      "note_off channel=9 note=42 velocity=0 time=0.0015624999999999999\n",
      "note_off channel=9 note=35 velocity=0 time=0.0062499999999999995\n",
      "note_off channel=1 note=39 velocity=0 time=0.078125\n",
      "note_on channel=6 note=55 velocity=112 time=0.0515625\n",
      "note_on channel=6 note=63 velocity=113 time=0.0031249999999999997\n",
      "note_on channel=6 note=58 velocity=105 time=0\n",
      "note_off channel=6 note=58 velocity=0 time=0.11718749999999999\n",
      "note_off channel=6 note=63 velocity=0 time=0.012499999999999999\n",
      "note_off channel=6 note=55 velocity=0 time=0.009375\n",
      "note_on channel=9 note=70 velocity=81 time=0.0109375\n",
      "note_on channel=1 note=39 velocity=120 time=0\n",
      "note_off channel=9 note=70 velocity=0 time=0.007812499999999999\n",
      "note_on channel=9 note=43 velocity=106 time=0.1421875\n",
      "note_off channel=9 note=43 velocity=0 time=0.007812499999999999\n",
      "note_off channel=1 note=39 velocity=0 time=0.128125\n",
      "note_on channel=9 note=70 velocity=85 time=0.014062499999999999\n",
      "note_on channel=9 note=47 velocity=106 time=0\n",
      "note_on channel=9 note=42 velocity=82 time=0\n",
      "note_on channel=9 note=35 velocity=111 time=0\n",
      "note_on channel=6 note=63 velocity=114 time=0\n",
      "note_on channel=6 note=55 velocity=114 time=0\n",
      "note_on channel=1 note=36 velocity=118 time=0\n",
      "note_on channel=6 note=60 velocity=117 time=0.0031249999999999997\n",
      "note_off channel=9 note=35 velocity=0 time=0.0046875\n",
      "note_off channel=9 note=42 velocity=0 time=0\n",
      "note_off channel=9 note=47 velocity=0 time=0\n",
      "note_off channel=9 note=70 velocity=0 time=0\n",
      "note_off channel=6 note=60 velocity=0 time=0.06249999999999999\n",
      "note_off channel=1 note=36 velocity=0 time=0.009375\n",
      "note_off channel=6 note=63 velocity=0 time=0.024999999999999998\n",
      "note_off channel=6 note=55 velocity=0 time=0.012499999999999999\n",
      "note_on channel=9 note=70 velocity=80 time=0.1828125\n",
      "note_on channel=9 note=47 velocity=86 time=0\n",
      "note_on channel=1 note=36 velocity=120 time=0\n",
      "note_off channel=9 note=47 velocity=0 time=0.007812499999999999\n",
      "note_off channel=9 note=70 velocity=0 time=0\n",
      "note_on channel=6 note=58 velocity=113 time=0.1484375\n",
      "note_on channel=6 note=55 velocity=117 time=0\n",
      "note_on channel=6 note=50 velocity=114 time=0\n",
      "note_off channel=1 note=36 velocity=0 time=0.0953125\n",
      "note_on channel=9 note=70 velocity=91 time=0.048437499999999994\n",
      "note_on channel=9 note=43 velocity=86 time=0\n",
      "note_on channel=9 note=35 velocity=111 time=0\n",
      "note_on channel=1 note=31 velocity=108 time=0\n",
      "note_off channel=9 note=35 velocity=0 time=0.007812499999999999\n",
      "note_off channel=9 note=43 velocity=0 time=0\n",
      "note_off channel=9 note=70 velocity=0 time=0\n",
      "note_on channel=9 note=43 velocity=86 time=0.1421875\n",
      "note_off channel=9 note=43 velocity=0 time=0.007812499999999999\n",
      "note_off channel=6 note=55 velocity=0 time=0.08437499999999999\n",
      "note_off channel=1 note=31 velocity=0 time=0.040624999999999994\n",
      "note_on channel=6 note=53 velocity=117 time=0.014062499999999999\n",
      "note_on channel=9 note=70 velocity=84 time=0.0031249999999999997\n",
      "note_on channel=9 note=46 velocity=82 time=0\n",
      "note_on channel=1 note=34 velocity=118 time=0\n",
      "note_off channel=9 note=46 velocity=0 time=0.007812499999999999\n",
      "note_off channel=9 note=70 velocity=0 time=0\n",
      "note_off channel=1 note=34 velocity=0 time=0.13749999999999998\n",
      "note_off channel=6 note=50 velocity=0 time=0.031249999999999997\n",
      "note_off channel=6 note=53 velocity=0 time=0.049999999999999996\n",
      "note_off channel=6 note=58 velocity=0 time=0\n",
      "note_on channel=15 note=72 velocity=1 time=0.07343749999999999\n",
      "note_on channel=9 note=70 velocity=97 time=0\n",
      "note_on channel=9 note=49 velocity=56 time=0\n",
      "note_on channel=9 note=35 velocity=111 time=0\n",
      "note_on channel=6 note=63 velocity=99 time=0\n",
      "note_on channel=6 note=60 velocity=99 time=0\n",
      "note_on channel=4 note=79 velocity=99 time=0\n",
      "note_on channel=3 note=79 velocity=124 time=0\n",
      "note_on channel=1 note=36 velocity=118 time=0\n",
      "note_on channel=6 note=48 velocity=101 time=0.0031249999999999997\n",
      "note_off channel=9 note=35 velocity=0 time=0.0046875\n",
      "note_off channel=9 note=49 velocity=0 time=0\n",
      "note_off channel=9 note=70 velocity=0 time=0\n",
      "note_off channel=1 note=36 velocity=0 time=0.10625\n",
      "note_off channel=6 note=60 velocity=0 time=0.031249999999999997\n",
      "note_off channel=6 note=48 velocity=0 time=0.0031249999999999997\n",
      "note_off channel=6 note=63 velocity=0 time=0.012499999999999999\n",
      "note_on channel=9 note=70 velocity=84 time=0.13906249999999998\n",
      "note_on channel=6 note=67 velocity=97 time=0\n",
      "note_on channel=1 note=36 velocity=119 time=0\n",
      "note_on channel=6 note=63 velocity=115 time=0.0031249999999999997\n",
      "note_on channel=6 note=60 velocity=118 time=0\n",
      "note_on channel=6 note=55 velocity=117 time=0\n",
      "note_off channel=9 note=70 velocity=0 time=0.0046875\n",
      "note_off channel=6 note=60 velocity=0 time=0.075\n",
      "note_off channel=6 note=67 velocity=0 time=0.009375\n",
      "note_off channel=6 note=55 velocity=0 time=0.0031249999999999997\n",
      "note_off channel=6 note=63 velocity=0 time=0.01875\n",
      "note_off channel=4 note=79 velocity=0 time=0.0062499999999999995\n",
      "note_off channel=3 note=79 velocity=0 time=0\n",
      "note_on channel=4 note=77 velocity=100 time=0.1640625\n",
      "note_on channel=3 note=77 velocity=125 time=0\n",
      "note_off channel=1 note=36 velocity=0 time=0.0015624999999999999\n",
      "note_off channel=15 note=72 velocity=0 time=0.009375\n",
      "note_on channel=15 note=67 velocity=1 time=0.0046875\n",
      "note_on channel=9 note=70 velocity=87 time=0\n",
      "note_on channel=9 note=42 velocity=72 time=0\n",
      "note_on channel=9 note=40 velocity=111 time=0\n",
      "note_on channel=9 note=35 velocity=111 time=0\n",
      "note_on channel=1 note=39 velocity=116 time=0\n",
      "note_off channel=9 note=35 velocity=0 time=0.007812499999999999\n",
      "note_off channel=9 note=40 velocity=0 time=0\n",
      "note_off channel=9 note=42 velocity=0 time=0\n",
      "note_off channel=9 note=70 velocity=0 time=0\n",
      "note_off channel=1 note=39 velocity=0 time=0.071875\n",
      "note_off channel=3 note=77 velocity=0 time=0.053125\n",
      "note_on channel=4 note=75 velocity=97 time=0.007812499999999999\n",
      "note_on channel=3 note=75 velocity=122 time=0\n",
      "note_off channel=4 note=77 velocity=0 time=0.0046875\n",
      "note_on channel=6 note=67 velocity=97 time=0.007812499999999999\n",
      "note_on channel=6 note=63 velocity=115 time=0.0031249999999999997\n",
      "note_on channel=6 note=58 velocity=119 time=0\n",
      "note_on channel=6 note=55 velocity=117 time=0\n",
      "note_off channel=6 note=58 velocity=0 time=0.0984375\n",
      "note_off channel=6 note=63 velocity=0 time=0.021875\n",
      "note_off channel=6 note=67 velocity=0 time=0\n",
      "note_off channel=6 note=55 velocity=0 time=0.0031249999999999997\n",
      "note_on channel=9 note=70 velocity=72 time=0.020312499999999997\n",
      "note_on channel=1 note=39 velocity=116 time=0\n",
      "note_off channel=9 note=70 velocity=0 time=0.007812499999999999\n",
      "note_off channel=4 note=75 velocity=0 time=0.08124999999999999\n",
      "note_off channel=3 note=75 velocity=0 time=0\n",
      "note_off channel=15 note=67 velocity=0 time=0.056249999999999994\n",
      "note_on channel=15 note=72 velocity=1 time=0.0046875\n",
      "note_on channel=4 note=79 velocity=98 time=0.024999999999999998\n",
      "note_on channel=3 note=79 velocity=123 time=0\n",
      "note_off channel=1 note=39 velocity=0 time=0.1109375\n",
      "note_on channel=9 note=42 velocity=80 time=0.0109375\n",
      "note_on channel=9 note=35 velocity=111 time=0\n",
      "note_on channel=6 note=67 velocity=95 time=0\n",
      "note_on channel=9 note=70 velocity=91 time=0.0031249999999999997\n",
      "note_on channel=6 note=63 velocity=116 time=0\n",
      "note_on channel=6 note=60 velocity=118 time=0\n",
      "note_on channel=6 note=55 velocity=115 time=0\n",
      "note_on channel=1 note=36 velocity=113 time=0\n",
      "note_off channel=9 note=35 velocity=0 time=0.0046875\n",
      "note_off channel=9 note=42 velocity=0 time=0\n",
      "note_off channel=9 note=70 velocity=0 time=0.0031249999999999997\n",
      "note_on channel=5 note=65 velocity=125 time=0.0109375\n",
      "note_off channel=6 note=60 velocity=0 time=0.05468749999999999\n",
      "note_off channel=1 note=36 velocity=0 time=0\n",
      "note_off channel=6 note=67 velocity=0 time=0.028124999999999997\n",
      "note_off channel=6 note=55 velocity=0 time=0.0031249999999999997\n",
      "note_off channel=6 note=63 velocity=0 time=0.0031249999999999997\n",
      "note_off channel=5 note=65 velocity=0 time=0.04687499999999999\n",
      "note_on channel=5 note=66 velocity=116 time=0.0015624999999999999\n",
      "note_off channel=5 note=66 velocity=0 time=0.1140625\n",
      "note_on channel=9 note=70 velocity=78 time=0.0296875\n",
      "note_on channel=1 note=36 velocity=121 time=0\n",
      "note_on channel=5 note=67 velocity=117 time=0.0062499999999999995\n",
      "note_off channel=9 note=70 velocity=0 time=0.0015624999999999999\n",
      "note_off channel=5 note=67 velocity=0 time=0.13124999999999998\n",
      "note_on channel=6 note=62 velocity=89 time=0.0109375\n",
      "note_on channel=6 note=58 velocity=113 time=0.0062499999999999995\n",
      "note_on channel=6 note=55 velocity=119 time=0\n",
      "note_on channel=6 note=50 velocity=106 time=0\n",
      "note_on channel=5 note=70 velocity=122 time=0.0031249999999999997\n",
      "note_off channel=4 note=79 velocity=0 time=0.0015624999999999999\n",
      "note_off channel=3 note=79 velocity=0 time=0\n",
      "note_off channel=5 note=70 velocity=0 time=0.08437499999999999\n",
      "note_on channel=5 note=75 velocity=121 time=0.0109375\n",
      "note_off channel=1 note=36 velocity=0 time=0.020312499999999997\n",
      "note_on channel=9 note=35 velocity=111 time=0.020312499999999997\n",
      "note_on channel=9 note=70 velocity=94 time=0.0031249999999999997\n",
      "note_on channel=1 note=31 velocity=118 time=0\n",
      "note_on channel=9 note=42 velocity=77 time=0.0031249999999999997\n",
      "note_on channel=9 note=40 velocity=108 time=0\n",
      "note_off channel=9 note=35 velocity=0 time=0.0015624999999999999\n",
      "note_off channel=9 note=70 velocity=0 time=0.0031249999999999997\n",
      "note_off channel=9 note=40 velocity=0 time=0.0031249999999999997\n",
      "note_off channel=9 note=42 velocity=0 time=0\n",
      "note_off channel=5 note=75 velocity=0 time=0.08437499999999999\n",
      "note_on channel=5 note=72 velocity=119 time=0.0390625\n",
      "note_off channel=6 note=50 velocity=0 time=0.09218749999999999\n",
      "note_off channel=5 note=72 velocity=0 time=0.012499999999999999\n",
      "note_off channel=6 note=62 velocity=0 time=0.01875\n",
      "note_off channel=6 note=55 velocity=0 time=0.0062499999999999995\n",
      "note_on channel=5 note=77 velocity=114 time=0.0046875\n",
      "note_off channel=1 note=31 velocity=0 time=0.0015624999999999999\n",
      "note_off channel=6 note=58 velocity=0 time=0.01875\n",
      "note_on channel=6 note=50 velocity=94 time=0.007812499999999999\n",
      "note_on channel=9 note=70 velocity=80 time=0.0031249999999999997\n",
      "note_on channel=6 note=58 velocity=90 time=0\n",
      "note_on channel=6 note=53 velocity=110 time=0\n",
      "note_on channel=1 note=34 velocity=118 time=0\n",
      "note_off channel=9 note=70 velocity=0 time=0.007812499999999999\n",
      "note_on channel=5 note=75 velocity=115 time=0.12968749999999998\n",
      "note_off channel=5 note=77 velocity=0 time=0.017187499999999998\n",
      "note_off channel=6 note=58 velocity=0 time=0.071875\n",
      "note_off channel=6 note=53 velocity=0 time=0.0031249999999999997\n",
      "note_off channel=6 note=50 velocity=0 time=0.009375\n",
      "note_off channel=1 note=34 velocity=0 time=0.01875\n",
      "note_off channel=15 note=72 velocity=0 time=0.0375\n",
      "note_on channel=9 note=70 velocity=85 time=0.0046875\n",
      "note_on channel=6 note=67 velocity=97 time=0\n",
      "note_on channel=6 note=63 velocity=97 time=0\n",
      "note_on channel=6 note=60 velocity=97 time=0\n",
      "note_on channel=1 note=36 velocity=118 time=0\n",
      "note_on channel=6 note=48 velocity=97 time=0.0031249999999999997\n",
      "note_off channel=9 note=70 velocity=0 time=0.0046875\n",
      "note_on channel=9 note=42 velocity=80 time=0.0015624999999999999\n",
      "note_on channel=9 note=35 velocity=111 time=0\n",
      "note_off channel=9 note=35 velocity=0 time=0.007812499999999999\n",
      "note_off channel=9 note=42 velocity=0 time=0\n",
      "note_off channel=6 note=67 velocity=0 time=0.06562499999999999\n",
      "note_off channel=1 note=36 velocity=0 time=0.01875\n",
      "note_off channel=6 note=60 velocity=0 time=0.04375\n",
      "note_off channel=6 note=48 velocity=0 time=0.0031249999999999997\n",
      "note_off channel=6 note=63 velocity=0 time=0.012499999999999999\n",
      "note_on channel=6 note=55 velocity=118 time=0.1359375\n",
      "note_on channel=9 note=70 velocity=82 time=0.0031249999999999997\n",
      "note_on channel=6 note=63 velocity=115 time=0\n",
      "note_on channel=1 note=36 velocity=118 time=0\n",
      "note_on channel=6 note=60 velocity=105 time=0.0062499999999999995\n",
      "note_off channel=9 note=70 velocity=0 time=0.0015624999999999999\n",
      "note_off channel=6 note=60 velocity=0 time=0.034374999999999996\n",
      "note_off channel=6 note=63 velocity=0 time=0.103125\n",
      "note_off channel=6 note=55 velocity=0 time=0.0031249999999999997\n",
      "note_off channel=1 note=36 velocity=0 time=0.13749999999999998\n",
      "note_on channel=9 note=70 velocity=91 time=0.014062499999999999\n",
      "note_on channel=1 note=39 velocity=111 time=0\n",
      "note_on channel=9 note=42 velocity=77 time=0.0031249999999999997\n",
      "note_on channel=9 note=40 velocity=106 time=0\n",
      "note_off channel=9 note=70 velocity=0 time=0.0046875\n",
      "note_on channel=9 note=35 velocity=111 time=0.0015624999999999999\n",
      "note_off channel=9 note=40 velocity=0 time=0.0015624999999999999\n",
      "note_off channel=9 note=42 velocity=0 time=0\n",
      "note_off channel=9 note=35 velocity=0 time=0.0062499999999999995\n",
      "note_off channel=1 note=39 velocity=0 time=0.071875\n",
      "note_on channel=6 note=55 velocity=112 time=0.057812499999999996\n",
      "note_on channel=6 note=63 velocity=113 time=0.0031249999999999997\n",
      "note_on channel=6 note=58 velocity=105 time=0\n",
      "note_off channel=6 note=58 velocity=0 time=0.11718749999999999\n",
      "note_off channel=6 note=63 velocity=0 time=0.012499999999999999\n",
      "note_off channel=6 note=55 velocity=0 time=0.009375\n",
      "note_on channel=9 note=70 velocity=81 time=0.0109375\n",
      "note_on channel=1 note=39 velocity=115 time=0\n",
      "note_off channel=9 note=70 velocity=0 time=0.007812499999999999\n",
      "note_off channel=1 note=39 velocity=0 time=0.27812499999999996\n",
      "note_on channel=9 note=70 velocity=85 time=0.014062499999999999\n",
      "note_on channel=9 note=42 velocity=82 time=0\n",
      "note_on channel=9 note=35 velocity=111 time=0\n",
      "note_on channel=6 note=63 velocity=114 time=0\n",
      "note_on channel=6 note=55 velocity=114 time=0\n",
      "note_on channel=1 note=36 velocity=119 time=0\n",
      "note_on channel=6 note=60 velocity=117 time=0.0031249999999999997\n",
      "note_off channel=9 note=35 velocity=0 time=0.0046875\n",
      "note_off channel=9 note=42 velocity=0 time=0\n",
      "note_off channel=9 note=70 velocity=0 time=0\n",
      "note_off channel=6 note=60 velocity=0 time=0.06249999999999999\n",
      "note_off channel=1 note=36 velocity=0 time=0.01875\n",
      "note_off channel=6 note=63 velocity=0 time=0.015624999999999998\n",
      "note_off channel=6 note=55 velocity=0 time=0.012499999999999999\n",
      "note_on channel=9 note=70 velocity=80 time=0.1828125\n",
      "note_on channel=1 note=36 velocity=120 time=0\n",
      "note_off channel=9 note=70 velocity=0 time=0.007812499999999999\n",
      "note_on channel=6 note=58 velocity=113 time=0.1484375\n",
      "note_on channel=6 note=55 velocity=117 time=0\n",
      "note_on channel=6 note=50 velocity=114 time=0\n",
      "note_off channel=1 note=36 velocity=0 time=0.10781249999999999\n",
      "note_on channel=9 note=70 velocity=91 time=0.0359375\n",
      "note_on channel=9 note=42 velocity=64 time=0\n",
      "note_on channel=9 note=40 velocity=111 time=0\n",
      "note_on channel=9 note=35 velocity=111 time=0\n",
      "note_on channel=1 note=31 velocity=120 time=0\n",
      "note_off channel=9 note=35 velocity=0 time=0.007812499999999999\n",
      "note_off channel=9 note=40 velocity=0 time=0\n",
      "note_off channel=9 note=42 velocity=0 time=0\n",
      "note_off channel=9 note=70 velocity=0 time=0\n",
      "note_off channel=6 note=55 velocity=0 time=0.23437499999999997\n",
      "note_off channel=1 note=31 velocity=0 time=0.01875\n",
      "note_off channel=5 note=75 velocity=0 time=0.009375\n",
      "note_on channel=6 note=53 velocity=117 time=0.0265625\n",
      "note_on channel=9 note=70 velocity=84 time=0.0031249999999999997\n",
      "note_on channel=1 note=34 velocity=115 time=0\n",
      "note_off channel=9 note=70 velocity=0 time=0.007812499999999999\n",
      "note_off channel=6 note=50 velocity=0 time=0.16874999999999998\n",
      "note_off channel=6 note=53 velocity=0 time=0.049999999999999996\n",
      "note_off channel=6 note=58 velocity=0 time=0\n",
      "note_off channel=1 note=34 velocity=0 time=0.056249999999999994\n",
      "note_on channel=15 note=72 velocity=1 time=0.017187499999999998\n",
      "note_on channel=9 note=70 velocity=97 time=0\n",
      "note_on channel=9 note=42 velocity=80 time=0\n",
      "note_on channel=9 note=35 velocity=110 time=0\n",
      "note_on channel=6 note=63 velocity=99 time=0\n",
      "note_on channel=6 note=60 velocity=99 time=0\n",
      "note_on channel=1 note=36 velocity=116 time=0\n",
      "note_on channel=6 note=48 velocity=101 time=0.0031249999999999997\n",
      "note_on channel=4 note=72 velocity=100 time=0\n",
      "note_on channel=3 note=72 velocity=125 time=0\n",
      "note_off channel=9 note=35 velocity=0 time=0.0046875\n",
      "note_off channel=9 note=42 velocity=0 time=0\n",
      "note_off channel=9 note=70 velocity=0 time=0\n",
      "note_off channel=1 note=36 velocity=0 time=0.11249999999999999\n",
      "note_off channel=6 note=60 velocity=0 time=0.024999999999999998\n",
      "note_off channel=6 note=48 velocity=0 time=0.0031249999999999997\n",
      "note_off channel=6 note=63 velocity=0 time=0.012499999999999999\n",
      "note_on channel=9 note=70 velocity=84 time=0.13906249999999998\n",
      "note_on channel=6 note=67 velocity=97 time=0\n",
      "note_on channel=1 note=36 velocity=117 time=0\n",
      "note_on channel=6 note=63 velocity=115 time=0.0031249999999999997\n",
      "note_on channel=6 note=60 velocity=118 time=0\n",
      "note_on channel=6 note=55 velocity=117 time=0\n",
      "note_off channel=9 note=70 velocity=0 time=0.0046875\n",
      "note_off channel=6 note=60 velocity=0 time=0.075\n",
      "note_off channel=6 note=67 velocity=0 time=0.009375\n",
      "note_off channel=6 note=55 velocity=0 time=0.0031249999999999997\n",
      "note_off channel=4 note=72 velocity=0 time=0.0031249999999999997\n",
      "note_off channel=3 note=72 velocity=0 time=0\n",
      "note_off channel=6 note=63 velocity=0 time=0.015624999999999998\n",
      "note_off channel=1 note=36 velocity=0 time=0.17187499999999997\n",
      "note_on channel=4 note=75 velocity=101 time=0.007812499999999999\n",
      "note_on channel=3 note=75 velocity=126 time=0\n",
      "note_off channel=15 note=72 velocity=0 time=0.0015624999999999999\n",
      "note_on channel=15 note=67 velocity=1 time=0.0046875\n",
      "note_on channel=9 note=70 velocity=87 time=0\n",
      "note_on channel=9 note=42 velocity=72 time=0\n",
      "note_on channel=9 note=40 velocity=111 time=0\n",
      "note_on channel=9 note=35 velocity=110 time=0\n",
      "note_on channel=1 note=39 velocity=113 time=0\n",
      "note_off channel=9 note=35 velocity=0 time=0.007812499999999999\n",
      "note_off channel=9 note=40 velocity=0 time=0\n",
      "note_off channel=9 note=42 velocity=0 time=0\n",
      "note_off channel=9 note=70 velocity=0 time=0\n",
      "note_off channel=1 note=39 velocity=0 time=0.090625\n",
      "note_off channel=4 note=75 velocity=0 time=0.024999999999999998\n",
      "note_off channel=3 note=75 velocity=0 time=0\n",
      "note_on channel=6 note=67 velocity=97 time=0.0296875\n",
      "note_on channel=6 note=63 velocity=115 time=0.0031249999999999997\n",
      "note_on channel=6 note=58 velocity=119 time=0\n",
      "note_on channel=6 note=55 velocity=117 time=0\n",
      "note_on channel=4 note=77 velocity=96 time=0\n",
      "note_on channel=3 note=77 velocity=121 time=0\n",
      "note_off channel=6 note=58 velocity=0 time=0.0984375\n",
      "note_off channel=6 note=63 velocity=0 time=0.021875\n",
      "note_off channel=6 note=67 velocity=0 time=0\n",
      "note_off channel=6 note=55 velocity=0 time=0.0031249999999999997\n",
      "note_on channel=9 note=70 velocity=72 time=0.020312499999999997\n",
      "note_on channel=1 note=39 velocity=116 time=0\n",
      "note_off channel=9 note=70 velocity=0 time=0.007812499999999999\n",
      "note_off channel=15 note=67 velocity=0 time=0.13749999999999998\n",
      "note_on channel=15 note=72 velocity=1 time=0.0046875\n",
      "note_off channel=4 note=77 velocity=0 time=0.0015624999999999999\n",
      "note_off channel=3 note=77 velocity=0 time=0\n",
      "note_on channel=4 note=72 velocity=100 time=0.0265625\n",
      "note_on channel=3 note=72 velocity=125 time=0\n",
      "note_off channel=1 note=39 velocity=0 time=0.0984375\n",
      "note_on channel=9 note=42 velocity=77 time=0.020312499999999997\n",
      "note_on channel=6 note=67 velocity=95 time=0\n",
      "note_on channel=9 note=70 velocity=91 time=0.0031249999999999997\n",
      "note_on channel=9 note=35 velocity=111 time=0\n",
      "note_on channel=6 note=63 velocity=116 time=0\n",
      "note_on channel=6 note=60 velocity=118 time=0\n",
      "note_on channel=6 note=55 velocity=115 time=0\n",
      "note_on channel=1 note=36 velocity=118 time=0\n",
      "note_on channel=5 note=65 velocity=125 time=0.0031249999999999997\n",
      "note_off channel=9 note=42 velocity=0 time=0.0015624999999999999\n",
      "note_off channel=9 note=35 velocity=0 time=0.0031249999999999997\n",
      "note_off channel=9 note=70 velocity=0 time=0\n",
      "note_off channel=6 note=60 velocity=0 time=0.06562499999999999\n",
      "note_off channel=6 note=67 velocity=0 time=0.028124999999999997\n",
      "note_off channel=6 note=55 velocity=0 time=0.0031249999999999997\n",
      "note_off channel=6 note=63 velocity=0 time=0.0031249999999999997\n",
      "note_off channel=1 note=36 velocity=0 time=0\n",
      "note_off channel=5 note=65 velocity=0 time=0.024999999999999998\n",
      "note_on channel=5 note=66 velocity=118 time=0.0109375\n",
      "note_off channel=5 note=66 velocity=0 time=0.1109375\n",
      "note_on channel=5 note=67 velocity=115 time=0.0390625\n",
      "note_on channel=9 note=70 velocity=78 time=0.0062499999999999995\n",
      "note_on channel=1 note=36 velocity=117 time=0\n",
      "note_off channel=9 note=70 velocity=0 time=0.007812499999999999\n",
      "note_off channel=5 note=67 velocity=0 time=0.11875\n",
      "note_on channel=5 note=70 velocity=121 time=0.017187499999999998\n",
      "note_on channel=6 note=62 velocity=89 time=0.0062499999999999995\n",
      "note_on channel=6 note=58 velocity=113 time=0.0062499999999999995\n",
      "note_on channel=6 note=55 velocity=119 time=0\n",
      "note_on channel=6 note=50 velocity=106 time=0\n",
      "note_off channel=5 note=70 velocity=0 time=0.07343749999999999\n",
      "note_off channel=4 note=72 velocity=0 time=0.021875\n",
      "note_off channel=3 note=72 velocity=0 time=0\n",
      "note_off channel=1 note=36 velocity=0 time=0.009375\n",
      "note_on channel=5 note=72 velocity=120 time=0.017187499999999998\n",
      "note_on channel=9 note=70 velocity=94 time=0.021875\n",
      "note_on channel=9 note=35 velocity=111 time=0\n",
      "note_on channel=1 note=31 velocity=117 time=0\n",
      "note_on channel=9 note=42 velocity=77 time=0.0031249999999999997\n",
      "note_on channel=9 note=40 velocity=108 time=0\n",
      "note_off channel=9 note=35 velocity=0 time=0.0046875\n",
      "note_off channel=9 note=70 velocity=0 time=0\n",
      "note_off channel=9 note=40 velocity=0 time=0.0031249999999999997\n",
      "note_off channel=9 note=42 velocity=0 time=0\n",
      "note_off channel=5 note=72 velocity=0 time=0.10937499999999999\n",
      "note_on channel=5 note=70 velocity=117 time=0.017187499999999998\n",
      "note_off channel=5 note=70 velocity=0 time=0.0828125\n",
      "note_off channel=6 note=50 velocity=0 time=0.0062499999999999995\n",
      "note_off channel=1 note=31 velocity=0 time=0.015624999999999998\n",
      "note_off channel=6 note=62 velocity=0 time=0.015624999999999998\n",
      "note_off channel=6 note=55 velocity=0 time=0.0062499999999999995\n",
      "note_on channel=5 note=75 velocity=111 time=0.007812499999999999\n",
      "note_on channel=6 note=62 velocity=68 time=0.021875\n",
      "note_on channel=6 note=50 velocity=94 time=0.0031249999999999997\n",
      "note_on channel=9 note=70 velocity=80 time=0.0031249999999999997\n",
      "note_on channel=6 note=53 velocity=110 time=0\n",
      "note_on channel=1 note=34 velocity=114 time=0\n",
      "note_off channel=9 note=70 velocity=0 time=0.007812499999999999\n",
      "note_off channel=5 note=75 velocity=0 time=0.11562499999999999\n",
      "note_on channel=5 note=72 velocity=117 time=0.007812499999999999\n",
      "note_off channel=6 note=62 velocity=0 time=0.09218749999999999\n",
      "note_off channel=6 note=53 velocity=0 time=0.0062499999999999995\n",
      "note_off channel=6 note=50 velocity=0 time=0.009375\n",
      "note_off channel=6 note=58 velocity=0 time=0.012499999999999999\n",
      "note_off channel=1 note=34 velocity=0 time=0.012499999999999999\n",
      "note_off channel=15 note=72 velocity=0 time=0.031249999999999997\n",
      "note_on channel=9 note=70 velocity=85 time=0.0046875\n",
      "note_on channel=6 note=67 velocity=97 time=0\n",
      "note_on channel=6 note=63 velocity=97 time=0\n",
      "note_on channel=6 note=60 velocity=97 time=0\n",
      "note_on channel=1 note=36 velocity=118 time=0\n",
      "note_on channel=6 note=48 velocity=97 time=0.0031249999999999997\n",
      "note_off channel=9 note=70 velocity=0 time=0.0046875\n",
      "note_on channel=9 note=42 velocity=68 time=0.0015624999999999999\n",
      "note_on channel=9 note=35 velocity=111 time=0\n",
      "note_off channel=9 note=35 velocity=0 time=0.007812499999999999\n",
      "note_off channel=9 note=42 velocity=0 time=0\n",
      "note_off channel=6 note=67 velocity=0 time=0.06562499999999999\n",
      "note_off channel=1 note=36 velocity=0 time=0.009375\n",
      "note_off channel=6 note=60 velocity=0 time=0.053125\n",
      "note_off channel=6 note=48 velocity=0 time=0.0031249999999999997\n",
      "note_off channel=6 note=63 velocity=0 time=0.012499999999999999\n",
      "note_on channel=6 note=55 velocity=118 time=0.1359375\n",
      "note_on channel=9 note=70 velocity=82 time=0.0031249999999999997\n",
      "note_on channel=6 note=63 velocity=115 time=0\n",
      "note_on channel=1 note=36 velocity=120 time=0\n",
      "note_on channel=6 note=60 velocity=105 time=0.0062499999999999995\n",
      "note_off channel=9 note=70 velocity=0 time=0.0015624999999999999\n",
      "note_off channel=6 note=60 velocity=0 time=0.034374999999999996\n",
      "note_off channel=6 note=63 velocity=0 time=0.103125\n",
      "note_off channel=6 note=55 velocity=0 time=0.0031249999999999997\n",
      "note_off channel=1 note=36 velocity=0 time=0.13749999999999998\n",
      "note_on channel=9 note=70 velocity=91 time=0.014062499999999999\n",
      "note_on channel=1 note=39 velocity=110 time=0\n",
      "note_on channel=9 note=42 velocity=77 time=0.0031249999999999997\n",
      "note_on channel=9 note=40 velocity=106 time=0\n",
      "note_off channel=9 note=70 velocity=0 time=0.0046875\n",
      "note_on channel=9 note=35 velocity=111 time=0.0015624999999999999\n",
      "note_off channel=9 note=40 velocity=0 time=0.0015624999999999999\n",
      "note_off channel=9 note=42 velocity=0 time=0\n",
      "note_off channel=9 note=35 velocity=0 time=0.0062499999999999995\n",
      "note_off channel=1 note=39 velocity=0 time=0.078125\n",
      "note_on channel=6 note=55 velocity=112 time=0.0515625\n",
      "note_on channel=6 note=63 velocity=113 time=0.0031249999999999997\n",
      "note_on channel=6 note=58 velocity=105 time=0\n",
      "note_off channel=6 note=58 velocity=0 time=0.11718749999999999\n",
      "note_off channel=6 note=63 velocity=0 time=0.012499999999999999\n",
      "note_off channel=6 note=55 velocity=0 time=0.009375\n",
      "note_on channel=9 note=70 velocity=81 time=0.0109375\n",
      "note_on channel=1 note=39 velocity=120 time=0\n",
      "note_off channel=9 note=70 velocity=0 time=0.007812499999999999\n",
      "note_off channel=1 note=39 velocity=0 time=0.27812499999999996\n",
      "note_on channel=9 note=70 velocity=85 time=0.014062499999999999\n",
      "note_on channel=9 note=42 velocity=82 time=0\n",
      "note_on channel=9 note=35 velocity=111 time=0\n",
      "note_on channel=6 note=63 velocity=114 time=0\n",
      "note_on channel=6 note=55 velocity=114 time=0\n",
      "note_on channel=1 note=36 velocity=118 time=0\n",
      "note_on channel=6 note=60 velocity=117 time=0.0031249999999999997\n",
      "note_off channel=9 note=35 velocity=0 time=0.0046875\n",
      "note_off channel=9 note=42 velocity=0 time=0\n",
      "note_off channel=9 note=70 velocity=0 time=0\n",
      "note_off channel=6 note=60 velocity=0 time=0.06249999999999999\n",
      "note_off channel=1 note=36 velocity=0 time=0.009375\n",
      "note_off channel=6 note=63 velocity=0 time=0.024999999999999998\n",
      "note_off channel=6 note=55 velocity=0 time=0.012499999999999999\n",
      "note_on channel=9 note=70 velocity=80 time=0.1828125\n",
      "note_on channel=1 note=36 velocity=120 time=0\n",
      "note_off channel=9 note=70 velocity=0 time=0.007812499999999999\n",
      "note_on channel=6 note=58 velocity=113 time=0.1484375\n",
      "note_on channel=6 note=55 velocity=117 time=0\n",
      "note_on channel=6 note=50 velocity=114 time=0\n",
      "note_off channel=1 note=36 velocity=0 time=0.0953125\n",
      "note_on channel=9 note=70 velocity=91 time=0.048437499999999994\n",
      "note_on channel=9 note=42 velocity=82 time=0\n",
      "note_on channel=9 note=40 velocity=111 time=0\n",
      "note_on channel=9 note=35 velocity=111 time=0\n",
      "note_on channel=1 note=31 velocity=108 time=0\n",
      "note_off channel=9 note=35 velocity=0 time=0.007812499999999999\n",
      "note_off channel=9 note=40 velocity=0 time=0\n",
      "note_off channel=9 note=42 velocity=0 time=0\n",
      "note_off channel=9 note=70 velocity=0 time=0\n",
      "note_off channel=6 note=55 velocity=0 time=0.23437499999999997\n",
      "note_off channel=5 note=72 velocity=0 time=0.015624999999999998\n",
      "note_off channel=1 note=31 velocity=0 time=0.024999999999999998\n",
      "note_on channel=6 note=53 velocity=117 time=0.014062499999999999\n",
      "note_on channel=9 note=70 velocity=84 time=0.0031249999999999997\n",
      "note_on channel=1 note=34 velocity=118 time=0\n",
      "note_off channel=9 note=70 velocity=0 time=0.007812499999999999\n",
      "note_off channel=1 note=34 velocity=0 time=0.13749999999999998\n",
      "note_off channel=6 note=50 velocity=0 time=0.031249999999999997\n",
      "note_off channel=6 note=53 velocity=0 time=0.049999999999999996\n",
      "note_off channel=6 note=58 velocity=0 time=0\n",
      "note_on channel=4 note=79 velocity=99 time=0.0640625\n",
      "note_on channel=3 note=79 velocity=124 time=0\n",
      "note_on channel=15 note=72 velocity=1 time=0.009375\n",
      "note_on channel=9 note=70 velocity=97 time=0\n",
      "note_on channel=9 note=42 velocity=80 time=0\n",
      "note_on channel=9 note=35 velocity=111 time=0\n",
      "note_on channel=6 note=63 velocity=99 time=0\n",
      "note_on channel=6 note=60 velocity=99 time=0\n",
      "note_on channel=1 note=36 velocity=118 time=0\n",
      "note_on channel=6 note=48 velocity=101 time=0.0031249999999999997\n",
      "note_off channel=9 note=35 velocity=0 time=0.0046875\n",
      "note_off channel=9 note=42 velocity=0 time=0\n",
      "note_off channel=9 note=70 velocity=0 time=0\n",
      "note_off channel=1 note=36 velocity=0 time=0.10625\n",
      "note_off channel=6 note=60 velocity=0 time=0.031249999999999997\n",
      "note_off channel=6 note=48 velocity=0 time=0.0031249999999999997\n",
      "note_off channel=6 note=63 velocity=0 time=0.012499999999999999\n",
      "note_on channel=9 note=70 velocity=84 time=0.13906249999999998\n",
      "note_on channel=6 note=67 velocity=97 time=0\n",
      "note_on channel=1 note=36 velocity=119 time=0\n",
      "note_on channel=6 note=63 velocity=115 time=0.0031249999999999997\n",
      "note_on channel=6 note=60 velocity=118 time=0\n",
      "note_on channel=6 note=55 velocity=117 time=0\n",
      "note_off channel=9 note=70 velocity=0 time=0.0046875\n",
      "note_off channel=6 note=60 velocity=0 time=0.075\n",
      "note_off channel=6 note=67 velocity=0 time=0.009375\n",
      "note_off channel=6 note=55 velocity=0 time=0.0031249999999999997\n",
      "note_off channel=6 note=63 velocity=0 time=0.01875\n",
      "note_off channel=4 note=79 velocity=0 time=0.0375\n",
      "note_off channel=3 note=79 velocity=0 time=0\n",
      "note_off channel=1 note=36 velocity=0 time=0.134375\n",
      "note_on channel=4 note=77 velocity=98 time=0.0046875\n",
      "note_on channel=3 note=77 velocity=123 time=0\n",
      "note_off channel=15 note=72 velocity=0 time=0.0046875\n",
      "note_on channel=15 note=67 velocity=1 time=0.0046875\n",
      "note_on channel=9 note=70 velocity=87 time=0\n",
      "note_on channel=9 note=42 velocity=72 time=0\n",
      "note_on channel=9 note=40 velocity=111 time=0\n",
      "note_on channel=9 note=35 velocity=111 time=0\n",
      "note_on channel=1 note=39 velocity=116 time=0\n",
      "note_off channel=9 note=35 velocity=0 time=0.007812499999999999\n",
      "note_off channel=9 note=40 velocity=0 time=0\n",
      "note_off channel=9 note=42 velocity=0 time=0\n",
      "note_off channel=9 note=70 velocity=0 time=0\n",
      "note_off channel=1 note=39 velocity=0 time=0.071875\n",
      "note_off channel=3 note=77 velocity=0 time=0.059375\n",
      "note_off channel=4 note=77 velocity=0 time=0.0031249999999999997\n",
      "note_on channel=4 note=75 velocity=99 time=0.0046875\n",
      "note_on channel=3 note=75 velocity=124 time=0\n",
      "note_on channel=6 note=67 velocity=97 time=0.0062499999999999995\n",
      "note_on channel=6 note=63 velocity=115 time=0.0031249999999999997\n",
      "note_on channel=6 note=58 velocity=119 time=0\n",
      "note_on channel=6 note=55 velocity=117 time=0\n",
      "note_off channel=6 note=58 velocity=0 time=0.0984375\n",
      "note_off channel=6 note=63 velocity=0 time=0.021875\n",
      "note_off channel=6 note=67 velocity=0 time=0\n",
      "note_off channel=6 note=55 velocity=0 time=0.0031249999999999997\n",
      "note_on channel=9 note=70 velocity=72 time=0.020312499999999997\n",
      "note_on channel=1 note=39 velocity=116 time=0\n",
      "note_off channel=9 note=70 velocity=0 time=0.007812499999999999\n",
      "note_off channel=15 note=67 velocity=0 time=0.13749999999999998\n",
      "note_on channel=15 note=72 velocity=1 time=0.0046875\n",
      "note_off channel=4 note=75 velocity=0 time=0.0015624999999999999\n",
      "note_off channel=3 note=75 velocity=0 time=0\n",
      "note_on channel=4 note=79 velocity=97 time=0.007812499999999999\n",
      "note_on channel=3 note=79 velocity=122 time=0\n",
      "note_off channel=1 note=39 velocity=0 time=0.1265625\n",
      "note_on channel=5 note=65 velocity=126 time=0.0046875\n",
      "note_on channel=9 note=42 velocity=80 time=0.0062499999999999995\n",
      "note_on channel=9 note=35 velocity=111 time=0\n",
      "note_on channel=6 note=67 velocity=95 time=0\n",
      "note_on channel=9 note=70 velocity=91 time=0.0031249999999999997\n",
      "note_on channel=6 note=63 velocity=116 time=0\n",
      "note_on channel=6 note=60 velocity=118 time=0\n",
      "note_on channel=6 note=55 velocity=115 time=0\n",
      "note_on channel=1 note=36 velocity=113 time=0\n",
      "note_off channel=9 note=35 velocity=0 time=0.0046875\n",
      "note_off channel=9 note=42 velocity=0 time=0\n",
      "note_off channel=9 note=70 velocity=0 time=0.0031249999999999997\n",
      "note_off channel=6 note=60 velocity=0 time=0.06562499999999999\n",
      "note_off channel=1 note=36 velocity=0 time=0\n",
      "note_off channel=6 note=67 velocity=0 time=0.028124999999999997\n",
      "note_off channel=6 note=55 velocity=0 time=0.0031249999999999997\n",
      "note_off channel=6 note=63 velocity=0 time=0.0031249999999999997\n",
      "note_off channel=5 note=65 velocity=0 time=0.012499999999999999\n",
      "note_on channel=5 note=66 velocity=121 time=0.0015624999999999999\n",
      "note_off channel=5 note=66 velocity=0 time=0.0953125\n",
      "note_on channel=5 note=67 velocity=116 time=0.0515625\n",
      "note_on channel=9 note=70 velocity=78 time=0.031249999999999997\n",
      "note_on channel=1 note=36 velocity=121 time=0\n",
      "note_off channel=9 note=70 velocity=0 time=0.007812499999999999\n",
      "note_off channel=5 note=67 velocity=0 time=0.10937499999999999\n",
      "note_on channel=5 note=70 velocity=122 time=0.007812499999999999\n",
      "note_on channel=6 note=62 velocity=89 time=0.024999999999999998\n",
      "note_on channel=6 note=58 velocity=113 time=0.0062499999999999995\n",
      "note_on channel=6 note=55 velocity=119 time=0\n",
      "note_on channel=6 note=50 velocity=106 time=0\n",
      "note_off channel=4 note=79 velocity=0 time=0.0390625\n",
      "note_off channel=3 note=79 velocity=0 time=0\n",
      "note_off channel=5 note=70 velocity=0 time=0.01875\n",
      "note_on channel=5 note=75 velocity=120 time=0.023437499999999997\n",
      "note_off channel=1 note=36 velocity=0 time=0.0390625\n",
      "note_on channel=9 note=35 velocity=111 time=0.020312499999999997\n",
      "note_on channel=9 note=70 velocity=94 time=0.0031249999999999997\n",
      "note_on channel=1 note=31 velocity=118 time=0\n",
      "note_on channel=9 note=42 velocity=77 time=0.0031249999999999997\n",
      "note_on channel=9 note=40 velocity=108 time=0\n",
      "note_off channel=9 note=35 velocity=0 time=0.0015624999999999999\n",
      "note_off channel=9 note=70 velocity=0 time=0.0031249999999999997\n",
      "note_off channel=9 note=40 velocity=0 time=0.0031249999999999997\n",
      "note_off channel=9 note=42 velocity=0 time=0\n",
      "note_off channel=5 note=75 velocity=0 time=0.049999999999999996\n",
      "note_on channel=5 note=72 velocity=120 time=0.042187499999999996\n",
      "note_off channel=5 note=72 velocity=0 time=0.1109375\n",
      "note_off channel=6 note=50 velocity=0 time=0.012499999999999999\n",
      "note_on channel=5 note=77 velocity=112 time=0.0265625\n",
      "note_off channel=6 note=62 velocity=0 time=0.0046875\n",
      "note_off channel=6 note=55 velocity=0 time=0.0062499999999999995\n",
      "note_off channel=1 note=31 velocity=0 time=0.0062499999999999995\n",
      "note_off channel=6 note=58 velocity=0 time=0.01875\n",
      "note_on channel=6 note=50 velocity=94 time=0.007812499999999999\n",
      "note_on channel=9 note=70 velocity=80 time=0.0031249999999999997\n",
      "note_on channel=6 note=58 velocity=90 time=0\n",
      "note_on channel=6 note=53 velocity=110 time=0\n",
      "note_on channel=1 note=34 velocity=118 time=0\n",
      "note_off channel=9 note=70 velocity=0 time=0.007812499999999999\n",
      "note_on channel=5 note=75 velocity=102 time=0.0953125\n",
      "note_off channel=5 note=77 velocity=0 time=0.007812499999999999\n",
      "note_off channel=6 note=58 velocity=0 time=0.11562499999999999\n",
      "note_off channel=6 note=53 velocity=0 time=0.0031249999999999997\n",
      "note_off channel=6 note=50 velocity=0 time=0.009375\n",
      "note_off channel=1 note=34 velocity=0 time=0.01875\n",
      "note_off channel=15 note=72 velocity=0 time=0.0375\n",
      "note_on channel=9 note=70 velocity=85 time=0.0046875\n",
      "note_on channel=6 note=67 velocity=97 time=0\n",
      "note_on channel=6 note=63 velocity=97 time=0\n",
      "note_on channel=6 note=60 velocity=97 time=0\n",
      "note_on channel=1 note=36 velocity=118 time=0\n",
      "note_on channel=6 note=48 velocity=97 time=0.0031249999999999997\n",
      "note_off channel=9 note=70 velocity=0 time=0.0046875\n",
      "note_on channel=9 note=42 velocity=80 time=0.0015624999999999999\n",
      "note_on channel=9 note=35 velocity=111 time=0\n",
      "note_off channel=9 note=35 velocity=0 time=0.007812499999999999\n",
      "note_off channel=9 note=42 velocity=0 time=0\n",
      "note_off channel=6 note=67 velocity=0 time=0.06562499999999999\n",
      "note_off channel=1 note=36 velocity=0 time=0.01875\n",
      "note_off channel=6 note=60 velocity=0 time=0.04375\n",
      "note_off channel=6 note=48 velocity=0 time=0.0031249999999999997\n",
      "note_off channel=6 note=63 velocity=0 time=0.012499999999999999\n",
      "note_on channel=6 note=55 velocity=118 time=0.1359375\n",
      "note_on channel=9 note=70 velocity=82 time=0.0031249999999999997\n",
      "note_on channel=6 note=63 velocity=115 time=0\n",
      "note_on channel=1 note=36 velocity=118 time=0\n",
      "note_on channel=6 note=60 velocity=105 time=0.0062499999999999995\n",
      "note_off channel=9 note=70 velocity=0 time=0.0015624999999999999\n",
      "note_off channel=6 note=60 velocity=0 time=0.034374999999999996\n",
      "note_off channel=6 note=63 velocity=0 time=0.103125\n",
      "note_off channel=6 note=55 velocity=0 time=0.0031249999999999997\n",
      "note_off channel=1 note=36 velocity=0 time=0.13749999999999998\n",
      "note_on channel=9 note=70 velocity=91 time=0.014062499999999999\n",
      "note_on channel=1 note=39 velocity=111 time=0\n",
      "note_on channel=9 note=42 velocity=77 time=0.0031249999999999997\n",
      "note_on channel=9 note=40 velocity=106 time=0\n",
      "note_off channel=9 note=70 velocity=0 time=0.0046875\n",
      "note_on channel=9 note=35 velocity=111 time=0.0015624999999999999\n",
      "note_off channel=9 note=40 velocity=0 time=0.0015624999999999999\n",
      "note_off channel=9 note=42 velocity=0 time=0\n",
      "note_off channel=9 note=35 velocity=0 time=0.0062499999999999995\n",
      "note_off channel=1 note=39 velocity=0 time=0.071875\n",
      "note_on channel=6 note=55 velocity=112 time=0.057812499999999996\n",
      "note_on channel=6 note=63 velocity=113 time=0.0031249999999999997\n",
      "note_on channel=6 note=58 velocity=105 time=0\n",
      "note_off channel=6 note=58 velocity=0 time=0.11718749999999999\n",
      "note_off channel=6 note=63 velocity=0 time=0.012499999999999999\n",
      "note_off channel=6 note=55 velocity=0 time=0.009375\n",
      "note_on channel=9 note=70 velocity=81 time=0.0109375\n",
      "note_on channel=1 note=39 velocity=115 time=0\n",
      "note_off channel=9 note=70 velocity=0 time=0.007812499999999999\n",
      "note_off channel=1 note=39 velocity=0 time=0.27812499999999996\n",
      "note_on channel=9 note=70 velocity=85 time=0.014062499999999999\n",
      "note_on channel=9 note=42 velocity=82 time=0\n",
      "note_on channel=9 note=35 velocity=111 time=0\n",
      "note_on channel=6 note=63 velocity=114 time=0\n",
      "note_on channel=6 note=55 velocity=114 time=0\n",
      "note_on channel=1 note=36 velocity=119 time=0\n",
      "note_on channel=6 note=60 velocity=117 time=0.0031249999999999997\n",
      "note_off channel=9 note=35 velocity=0 time=0.0046875\n",
      "note_off channel=9 note=42 velocity=0 time=0\n",
      "note_off channel=9 note=70 velocity=0 time=0\n",
      "note_off channel=6 note=60 velocity=0 time=0.06249999999999999\n",
      "note_off channel=1 note=36 velocity=0 time=0.01875\n",
      "note_off channel=6 note=63 velocity=0 time=0.015624999999999998\n",
      "note_off channel=6 note=55 velocity=0 time=0.012499999999999999\n",
      "note_on channel=9 note=70 velocity=80 time=0.1828125\n",
      "note_on channel=1 note=36 velocity=120 time=0\n",
      "note_off channel=9 note=70 velocity=0 time=0.007812499999999999\n",
      "note_on channel=6 note=58 velocity=113 time=0.1484375\n",
      "note_on channel=6 note=55 velocity=117 time=0\n",
      "note_on channel=6 note=50 velocity=114 time=0\n",
      "note_off channel=1 note=36 velocity=0 time=0.10781249999999999\n",
      "note_on channel=9 note=70 velocity=91 time=0.0359375\n",
      "note_on channel=9 note=42 velocity=64 time=0\n",
      "note_on channel=9 note=40 velocity=111 time=0\n",
      "note_on channel=9 note=35 velocity=111 time=0\n",
      "note_on channel=1 note=31 velocity=120 time=0\n",
      "note_off channel=9 note=35 velocity=0 time=0.007812499999999999\n",
      "note_off channel=9 note=40 velocity=0 time=0\n",
      "note_off channel=9 note=42 velocity=0 time=0\n",
      "note_off channel=9 note=70 velocity=0 time=0\n",
      "note_off channel=6 note=55 velocity=0 time=0.23437499999999997\n",
      "note_off channel=1 note=31 velocity=0 time=0.01875\n",
      "note_off channel=5 note=75 velocity=0 time=0.009375\n",
      "note_on channel=6 note=53 velocity=117 time=0.0265625\n",
      "note_on channel=9 note=70 velocity=84 time=0.0031249999999999997\n",
      "note_on channel=1 note=34 velocity=115 time=0\n",
      "note_off channel=9 note=70 velocity=0 time=0.007812499999999999\n",
      "note_off channel=6 note=50 velocity=0 time=0.16874999999999998\n",
      "note_off channel=6 note=53 velocity=0 time=0.049999999999999996\n",
      "note_off channel=6 note=58 velocity=0 time=0\n",
      "note_off channel=1 note=34 velocity=0 time=0.056249999999999994\n",
      "note_on channel=4 note=75 velocity=100 time=0.0046875\n",
      "note_on channel=3 note=75 velocity=125 time=0\n",
      "note_on channel=15 note=67 velocity=1 time=0.012499999999999999\n",
      "note_on channel=9 note=70 velocity=97 time=0\n",
      "note_on channel=9 note=42 velocity=80 time=0\n",
      "note_on channel=9 note=35 velocity=110 time=0\n",
      "note_on channel=6 note=63 velocity=99 time=0\n",
      "note_on channel=6 note=60 velocity=99 time=0\n",
      "note_on channel=1 note=36 velocity=116 time=0\n",
      "note_on channel=6 note=48 velocity=101 time=0.0031249999999999997\n",
      "note_off channel=9 note=35 velocity=0 time=0.0046875\n",
      "note_off channel=9 note=42 velocity=0 time=0\n",
      "note_off channel=9 note=70 velocity=0 time=0\n",
      "note_off channel=4 note=75 velocity=0 time=0.09999999999999999\n",
      "note_off channel=3 note=75 velocity=0 time=0\n",
      "note_off channel=1 note=36 velocity=0 time=0.012499999999999999\n",
      "note_off channel=6 note=60 velocity=0 time=0.024999999999999998\n",
      "note_off channel=6 note=48 velocity=0 time=0.0031249999999999997\n",
      "note_off channel=6 note=63 velocity=0 time=0.012499999999999999\n",
      "note_on channel=4 note=77 velocity=97 time=0.1140625\n",
      "note_on channel=3 note=77 velocity=122 time=0\n",
      "note_off channel=15 note=67 velocity=0 time=0.020312499999999997\n",
      "note_on channel=15 note=70 velocity=1 time=0.0046875\n",
      "note_on channel=9 note=70 velocity=84 time=0\n",
      "note_on channel=6 note=67 velocity=97 time=0\n",
      "note_on channel=1 note=36 velocity=117 time=0\n",
      "note_on channel=6 note=63 velocity=115 time=0.0031249999999999997\n",
      "note_on channel=6 note=60 velocity=118 time=0\n",
      "note_on channel=6 note=55 velocity=117 time=0\n",
      "note_off channel=9 note=70 velocity=0 time=0.0046875\n",
      "note_off channel=6 note=60 velocity=0 time=0.075\n",
      "note_off channel=6 note=67 velocity=0 time=0.009375\n",
      "note_off channel=6 note=55 velocity=0 time=0.0031249999999999997\n",
      "note_off channel=6 note=63 velocity=0 time=0.01875\n",
      "note_off channel=4 note=77 velocity=0 time=0.0031249999999999997\n",
      "note_off channel=3 note=77 velocity=0 time=0\n",
      "note_off channel=1 note=36 velocity=0 time=0.16874999999999998\n",
      "note_off channel=15 note=70 velocity=0 time=0.009375\n",
      "note_on channel=4 note=79 velocity=100 time=0.0015624999999999999\n",
      "note_on channel=3 note=79 velocity=125 time=0\n",
      "note_on channel=15 note=72 velocity=1 time=0.0031249999999999997\n",
      "note_on channel=9 note=70 velocity=87 time=0\n",
      "note_on channel=9 note=42 velocity=72 time=0\n",
      "note_on channel=9 note=40 velocity=111 time=0\n",
      "note_on channel=9 note=35 velocity=110 time=0\n",
      "note_on channel=1 note=39 velocity=113 time=0\n",
      "note_off channel=9 note=35 velocity=0 time=0.007812499999999999\n",
      "note_off channel=9 note=40 velocity=0 time=0\n",
      "note_off channel=9 note=42 velocity=0 time=0\n",
      "note_off channel=9 note=70 velocity=0 time=0\n",
      "note_off channel=4 note=79 velocity=0 time=0.075\n",
      "note_off channel=3 note=79 velocity=0 time=0\n",
      "note_off channel=1 note=39 velocity=0 time=0.015624999999999998\n",
      "note_on channel=4 note=82 velocity=99 time=0.0453125\n",
      "note_on channel=3 note=82 velocity=124 time=0\n",
      "note_off channel=15 note=72 velocity=0 time=0.0015624999999999999\n",
      "note_on channel=15 note=75 velocity=1 time=0.0046875\n",
      "note_on channel=6 note=67 velocity=97 time=0.0031249999999999997\n",
      "note_on channel=6 note=63 velocity=115 time=0.0031249999999999997\n",
      "note_on channel=6 note=58 velocity=119 time=0\n",
      "note_on channel=6 note=55 velocity=117 time=0\n",
      "note_off channel=6 note=58 velocity=0 time=0.0984375\n",
      "note_off channel=6 note=63 velocity=0 time=0.021875\n",
      "note_off channel=6 note=67 velocity=0 time=0\n",
      "note_off channel=6 note=55 velocity=0 time=0.0031249999999999997\n",
      "note_on channel=9 note=70 velocity=72 time=0.020312499999999997\n",
      "note_on channel=1 note=39 velocity=116 time=0\n",
      "note_off channel=9 note=70 velocity=0 time=0.007812499999999999\n",
      "note_off channel=4 note=82 velocity=0 time=0.01875\n",
      "note_off channel=3 note=82 velocity=0 time=0\n",
      "note_on channel=4 note=84 velocity=98 time=0.10156249999999999\n",
      "note_on channel=3 note=84 velocity=123 time=0\n",
      "note_off channel=15 note=75 velocity=0 time=0.017187499999999998\n",
      "note_on channel=15 note=75 velocity=1 time=0.0046875\n",
      "note_on channel=15 note=72 velocity=1 time=0\n",
      "note_off channel=1 note=39 velocity=0 time=0.1265625\n",
      "note_on channel=9 note=42 velocity=77 time=0.020312499999999997\n",
      "note_on channel=6 note=67 velocity=95 time=0\n",
      "note_on channel=9 note=70 velocity=91 time=0.0031249999999999997\n",
      "note_on channel=9 note=35 velocity=111 time=0\n",
      "note_on channel=6 note=63 velocity=116 time=0\n",
      "note_on channel=6 note=60 velocity=118 time=0\n",
      "note_on channel=6 note=55 velocity=115 time=0\n",
      "note_on channel=5 note=65 velocity=125 time=0\n",
      "note_on channel=1 note=36 velocity=118 time=0\n",
      "note_off channel=9 note=42 velocity=0 time=0.0046875\n",
      "note_off channel=9 note=35 velocity=0 time=0.0031249999999999997\n",
      "note_off channel=9 note=70 velocity=0 time=0\n",
      "note_off channel=6 note=60 velocity=0 time=0.06562499999999999\n",
      "note_off channel=6 note=67 velocity=0 time=0.028124999999999997\n",
      "note_off channel=6 note=55 velocity=0 time=0.0031249999999999997\n",
      "note_off channel=6 note=63 velocity=0 time=0.0031249999999999997\n",
      "note_off channel=1 note=36 velocity=0 time=0\n",
      "note_off channel=5 note=65 velocity=0 time=0.021875\n",
      "note_on channel=5 note=66 velocity=118 time=0.0109375\n",
      "note_off channel=5 note=66 velocity=0 time=0.1109375\n",
      "note_on channel=5 note=67 velocity=115 time=0.0390625\n",
      "note_on channel=9 note=70 velocity=78 time=0.009375\n",
      "note_on channel=1 note=36 velocity=117 time=0\n",
      "note_off channel=9 note=70 velocity=0 time=0.007812499999999999\n",
      "note_off channel=5 note=67 velocity=0 time=0.11562499999999999\n",
      "note_on channel=5 note=70 velocity=121 time=0.017187499999999998\n",
      "note_on channel=6 note=62 velocity=89 time=0.009375\n",
      "note_on channel=6 note=58 velocity=113 time=0.0062499999999999995\n",
      "note_on channel=6 note=55 velocity=119 time=0\n",
      "note_on channel=6 note=50 velocity=106 time=0\n",
      "note_off channel=5 note=70 velocity=0 time=0.0703125\n",
      "note_off channel=4 note=84 velocity=0 time=0.015624999999999998\n",
      "note_off channel=3 note=84 velocity=0 time=0\n",
      "note_off channel=1 note=36 velocity=0 time=0.01875\n",
      "note_on channel=5 note=72 velocity=120 time=0.014062499999999999\n",
      "note_on channel=9 note=70 velocity=94 time=0.024999999999999998\n",
      "note_on channel=9 note=35 velocity=111 time=0\n",
      "note_on channel=1 note=31 velocity=117 time=0\n",
      "note_on channel=9 note=42 velocity=77 time=0.0031249999999999997\n",
      "note_on channel=9 note=40 velocity=108 time=0\n",
      "note_off channel=9 note=35 velocity=0 time=0.0046875\n",
      "note_off channel=9 note=70 velocity=0 time=0\n",
      "note_off channel=9 note=40 velocity=0 time=0.0031249999999999997\n",
      "note_off channel=9 note=42 velocity=0 time=0\n",
      "note_off channel=5 note=72 velocity=0 time=0.10625\n",
      "note_on channel=5 note=70 velocity=117 time=0.017187499999999998\n",
      "note_off channel=5 note=70 velocity=0 time=0.0828125\n",
      "note_off channel=6 note=50 velocity=0 time=0.009375\n",
      "note_off channel=1 note=31 velocity=0 time=0.015624999999999998\n",
      "note_off channel=6 note=62 velocity=0 time=0.015624999999999998\n",
      "note_off channel=6 note=55 velocity=0 time=0.0062499999999999995\n",
      "note_on channel=5 note=75 velocity=111 time=0.0046875\n",
      "note_on channel=6 note=62 velocity=68 time=0.024999999999999998\n",
      "note_on channel=6 note=50 velocity=94 time=0.0031249999999999997\n",
      "note_on channel=9 note=70 velocity=80 time=0.0031249999999999997\n",
      "note_on channel=6 note=53 velocity=110 time=0\n",
      "note_on channel=1 note=34 velocity=114 time=0\n",
      "note_off channel=9 note=70 velocity=0 time=0.007812499999999999\n",
      "note_off channel=5 note=75 velocity=0 time=0.11249999999999999\n",
      "note_on channel=5 note=72 velocity=117 time=0.007812499999999999\n",
      "note_off channel=6 note=62 velocity=0 time=0.0953125\n",
      "note_off channel=6 note=53 velocity=0 time=0.0062499999999999995\n",
      "note_off channel=6 note=50 velocity=0 time=0.009375\n",
      "note_off channel=6 note=58 velocity=0 time=0.012499999999999999\n",
      "note_off channel=1 note=34 velocity=0 time=0.012499999999999999\n",
      "note_off channel=15 note=72 velocity=0 time=0.031249999999999997\n",
      "note_off channel=15 note=75 velocity=0 time=0\n",
      "note_on channel=9 note=70 velocity=85 time=0.0046875\n",
      "note_on channel=6 note=67 velocity=97 time=0\n",
      "note_on channel=6 note=63 velocity=97 time=0\n",
      "note_on channel=6 note=60 velocity=97 time=0\n",
      "note_on channel=1 note=36 velocity=118 time=0\n",
      "note_on channel=6 note=48 velocity=97 time=0.0031249999999999997\n",
      "note_off channel=9 note=70 velocity=0 time=0.0046875\n",
      "note_on channel=9 note=42 velocity=68 time=0.0015624999999999999\n",
      "note_on channel=9 note=35 velocity=111 time=0\n",
      "note_off channel=9 note=35 velocity=0 time=0.007812499999999999\n",
      "note_off channel=9 note=42 velocity=0 time=0\n",
      "note_off channel=6 note=67 velocity=0 time=0.06562499999999999\n",
      "note_off channel=1 note=36 velocity=0 time=0.009375\n",
      "note_off channel=6 note=60 velocity=0 time=0.053125\n",
      "note_off channel=6 note=48 velocity=0 time=0.0031249999999999997\n",
      "note_off channel=6 note=63 velocity=0 time=0.012499999999999999\n",
      "note_on channel=6 note=55 velocity=118 time=0.1359375\n",
      "note_on channel=9 note=70 velocity=82 time=0.0031249999999999997\n",
      "note_on channel=6 note=63 velocity=115 time=0\n",
      "note_on channel=1 note=36 velocity=120 time=0\n",
      "note_on channel=6 note=60 velocity=105 time=0.0062499999999999995\n",
      "note_off channel=9 note=70 velocity=0 time=0.0015624999999999999\n",
      "note_off channel=6 note=60 velocity=0 time=0.034374999999999996\n",
      "note_off channel=6 note=63 velocity=0 time=0.103125\n",
      "note_off channel=6 note=55 velocity=0 time=0.0031249999999999997\n",
      "note_off channel=1 note=36 velocity=0 time=0.13749999999999998\n",
      "note_on channel=9 note=70 velocity=91 time=0.014062499999999999\n",
      "note_on channel=1 note=39 velocity=110 time=0\n",
      "note_on channel=9 note=42 velocity=77 time=0.0031249999999999997\n",
      "note_on channel=9 note=40 velocity=106 time=0\n",
      "note_off channel=9 note=70 velocity=0 time=0.0046875\n",
      "note_on channel=9 note=35 velocity=111 time=0.0015624999999999999\n",
      "note_off channel=9 note=40 velocity=0 time=0.0015624999999999999\n",
      "note_off channel=9 note=42 velocity=0 time=0\n",
      "note_off channel=9 note=35 velocity=0 time=0.0062499999999999995\n",
      "note_off channel=1 note=39 velocity=0 time=0.078125\n",
      "note_on channel=6 note=55 velocity=112 time=0.0515625\n",
      "note_on channel=6 note=63 velocity=113 time=0.0031249999999999997\n",
      "note_on channel=6 note=58 velocity=105 time=0\n",
      "note_off channel=6 note=58 velocity=0 time=0.11718749999999999\n",
      "note_off channel=6 note=63 velocity=0 time=0.012499999999999999\n",
      "note_off channel=6 note=55 velocity=0 time=0.009375\n",
      "note_on channel=9 note=70 velocity=81 time=0.0109375\n",
      "note_on channel=1 note=39 velocity=120 time=0\n",
      "note_off channel=9 note=70 velocity=0 time=0.007812499999999999\n",
      "note_off channel=1 note=39 velocity=0 time=0.27812499999999996\n",
      "note_on channel=9 note=70 velocity=85 time=0.014062499999999999\n",
      "note_on channel=9 note=42 velocity=82 time=0\n",
      "note_on channel=9 note=35 velocity=111 time=0\n",
      "note_on channel=6 note=63 velocity=114 time=0\n",
      "note_on channel=6 note=55 velocity=114 time=0\n",
      "note_on channel=1 note=36 velocity=118 time=0\n",
      "note_on channel=6 note=60 velocity=117 time=0.0031249999999999997\n",
      "note_off channel=9 note=35 velocity=0 time=0.0046875\n",
      "note_off channel=9 note=42 velocity=0 time=0\n",
      "note_off channel=9 note=70 velocity=0 time=0\n",
      "note_off channel=6 note=60 velocity=0 time=0.06249999999999999\n",
      "note_off channel=1 note=36 velocity=0 time=0.009375\n",
      "note_off channel=6 note=63 velocity=0 time=0.024999999999999998\n",
      "note_off channel=6 note=55 velocity=0 time=0.012499999999999999\n",
      "note_on channel=9 note=70 velocity=80 time=0.1828125\n",
      "note_on channel=1 note=36 velocity=120 time=0\n",
      "note_off channel=9 note=70 velocity=0 time=0.007812499999999999\n",
      "note_on channel=6 note=58 velocity=113 time=0.1484375\n",
      "note_on channel=6 note=55 velocity=117 time=0\n",
      "note_on channel=6 note=50 velocity=114 time=0\n",
      "note_off channel=1 note=36 velocity=0 time=0.0953125\n",
      "note_on channel=9 note=70 velocity=91 time=0.048437499999999994\n",
      "note_on channel=9 note=42 velocity=82 time=0\n",
      "note_on channel=9 note=40 velocity=111 time=0\n",
      "note_on channel=9 note=35 velocity=111 time=0\n",
      "note_on channel=1 note=31 velocity=108 time=0\n",
      "note_off channel=9 note=35 velocity=0 time=0.007812499999999999\n",
      "note_off channel=9 note=40 velocity=0 time=0\n",
      "note_off channel=9 note=42 velocity=0 time=0\n",
      "note_off channel=9 note=70 velocity=0 time=0\n",
      "note_off channel=6 note=55 velocity=0 time=0.23437499999999997\n",
      "note_off channel=5 note=72 velocity=0 time=0.012499999999999999\n",
      "note_off channel=1 note=31 velocity=0 time=0.028124999999999997\n",
      "note_on channel=6 note=53 velocity=117 time=0.014062499999999999\n",
      "note_on channel=9 note=70 velocity=84 time=0.0031249999999999997\n",
      "note_on channel=1 note=34 velocity=118 time=0\n",
      "note_off channel=9 note=70 velocity=0 time=0.007812499999999999\n",
      "note_off channel=1 note=34 velocity=0 time=0.13749999999999998\n",
      "note_off channel=6 note=50 velocity=0 time=0.031249999999999997\n",
      "note_off channel=6 note=53 velocity=0 time=0.049999999999999996\n",
      "note_off channel=6 note=58 velocity=0 time=0\n",
      "note_on channel=9 note=70 velocity=97 time=0.07343749999999999\n",
      "note_on channel=9 note=42 velocity=80 time=0\n",
      "note_on channel=9 note=35 velocity=111 time=0\n",
      "note_on channel=6 note=63 velocity=99 time=0\n",
      "note_on channel=6 note=60 velocity=99 time=0\n",
      "note_on channel=1 note=36 velocity=118 time=0\n",
      "note_on channel=6 note=48 velocity=101 time=0.0031249999999999997\n",
      "note_off channel=9 note=35 velocity=0 time=0.0046875\n",
      "note_off channel=9 note=42 velocity=0 time=0\n",
      "note_off channel=9 note=70 velocity=0 time=0\n",
      "note_off channel=1 note=36 velocity=0 time=0.10625\n",
      "note_off channel=6 note=60 velocity=0 time=0.031249999999999997\n",
      "note_off channel=6 note=48 velocity=0 time=0.0031249999999999997\n",
      "note_off channel=6 note=63 velocity=0 time=0.012499999999999999\n",
      "note_on channel=9 note=70 velocity=84 time=0.13906249999999998\n",
      "note_on channel=6 note=67 velocity=97 time=0\n",
      "note_on channel=1 note=36 velocity=119 time=0\n",
      "note_on channel=6 note=63 velocity=115 time=0.0031249999999999997\n",
      "note_on channel=6 note=60 velocity=118 time=0\n",
      "note_on channel=6 note=55 velocity=117 time=0\n",
      "note_off channel=9 note=70 velocity=0 time=0.0046875\n",
      "note_off channel=6 note=60 velocity=0 time=0.075\n",
      "note_off channel=6 note=67 velocity=0 time=0.009375\n",
      "note_off channel=6 note=55 velocity=0 time=0.0031249999999999997\n",
      "note_off channel=6 note=63 velocity=0 time=0.01875\n",
      "note_off channel=1 note=36 velocity=0 time=0.17187499999999997\n",
      "note_on channel=9 note=70 velocity=87 time=0.014062499999999999\n",
      "note_on channel=9 note=42 velocity=72 time=0\n",
      "note_on channel=9 note=40 velocity=111 time=0\n",
      "note_on channel=9 note=35 velocity=111 time=0\n",
      "note_on channel=1 note=39 velocity=116 time=0\n",
      "note_off channel=9 note=35 velocity=0 time=0.007812499999999999\n",
      "note_off channel=9 note=40 velocity=0 time=0\n",
      "note_off channel=9 note=42 velocity=0 time=0\n",
      "note_off channel=9 note=70 velocity=0 time=0\n",
      "note_off channel=1 note=39 velocity=0 time=0.071875\n",
      "note_on channel=6 note=67 velocity=97 time=0.07343749999999999\n",
      "note_on channel=6 note=63 velocity=115 time=0.0031249999999999997\n",
      "note_on channel=6 note=58 velocity=119 time=0\n",
      "note_on channel=6 note=55 velocity=117 time=0\n",
      "note_off channel=6 note=58 velocity=0 time=0.0984375\n",
      "note_off channel=6 note=63 velocity=0 time=0.021875\n",
      "note_off channel=6 note=67 velocity=0 time=0\n",
      "note_off channel=6 note=55 velocity=0 time=0.0031249999999999997\n",
      "note_on channel=9 note=70 velocity=72 time=0.020312499999999997\n",
      "note_on channel=1 note=39 velocity=116 time=0\n",
      "note_off channel=9 note=70 velocity=0 time=0.007812499999999999\n",
      "note_off channel=1 note=39 velocity=0 time=0.27812499999999996\n",
      "note_on channel=9 note=42 velocity=80 time=0.0109375\n",
      "note_on channel=9 note=35 velocity=111 time=0\n",
      "note_on channel=6 note=67 velocity=95 time=0\n",
      "note_on channel=9 note=70 velocity=91 time=0.0031249999999999997\n",
      "note_on channel=6 note=63 velocity=116 time=0\n",
      "note_on channel=6 note=60 velocity=118 time=0\n",
      "note_on channel=6 note=55 velocity=115 time=0\n",
      "note_on channel=1 note=36 velocity=113 time=0\n",
      "note_off channel=9 note=35 velocity=0 time=0.0046875\n",
      "note_off channel=9 note=42 velocity=0 time=0\n",
      "note_off channel=9 note=70 velocity=0 time=0.0031249999999999997\n",
      "note_off channel=6 note=60 velocity=0 time=0.06562499999999999\n",
      "note_off channel=1 note=36 velocity=0 time=0\n",
      "note_off channel=6 note=67 velocity=0 time=0.028124999999999997\n",
      "note_off channel=6 note=55 velocity=0 time=0.0031249999999999997\n",
      "note_off channel=6 note=63 velocity=0 time=0.0031249999999999997\n",
      "note_on channel=9 note=70 velocity=78 time=0.19218749999999998\n",
      "note_on channel=1 note=36 velocity=121 time=0\n",
      "note_off channel=9 note=70 velocity=0 time=0.007812499999999999\n",
      "note_on channel=6 note=62 velocity=89 time=0.1421875\n",
      "note_on channel=6 note=58 velocity=113 time=0.0062499999999999995\n",
      "note_on channel=6 note=55 velocity=119 time=0\n",
      "note_on channel=6 note=50 velocity=106 time=0\n",
      "note_off channel=1 note=36 velocity=0 time=0.12031249999999999\n",
      "note_on channel=5 note=67 velocity=124 time=0.014062499999999999\n",
      "note_on channel=2 note=67 velocity=124 time=0\n",
      "note_on channel=9 note=35 velocity=111 time=0.0062499999999999995\n",
      "note_on channel=9 note=70 velocity=94 time=0.0031249999999999997\n",
      "note_on channel=1 note=31 velocity=118 time=0\n",
      "note_on channel=9 note=42 velocity=77 time=0.0031249999999999997\n",
      "note_on channel=9 note=40 velocity=108 time=0\n",
      "note_off channel=9 note=35 velocity=0 time=0.0015624999999999999\n",
      "note_off channel=9 note=70 velocity=0 time=0.0031249999999999997\n",
      "note_off channel=9 note=40 velocity=0 time=0.0031249999999999997\n",
      "note_off channel=9 note=42 velocity=0 time=0\n",
      "note_off channel=5 note=67 velocity=0 time=0.078125\n",
      "note_off channel=2 note=67 velocity=0 time=0\n",
      "note_on channel=5 note=68 velocity=124 time=0.0015624999999999999\n",
      "note_on channel=2 note=68 velocity=124 time=0\n",
      "note_off channel=5 note=68 velocity=0 time=0.08906249999999999\n",
      "note_off channel=2 note=68 velocity=0 time=0\n",
      "note_on channel=5 note=69 velocity=122 time=0.0109375\n",
      "note_on channel=2 note=69 velocity=122 time=0\n",
      "note_off channel=6 note=50 velocity=0 time=0.0359375\n",
      "note_off channel=6 note=62 velocity=0 time=0.031249999999999997\n",
      "note_off channel=6 note=55 velocity=0 time=0.0062499999999999995\n",
      "note_off channel=1 note=31 velocity=0 time=0.0062499999999999995\n",
      "note_off channel=5 note=69 velocity=0 time=0.009375\n",
      "note_off channel=2 note=69 velocity=0 time=0\n",
      "note_off channel=6 note=58 velocity=0 time=0.009375\n",
      "note_on channel=5 note=70 velocity=122 time=0.0015624999999999999\n",
      "note_on channel=2 note=70 velocity=122 time=0\n",
      "note_on channel=6 note=50 velocity=94 time=0.0062499999999999995\n",
      "note_on channel=9 note=70 velocity=80 time=0.0031249999999999997\n",
      "note_on channel=6 note=58 velocity=90 time=0\n",
      "note_on channel=6 note=53 velocity=110 time=0\n",
      "note_on channel=1 note=34 velocity=118 time=0\n",
      "note_off channel=9 note=70 velocity=0 time=0.007812499999999999\n",
      "note_off channel=5 note=70 velocity=0 time=0.071875\n",
      "note_off channel=2 note=70 velocity=0 time=0\n",
      "note_on channel=5 note=72 velocity=122 time=0.0109375\n",
      "note_on channel=2 note=72 velocity=122 time=0\n",
      "note_off channel=5 note=72 velocity=0 time=0.08906249999999999\n",
      "note_off channel=2 note=72 velocity=0 time=0\n",
      "note_on channel=5 note=75 velocity=123 time=0.0109375\n",
      "note_on channel=2 note=75 velocity=123 time=0\n",
      "note_off channel=6 note=58 velocity=0 time=0.0359375\n",
      "note_off channel=6 note=53 velocity=0 time=0.0031249999999999997\n",
      "note_off channel=6 note=50 velocity=0 time=0.009375\n",
      "note_off channel=1 note=34 velocity=0 time=0.01875\n",
      "note_off channel=5 note=75 velocity=0 time=0.021875\n",
      "note_off channel=2 note=75 velocity=0 time=0\n",
      "note_on channel=5 note=82 velocity=112 time=0.0109375\n",
      "note_on channel=2 note=82 velocity=112 time=0\n",
      "note_on channel=9 note=70 velocity=85 time=0.009375\n",
      "note_on channel=6 note=67 velocity=97 time=0\n",
      "note_on channel=6 note=63 velocity=97 time=0\n",
      "note_on channel=6 note=60 velocity=97 time=0\n",
      "note_on channel=1 note=36 velocity=118 time=0\n",
      "note_on channel=6 note=48 velocity=97 time=0.0031249999999999997\n",
      "note_off channel=9 note=70 velocity=0 time=0.0046875\n",
      "note_on channel=9 note=42 velocity=80 time=0.0015624999999999999\n",
      "note_on channel=9 note=35 velocity=111 time=0\n",
      "note_off channel=9 note=35 velocity=0 time=0.007812499999999999\n",
      "note_off channel=9 note=42 velocity=0 time=0\n",
      "note_off channel=6 note=67 velocity=0 time=0.06562499999999999\n",
      "note_off channel=1 note=36 velocity=0 time=0.01875\n",
      "note_off channel=6 note=60 velocity=0 time=0.04375\n",
      "note_off channel=6 note=48 velocity=0 time=0.0031249999999999997\n",
      "note_off channel=6 note=63 velocity=0 time=0.012499999999999999\n",
      "note_off channel=5 note=82 velocity=0 time=0.11875\n",
      "note_off channel=2 note=82 velocity=0 time=0\n",
      "note_on channel=6 note=55 velocity=118 time=0.017187499999999998\n",
      "note_on channel=9 note=70 velocity=82 time=0.0031249999999999997\n",
      "note_on channel=6 note=63 velocity=115 time=0\n",
      "note_on channel=1 note=36 velocity=118 time=0\n",
      "note_on channel=6 note=60 velocity=105 time=0.0062499999999999995\n",
      "note_off channel=9 note=70 velocity=0 time=0.0015624999999999999\n",
      "note_off channel=6 note=60 velocity=0 time=0.034374999999999996\n",
      "note_off channel=6 note=63 velocity=0 time=0.103125\n",
      "note_off channel=6 note=55 velocity=0 time=0.0031249999999999997\n",
      "note_off channel=1 note=36 velocity=0 time=0.13749999999999998\n",
      "note_on channel=9 note=70 velocity=91 time=0.014062499999999999\n",
      "note_on channel=1 note=39 velocity=111 time=0\n",
      "note_on channel=9 note=42 velocity=77 time=0.0031249999999999997\n",
      "note_on channel=9 note=40 velocity=106 time=0\n",
      "note_off channel=9 note=70 velocity=0 time=0.0046875\n",
      "note_on channel=9 note=35 velocity=111 time=0.0015624999999999999\n",
      "note_off channel=9 note=40 velocity=0 time=0.0015624999999999999\n",
      "note_off channel=9 note=42 velocity=0 time=0\n",
      "note_off channel=9 note=35 velocity=0 time=0.0062499999999999995\n",
      "note_off channel=1 note=39 velocity=0 time=0.071875\n",
      "note_on channel=6 note=55 velocity=112 time=0.057812499999999996\n",
      "note_on channel=6 note=63 velocity=113 time=0.0031249999999999997\n",
      "note_on channel=6 note=58 velocity=105 time=0\n",
      "note_off channel=6 note=58 velocity=0 time=0.11718749999999999\n",
      "note_off channel=6 note=63 velocity=0 time=0.012499999999999999\n",
      "note_off channel=6 note=55 velocity=0 time=0.009375\n",
      "note_on channel=9 note=70 velocity=81 time=0.0109375\n",
      "note_on channel=1 note=39 velocity=115 time=0\n",
      "note_on channel=5 note=79 velocity=114 time=0.0031249999999999997\n",
      "note_on channel=2 note=79 velocity=114 time=0\n",
      "note_off channel=9 note=70 velocity=0 time=0.0046875\n",
      "note_off channel=1 note=39 velocity=0 time=0.27812499999999996\n",
      "note_off channel=5 note=79 velocity=0 time=0.0031249999999999997\n",
      "note_off channel=2 note=79 velocity=0 time=0\n",
      "note_on channel=9 note=70 velocity=85 time=0.0109375\n",
      "note_on channel=9 note=42 velocity=82 time=0\n",
      "note_on channel=9 note=35 velocity=111 time=0\n",
      "note_on channel=6 note=63 velocity=114 time=0\n",
      "note_on channel=6 note=55 velocity=114 time=0\n",
      "note_on channel=1 note=36 velocity=119 time=0\n",
      "note_on channel=6 note=60 velocity=117 time=0.0031249999999999997\n",
      "note_off channel=9 note=35 velocity=0 time=0.0046875\n",
      "note_off channel=9 note=42 velocity=0 time=0\n",
      "note_off channel=9 note=70 velocity=0 time=0\n",
      "note_off channel=6 note=60 velocity=0 time=0.06249999999999999\n",
      "note_off channel=1 note=36 velocity=0 time=0.01875\n",
      "note_off channel=6 note=63 velocity=0 time=0.015624999999999998\n",
      "note_off channel=6 note=55 velocity=0 time=0.012499999999999999\n",
      "note_on channel=9 note=70 velocity=80 time=0.1828125\n",
      "note_on channel=1 note=36 velocity=120 time=0\n",
      "note_off channel=9 note=70 velocity=0 time=0.007812499999999999\n",
      "note_on channel=6 note=58 velocity=113 time=0.1484375\n",
      "note_on channel=6 note=55 velocity=117 time=0\n",
      "note_on channel=6 note=50 velocity=114 time=0\n",
      "note_off channel=1 note=36 velocity=0 time=0.10781249999999999\n",
      "note_on channel=5 note=77 velocity=116 time=0.0296875\n",
      "note_on channel=2 note=77 velocity=116 time=0\n",
      "note_on channel=9 note=70 velocity=91 time=0.0062499999999999995\n",
      "note_on channel=9 note=42 velocity=64 time=0\n",
      "note_on channel=9 note=40 velocity=111 time=0\n",
      "note_on channel=9 note=35 velocity=111 time=0\n",
      "note_on channel=1 note=31 velocity=120 time=0\n",
      "note_off channel=9 note=35 velocity=0 time=0.007812499999999999\n",
      "note_off channel=9 note=40 velocity=0 time=0\n",
      "note_off channel=9 note=42 velocity=0 time=0\n",
      "note_off channel=9 note=70 velocity=0 time=0\n",
      "note_off channel=6 note=55 velocity=0 time=0.23437499999999997\n",
      "note_off channel=1 note=31 velocity=0 time=0.01875\n",
      "note_off channel=5 note=77 velocity=0 time=0.028124999999999997\n",
      "note_off channel=2 note=77 velocity=0 time=0\n",
      "note_on channel=6 note=53 velocity=117 time=0.007812499999999999\n",
      "note_on channel=9 note=70 velocity=84 time=0.0031249999999999997\n",
      "note_on channel=1 note=34 velocity=115 time=0\n",
      "note_off channel=9 note=70 velocity=0 time=0.007812499999999999\n",
      "note_off channel=6 note=50 velocity=0 time=0.16874999999999998\n",
      "note_off channel=6 note=53 velocity=0 time=0.049999999999999996\n",
      "note_off channel=6 note=58 velocity=0 time=0\n",
      "note_off channel=1 note=34 velocity=0 time=0.056249999999999994\n",
      "note_on channel=9 note=70 velocity=97 time=0.017187499999999998\n",
      "note_on channel=9 note=42 velocity=80 time=0\n",
      "note_on channel=9 note=35 velocity=110 time=0\n",
      "note_on channel=6 note=63 velocity=99 time=0\n",
      "note_on channel=6 note=60 velocity=99 time=0\n",
      "note_on channel=1 note=36 velocity=116 time=0\n",
      "note_on channel=6 note=48 velocity=101 time=0.0031249999999999997\n",
      "note_off channel=9 note=35 velocity=0 time=0.0046875\n",
      "note_off channel=9 note=42 velocity=0 time=0\n",
      "note_off channel=9 note=70 velocity=0 time=0\n",
      "note_off channel=1 note=36 velocity=0 time=0.11249999999999999\n",
      "note_off channel=6 note=60 velocity=0 time=0.024999999999999998\n",
      "note_off channel=6 note=48 velocity=0 time=0.0031249999999999997\n",
      "note_off channel=6 note=63 velocity=0 time=0.012499999999999999\n",
      "note_on channel=5 note=75 velocity=114 time=0.12968749999999998\n",
      "note_on channel=2 note=75 velocity=114 time=0\n",
      "note_on channel=9 note=70 velocity=84 time=0.009375\n",
      "note_on channel=6 note=67 velocity=97 time=0\n",
      "note_on channel=1 note=36 velocity=117 time=0\n",
      "note_on channel=6 note=63 velocity=115 time=0.0031249999999999997\n",
      "note_on channel=6 note=60 velocity=118 time=0\n",
      "note_on channel=6 note=55 velocity=117 time=0\n",
      "note_off channel=9 note=70 velocity=0 time=0.0046875\n",
      "note_off channel=6 note=60 velocity=0 time=0.075\n",
      "note_off channel=6 note=67 velocity=0 time=0.009375\n",
      "note_off channel=6 note=55 velocity=0 time=0.0031249999999999997\n",
      "note_off channel=6 note=63 velocity=0 time=0.01875\n",
      "note_off channel=1 note=36 velocity=0 time=0.17187499999999997\n",
      "note_off channel=5 note=75 velocity=0 time=0.0031249999999999997\n",
      "note_off channel=2 note=75 velocity=0 time=0\n",
      "note_on channel=9 note=70 velocity=87 time=0.0109375\n",
      "note_on channel=9 note=42 velocity=72 time=0\n",
      "note_on channel=9 note=40 velocity=111 time=0\n",
      "note_on channel=9 note=35 velocity=110 time=0\n",
      "note_on channel=1 note=39 velocity=113 time=0\n",
      "note_off channel=9 note=35 velocity=0 time=0.007812499999999999\n",
      "note_off channel=9 note=40 velocity=0 time=0\n",
      "note_off channel=9 note=42 velocity=0 time=0\n",
      "note_off channel=9 note=70 velocity=0 time=0\n",
      "note_off channel=1 note=39 velocity=0 time=0.090625\n",
      "note_on channel=6 note=67 velocity=97 time=0.05468749999999999\n",
      "note_on channel=6 note=63 velocity=115 time=0.0031249999999999997\n",
      "note_on channel=6 note=58 velocity=119 time=0\n",
      "note_on channel=6 note=55 velocity=117 time=0\n",
      "note_off channel=6 note=58 velocity=0 time=0.0984375\n",
      "note_off channel=6 note=63 velocity=0 time=0.021875\n",
      "note_off channel=6 note=67 velocity=0 time=0\n",
      "note_off channel=6 note=55 velocity=0 time=0.0031249999999999997\n",
      "note_on channel=9 note=70 velocity=72 time=0.020312499999999997\n",
      "note_on channel=1 note=39 velocity=116 time=0\n",
      "note_off channel=9 note=70 velocity=0 time=0.007812499999999999\n",
      "note_off channel=1 note=39 velocity=0 time=0.26875\n",
      "note_on channel=9 note=42 velocity=77 time=0.020312499999999997\n",
      "note_on channel=6 note=67 velocity=95 time=0\n",
      "note_on channel=9 note=70 velocity=91 time=0.0031249999999999997\n",
      "note_on channel=9 note=35 velocity=111 time=0\n",
      "note_on channel=6 note=63 velocity=116 time=0\n",
      "note_on channel=6 note=60 velocity=118 time=0\n",
      "note_on channel=6 note=55 velocity=115 time=0\n",
      "note_on channel=5 note=70 velocity=116 time=0\n",
      "note_on channel=2 note=70 velocity=116 time=0\n",
      "note_on channel=1 note=36 velocity=118 time=0\n",
      "note_off channel=9 note=42 velocity=0 time=0.0046875\n",
      "note_off channel=9 note=35 velocity=0 time=0.0031249999999999997\n",
      "note_off channel=9 note=70 velocity=0 time=0\n",
      "note_off channel=6 note=60 velocity=0 time=0.06562499999999999\n",
      "note_off channel=6 note=67 velocity=0 time=0.028124999999999997\n",
      "note_off channel=6 note=55 velocity=0 time=0.0031249999999999997\n",
      "note_off channel=6 note=63 velocity=0 time=0.0031249999999999997\n",
      "note_off channel=1 note=36 velocity=0 time=0\n",
      "note_off channel=5 note=70 velocity=0 time=0.18125\n",
      "note_off channel=2 note=70 velocity=0 time=0\n",
      "note_on channel=9 note=70 velocity=78 time=0.0109375\n",
      "note_on channel=1 note=36 velocity=117 time=0\n",
      "note_off channel=9 note=70 velocity=0 time=0.007812499999999999\n",
      "note_on channel=6 note=62 velocity=89 time=0.1421875\n",
      "note_on channel=6 note=58 velocity=113 time=0.0062499999999999995\n",
      "note_on channel=6 note=55 velocity=119 time=0\n",
      "note_on channel=6 note=50 velocity=106 time=0\n",
      "note_off channel=1 note=36 velocity=0 time=0.10468749999999999\n",
      "note_on channel=9 note=70 velocity=94 time=0.0390625\n",
      "note_on channel=9 note=35 velocity=111 time=0\n",
      "note_on channel=5 note=72 velocity=122 time=0\n",
      "note_on channel=2 note=72 velocity=122 time=0\n",
      "note_on channel=1 note=31 velocity=117 time=0\n",
      "note_on channel=9 note=42 velocity=77 time=0.0031249999999999997\n",
      "note_on channel=9 note=40 velocity=108 time=0\n",
      "note_off channel=9 note=35 velocity=0 time=0.0046875\n",
      "note_off channel=9 note=70 velocity=0 time=0\n",
      "note_off channel=9 note=40 velocity=0 time=0.0031249999999999997\n",
      "note_off channel=9 note=42 velocity=0 time=0\n",
      "note_on channel=5 note=70 velocity=122 time=0.08906249999999999\n",
      "note_on channel=2 note=70 velocity=122 time=0\n",
      "note_off channel=5 note=72 velocity=0 time=0.020312499999999997\n",
      "note_off channel=2 note=72 velocity=0 time=0\n",
      "note_on channel=5 note=67 velocity=118 time=0.0796875\n",
      "note_on channel=2 note=67 velocity=118 time=0\n",
      "note_off channel=5 note=70 velocity=0 time=0.007812499999999999\n",
      "note_off channel=2 note=70 velocity=0 time=0\n",
      "note_off channel=6 note=50 velocity=0 time=0.01875\n",
      "note_off channel=1 note=31 velocity=0 time=0.015624999999999998\n",
      "note_off channel=6 note=62 velocity=0 time=0.015624999999999998\n",
      "note_off channel=6 note=55 velocity=0 time=0.0062499999999999995\n",
      "note_off channel=5 note=67 velocity=0 time=0.024999999999999998\n",
      "note_off channel=2 note=67 velocity=0 time=0\n",
      "note_on channel=6 note=62 velocity=68 time=0.0046875\n",
      "note_on channel=6 note=50 velocity=94 time=0.0031249999999999997\n",
      "note_on channel=9 note=70 velocity=80 time=0.0031249999999999997\n",
      "note_on channel=6 note=53 velocity=110 time=0\n",
      "note_on channel=5 note=65 velocity=118 time=0\n",
      "note_on channel=2 note=65 velocity=118 time=0\n",
      "note_on channel=1 note=34 velocity=114 time=0\n",
      "note_off channel=9 note=70 velocity=0 time=0.007812499999999999\n",
      "note_off channel=5 note=65 velocity=0 time=0.08124999999999999\n",
      "note_off channel=2 note=65 velocity=0 time=0\n",
      "note_on channel=5 note=63 velocity=118 time=0.0109375\n",
      "note_on channel=2 note=63 velocity=118 time=0\n",
      "note_off channel=5 note=63 velocity=0 time=0.08906249999999999\n",
      "note_off channel=2 note=63 velocity=0 time=0\n",
      "note_on channel=5 note=60 velocity=118 time=0.0109375\n",
      "note_on channel=2 note=60 velocity=118 time=0\n",
      "note_off channel=6 note=62 velocity=0 time=0.023437499999999997\n",
      "note_off channel=6 note=53 velocity=0 time=0.0062499999999999995\n",
      "note_off channel=6 note=50 velocity=0 time=0.009375\n",
      "note_off channel=6 note=58 velocity=0 time=0.012499999999999999\n",
      "note_off channel=1 note=34 velocity=0 time=0.012499999999999999\n",
      "note_off channel=5 note=60 velocity=0 time=0.024999999999999998\n",
      "note_off channel=2 note=60 velocity=0 time=0\n",
      "note_on channel=9 note=70 velocity=97 time=0.0109375\n",
      "note_on channel=9 note=49 velocity=70 time=0\n",
      "note_on channel=9 note=35 velocity=114 time=0\n",
      "note_on channel=7 note=68 velocity=81 time=0\n",
      "note_on channel=7 note=63 velocity=119 time=0\n",
      "note_on channel=7 note=58 velocity=94 time=0\n",
      "note_on channel=6 note=68 velocity=121 time=0\n",
      "note_on channel=6 note=65 velocity=120 time=0\n",
      "note_on channel=6 note=63 velocity=121 time=0\n",
      "note_on channel=6 note=58 velocity=120 time=0\n",
      "note_on channel=6 note=46 velocity=112 time=0\n",
      "note_on channel=5 note=58 velocity=123 time=0\n",
      "note_on channel=2 note=58 velocity=123 time=0\n",
      "note_on channel=1 note=34 velocity=122 time=0\n",
      "note_off channel=9 note=35 velocity=0 time=0.007812499999999999\n",
      "note_off channel=9 note=49 velocity=0 time=0\n",
      "note_off channel=9 note=70 velocity=0 time=0\n",
      "note_on channel=9 note=70 velocity=84 time=0.2921875\n",
      "note_off channel=9 note=70 velocity=0 time=0.007812499999999999\n",
      "note_on channel=9 note=40 velocity=71 time=0.1421875\n",
      "note_off channel=9 note=40 velocity=0 time=0.007812499999999999\n",
      "note_on channel=9 note=70 velocity=87 time=0.1421875\n",
      "note_on channel=9 note=40 velocity=101 time=0\n",
      "note_on channel=9 note=35 velocity=111 time=0\n",
      "note_off channel=9 note=35 velocity=0 time=0.007812499999999999\n",
      "note_off channel=9 note=40 velocity=0 time=0\n",
      "note_off channel=9 note=70 velocity=0 time=0\n",
      "note_off channel=7 note=58 velocity=0 time=0.11249999999999999\n",
      "note_off channel=7 note=68 velocity=0 time=0\n",
      "note_off channel=7 note=63 velocity=0 time=0.0031249999999999997\n",
      "note_off channel=1 note=34 velocity=0 time=0.0031249999999999997\n",
      "note_off channel=6 note=65 velocity=0 time=0.01875\n",
      "note_off channel=6 note=58 velocity=0 time=0.009375\n",
      "note_off channel=6 note=63 velocity=0 time=0.0031249999999999997\n",
      "note_off channel=6 note=68 velocity=0 time=0.031249999999999997\n",
      "note_off channel=5 note=58 velocity=0 time=0.01875\n",
      "note_off channel=2 note=58 velocity=0 time=0\n",
      "note_off channel=6 note=46 velocity=0 time=0.0062499999999999995\n",
      "note_on channel=9 note=70 velocity=72 time=0.08593749999999999\n",
      "note_on channel=9 note=57 velocity=62 time=0\n",
      "note_on channel=9 note=35 velocity=113 time=0\n",
      "note_on channel=1 note=34 velocity=124 time=0\n",
      "note_on channel=7 note=68 velocity=93 time=0.0031249999999999997\n",
      "note_on channel=7 note=63 velocity=115 time=0\n",
      "note_on channel=7 note=58 velocity=98 time=0\n",
      "note_on channel=2 note=58 velocity=122 time=0\n",
      "note_on channel=5 note=58 velocity=122 time=0.0031249999999999997\n",
      "note_off channel=9 note=35 velocity=0 time=0.0015624999999999999\n",
      "note_off channel=9 note=57 velocity=0 time=0\n",
      "note_off channel=9 note=70 velocity=0 time=0\n",
      "note_on channel=6 note=58 velocity=115 time=0.020312499999999997\n",
      "note_on channel=6 note=46 velocity=115 time=0.0031249999999999997\n",
      "note_on channel=6 note=68 velocity=108 time=0.0031249999999999997\n",
      "note_on channel=6 note=63 velocity=114 time=0\n",
      "note_on channel=6 note=65 velocity=120 time=0.0031249999999999997\n",
      "note_on channel=9 note=70 velocity=91 time=0.26249999999999996\n",
      "note_off channel=9 note=70 velocity=0 time=0.007812499999999999\n",
      "note_on channel=9 note=40 velocity=81 time=0.1421875\n",
      "note_off channel=9 note=40 velocity=0 time=0.007812499999999999\n",
      "note_off channel=1 note=34 velocity=0 time=0.11249999999999999\n",
      "note_on channel=9 note=70 velocity=78 time=0.0296875\n",
      "note_on channel=9 note=40 velocity=111 time=0\n",
      "note_on channel=1 note=46 velocity=112 time=0\n",
      "note_off channel=9 note=40 velocity=0 time=0.007812499999999999\n",
      "note_off channel=9 note=70 velocity=0 time=0\n",
      "note_off channel=1 note=46 velocity=0 time=0.06562499999999999\n",
      "note_on channel=9 note=35 velocity=111 time=0.22343749999999998\n",
      "note_on channel=9 note=70 velocity=94 time=0.0031249999999999997\n",
      "note_on channel=1 note=44 velocity=106 time=0\n",
      "note_on channel=9 note=42 velocity=77 time=0.0031249999999999997\n",
      "note_on channel=9 note=40 velocity=108 time=0\n",
      "note_off channel=9 note=35 velocity=0 time=0.0015624999999999999\n",
      "note_off channel=9 note=70 velocity=0 time=0.0031249999999999997\n",
      "note_off channel=9 note=40 velocity=0 time=0.0031249999999999997\n",
      "note_off channel=9 note=42 velocity=0 time=0\n",
      "note_off channel=1 note=44 velocity=0 time=0.128125\n",
      "note_on channel=9 note=40 velocity=108 time=0.0109375\n",
      "note_on channel=1 note=45 velocity=97 time=0\n",
      "note_off channel=9 note=40 velocity=0 time=0.007812499999999999\n",
      "note_off channel=1 note=45 velocity=0 time=0.13124999999999998\n",
      "note_on channel=9 note=70 velocity=80 time=0.0109375\n",
      "note_on channel=9 note=43 velocity=108 time=0\n",
      "note_on channel=1 note=46 velocity=106 time=0\n",
      "note_off channel=9 note=43 velocity=0 time=0.007812499999999999\n",
      "note_off channel=9 note=70 velocity=0 time=0\n",
      "note_off channel=7 note=58 velocity=0 time=0.04375\n",
      "note_off channel=7 note=63 velocity=0 time=0.0031249999999999997\n",
      "note_off channel=7 note=68 velocity=0 time=0.0062499999999999995\n",
      "note_off channel=6 note=65 velocity=0 time=0.0875\n",
      "note_off channel=6 note=58 velocity=0 time=0.01875\n",
      "note_off channel=6 note=63 velocity=0 time=0.0031249999999999997\n",
      "note_off channel=2 note=58 velocity=0 time=0.0031249999999999997\n",
      "note_off channel=5 note=58 velocity=0 time=0.0031249999999999997\n",
      "note_off channel=6 note=46 velocity=0 time=0.012499999999999999\n",
      "note_off channel=6 note=68 velocity=0 time=0.01875\n",
      "note_off channel=1 note=46 velocity=0 time=0.04375\n",
      "note_on channel=5 note=58 velocity=122 time=0.0265625\n",
      "note_on channel=2 note=58 velocity=122 time=0.009375\n",
      "note_on channel=9 note=70 velocity=85 time=0.012499999999999999\n",
      "note_on channel=9 note=49 velocity=70 time=0\n",
      "note_on channel=9 note=35 velocity=114 time=0\n",
      "note_on channel=7 note=68 velocity=104 time=0\n",
      "note_on channel=7 note=63 velocity=121 time=0\n",
      "note_on channel=7 note=58 velocity=102 time=0\n",
      "note_on channel=1 note=34 velocity=121 time=0\n",
      "note_off channel=9 note=35 velocity=0 time=0.007812499999999999\n",
      "note_off channel=9 note=49 velocity=0 time=0\n",
      "note_off channel=9 note=70 velocity=0 time=0\n",
      "note_on channel=6 note=68 velocity=111 time=0.0015624999999999999\n",
      "note_on channel=6 note=63 velocity=116 time=0\n",
      "note_on channel=6 note=58 velocity=113 time=0\n",
      "note_on channel=6 note=46 velocity=119 time=0\n",
      "note_on channel=6 note=65 velocity=119 time=0.009375\n",
      "note_on channel=9 note=70 velocity=82 time=0.28125\n",
      "note_off channel=9 note=70 velocity=0 time=0.007812499999999999\n",
      "note_on channel=9 note=40 velocity=71 time=0.1421875\n",
      "note_off channel=9 note=40 velocity=0 time=0.007812499999999999\n",
      "note_on channel=9 note=70 velocity=91 time=0.1421875\n",
      "note_on channel=9 note=40 velocity=101 time=0\n",
      "note_on channel=9 note=35 velocity=111 time=0\n",
      "note_off channel=9 note=35 velocity=0 time=0.007812499999999999\n",
      "note_off channel=9 note=40 velocity=0 time=0\n",
      "note_off channel=9 note=70 velocity=0 time=0\n",
      "note_off channel=1 note=34 velocity=0 time=0.053125\n",
      "note_off channel=7 note=63 velocity=0 time=0.04687499999999999\n",
      "note_off channel=7 note=58 velocity=0 time=0.009375\n",
      "note_off channel=7 note=68 velocity=0 time=0.009375\n",
      "note_off channel=6 note=65 velocity=0 time=0.04687499999999999\n",
      "note_off channel=5 note=58 velocity=0 time=0.01875\n",
      "note_off channel=6 note=58 velocity=0 time=0.0031249999999999997\n",
      "note_off channel=6 note=63 velocity=0 time=0.0062499999999999995\n",
      "note_off channel=2 note=58 velocity=0 time=0\n",
      "note_off channel=6 note=46 velocity=0 time=0.0375\n",
      "note_off channel=6 note=68 velocity=0 time=0\n",
      "note_on channel=5 note=58 velocity=122 time=0.057812499999999996\n",
      "note_on channel=2 note=58 velocity=122 time=0\n",
      "note_on channel=9 note=70 velocity=81 time=0.0031249999999999997\n",
      "note_on channel=9 note=40 velocity=71 time=0\n",
      "note_on channel=7 note=68 velocity=97 time=0\n",
      "note_on channel=7 note=58 velocity=93 time=0\n",
      "note_on channel=1 note=34 velocity=120 time=0\n",
      "note_on channel=7 note=63 velocity=117 time=0.0031249999999999997\n",
      "note_off channel=9 note=40 velocity=0 time=0.0046875\n",
      "note_off channel=9 note=70 velocity=0 time=0\n",
      "note_on channel=6 note=68 velocity=117 time=0.017187499999999998\n",
      "note_on channel=6 note=63 velocity=117 time=0\n",
      "note_on channel=6 note=58 velocity=114 time=0\n",
      "note_on channel=6 note=46 velocity=117 time=0\n",
      "note_on channel=6 note=65 velocity=120 time=0.0062499999999999995\n",
      "note_on channel=9 note=40 velocity=101 time=0.11875\n",
      "note_off channel=9 note=40 velocity=0 time=0.007812499999999999\n",
      "note_on channel=9 note=70 velocity=85 time=0.1421875\n",
      "note_on channel=9 note=40 velocity=101 time=0\n",
      "note_on channel=9 note=35 velocity=113 time=0\n",
      "note_off channel=9 note=35 velocity=0 time=0.007812499999999999\n",
      "note_off channel=9 note=40 velocity=0 time=0\n",
      "note_off channel=9 note=70 velocity=0 time=0\n",
      "note_off channel=1 note=34 velocity=0 time=0.21562499999999998\n",
      "note_on channel=9 note=70 velocity=80 time=0.07656249999999999\n",
      "note_on channel=9 note=47 velocity=111 time=0\n",
      "note_on channel=1 note=44 velocity=103 time=0\n",
      "note_off channel=9 note=47 velocity=0 time=0.007812499999999999\n",
      "note_off channel=9 note=70 velocity=0 time=0\n",
      "note_off channel=1 note=44 velocity=0 time=0.078125\n",
      "note_on channel=9 note=47 velocity=87 time=0.0640625\n",
      "note_on channel=1 note=45 velocity=103 time=0\n",
      "note_off channel=9 note=47 velocity=0 time=0.007812499999999999\n",
      "note_off channel=5 note=58 velocity=0 time=0.040624999999999994\n",
      "note_off channel=2 note=58 velocity=0 time=0\n",
      "note_off channel=1 note=45 velocity=0 time=0.075\n",
      "note_on channel=9 note=35 velocity=111 time=0.023437499999999997\n",
      "note_on channel=9 note=70 velocity=91 time=0.0031249999999999997\n",
      "note_on channel=9 note=47 velocity=108 time=0\n",
      "note_on channel=5 note=70 velocity=124 time=0\n",
      "note_on channel=2 note=70 velocity=124 time=0\n",
      "note_on channel=1 note=46 velocity=110 time=0\n",
      "note_on channel=9 note=42 velocity=77 time=0.0031249999999999997\n",
      "note_off channel=9 note=35 velocity=0 time=0.0015624999999999999\n",
      "note_off channel=9 note=47 velocity=0 time=0.0031249999999999997\n",
      "note_off channel=9 note=70 velocity=0 time=0\n",
      "note_off channel=9 note=42 velocity=0 time=0.0031249999999999997\n",
      "note_off channel=7 note=63 velocity=0 time=0.06249999999999999\n",
      "note_off channel=5 note=70 velocity=0 time=0.056249999999999994\n",
      "note_off channel=2 note=70 velocity=0 time=0\n",
      "note_on channel=5 note=72 velocity=116 time=0.007812499999999999\n",
      "note_on channel=2 note=72 velocity=116 time=0.0062499999999999995\n",
      "note_on channel=9 note=47 velocity=57 time=0.0062499999999999995\n",
      "note_off channel=7 note=58 velocity=0 time=0.0015624999999999999\n",
      "note_off channel=9 note=47 velocity=0 time=0.0062499999999999995\n",
      "note_off channel=7 note=68 velocity=0 time=0.0062499999999999995\n",
      "note_off channel=5 note=72 velocity=0 time=0.09999999999999999\n",
      "note_off channel=2 note=72 velocity=0 time=0.0031249999999999997\n",
      "note_on channel=5 note=75 velocity=124 time=0.007812499999999999\n",
      "note_on channel=2 note=75 velocity=124 time=0.012499999999999999\n",
      "note_off channel=1 note=46 velocity=0 time=0.0015624999999999999\n",
      "note_off channel=6 note=65 velocity=0 time=0.0031249999999999997\n",
      "note_on channel=9 note=70 velocity=84 time=0.007812499999999999\n",
      "note_on channel=9 note=46 velocity=54 time=0\n",
      "note_on channel=9 note=43 velocity=108 time=0\n",
      "note_on channel=1 note=34 velocity=117 time=0\n",
      "note_off channel=9 note=43 velocity=0 time=0.007812499999999999\n",
      "note_off channel=9 note=46 velocity=0 time=0\n",
      "note_off channel=9 note=70 velocity=0 time=0\n",
      "note_off channel=6 note=58 velocity=0 time=0.049999999999999996\n",
      "note_off channel=6 note=63 velocity=0 time=0\n",
      "note_off channel=6 note=68 velocity=0 time=0\n",
      "note_off channel=5 note=75 velocity=0 time=0.01875\n",
      "note_off channel=6 note=46 velocity=0 time=0.009375\n",
      "note_off channel=2 note=75 velocity=0 time=0.0031249999999999997\n",
      "note_off channel=1 note=34 velocity=0 time=0.028124999999999997\n",
      "note_on channel=9 note=70 velocity=97 time=0.1828125\n",
      "note_on channel=9 note=64 velocity=52 time=0\n",
      "note_on channel=9 note=49 velocity=56 time=0\n",
      "note_on channel=9 note=35 velocity=111 time=0\n",
      "note_on channel=6 note=65 velocity=120 time=0\n",
      "note_on channel=6 note=62 velocity=120 time=0\n",
      "note_on channel=6 note=58 velocity=118 time=0\n",
      "note_on channel=5 note=77 velocity=124 time=0\n",
      "note_on channel=5 note=74 velocity=118 time=0\n",
      "note_on channel=2 note=77 velocity=124 time=0\n",
      "note_on channel=1 note=39 velocity=120 time=0\n",
      "note_on channel=7 note=67 velocity=65 time=0.0062499999999999995\n",
      "note_on channel=7 note=58 velocity=77 time=0\n",
      "note_off channel=9 note=35 velocity=0 time=0.0015624999999999999\n",
      "note_off channel=9 note=49 velocity=0 time=0\n",
      "note_off channel=9 note=64 velocity=0 time=0\n",
      "note_off channel=9 note=70 velocity=0 time=0\n",
      "note_off channel=7 note=67 velocity=0 time=0.040624999999999994\n",
      "note_off channel=7 note=58 velocity=0 time=0.0031249999999999997\n",
      "note_off channel=1 note=39 velocity=0 time=0.0875\n",
      "note_on channel=9 note=64 velocity=29 time=0.0109375\n",
      "note_off channel=9 note=64 velocity=0 time=0.007812499999999999\n",
      "note_on channel=9 note=70 velocity=84 time=0.1421875\n",
      "note_on channel=9 note=64 velocity=48 time=0\n",
      "note_on channel=9 note=42 velocity=72 time=0\n",
      "note_on channel=1 note=39 velocity=121 time=0\n",
      "note_off channel=9 note=42 velocity=0 time=0.007812499999999999\n",
      "note_off channel=9 note=64 velocity=0 time=0\n",
      "note_off channel=9 note=70 velocity=0 time=0\n",
      "note_on channel=7 note=63 velocity=94 time=0.0015624999999999999\n",
      "note_off channel=7 note=63 velocity=0 time=0.017187499999999998\n",
      "note_off channel=5 note=77 velocity=0 time=0.075\n",
      "note_off channel=2 note=77 velocity=0 time=0\n",
      "note_off channel=5 note=74 velocity=0 time=0.0375\n",
      "note_on channel=9 note=63 velocity=46 time=0.0109375\n",
      "note_on channel=9 note=42 velocity=53 time=0\n",
      "note_on channel=7 note=63 velocity=98 time=0.0062499999999999995\n",
      "note_off channel=9 note=42 velocity=0 time=0.0015624999999999999\n",
      "note_off channel=9 note=63 velocity=0 time=0\n",
      "note_off channel=7 note=63 velocity=0 time=0\n",
      "note_on channel=9 note=70 velocity=87 time=0.1421875\n",
      "note_on channel=9 note=63 velocity=64 time=0\n",
      "note_on channel=9 note=42 velocity=72 time=0\n",
      "note_on channel=9 note=40 velocity=111 time=0\n",
      "note_on channel=9 note=35 velocity=111 time=0\n",
      "note_on channel=7 note=67 velocity=115 time=0.0031249999999999997\n",
      "note_on channel=7 note=63 velocity=124 time=0\n",
      "note_on channel=7 note=58 velocity=113 time=0.0031249999999999997\n",
      "note_on channel=2 note=82 velocity=124 time=0\n",
      "note_off channel=9 note=35 velocity=0 time=0.0015624999999999999\n",
      "note_off channel=9 note=40 velocity=0 time=0\n",
      "note_off channel=9 note=42 velocity=0 time=0\n",
      "note_off channel=9 note=63 velocity=0 time=0\n",
      "note_off channel=9 note=70 velocity=0 time=0\n",
      "note_on channel=5 note=82 velocity=124 time=0.007812499999999999\n",
      "note_off channel=2 note=82 velocity=0 time=0.0515625\n",
      "note_off channel=5 note=82 velocity=0 time=0.009375\n",
      "note_off channel=6 note=58 velocity=0 time=0.06562499999999999\n",
      "note_on channel=9 note=63 velocity=30 time=0.007812499999999999\n",
      "note_off channel=7 note=63 velocity=0 time=0.0015624999999999999\n",
      "note_off channel=6 note=65 velocity=0 time=0\n",
      "note_off channel=6 note=62 velocity=0 time=0.0031249999999999997\n",
      "note_off channel=9 note=63 velocity=0 time=0.0031249999999999997\n",
      "note_off channel=7 note=58 velocity=0 time=0.028124999999999997\n",
      "note_off channel=7 note=67 velocity=0 time=0.024999999999999998\n",
      "note_off channel=1 note=39 velocity=0 time=0.056249999999999994\n",
      "note_on channel=6 note=67 velocity=118 time=0.0296875\n",
      "note_on channel=6 note=58 velocity=112 time=0\n",
      "note_on channel=9 note=70 velocity=72 time=0.0031249999999999997\n",
      "note_on channel=9 note=63 velocity=49 time=0\n",
      "note_on channel=9 note=42 velocity=72 time=0\n",
      "note_on channel=7 note=63 velocity=93 time=0\n",
      "note_on channel=6 note=63 velocity=116 time=0\n",
      "note_on channel=5 note=75 velocity=113 time=0\n",
      "note_on channel=1 note=34 velocity=119 time=0\n",
      "note_on channel=2 note=79 velocity=122 time=0.0031249999999999997\n",
      "note_off channel=7 note=63 velocity=0 time=0.0015624999999999999\n",
      "note_on channel=5 note=79 velocity=122 time=0.0015624999999999999\n",
      "note_off channel=9 note=42 velocity=0 time=0.0015624999999999999\n",
      "note_off channel=9 note=63 velocity=0 time=0\n",
      "note_off channel=9 note=70 velocity=0 time=0\n",
      "note_on channel=7 note=63 velocity=62 time=0.1328125\n",
      "note_on channel=9 note=63 velocity=49 time=0.009375\n",
      "note_on channel=9 note=42 velocity=53 time=0\n",
      "note_off channel=9 note=42 velocity=0 time=0.007812499999999999\n",
      "note_off channel=9 note=63 velocity=0 time=0\n",
      "note_off channel=7 note=63 velocity=0 time=0.009375\n",
      "note_on channel=9 note=42 velocity=80 time=0.12968749999999998\n",
      "note_on channel=9 note=35 velocity=111 time=0\n",
      "note_on channel=9 note=70 velocity=91 time=0.0031249999999999997\n",
      "note_on channel=9 note=64 velocity=47 time=0\n",
      "note_off channel=9 note=35 velocity=0 time=0.0046875\n",
      "note_off channel=9 note=42 velocity=0 time=0\n",
      "note_on channel=7 note=63 velocity=87 time=0.0015624999999999999\n",
      "note_off channel=9 note=64 velocity=0 time=0.0015624999999999999\n",
      "note_off channel=9 note=70 velocity=0 time=0\n",
      "note_off channel=7 note=63 velocity=0 time=0.009375\n",
      "note_on channel=9 note=63 velocity=39 time=0.1328125\n",
      "note_off channel=9 note=63 velocity=0 time=0.007812499999999999\n",
      "note_off channel=1 note=34 velocity=0 time=0.11562499999999999\n",
      "note_off channel=5 note=75 velocity=0 time=0.015624999999999998\n",
      "note_on channel=9 note=70 velocity=78 time=0.0109375\n",
      "note_on channel=9 note=63 velocity=43 time=0\n",
      "note_on channel=9 note=42 velocity=72 time=0\n",
      "note_on channel=1 note=39 velocity=108 time=0\n",
      "note_on channel=7 note=63 velocity=93 time=0.0031249999999999997\n",
      "note_off channel=9 note=42 velocity=0 time=0.0046875\n",
      "note_off channel=9 note=63 velocity=0 time=0\n",
      "note_off channel=9 note=70 velocity=0 time=0\n",
      "note_off channel=7 note=63 velocity=0 time=0.0062499999999999995\n",
      "note_off channel=2 note=79 velocity=0 time=0.075\n",
      "note_off channel=5 note=79 velocity=0 time=0.0031249999999999997\n",
      "note_on channel=9 note=63 velocity=61 time=0.057812499999999996\n",
      "note_on channel=9 note=42 velocity=53 time=0\n",
      "note_on channel=7 note=63 velocity=92 time=0\n",
      "note_off channel=7 note=63 velocity=0 time=0.0046875\n",
      "note_off channel=9 note=42 velocity=0 time=0.0031249999999999997\n",
      "note_off channel=9 note=63 velocity=0 time=0\n",
      "note_on channel=5 note=70 velocity=124 time=0.1359375\n",
      "note_on channel=9 note=35 velocity=111 time=0.0031249999999999997\n",
      "note_on channel=7 note=67 velocity=105 time=0\n",
      "note_on channel=7 note=63 velocity=119 time=0\n",
      "note_on channel=7 note=58 velocity=110 time=0\n",
      "note_on channel=2 note=70 velocity=124 time=0\n",
      "note_on channel=9 note=70 velocity=94 time=0.0031249999999999997\n",
      "note_on channel=9 note=62 velocity=89 time=0\n",
      "note_on channel=9 note=42 velocity=77 time=0.0031249999999999997\n",
      "note_on channel=9 note=40 velocity=108 time=0\n",
      "note_off channel=9 note=35 velocity=0 time=0.0015624999999999999\n",
      "note_off channel=9 note=62 velocity=0 time=0.0031249999999999997\n",
      "note_off channel=9 note=70 velocity=0 time=0\n",
      "note_off channel=9 note=40 velocity=0 time=0.0031249999999999997\n",
      "note_off channel=9 note=42 velocity=0 time=0\n",
      "note_off channel=5 note=70 velocity=0 time=0.09374999999999999\n",
      "note_off channel=2 note=70 velocity=0 time=0.0031249999999999997\n",
      "note_off channel=7 note=63 velocity=0 time=0.01875\n",
      "note_on channel=5 note=72 velocity=114 time=0.007812499999999999\n",
      "note_on channel=2 note=72 velocity=114 time=0.0062499999999999995\n",
      "note_on channel=9 note=64 velocity=32 time=0.009375\n",
      "note_off channel=7 note=58 velocity=0 time=0.0015624999999999999\n",
      "note_off channel=9 note=64 velocity=0 time=0.0062499999999999995\n",
      "note_off channel=7 note=67 velocity=0 time=0.009375\n",
      "note_off channel=5 note=72 velocity=0 time=0.059375\n",
      "note_off channel=2 note=72 velocity=0 time=0.0062499999999999995\n",
      "note_on channel=5 note=75 velocity=124 time=0.0265625\n",
      "note_on channel=2 note=75 velocity=124 time=0.01875\n",
      "note_off channel=1 note=39 velocity=0 time=0.0109375\n",
      "note_on channel=9 note=70 velocity=80 time=0.0109375\n",
      "note_on channel=9 note=63 velocity=46 time=0\n",
      "note_on channel=9 note=42 velocity=72 time=0\n",
      "note_on channel=1 note=34 velocity=105 time=0\n",
      "note_on channel=7 note=63 velocity=72 time=0.0031249999999999997\n",
      "note_off channel=9 note=42 velocity=0 time=0.0046875\n",
      "note_off channel=9 note=63 velocity=0 time=0\n",
      "note_off channel=9 note=70 velocity=0 time=0\n",
      "note_off channel=6 note=63 velocity=0 time=0.009375\n",
      "note_off channel=7 note=63 velocity=0 time=0.012499999999999999\n",
      "note_off channel=6 note=67 velocity=0 time=0.034374999999999996\n",
      "note_off channel=5 note=75 velocity=0 time=0\n",
      "note_off channel=6 note=58 velocity=0 time=0.0031249999999999997\n",
      "note_off channel=2 note=75 velocity=0 time=0.015624999999999998\n",
      "note_off channel=1 note=34 velocity=0 time=0.021875\n",
      "note_on channel=9 note=63 velocity=46 time=0.0453125\n",
      "note_on channel=9 note=42 velocity=53 time=0\n",
      "note_on channel=1 note=36 velocity=103 time=0\n",
      "note_on channel=7 note=63 velocity=96 time=0.0031249999999999997\n",
      "note_off channel=9 note=42 velocity=0 time=0.0046875\n",
      "note_off channel=9 note=63 velocity=0 time=0\n",
      "note_off channel=7 note=63 velocity=0 time=0\n",
      "note_off channel=1 note=36 velocity=0 time=0.06249999999999999\n",
      "note_on channel=6 note=65 velocity=117 time=0.07656249999999999\n",
      "note_on channel=9 note=70 velocity=85 time=0.0031249999999999997\n",
      "note_on channel=9 note=64 velocity=51 time=0\n",
      "note_on channel=6 note=62 velocity=119 time=0\n",
      "note_on channel=6 note=58 velocity=111 time=0\n",
      "note_on channel=5 note=77 velocity=123 time=0\n",
      "note_on channel=5 note=74 velocity=114 time=0\n",
      "note_on channel=2 note=77 velocity=123 time=0\n",
      "note_on channel=1 note=39 velocity=120 time=0\n",
      "note_on channel=7 note=63 velocity=72 time=0.0031249999999999997\n",
      "note_off channel=9 note=64 velocity=0 time=0.0046875\n",
      "note_off channel=9 note=70 velocity=0 time=0\n",
      "note_on channel=9 note=42 velocity=80 time=0.0015624999999999999\n",
      "note_on channel=9 note=35 velocity=111 time=0\n",
      "note_off channel=9 note=35 velocity=0 time=0.007812499999999999\n",
      "note_off channel=9 note=42 velocity=0 time=0\n",
      "note_off channel=7 note=63 velocity=0 time=0\n",
      "note_off channel=1 note=39 velocity=0 time=0.12187499999999998\n",
      "note_on channel=9 note=64 velocity=26 time=0.0109375\n",
      "note_off channel=9 note=64 velocity=0 time=0.007812499999999999\n",
      "note_on channel=9 note=70 velocity=82 time=0.1421875\n",
      "note_on channel=9 note=64 velocity=43 time=0\n",
      "note_on channel=9 note=42 velocity=72 time=0\n",
      "note_on channel=7 note=63 velocity=82 time=0\n",
      "note_on channel=1 note=39 velocity=121 time=0\n",
      "note_off channel=9 note=42 velocity=0 time=0.007812499999999999\n",
      "note_off channel=9 note=64 velocity=0 time=0\n",
      "note_off channel=9 note=70 velocity=0 time=0\n",
      "note_off channel=7 note=63 velocity=0 time=0.0031249999999999997\n",
      "note_off channel=5 note=74 velocity=0 time=0.128125\n",
      "note_on channel=7 note=63 velocity=104 time=0.007812499999999999\n",
      "note_on channel=9 note=63 velocity=44 time=0.0031249999999999997\n",
      "note_on channel=9 note=42 velocity=53 time=0\n",
      "note_off channel=9 note=42 velocity=0 time=0.007812499999999999\n",
      "note_off channel=9 note=63 velocity=0 time=0\n",
      "note_off channel=5 note=77 velocity=0 time=0\n",
      "note_off channel=2 note=77 velocity=0 time=0\n",
      "note_off channel=7 note=63 velocity=0 time=0.0031249999999999997\n",
      "note_on channel=5 note=82 velocity=124 time=0.12031249999999999\n",
      "note_on channel=2 note=82 velocity=124 time=0.009375\n",
      "note_on channel=7 note=63 velocity=113 time=0.0062499999999999995\n",
      "note_on channel=9 note=70 velocity=91 time=0.0031249999999999997\n",
      "note_on channel=9 note=63 velocity=68 time=0\n",
      "note_on channel=7 note=67 velocity=107 time=0\n",
      "note_on channel=7 note=58 velocity=104 time=0\n",
      "note_on channel=9 note=42 velocity=77 time=0.0031249999999999997\n",
      "note_on channel=9 note=40 velocity=106 time=0\n",
      "note_off channel=9 note=63 velocity=0 time=0.0046875\n",
      "note_off channel=9 note=70 velocity=0 time=0\n",
      "note_on channel=9 note=35 velocity=111 time=0.0015624999999999999\n",
      "note_off channel=9 note=40 velocity=0 time=0.0015624999999999999\n",
      "note_off channel=9 note=42 velocity=0 time=0\n",
      "note_off channel=9 note=35 velocity=0 time=0.0062499999999999995\n",
      "note_off channel=6 note=62 velocity=0 time=0.04687499999999999\n",
      "note_off channel=5 note=82 velocity=0 time=0.009375\n",
      "note_off channel=6 note=65 velocity=0 time=0.009375\n",
      "note_off channel=2 note=82 velocity=0 time=0\n",
      "note_off channel=6 note=58 velocity=0 time=0.0062499999999999995\n",
      "note_off channel=7 note=63 velocity=0 time=0.01875\n",
      "note_off channel=7 note=58 velocity=0 time=0.040624999999999994\n",
      "note_on channel=9 note=63 velocity=22 time=0.0015624999999999999\n",
      "note_on channel=7 note=63 velocity=88 time=0.0031249999999999997\n",
      "note_off channel=9 note=63 velocity=0 time=0.0046875\n",
      "note_off channel=7 note=67 velocity=0 time=0\n",
      "note_off channel=7 note=63 velocity=0 time=0.0062499999999999995\n",
      "note_off channel=1 note=39 velocity=0 time=0.103125\n",
      "note_on channel=5 note=79 velocity=122 time=0.007812499999999999\n",
      "note_on channel=2 note=79 velocity=122 time=0.012499999999999999\n",
      "note_on channel=9 note=70 velocity=81 time=0.012499999999999999\n",
      "note_on channel=9 note=63 velocity=43 time=0\n",
      "note_on channel=9 note=42 velocity=72 time=0\n",
      "note_on channel=6 note=67 velocity=117 time=0\n",
      "note_on channel=6 note=63 velocity=117 time=0\n",
      "note_on channel=6 note=58 velocity=113 time=0\n",
      "note_on channel=5 note=75 velocity=113 time=0\n",
      "note_on channel=1 note=34 velocity=119 time=0\n",
      "note_on channel=7 note=63 velocity=74 time=0.0062499999999999995\n",
      "note_off channel=9 note=42 velocity=0 time=0.0015624999999999999\n",
      "note_off channel=9 note=63 velocity=0 time=0\n",
      "note_off channel=9 note=70 velocity=0 time=0\n",
      "note_off channel=7 note=63 velocity=0 time=0.028124999999999997\n",
      "note_on channel=9 note=63 velocity=48 time=0.1140625\n",
      "note_on channel=9 note=42 velocity=53 time=0\n",
      "note_on channel=7 note=63 velocity=101 time=0.0031249999999999997\n",
      "note_off channel=9 note=42 velocity=0 time=0.0046875\n",
      "note_off channel=9 note=63 velocity=0 time=0\n",
      "note_off channel=7 note=63 velocity=0 time=0.0062499999999999995\n",
      "note_on channel=9 note=70 velocity=85 time=0.1359375\n",
      "note_on channel=9 note=64 velocity=49 time=0\n",
      "note_on channel=9 note=42 velocity=82 time=0\n",
      "note_on channel=9 note=35 velocity=111 time=0\n",
      "note_on channel=7 note=63 velocity=69 time=0.0031249999999999997\n",
      "note_off channel=9 note=35 velocity=0 time=0.0046875\n",
      "note_off channel=9 note=42 velocity=0 time=0\n",
      "note_off channel=9 note=64 velocity=0 time=0\n",
      "note_off channel=9 note=70 velocity=0 time=0\n",
      "note_off channel=7 note=63 velocity=0 time=0.015624999999999998\n",
      "note_on channel=9 note=63 velocity=43 time=0.1265625\n",
      "note_on channel=7 note=63 velocity=90 time=0.0031249999999999997\n",
      "note_off channel=9 note=63 velocity=0 time=0.0046875\n",
      "note_off channel=7 note=63 velocity=0 time=0.0031249999999999997\n",
      "note_off channel=1 note=34 velocity=0 time=0.11249999999999999\n",
      "note_on channel=9 note=70 velocity=80 time=0.0265625\n",
      "note_on channel=9 note=63 velocity=41 time=0\n",
      "note_on channel=9 note=42 velocity=72 time=0\n",
      "note_on channel=1 note=39 velocity=108 time=0\n",
      "note_on channel=7 note=63 velocity=87 time=0.0031249999999999997\n",
      "note_off channel=9 note=42 velocity=0 time=0.0046875\n",
      "note_off channel=9 note=63 velocity=0 time=0\n",
      "note_off channel=9 note=70 velocity=0 time=0\n",
      "note_off channel=7 note=63 velocity=0 time=0.0062499999999999995\n",
      "note_off channel=5 note=79 velocity=0 time=0.059375\n",
      "note_off channel=5 note=75 velocity=0 time=0.0031249999999999997\n",
      "note_off channel=2 note=79 velocity=0 time=0.0062499999999999995\n",
      "note_on channel=7 note=63 velocity=107 time=0.0640625\n",
      "note_on channel=9 note=63 velocity=59 time=0.0031249999999999997\n",
      "note_on channel=9 note=42 velocity=53 time=0\n",
      "note_off channel=9 note=42 velocity=0 time=0.007812499999999999\n",
      "note_off channel=9 note=63 velocity=0 time=0\n",
      "note_off channel=7 note=63 velocity=0 time=0\n",
      "note_on channel=5 note=70 velocity=124 time=0.12343749999999999\n",
      "note_on channel=2 note=70 velocity=124 time=0.009375\n",
      "note_on channel=7 note=67 velocity=98 time=0.0062499999999999995\n",
      "note_on channel=7 note=63 velocity=119 time=0\n",
      "note_on channel=7 note=58 velocity=112 time=0\n",
      "note_on channel=9 note=70 velocity=91 time=0.0031249999999999997\n",
      "note_on channel=9 note=62 velocity=84 time=0\n",
      "note_on channel=9 note=42 velocity=64 time=0\n",
      "note_on channel=9 note=40 velocity=111 time=0\n",
      "note_on channel=9 note=35 velocity=111 time=0\n",
      "note_off channel=9 note=35 velocity=0 time=0.007812499999999999\n",
      "note_off channel=9 note=40 velocity=0 time=0\n",
      "note_off channel=9 note=42 velocity=0 time=0\n",
      "note_off channel=9 note=62 velocity=0 time=0\n",
      "note_off channel=9 note=70 velocity=0 time=0\n",
      "note_off channel=5 note=70 velocity=0 time=0.08124999999999999\n",
      "note_off channel=2 note=70 velocity=0 time=0.009375\n",
      "note_on channel=5 note=72 velocity=115 time=0.0265625\n",
      "note_off channel=7 note=63 velocity=0 time=0.0109375\n",
      "note_on channel=2 note=72 velocity=115 time=0.0015624999999999999\n",
      "note_off channel=7 note=58 velocity=0 time=0.0109375\n",
      "note_on channel=9 note=64 velocity=30 time=0.0015624999999999999\n",
      "note_off channel=9 note=64 velocity=0 time=0.007812499999999999\n",
      "note_off channel=7 note=67 velocity=0 time=0\n",
      "note_off channel=5 note=72 velocity=0 time=0.04687499999999999\n",
      "note_off channel=2 note=72 velocity=0 time=0.009375\n",
      "note_off channel=6 note=58 velocity=0 time=0.0031249999999999997\n",
      "note_off channel=6 note=63 velocity=0 time=0.0031249999999999997\n",
      "note_off channel=6 note=67 velocity=0 time=0.012499999999999999\n",
      "note_on channel=5 note=75 velocity=125 time=0.0265625\n",
      "note_on channel=2 note=75 velocity=125 time=0.01875\n",
      "note_off channel=1 note=39 velocity=0 time=0.0109375\n",
      "note_on channel=9 note=70 velocity=84 time=0.0109375\n",
      "note_on channel=9 note=63 velocity=44 time=0\n",
      "note_on channel=9 note=42 velocity=72 time=0\n",
      "note_on channel=7 note=63 velocity=75 time=0\n",
      "note_on channel=1 note=34 velocity=105 time=0\n",
      "note_off channel=9 note=42 velocity=0 time=0.007812499999999999\n",
      "note_off channel=9 note=63 velocity=0 time=0\n",
      "note_off channel=9 note=70 velocity=0 time=0\n",
      "note_off channel=7 note=63 velocity=0 time=0.034374999999999996\n",
      "note_off channel=5 note=75 velocity=0 time=0.028124999999999997\n",
      "note_off channel=2 note=75 velocity=0 time=0.01875\n",
      "note_off channel=1 note=34 velocity=0 time=0.015624999999999998\n",
      "note_on channel=9 note=63 velocity=52 time=0.0453125\n",
      "note_on channel=9 note=42 velocity=53 time=0\n",
      "note_on channel=1 note=35 velocity=103 time=0\n",
      "note_off channel=9 note=42 velocity=0 time=0.007812499999999999\n",
      "note_off channel=9 note=63 velocity=0 time=0\n",
      "note_off channel=1 note=35 velocity=0 time=0.06249999999999999\n",
      "note_on channel=5 note=77 velocity=124 time=0.0671875\n",
      "note_on channel=2 note=77 velocity=124 time=0.0062499999999999995\n",
      "note_on channel=6 note=65 velocity=114 time=0.0031249999999999997\n",
      "note_on channel=6 note=55 velocity=115 time=0\n",
      "note_on channel=9 note=70 velocity=97 time=0.0031249999999999997\n",
      "note_on channel=9 note=64 velocity=52 time=0\n",
      "note_on channel=9 note=42 velocity=80 time=0\n",
      "note_on channel=9 note=35 velocity=110 time=0\n",
      "note_on channel=6 note=62 velocity=117 time=0\n",
      "note_on channel=6 note=60 velocity=117 time=0\n",
      "note_on channel=5 note=74 velocity=114 time=0\n",
      "note_on channel=1 note=36 velocity=120 time=0\n",
      "note_off channel=9 note=35 velocity=0 time=0.007812499999999999\n",
      "note_off channel=9 note=42 velocity=0 time=0\n",
      "note_off channel=9 note=64 velocity=0 time=0\n",
      "note_off channel=9 note=70 velocity=0 time=0\n",
      "note_off channel=1 note=36 velocity=0 time=0.13124999999999998\n",
      "note_on channel=9 note=64 velocity=29 time=0.0109375\n",
      "note_off channel=9 note=64 velocity=0 time=0.007812499999999999\n",
      "note_on channel=9 note=70 velocity=84 time=0.1421875\n",
      "note_on channel=9 note=64 velocity=48 time=0\n",
      "note_on channel=9 note=42 velocity=72 time=0\n",
      "note_on channel=7 note=60 velocity=97 time=0\n",
      "note_on channel=1 note=36 velocity=121 time=0\n",
      "note_off channel=9 note=42 velocity=0 time=0.007812499999999999\n",
      "note_off channel=9 note=64 velocity=0 time=0\n",
      "note_off channel=9 note=70 velocity=0 time=0\n",
      "note_off channel=7 note=60 velocity=0 time=0.028124999999999997\n",
      "note_off channel=5 note=74 velocity=0 time=0.103125\n",
      "note_on channel=9 note=63 velocity=46 time=0.0109375\n",
      "note_on channel=9 note=42 velocity=53 time=0\n",
      "note_on channel=7 note=60 velocity=106 time=0\n",
      "note_off channel=9 note=42 velocity=0 time=0.007812499999999999\n",
      "note_off channel=9 note=63 velocity=0 time=0\n",
      "note_off channel=7 note=60 velocity=0 time=0.015624999999999998\n",
      "note_off channel=5 note=77 velocity=0 time=0.01875\n",
      "note_off channel=2 note=77 velocity=0 time=0.0062499999999999995\n",
      "note_on channel=9 note=70 velocity=87 time=0.10156249999999999\n",
      "note_on channel=9 note=63 velocity=64 time=0\n",
      "note_on channel=9 note=42 velocity=72 time=0\n",
      "note_on channel=9 note=40 velocity=111 time=0\n",
      "note_on channel=9 note=35 velocity=110 time=0\n",
      "note_on channel=7 note=67 velocity=106 time=0\n",
      "note_on channel=7 note=63 velocity=113 time=0\n",
      "note_on channel=7 note=60 velocity=107 time=0\n",
      "note_on channel=5 note=79 velocity=124 time=0.0031249999999999997\n",
      "note_on channel=2 note=79 velocity=124 time=0\n",
      "note_off channel=9 note=35 velocity=0 time=0.0046875\n",
      "note_off channel=9 note=40 velocity=0 time=0\n",
      "note_off channel=9 note=42 velocity=0 time=0\n",
      "note_off channel=9 note=63 velocity=0 time=0\n",
      "note_off channel=9 note=70 velocity=0 time=0\n",
      "note_off channel=6 note=62 velocity=0 time=0.053125\n",
      "note_off channel=6 note=55 velocity=0 time=0.021875\n",
      "note_off channel=2 note=79 velocity=0 time=0.0031249999999999997\n",
      "note_off channel=5 note=79 velocity=0 time=0.0031249999999999997\n",
      "note_off channel=6 note=65 velocity=0 time=0.0062499999999999995\n",
      "note_off channel=6 note=60 velocity=0 time=0.0375\n",
      "note_off channel=7 note=63 velocity=0 time=0.0062499999999999995\n",
      "note_on channel=9 note=63 velocity=30 time=0.0109375\n",
      "note_off channel=7 note=60 velocity=0 time=0.0015624999999999999\n",
      "note_off channel=9 note=63 velocity=0 time=0.0062499999999999995\n",
      "note_off channel=7 note=67 velocity=0 time=0.0062499999999999995\n",
      "note_off channel=1 note=36 velocity=0 time=0.103125\n",
      "note_on channel=9 note=70 velocity=72 time=0.032812499999999994\n",
      "note_on channel=9 note=63 velocity=49 time=0\n",
      "note_on channel=9 note=42 velocity=72 time=0\n",
      "note_on channel=5 note=72 velocity=109 time=0\n",
      "note_on channel=1 note=31 velocity=120 time=0\n",
      "note_on channel=6 note=67 velocity=113 time=0.0031249999999999997\n",
      "note_on channel=6 note=63 velocity=111 time=0\n",
      "note_on channel=6 note=60 velocity=117 time=0\n",
      "note_on channel=6 note=55 velocity=116 time=0\n",
      "note_on channel=5 note=75 velocity=123 time=0\n",
      "note_on channel=2 note=75 velocity=123 time=0\n",
      "note_on channel=7 note=60 velocity=76 time=0.0031249999999999997\n",
      "note_off channel=9 note=42 velocity=0 time=0.0015624999999999999\n",
      "note_off channel=9 note=63 velocity=0 time=0\n",
      "note_off channel=9 note=70 velocity=0 time=0\n",
      "note_off channel=7 note=60 velocity=0 time=0.034374999999999996\n",
      "note_on channel=9 note=63 velocity=49 time=0.10781249999999999\n",
      "note_on channel=9 note=42 velocity=53 time=0\n",
      "note_on channel=7 note=60 velocity=87 time=0.0062499999999999995\n",
      "note_off channel=9 note=42 velocity=0 time=0.0015624999999999999\n",
      "note_off channel=9 note=63 velocity=0 time=0\n",
      "note_off channel=7 note=60 velocity=0 time=0.015624999999999998\n",
      "note_on channel=9 note=42 velocity=77 time=0.12343749999999999\n",
      "note_on channel=9 note=70 velocity=91 time=0.0031249999999999997\n",
      "note_on channel=9 note=64 velocity=47 time=0\n",
      "note_on channel=9 note=35 velocity=111 time=0\n",
      "note_off channel=9 note=42 velocity=0 time=0.0046875\n",
      "note_on channel=7 note=60 velocity=76 time=0.0015624999999999999\n",
      "note_off channel=9 note=35 velocity=0 time=0.0015624999999999999\n",
      "note_off channel=9 note=64 velocity=0 time=0\n",
      "note_off channel=9 note=70 velocity=0 time=0\n",
      "note_off channel=7 note=60 velocity=0 time=0.024999999999999998\n",
      "note_on channel=9 note=63 velocity=39 time=0.11718749999999999\n",
      "note_off channel=9 note=63 velocity=0 time=0.007812499999999999\n",
      "note_off channel=1 note=31 velocity=0 time=0.06562499999999999\n",
      "note_off channel=5 note=72 velocity=0 time=0.06562499999999999\n",
      "note_on channel=9 note=70 velocity=78 time=0.0109375\n",
      "note_on channel=9 note=63 velocity=43 time=0\n",
      "note_on channel=9 note=42 velocity=72 time=0\n",
      "note_on channel=1 note=36 velocity=116 time=0\n",
      "note_on channel=7 note=60 velocity=83 time=0.0031249999999999997\n",
      "note_off channel=9 note=42 velocity=0 time=0.0046875\n",
      "note_off channel=9 note=63 velocity=0 time=0\n",
      "note_off channel=9 note=70 velocity=0 time=0\n",
      "note_off channel=7 note=60 velocity=0 time=0.021875\n",
      "note_off channel=5 note=75 velocity=0 time=0.09374999999999999\n",
      "note_off channel=2 note=75 velocity=0 time=0\n",
      "note_on channel=9 note=63 velocity=61 time=0.0265625\n",
      "note_on channel=9 note=42 velocity=53 time=0\n",
      "note_off channel=9 note=42 velocity=0 time=0.007812499999999999\n",
      "note_off channel=9 note=63 velocity=0 time=0\n",
      "note_on channel=7 note=60 velocity=103 time=0.13906249999999998\n",
      "note_on channel=9 note=70 velocity=94 time=0.0031249999999999997\n",
      "note_on channel=9 note=62 velocity=89 time=0\n",
      "note_on channel=9 note=35 velocity=111 time=0\n",
      "note_on channel=7 note=67 velocity=108 time=0\n",
      "note_on channel=7 note=63 velocity=112 time=0\n",
      "note_on channel=9 note=42 velocity=77 time=0.0031249999999999997\n",
      "note_on channel=9 note=40 velocity=108 time=0\n",
      "note_off channel=9 note=35 velocity=0 time=0.0046875\n",
      "note_off channel=9 note=62 velocity=0 time=0\n",
      "note_off channel=9 note=70 velocity=0 time=0\n",
      "note_off channel=9 note=40 velocity=0 time=0.0031249999999999997\n",
      "note_off channel=9 note=42 velocity=0 time=0\n",
      "note_on channel=2 note=77 velocity=122 time=0.0015624999999999999\n",
      "note_on channel=5 note=77 velocity=122 time=0.015624999999999998\n",
      "note_off channel=2 note=77 velocity=0 time=0.07343749999999999\n",
      "note_off channel=5 note=77 velocity=0 time=0.012499999999999999\n",
      "note_off channel=7 note=63 velocity=0 time=0.0031249999999999997\n",
      "note_off channel=1 note=36 velocity=0 time=0.0062499999999999995\n",
      "note_off channel=7 note=60 velocity=0 time=0.012499999999999999\n",
      "note_on channel=5 note=75 velocity=117 time=0.007812499999999999\n",
      "note_off channel=7 note=67 velocity=0 time=0.0015624999999999999\n",
      "note_on channel=2 note=75 velocity=117 time=0.0015624999999999999\n",
      "note_on channel=9 note=64 velocity=32 time=0.0031249999999999997\n",
      "note_off channel=9 note=64 velocity=0 time=0.007812499999999999\n",
      "note_off channel=5 note=75 velocity=0 time=0.0875\n",
      "note_off channel=2 note=75 velocity=0 time=0\n",
      "note_on channel=5 note=72 velocity=123 time=0.0453125\n",
      "note_on channel=2 note=72 velocity=123 time=0.0031249999999999997\n",
      "note_on channel=9 note=70 velocity=80 time=0.0062499999999999995\n",
      "note_on channel=9 note=63 velocity=46 time=0\n",
      "note_on channel=9 note=42 velocity=72 time=0\n",
      "note_on channel=7 note=60 velocity=59 time=0\n",
      "note_on channel=1 note=31 velocity=120 time=0\n",
      "note_off channel=9 note=42 velocity=0 time=0.007812499999999999\n",
      "note_off channel=9 note=63 velocity=0 time=0\n",
      "note_off channel=9 note=70 velocity=0 time=0\n",
      "note_off channel=6 note=55 velocity=0 time=0.024999999999999998\n",
      "note_off channel=6 note=60 velocity=0 time=0\n",
      "note_off channel=6 note=63 velocity=0 time=0\n",
      "note_off channel=6 note=67 velocity=0 time=0.0031249999999999997\n",
      "note_off channel=7 note=60 velocity=0 time=0.0062499999999999995\n",
      "note_off channel=1 note=31 velocity=0 time=0.024999999999999998\n",
      "note_off channel=5 note=72 velocity=0 time=0.01875\n",
      "note_off channel=2 note=72 velocity=0 time=0.0031249999999999997\n",
      "note_on channel=9 note=63 velocity=46 time=0.06093749999999999\n",
      "note_on channel=9 note=42 velocity=53 time=0\n",
      "note_on channel=1 note=34 velocity=122 time=0\n",
      "note_off channel=9 note=42 velocity=0 time=0.007812499999999999\n",
      "note_off channel=9 note=63 velocity=0 time=0\n",
      "note_off channel=1 note=34 velocity=0 time=0.056249999999999994\n",
      "note_on channel=6 note=65 velocity=116 time=0.0796875\n",
      "note_on channel=6 note=62 velocity=116 time=0\n",
      "note_on channel=6 note=60 velocity=115 time=0\n",
      "note_on channel=7 note=60 velocity=91 time=0.0031249999999999997\n",
      "note_on channel=6 note=55 velocity=114 time=0\n",
      "note_on channel=5 note=77 velocity=123 time=0\n",
      "note_on channel=2 note=77 velocity=123 time=0\n",
      "note_on channel=9 note=70 velocity=85 time=0.0031249999999999997\n",
      "note_on channel=9 note=64 velocity=51 time=0\n",
      "note_on channel=5 note=74 velocity=117 time=0\n",
      "note_on channel=1 note=36 velocity=120 time=0\n",
      "note_off channel=9 note=64 velocity=0 time=0.007812499999999999\n",
      "note_off channel=9 note=70 velocity=0 time=0\n",
      "note_on channel=9 note=42 velocity=68 time=0.0015624999999999999\n",
      "note_on channel=9 note=35 velocity=111 time=0\n",
      "note_off channel=9 note=35 velocity=0 time=0.007812499999999999\n",
      "note_off channel=9 note=42 velocity=0 time=0\n",
      "note_off channel=7 note=60 velocity=0 time=0.021875\n",
      "note_off channel=1 note=36 velocity=0 time=0.09999999999999999\n",
      "note_on channel=7 note=60 velocity=92 time=0.007812499999999999\n",
      "note_on channel=9 note=64 velocity=26 time=0.0031249999999999997\n",
      "note_off channel=9 note=64 velocity=0 time=0.007812499999999999\n",
      "note_off channel=7 note=60 velocity=0 time=0.009375\n",
      "note_on channel=7 note=60 velocity=89 time=0.1265625\n",
      "note_on channel=9 note=70 velocity=82 time=0.0062499999999999995\n",
      "note_on channel=9 note=64 velocity=43 time=0\n",
      "note_on channel=9 note=42 velocity=72 time=0\n",
      "note_on channel=1 note=36 velocity=121 time=0\n",
      "note_off channel=9 note=42 velocity=0 time=0.007812499999999999\n",
      "note_off channel=9 note=64 velocity=0 time=0\n",
      "note_off channel=9 note=70 velocity=0 time=0\n",
      "note_off channel=7 note=60 velocity=0 time=0.031249999999999997\n",
      "note_off channel=5 note=74 velocity=0 time=0.09999999999999999\n",
      "note_on channel=7 note=60 velocity=108 time=0.007812499999999999\n",
      "note_on channel=9 note=63 velocity=44 time=0.0031249999999999997\n",
      "note_on channel=9 note=42 velocity=53 time=0\n",
      "note_off channel=9 note=42 velocity=0 time=0.007812499999999999\n",
      "note_off channel=9 note=63 velocity=0 time=0\n",
      "note_off channel=5 note=77 velocity=0 time=0.0031249999999999997\n",
      "note_off channel=2 note=77 velocity=0 time=0.0031249999999999997\n",
      "note_off channel=7 note=60 velocity=0 time=0.0031249999999999997\n",
      "note_on channel=7 note=67 velocity=110 time=0.1265625\n",
      "note_on channel=7 note=63 velocity=119 time=0\n",
      "note_on channel=7 note=60 velocity=108 time=0\n",
      "note_on channel=9 note=70 velocity=91 time=0.0062499999999999995\n",
      "note_on channel=9 note=63 velocity=68 time=0\n",
      "note_on channel=9 note=42 velocity=77 time=0.0031249999999999997\n",
      "note_on channel=9 note=40 velocity=106 time=0\n",
      "note_on channel=5 note=79 velocity=121 time=0\n",
      "note_on channel=2 note=79 velocity=121 time=0\n",
      "note_off channel=9 note=63 velocity=0 time=0.0046875\n",
      "note_off channel=9 note=70 velocity=0 time=0\n",
      "note_on channel=9 note=35 velocity=111 time=0.0015624999999999999\n",
      "note_off channel=9 note=40 velocity=0 time=0.0015624999999999999\n",
      "note_off channel=9 note=42 velocity=0 time=0\n",
      "note_off channel=9 note=35 velocity=0 time=0.0062499999999999995\n",
      "note_off channel=6 note=62 velocity=0 time=0.04375\n",
      "note_off channel=6 note=65 velocity=0 time=0.024999999999999998\n",
      "note_off channel=6 note=55 velocity=0 time=0.0031249999999999997\n",
      "note_off channel=2 note=79 velocity=0 time=0.009375\n",
      "note_off channel=6 note=60 velocity=0 time=0.0031249999999999997\n",
      "note_off channel=5 note=79 velocity=0 time=0\n",
      "note_off channel=7 note=63 velocity=0 time=0.040624999999999994\n",
      "note_off channel=7 note=60 velocity=0 time=0.0031249999999999997\n",
      "note_on channel=9 note=63 velocity=22 time=0.0046875\n",
      "note_on channel=7 note=60 velocity=102 time=0.0031249999999999997\n",
      "note_off channel=9 note=63 velocity=0 time=0.0046875\n",
      "note_off channel=7 note=60 velocity=0 time=0.0062499999999999995\n",
      "note_off channel=7 note=67 velocity=0 time=0.0031249999999999997\n",
      "note_off channel=1 note=36 velocity=0 time=0.09999999999999999\n",
      "note_on channel=5 note=75 velocity=123 time=0.023437499999999997\n",
      "note_on channel=6 note=67 velocity=116 time=0.0031249999999999997\n",
      "note_on channel=6 note=63 velocity=111 time=0\n",
      "note_on channel=2 note=75 velocity=123 time=0\n",
      "note_on channel=6 note=60 velocity=115 time=0.0031249999999999997\n",
      "note_on channel=6 note=55 velocity=114 time=0\n",
      "note_on channel=9 note=70 velocity=81 time=0.0031249999999999997\n",
      "note_on channel=9 note=63 velocity=43 time=0\n",
      "note_on channel=9 note=42 velocity=72 time=0\n",
      "note_on channel=5 note=72 velocity=117 time=0\n",
      "note_on channel=1 note=31 velocity=120 time=0\n",
      "note_on channel=7 note=60 velocity=65 time=0.0031249999999999997\n",
      "note_off channel=9 note=42 velocity=0 time=0.0046875\n",
      "note_off channel=9 note=63 velocity=0 time=0\n",
      "note_off channel=9 note=70 velocity=0 time=0\n",
      "note_off channel=7 note=60 velocity=0 time=0.04687499999999999\n",
      "note_on channel=9 note=63 velocity=48 time=0.0953125\n",
      "note_on channel=9 note=42 velocity=53 time=0\n",
      "note_on channel=7 note=60 velocity=107 time=0.0031249999999999997\n",
      "note_off channel=9 note=42 velocity=0 time=0.0046875\n",
      "note_off channel=9 note=63 velocity=0 time=0\n",
      "note_off channel=7 note=60 velocity=0 time=0.015624999999999998\n",
      "note_on channel=9 note=70 velocity=85 time=0.1265625\n",
      "note_on channel=9 note=64 velocity=49 time=0\n",
      "note_on channel=9 note=42 velocity=82 time=0\n",
      "note_on channel=9 note=35 velocity=111 time=0\n",
      "note_on channel=7 note=60 velocity=87 time=0.0031249999999999997\n",
      "note_off channel=9 note=35 velocity=0 time=0.0046875\n",
      "note_off channel=9 note=42 velocity=0 time=0\n",
      "note_off channel=9 note=64 velocity=0 time=0\n",
      "note_off channel=9 note=70 velocity=0 time=0\n",
      "note_off channel=7 note=60 velocity=0 time=0.024999999999999998\n",
      "note_on channel=9 note=63 velocity=43 time=0.11718749999999999\n",
      "note_off channel=9 note=63 velocity=0 time=0.007812499999999999\n",
      "note_off channel=1 note=31 velocity=0 time=0.06562499999999999\n",
      "note_off channel=5 note=75 velocity=0 time=0.06249999999999999\n",
      "note_off channel=5 note=72 velocity=0 time=0.0031249999999999997\n",
      "note_off channel=2 note=75 velocity=0 time=0\n",
      "note_on channel=9 note=70 velocity=80 time=0.0109375\n",
      "note_on channel=9 note=63 velocity=41 time=0\n",
      "note_on channel=9 note=42 velocity=72 time=0\n",
      "note_on channel=7 note=60 velocity=98 time=0\n",
      "note_on channel=5 note=82 velocity=112 time=0\n",
      "note_on channel=2 note=82 velocity=112 time=0\n",
      "note_on channel=1 note=36 velocity=108 time=0\n",
      "note_off channel=9 note=42 velocity=0 time=0.007812499999999999\n",
      "note_off channel=9 note=63 velocity=0 time=0\n",
      "note_off channel=9 note=70 velocity=0 time=0\n",
      "note_off channel=7 note=60 velocity=0 time=0.034374999999999996\n",
      "note_off channel=5 note=82 velocity=0 time=0.09687499999999999\n",
      "note_off channel=2 note=82 velocity=0 time=0\n",
      "note_on channel=7 note=60 velocity=94 time=0.007812499999999999\n",
      "note_on channel=9 note=63 velocity=59 time=0.0031249999999999997\n",
      "note_on channel=9 note=42 velocity=53 time=0\n",
      "note_off channel=9 note=42 velocity=0 time=0.007812499999999999\n",
      "note_off channel=9 note=63 velocity=0 time=0\n",
      "note_off channel=7 note=60 velocity=0 time=0.009375\n",
      "note_on channel=7 note=60 velocity=106 time=0.1265625\n",
      "note_on channel=7 note=67 velocity=108 time=0.0031249999999999997\n",
      "note_on channel=7 note=63 velocity=113 time=0\n",
      "note_on channel=9 note=70 velocity=91 time=0.0031249999999999997\n",
      "note_on channel=9 note=62 velocity=84 time=0\n",
      "note_on channel=9 note=42 velocity=82 time=0\n",
      "note_on channel=9 note=40 velocity=111 time=0\n",
      "note_on channel=9 note=35 velocity=111 time=0\n",
      "note_on channel=5 note=70 velocity=124 time=0\n",
      "note_on channel=2 note=70 velocity=124 time=0\n",
      "note_off channel=9 note=35 velocity=0 time=0.007812499999999999\n",
      "note_off channel=9 note=40 velocity=0 time=0\n",
      "note_off channel=9 note=42 velocity=0 time=0\n",
      "note_off channel=9 note=62 velocity=0 time=0\n",
      "note_off channel=9 note=70 velocity=0 time=0\n",
      "note_off channel=7 note=63 velocity=0 time=0.075\n",
      "note_off channel=7 note=67 velocity=0 time=0.015624999999999998\n",
      "note_off channel=7 note=60 velocity=0 time=0.0031249999999999997\n",
      "note_off channel=5 note=70 velocity=0 time=0.0062499999999999995\n",
      "note_off channel=2 note=70 velocity=0 time=0\n",
      "note_on channel=5 note=72 velocity=115 time=0.0359375\n",
      "note_on channel=7 note=60 velocity=84 time=0.0031249999999999997\n",
      "note_on channel=2 note=72 velocity=115 time=0\n",
      "note_on channel=9 note=64 velocity=30 time=0.0031249999999999997\n",
      "note_off channel=9 note=64 velocity=0 time=0.007812499999999999\n",
      "note_off channel=7 note=60 velocity=0 time=0.0062499999999999995\n",
      "note_off channel=1 note=36 velocity=0 time=0.0062499999999999995\n",
      "note_off channel=5 note=72 velocity=0 time=0.0875\n",
      "note_off channel=2 note=72 velocity=0 time=0\n",
      "note_on channel=5 note=75 velocity=125 time=0.020312499999999997\n",
      "note_on channel=2 note=75 velocity=125 time=0.009375\n",
      "note_off channel=6 note=55 velocity=0 time=0.0046875\n",
      "note_off channel=6 note=60 velocity=0 time=0\n",
      "note_on channel=7 note=60 velocity=81 time=0.0046875\n",
      "note_on channel=9 note=70 velocity=84 time=0.0031249999999999997\n",
      "note_on channel=9 note=63 velocity=44 time=0\n",
      "note_on channel=9 note=42 velocity=72 time=0\n",
      "note_on channel=1 note=34 velocity=105 time=0\n",
      "note_off channel=9 note=42 velocity=0 time=0.007812499999999999\n",
      "note_off channel=9 note=63 velocity=0 time=0\n",
      "note_off channel=9 note=70 velocity=0 time=0\n",
      "note_off channel=6 note=63 velocity=0 time=0.009375\n",
      "note_off channel=6 note=67 velocity=0 time=0.021875\n",
      "note_off channel=7 note=60 velocity=0 time=0.009375\n",
      "note_off channel=5 note=75 velocity=0 time=0.040624999999999994\n",
      "note_off channel=2 note=75 velocity=0 time=0.009375\n",
      "note_off channel=1 note=34 velocity=0 time=0.0062499999999999995\n",
      "note_on channel=9 note=63 velocity=52 time=0.0453125\n",
      "note_on channel=9 note=42 velocity=53 time=0\n",
      "note_on channel=1 note=36 velocity=103 time=0\n",
      "note_off channel=9 note=42 velocity=0 time=0.007812499999999999\n",
      "note_off channel=9 note=63 velocity=0 time=0\n",
      "note_off channel=1 note=36 velocity=0 time=0.06249999999999999\n",
      "note_on channel=9 note=70 velocity=97 time=0.0796875\n",
      "note_on channel=9 note=64 velocity=52 time=0\n",
      "note_on channel=9 note=49 velocity=56 time=0\n",
      "note_on channel=9 note=35 velocity=111 time=0\n",
      "note_on channel=6 note=65 velocity=120 time=0\n",
      "note_on channel=6 note=62 velocity=120 time=0\n",
      "note_on channel=6 note=58 velocity=118 time=0\n",
      "note_on channel=5 note=77 velocity=124 time=0\n",
      "note_on channel=5 note=74 velocity=118 time=0\n",
      "note_on channel=2 note=77 velocity=124 time=0\n",
      "note_on channel=1 note=39 velocity=120 time=0\n",
      "note_on channel=7 note=67 velocity=65 time=0.0062499999999999995\n",
      "note_on channel=7 note=58 velocity=77 time=0\n",
      "note_off channel=9 note=35 velocity=0 time=0.0015624999999999999\n",
      "note_off channel=9 note=49 velocity=0 time=0\n",
      "note_off channel=9 note=64 velocity=0 time=0\n",
      "note_off channel=9 note=70 velocity=0 time=0\n",
      "note_off channel=7 note=67 velocity=0 time=0.040624999999999994\n",
      "note_off channel=7 note=58 velocity=0 time=0.0031249999999999997\n",
      "note_off channel=1 note=39 velocity=0 time=0.0875\n",
      "note_on channel=9 note=64 velocity=29 time=0.0109375\n",
      "note_off channel=9 note=64 velocity=0 time=0.007812499999999999\n",
      "note_on channel=9 note=70 velocity=84 time=0.1421875\n",
      "note_on channel=9 note=64 velocity=48 time=0\n",
      "note_on channel=9 note=42 velocity=72 time=0\n",
      "note_on channel=1 note=39 velocity=121 time=0\n",
      "note_off channel=9 note=42 velocity=0 time=0.007812499999999999\n",
      "note_off channel=9 note=64 velocity=0 time=0\n",
      "note_off channel=9 note=70 velocity=0 time=0\n",
      "note_on channel=7 note=63 velocity=94 time=0.0015624999999999999\n",
      "note_off channel=7 note=63 velocity=0 time=0.017187499999999998\n",
      "note_off channel=5 note=77 velocity=0 time=0.075\n",
      "note_off channel=2 note=77 velocity=0 time=0\n",
      "note_off channel=5 note=74 velocity=0 time=0.0375\n",
      "note_on channel=9 note=63 velocity=46 time=0.0109375\n",
      "note_on channel=9 note=42 velocity=53 time=0\n",
      "note_on channel=7 note=63 velocity=98 time=0.0062499999999999995\n",
      "note_off channel=9 note=42 velocity=0 time=0.0015624999999999999\n",
      "note_off channel=9 note=63 velocity=0 time=0\n",
      "note_off channel=7 note=63 velocity=0 time=0\n",
      "note_on channel=9 note=70 velocity=87 time=0.1421875\n",
      "note_on channel=9 note=63 velocity=64 time=0\n",
      "note_on channel=9 note=42 velocity=72 time=0\n",
      "note_on channel=9 note=40 velocity=111 time=0\n",
      "note_on channel=9 note=35 velocity=111 time=0\n",
      "note_on channel=7 note=67 velocity=115 time=0.0031249999999999997\n",
      "note_on channel=7 note=63 velocity=124 time=0\n",
      "note_on channel=7 note=58 velocity=113 time=0.0031249999999999997\n",
      "note_on channel=2 note=82 velocity=124 time=0\n",
      "note_off channel=9 note=35 velocity=0 time=0.0015624999999999999\n",
      "note_off channel=9 note=40 velocity=0 time=0\n",
      "note_off channel=9 note=42 velocity=0 time=0\n",
      "note_off channel=9 note=63 velocity=0 time=0\n",
      "note_off channel=9 note=70 velocity=0 time=0\n",
      "note_on channel=5 note=82 velocity=124 time=0.007812499999999999\n",
      "note_off channel=2 note=82 velocity=0 time=0.0515625\n",
      "note_off channel=5 note=82 velocity=0 time=0.009375\n",
      "note_off channel=6 note=58 velocity=0 time=0.06562499999999999\n",
      "note_on channel=9 note=63 velocity=30 time=0.007812499999999999\n",
      "note_off channel=7 note=63 velocity=0 time=0.0015624999999999999\n",
      "note_off channel=6 note=65 velocity=0 time=0\n",
      "note_off channel=6 note=62 velocity=0 time=0.0031249999999999997\n",
      "note_off channel=9 note=63 velocity=0 time=0.0031249999999999997\n",
      "note_off channel=7 note=58 velocity=0 time=0.028124999999999997\n",
      "note_off channel=7 note=67 velocity=0 time=0.024999999999999998\n",
      "note_off channel=1 note=39 velocity=0 time=0.056249999999999994\n",
      "note_on channel=6 note=67 velocity=118 time=0.0296875\n",
      "note_on channel=6 note=58 velocity=112 time=0\n",
      "note_on channel=9 note=70 velocity=72 time=0.0031249999999999997\n",
      "note_on channel=9 note=63 velocity=49 time=0\n",
      "note_on channel=9 note=42 velocity=72 time=0\n",
      "note_on channel=7 note=63 velocity=93 time=0\n",
      "note_on channel=6 note=63 velocity=116 time=0\n",
      "note_on channel=5 note=75 velocity=113 time=0\n",
      "note_on channel=1 note=34 velocity=119 time=0\n",
      "note_on channel=2 note=79 velocity=122 time=0.0031249999999999997\n",
      "note_off channel=7 note=63 velocity=0 time=0.0015624999999999999\n",
      "note_on channel=5 note=79 velocity=122 time=0.0015624999999999999\n",
      "note_off channel=9 note=42 velocity=0 time=0.0015624999999999999\n",
      "note_off channel=9 note=63 velocity=0 time=0\n",
      "note_off channel=9 note=70 velocity=0 time=0\n",
      "note_on channel=7 note=63 velocity=62 time=0.1328125\n",
      "note_on channel=9 note=63 velocity=49 time=0.009375\n",
      "note_on channel=9 note=42 velocity=53 time=0\n",
      "note_off channel=9 note=42 velocity=0 time=0.007812499999999999\n",
      "note_off channel=9 note=63 velocity=0 time=0\n",
      "note_off channel=7 note=63 velocity=0 time=0.009375\n",
      "note_on channel=9 note=42 velocity=80 time=0.12968749999999998\n",
      "note_on channel=9 note=35 velocity=111 time=0\n",
      "note_on channel=9 note=70 velocity=91 time=0.0031249999999999997\n",
      "note_on channel=9 note=64 velocity=47 time=0\n",
      "note_off channel=9 note=35 velocity=0 time=0.0046875\n",
      "note_off channel=9 note=42 velocity=0 time=0\n",
      "note_on channel=7 note=63 velocity=87 time=0.0015624999999999999\n",
      "note_off channel=9 note=64 velocity=0 time=0.0015624999999999999\n",
      "note_off channel=9 note=70 velocity=0 time=0\n",
      "note_off channel=7 note=63 velocity=0 time=0.009375\n",
      "note_on channel=9 note=63 velocity=39 time=0.1328125\n",
      "note_off channel=9 note=63 velocity=0 time=0.007812499999999999\n",
      "note_off channel=1 note=34 velocity=0 time=0.11562499999999999\n",
      "note_off channel=5 note=75 velocity=0 time=0.015624999999999998\n",
      "note_on channel=9 note=70 velocity=78 time=0.0109375\n",
      "note_on channel=9 note=63 velocity=43 time=0\n",
      "note_on channel=9 note=42 velocity=72 time=0\n",
      "note_on channel=1 note=39 velocity=108 time=0\n",
      "note_on channel=7 note=63 velocity=93 time=0.0031249999999999997\n",
      "note_off channel=9 note=42 velocity=0 time=0.0046875\n",
      "note_off channel=9 note=63 velocity=0 time=0\n",
      "note_off channel=9 note=70 velocity=0 time=0\n",
      "note_off channel=7 note=63 velocity=0 time=0.0062499999999999995\n",
      "note_off channel=2 note=79 velocity=0 time=0.075\n",
      "note_off channel=5 note=79 velocity=0 time=0.0031249999999999997\n",
      "note_on channel=9 note=63 velocity=61 time=0.057812499999999996\n",
      "note_on channel=9 note=42 velocity=53 time=0\n",
      "note_on channel=7 note=63 velocity=92 time=0\n",
      "note_off channel=7 note=63 velocity=0 time=0.0046875\n",
      "note_off channel=9 note=42 velocity=0 time=0.0031249999999999997\n",
      "note_off channel=9 note=63 velocity=0 time=0\n",
      "note_on channel=5 note=70 velocity=124 time=0.1359375\n",
      "note_on channel=9 note=35 velocity=111 time=0.0031249999999999997\n",
      "note_on channel=7 note=67 velocity=105 time=0\n",
      "note_on channel=7 note=63 velocity=119 time=0\n",
      "note_on channel=7 note=58 velocity=110 time=0\n",
      "note_on channel=2 note=70 velocity=124 time=0\n",
      "note_on channel=9 note=70 velocity=94 time=0.0031249999999999997\n",
      "note_on channel=9 note=62 velocity=89 time=0\n",
      "note_on channel=9 note=42 velocity=77 time=0.0031249999999999997\n",
      "note_on channel=9 note=40 velocity=108 time=0\n",
      "note_off channel=9 note=35 velocity=0 time=0.0015624999999999999\n",
      "note_off channel=9 note=62 velocity=0 time=0.0031249999999999997\n",
      "note_off channel=9 note=70 velocity=0 time=0\n",
      "note_off channel=9 note=40 velocity=0 time=0.0031249999999999997\n",
      "note_off channel=9 note=42 velocity=0 time=0\n",
      "note_off channel=5 note=70 velocity=0 time=0.09374999999999999\n",
      "note_off channel=2 note=70 velocity=0 time=0.0031249999999999997\n",
      "note_off channel=7 note=63 velocity=0 time=0.01875\n",
      "note_on channel=5 note=72 velocity=114 time=0.007812499999999999\n",
      "note_on channel=2 note=72 velocity=114 time=0.0062499999999999995\n",
      "note_on channel=9 note=64 velocity=32 time=0.009375\n",
      "note_off channel=7 note=58 velocity=0 time=0.0015624999999999999\n",
      "note_off channel=9 note=64 velocity=0 time=0.0062499999999999995\n",
      "note_off channel=7 note=67 velocity=0 time=0.009375\n",
      "note_off channel=5 note=72 velocity=0 time=0.059375\n",
      "note_off channel=2 note=72 velocity=0 time=0.0062499999999999995\n",
      "note_on channel=5 note=75 velocity=124 time=0.0265625\n",
      "note_on channel=2 note=75 velocity=124 time=0.01875\n",
      "note_off channel=1 note=39 velocity=0 time=0.0109375\n",
      "note_on channel=9 note=70 velocity=80 time=0.0109375\n",
      "note_on channel=9 note=63 velocity=46 time=0\n",
      "note_on channel=9 note=42 velocity=72 time=0\n",
      "note_on channel=1 note=34 velocity=105 time=0\n",
      "note_on channel=7 note=63 velocity=72 time=0.0031249999999999997\n",
      "note_off channel=9 note=42 velocity=0 time=0.0046875\n",
      "note_off channel=9 note=63 velocity=0 time=0\n",
      "note_off channel=9 note=70 velocity=0 time=0\n",
      "note_off channel=6 note=63 velocity=0 time=0.009375\n",
      "note_off channel=7 note=63 velocity=0 time=0.012499999999999999\n",
      "note_off channel=6 note=67 velocity=0 time=0.034374999999999996\n",
      "note_off channel=5 note=75 velocity=0 time=0\n",
      "note_off channel=6 note=58 velocity=0 time=0.0031249999999999997\n",
      "note_off channel=2 note=75 velocity=0 time=0.015624999999999998\n",
      "note_off channel=1 note=34 velocity=0 time=0.021875\n",
      "note_on channel=9 note=63 velocity=46 time=0.0453125\n",
      "note_on channel=9 note=42 velocity=53 time=0\n",
      "note_on channel=1 note=36 velocity=103 time=0\n",
      "note_on channel=7 note=63 velocity=96 time=0.0031249999999999997\n",
      "note_off channel=9 note=42 velocity=0 time=0.0046875\n",
      "note_off channel=9 note=63 velocity=0 time=0\n",
      "note_off channel=7 note=63 velocity=0 time=0\n",
      "note_off channel=1 note=36 velocity=0 time=0.06249999999999999\n",
      "note_on channel=6 note=65 velocity=117 time=0.07656249999999999\n",
      "note_on channel=9 note=70 velocity=85 time=0.0031249999999999997\n",
      "note_on channel=9 note=64 velocity=51 time=0\n",
      "note_on channel=6 note=62 velocity=119 time=0\n",
      "note_on channel=6 note=58 velocity=111 time=0\n",
      "note_on channel=5 note=77 velocity=123 time=0\n",
      "note_on channel=5 note=74 velocity=114 time=0\n",
      "note_on channel=2 note=77 velocity=123 time=0\n",
      "note_on channel=1 note=39 velocity=120 time=0\n",
      "note_on channel=7 note=63 velocity=72 time=0.0031249999999999997\n",
      "note_off channel=9 note=64 velocity=0 time=0.0046875\n",
      "note_off channel=9 note=70 velocity=0 time=0\n",
      "note_on channel=9 note=42 velocity=80 time=0.0015624999999999999\n",
      "note_on channel=9 note=35 velocity=111 time=0\n",
      "note_off channel=9 note=35 velocity=0 time=0.007812499999999999\n",
      "note_off channel=9 note=42 velocity=0 time=0\n",
      "note_off channel=7 note=63 velocity=0 time=0\n",
      "note_off channel=1 note=39 velocity=0 time=0.12187499999999998\n",
      "note_on channel=9 note=64 velocity=26 time=0.0109375\n",
      "note_off channel=9 note=64 velocity=0 time=0.007812499999999999\n",
      "note_on channel=9 note=70 velocity=82 time=0.1421875\n",
      "note_on channel=9 note=64 velocity=43 time=0\n",
      "note_on channel=9 note=42 velocity=72 time=0\n",
      "note_on channel=7 note=63 velocity=82 time=0\n",
      "note_on channel=1 note=39 velocity=121 time=0\n",
      "note_off channel=9 note=42 velocity=0 time=0.007812499999999999\n",
      "note_off channel=9 note=64 velocity=0 time=0\n",
      "note_off channel=9 note=70 velocity=0 time=0\n",
      "note_off channel=7 note=63 velocity=0 time=0.0031249999999999997\n",
      "note_off channel=5 note=74 velocity=0 time=0.128125\n",
      "note_on channel=7 note=63 velocity=104 time=0.007812499999999999\n",
      "note_on channel=9 note=63 velocity=44 time=0.0031249999999999997\n",
      "note_on channel=9 note=42 velocity=53 time=0\n",
      "note_off channel=9 note=42 velocity=0 time=0.007812499999999999\n",
      "note_off channel=9 note=63 velocity=0 time=0\n",
      "note_off channel=5 note=77 velocity=0 time=0\n",
      "note_off channel=2 note=77 velocity=0 time=0\n",
      "note_off channel=7 note=63 velocity=0 time=0.0031249999999999997\n",
      "note_on channel=5 note=82 velocity=124 time=0.12031249999999999\n",
      "note_on channel=2 note=82 velocity=124 time=0.009375\n",
      "note_on channel=7 note=63 velocity=113 time=0.0062499999999999995\n",
      "note_on channel=9 note=70 velocity=91 time=0.0031249999999999997\n",
      "note_on channel=9 note=63 velocity=68 time=0\n",
      "note_on channel=7 note=67 velocity=107 time=0\n",
      "note_on channel=7 note=58 velocity=104 time=0\n",
      "note_on channel=9 note=42 velocity=77 time=0.0031249999999999997\n",
      "note_on channel=9 note=40 velocity=106 time=0\n",
      "note_off channel=9 note=63 velocity=0 time=0.0046875\n",
      "note_off channel=9 note=70 velocity=0 time=0\n",
      "note_on channel=9 note=35 velocity=111 time=0.0015624999999999999\n",
      "note_off channel=9 note=40 velocity=0 time=0.0015624999999999999\n",
      "note_off channel=9 note=42 velocity=0 time=0\n",
      "note_off channel=9 note=35 velocity=0 time=0.0062499999999999995\n",
      "note_off channel=6 note=62 velocity=0 time=0.04687499999999999\n",
      "note_off channel=5 note=82 velocity=0 time=0.009375\n",
      "note_off channel=6 note=65 velocity=0 time=0.009375\n",
      "note_off channel=2 note=82 velocity=0 time=0\n",
      "note_off channel=6 note=58 velocity=0 time=0.0062499999999999995\n",
      "note_off channel=7 note=63 velocity=0 time=0.01875\n",
      "note_off channel=7 note=58 velocity=0 time=0.040624999999999994\n",
      "note_on channel=9 note=63 velocity=22 time=0.0015624999999999999\n",
      "note_on channel=7 note=63 velocity=88 time=0.0031249999999999997\n",
      "note_off channel=9 note=63 velocity=0 time=0.0046875\n",
      "note_off channel=7 note=67 velocity=0 time=0\n",
      "note_off channel=7 note=63 velocity=0 time=0.0062499999999999995\n",
      "note_off channel=1 note=39 velocity=0 time=0.103125\n",
      "note_on channel=5 note=79 velocity=122 time=0.007812499999999999\n",
      "note_on channel=2 note=79 velocity=122 time=0.012499999999999999\n",
      "note_on channel=9 note=70 velocity=81 time=0.012499999999999999\n",
      "note_on channel=9 note=63 velocity=43 time=0\n",
      "note_on channel=9 note=42 velocity=72 time=0\n",
      "note_on channel=6 note=67 velocity=117 time=0\n",
      "note_on channel=6 note=63 velocity=117 time=0\n",
      "note_on channel=6 note=58 velocity=113 time=0\n",
      "note_on channel=5 note=75 velocity=113 time=0\n",
      "note_on channel=1 note=34 velocity=119 time=0\n",
      "note_on channel=7 note=63 velocity=74 time=0.0062499999999999995\n",
      "note_off channel=9 note=42 velocity=0 time=0.0015624999999999999\n",
      "note_off channel=9 note=63 velocity=0 time=0\n",
      "note_off channel=9 note=70 velocity=0 time=0\n",
      "note_off channel=7 note=63 velocity=0 time=0.028124999999999997\n",
      "note_on channel=9 note=63 velocity=48 time=0.1140625\n",
      "note_on channel=9 note=42 velocity=53 time=0\n",
      "note_on channel=7 note=63 velocity=101 time=0.0031249999999999997\n",
      "note_off channel=9 note=42 velocity=0 time=0.0046875\n",
      "note_off channel=9 note=63 velocity=0 time=0\n",
      "note_off channel=7 note=63 velocity=0 time=0.0062499999999999995\n",
      "note_on channel=9 note=70 velocity=85 time=0.1359375\n",
      "note_on channel=9 note=64 velocity=49 time=0\n",
      "note_on channel=9 note=42 velocity=82 time=0\n",
      "note_on channel=9 note=35 velocity=111 time=0\n",
      "note_on channel=7 note=63 velocity=69 time=0.0031249999999999997\n",
      "note_off channel=9 note=35 velocity=0 time=0.0046875\n",
      "note_off channel=9 note=42 velocity=0 time=0\n",
      "note_off channel=9 note=64 velocity=0 time=0\n",
      "note_off channel=9 note=70 velocity=0 time=0\n",
      "note_off channel=7 note=63 velocity=0 time=0.015624999999999998\n",
      "note_on channel=9 note=63 velocity=43 time=0.1265625\n",
      "note_on channel=7 note=63 velocity=90 time=0.0031249999999999997\n",
      "note_off channel=9 note=63 velocity=0 time=0.0046875\n",
      "note_off channel=7 note=63 velocity=0 time=0.0031249999999999997\n",
      "note_off channel=1 note=34 velocity=0 time=0.11249999999999999\n",
      "note_on channel=9 note=70 velocity=80 time=0.0265625\n",
      "note_on channel=9 note=63 velocity=41 time=0\n",
      "note_on channel=9 note=42 velocity=72 time=0\n",
      "note_on channel=1 note=39 velocity=108 time=0\n",
      "note_on channel=7 note=63 velocity=87 time=0.0031249999999999997\n",
      "note_off channel=9 note=42 velocity=0 time=0.0046875\n",
      "note_off channel=9 note=63 velocity=0 time=0\n",
      "note_off channel=9 note=70 velocity=0 time=0\n",
      "note_off channel=7 note=63 velocity=0 time=0.0062499999999999995\n",
      "note_off channel=5 note=79 velocity=0 time=0.059375\n",
      "note_off channel=5 note=75 velocity=0 time=0.0031249999999999997\n",
      "note_off channel=2 note=79 velocity=0 time=0.0062499999999999995\n",
      "note_on channel=7 note=63 velocity=107 time=0.0640625\n",
      "note_on channel=9 note=63 velocity=59 time=0.0031249999999999997\n",
      "note_on channel=9 note=42 velocity=53 time=0\n",
      "note_off channel=9 note=42 velocity=0 time=0.007812499999999999\n",
      "note_off channel=9 note=63 velocity=0 time=0\n",
      "note_off channel=7 note=63 velocity=0 time=0\n",
      "note_on channel=5 note=70 velocity=124 time=0.12343749999999999\n",
      "note_on channel=2 note=70 velocity=124 time=0.009375\n",
      "note_on channel=7 note=67 velocity=98 time=0.0062499999999999995\n",
      "note_on channel=7 note=63 velocity=119 time=0\n",
      "note_on channel=7 note=58 velocity=112 time=0\n",
      "note_on channel=9 note=70 velocity=91 time=0.0031249999999999997\n",
      "note_on channel=9 note=62 velocity=84 time=0\n",
      "note_on channel=9 note=42 velocity=64 time=0\n",
      "note_on channel=9 note=40 velocity=111 time=0\n",
      "note_on channel=9 note=35 velocity=111 time=0\n",
      "note_off channel=9 note=35 velocity=0 time=0.007812499999999999\n",
      "note_off channel=9 note=40 velocity=0 time=0\n",
      "note_off channel=9 note=42 velocity=0 time=0\n",
      "note_off channel=9 note=62 velocity=0 time=0\n",
      "note_off channel=9 note=70 velocity=0 time=0\n",
      "note_off channel=5 note=70 velocity=0 time=0.08124999999999999\n",
      "note_off channel=2 note=70 velocity=0 time=0.009375\n",
      "note_on channel=5 note=72 velocity=115 time=0.0265625\n",
      "note_off channel=7 note=63 velocity=0 time=0.0109375\n",
      "note_on channel=2 note=72 velocity=115 time=0.0015624999999999999\n",
      "note_off channel=7 note=58 velocity=0 time=0.0109375\n",
      "note_on channel=9 note=64 velocity=30 time=0.0015624999999999999\n",
      "note_off channel=9 note=64 velocity=0 time=0.007812499999999999\n",
      "note_off channel=7 note=67 velocity=0 time=0\n",
      "note_off channel=5 note=72 velocity=0 time=0.04687499999999999\n",
      "note_off channel=2 note=72 velocity=0 time=0.009375\n",
      "note_off channel=6 note=58 velocity=0 time=0.0031249999999999997\n",
      "note_off channel=6 note=63 velocity=0 time=0.0031249999999999997\n",
      "note_off channel=6 note=67 velocity=0 time=0.012499999999999999\n",
      "note_on channel=5 note=75 velocity=125 time=0.0265625\n",
      "note_on channel=2 note=75 velocity=125 time=0.01875\n",
      "note_off channel=1 note=39 velocity=0 time=0.0109375\n",
      "note_on channel=9 note=70 velocity=84 time=0.0109375\n",
      "note_on channel=9 note=63 velocity=44 time=0\n",
      "note_on channel=9 note=42 velocity=72 time=0\n",
      "note_on channel=7 note=63 velocity=75 time=0\n",
      "note_on channel=1 note=34 velocity=105 time=0\n",
      "note_off channel=9 note=42 velocity=0 time=0.007812499999999999\n",
      "note_off channel=9 note=63 velocity=0 time=0\n",
      "note_off channel=9 note=70 velocity=0 time=0\n",
      "note_off channel=7 note=63 velocity=0 time=0.034374999999999996\n",
      "note_off channel=5 note=75 velocity=0 time=0.028124999999999997\n",
      "note_off channel=2 note=75 velocity=0 time=0.01875\n",
      "note_off channel=1 note=34 velocity=0 time=0.015624999999999998\n",
      "note_on channel=9 note=63 velocity=52 time=0.0453125\n",
      "note_on channel=9 note=42 velocity=53 time=0\n",
      "note_on channel=1 note=35 velocity=103 time=0\n",
      "note_off channel=9 note=42 velocity=0 time=0.007812499999999999\n",
      "note_off channel=9 note=63 velocity=0 time=0\n",
      "note_off channel=1 note=35 velocity=0 time=0.06249999999999999\n",
      "note_on channel=5 note=77 velocity=124 time=0.0671875\n",
      "note_on channel=2 note=77 velocity=124 time=0.0062499999999999995\n",
      "note_on channel=6 note=65 velocity=114 time=0.0031249999999999997\n",
      "note_on channel=6 note=55 velocity=115 time=0\n",
      "note_on channel=9 note=70 velocity=97 time=0.0031249999999999997\n",
      "note_on channel=9 note=64 velocity=52 time=0\n",
      "note_on channel=9 note=42 velocity=80 time=0\n",
      "note_on channel=9 note=35 velocity=110 time=0\n",
      "note_on channel=6 note=62 velocity=117 time=0\n",
      "note_on channel=6 note=60 velocity=117 time=0\n",
      "note_on channel=5 note=74 velocity=114 time=0\n",
      "note_on channel=1 note=36 velocity=120 time=0\n",
      "note_off channel=9 note=35 velocity=0 time=0.007812499999999999\n",
      "note_off channel=9 note=42 velocity=0 time=0\n",
      "note_off channel=9 note=64 velocity=0 time=0\n",
      "note_off channel=9 note=70 velocity=0 time=0\n",
      "note_off channel=1 note=36 velocity=0 time=0.13124999999999998\n",
      "note_on channel=9 note=64 velocity=29 time=0.0109375\n",
      "note_off channel=9 note=64 velocity=0 time=0.007812499999999999\n",
      "note_on channel=9 note=70 velocity=84 time=0.1421875\n",
      "note_on channel=9 note=64 velocity=48 time=0\n",
      "note_on channel=9 note=42 velocity=72 time=0\n",
      "note_on channel=7 note=60 velocity=97 time=0\n",
      "note_on channel=1 note=36 velocity=121 time=0\n",
      "note_off channel=9 note=42 velocity=0 time=0.007812499999999999\n",
      "note_off channel=9 note=64 velocity=0 time=0\n",
      "note_off channel=9 note=70 velocity=0 time=0\n",
      "note_off channel=7 note=60 velocity=0 time=0.028124999999999997\n",
      "note_off channel=5 note=74 velocity=0 time=0.103125\n",
      "note_on channel=9 note=63 velocity=46 time=0.0109375\n",
      "note_on channel=9 note=42 velocity=53 time=0\n",
      "note_on channel=7 note=60 velocity=106 time=0\n",
      "note_off channel=9 note=42 velocity=0 time=0.007812499999999999\n",
      "note_off channel=9 note=63 velocity=0 time=0\n",
      "note_off channel=7 note=60 velocity=0 time=0.015624999999999998\n",
      "note_off channel=5 note=77 velocity=0 time=0.01875\n",
      "note_off channel=2 note=77 velocity=0 time=0.0062499999999999995\n",
      "note_on channel=9 note=70 velocity=87 time=0.10156249999999999\n",
      "note_on channel=9 note=63 velocity=64 time=0\n",
      "note_on channel=9 note=42 velocity=72 time=0\n",
      "note_on channel=9 note=40 velocity=111 time=0\n",
      "note_on channel=9 note=35 velocity=110 time=0\n",
      "note_on channel=7 note=67 velocity=106 time=0\n",
      "note_on channel=7 note=63 velocity=113 time=0\n",
      "note_on channel=7 note=60 velocity=107 time=0\n",
      "note_on channel=5 note=79 velocity=124 time=0.0031249999999999997\n",
      "note_on channel=2 note=79 velocity=124 time=0\n",
      "note_off channel=9 note=35 velocity=0 time=0.0046875\n",
      "note_off channel=9 note=40 velocity=0 time=0\n",
      "note_off channel=9 note=42 velocity=0 time=0\n",
      "note_off channel=9 note=63 velocity=0 time=0\n",
      "note_off channel=9 note=70 velocity=0 time=0\n",
      "note_off channel=6 note=62 velocity=0 time=0.053125\n",
      "note_off channel=6 note=55 velocity=0 time=0.021875\n",
      "note_off channel=2 note=79 velocity=0 time=0.0031249999999999997\n",
      "note_off channel=5 note=79 velocity=0 time=0.0031249999999999997\n",
      "note_off channel=6 note=65 velocity=0 time=0.0062499999999999995\n",
      "note_off channel=6 note=60 velocity=0 time=0.0375\n",
      "note_off channel=7 note=63 velocity=0 time=0.0062499999999999995\n",
      "note_on channel=9 note=63 velocity=30 time=0.0109375\n",
      "note_off channel=7 note=60 velocity=0 time=0.0015624999999999999\n",
      "note_off channel=9 note=63 velocity=0 time=0.0062499999999999995\n",
      "note_off channel=7 note=67 velocity=0 time=0.0062499999999999995\n",
      "note_off channel=1 note=36 velocity=0 time=0.103125\n",
      "note_on channel=9 note=70 velocity=72 time=0.032812499999999994\n",
      "note_on channel=9 note=63 velocity=49 time=0\n",
      "note_on channel=9 note=42 velocity=72 time=0\n",
      "note_on channel=5 note=72 velocity=109 time=0\n",
      "note_on channel=1 note=31 velocity=120 time=0\n",
      "note_on channel=6 note=67 velocity=113 time=0.0031249999999999997\n",
      "note_on channel=6 note=63 velocity=111 time=0\n",
      "note_on channel=6 note=60 velocity=117 time=0\n",
      "note_on channel=6 note=55 velocity=116 time=0\n",
      "note_on channel=5 note=75 velocity=123 time=0\n",
      "note_on channel=2 note=75 velocity=123 time=0\n",
      "note_on channel=7 note=60 velocity=76 time=0.0031249999999999997\n",
      "note_off channel=9 note=42 velocity=0 time=0.0015624999999999999\n",
      "note_off channel=9 note=63 velocity=0 time=0\n",
      "note_off channel=9 note=70 velocity=0 time=0\n",
      "note_off channel=7 note=60 velocity=0 time=0.034374999999999996\n",
      "note_on channel=9 note=63 velocity=49 time=0.10781249999999999\n",
      "note_on channel=9 note=42 velocity=53 time=0\n",
      "note_on channel=7 note=60 velocity=87 time=0.0062499999999999995\n",
      "note_off channel=9 note=42 velocity=0 time=0.0015624999999999999\n",
      "note_off channel=9 note=63 velocity=0 time=0\n",
      "note_off channel=7 note=60 velocity=0 time=0.015624999999999998\n",
      "note_on channel=9 note=42 velocity=77 time=0.12343749999999999\n",
      "note_on channel=9 note=70 velocity=91 time=0.0031249999999999997\n",
      "note_on channel=9 note=64 velocity=47 time=0\n",
      "note_on channel=9 note=35 velocity=111 time=0\n",
      "note_off channel=9 note=42 velocity=0 time=0.0046875\n",
      "note_on channel=7 note=60 velocity=76 time=0.0015624999999999999\n",
      "note_off channel=9 note=35 velocity=0 time=0.0015624999999999999\n",
      "note_off channel=9 note=64 velocity=0 time=0\n",
      "note_off channel=9 note=70 velocity=0 time=0\n",
      "note_off channel=7 note=60 velocity=0 time=0.024999999999999998\n",
      "note_on channel=9 note=63 velocity=39 time=0.11718749999999999\n",
      "note_off channel=9 note=63 velocity=0 time=0.007812499999999999\n",
      "note_off channel=1 note=31 velocity=0 time=0.06562499999999999\n",
      "note_off channel=5 note=72 velocity=0 time=0.06562499999999999\n",
      "note_on channel=9 note=70 velocity=78 time=0.0109375\n",
      "note_on channel=9 note=63 velocity=43 time=0\n",
      "note_on channel=9 note=42 velocity=72 time=0\n",
      "note_on channel=1 note=36 velocity=116 time=0\n",
      "note_on channel=7 note=60 velocity=83 time=0.0031249999999999997\n",
      "note_off channel=9 note=42 velocity=0 time=0.0046875\n",
      "note_off channel=9 note=63 velocity=0 time=0\n",
      "note_off channel=9 note=70 velocity=0 time=0\n",
      "note_off channel=7 note=60 velocity=0 time=0.021875\n",
      "note_off channel=5 note=75 velocity=0 time=0.09374999999999999\n",
      "note_off channel=2 note=75 velocity=0 time=0\n",
      "note_on channel=9 note=63 velocity=61 time=0.0265625\n",
      "note_on channel=9 note=42 velocity=53 time=0\n",
      "note_off channel=9 note=42 velocity=0 time=0.007812499999999999\n",
      "note_off channel=9 note=63 velocity=0 time=0\n",
      "note_on channel=7 note=60 velocity=103 time=0.13906249999999998\n",
      "note_on channel=9 note=70 velocity=94 time=0.0031249999999999997\n",
      "note_on channel=9 note=62 velocity=89 time=0\n",
      "note_on channel=9 note=35 velocity=111 time=0\n",
      "note_on channel=7 note=67 velocity=108 time=0\n",
      "note_on channel=7 note=63 velocity=112 time=0\n",
      "note_on channel=9 note=42 velocity=77 time=0.0031249999999999997\n",
      "note_on channel=9 note=40 velocity=108 time=0\n",
      "note_off channel=9 note=35 velocity=0 time=0.0046875\n",
      "note_off channel=9 note=62 velocity=0 time=0\n",
      "note_off channel=9 note=70 velocity=0 time=0\n",
      "note_off channel=9 note=40 velocity=0 time=0.0031249999999999997\n",
      "note_off channel=9 note=42 velocity=0 time=0\n",
      "note_on channel=2 note=77 velocity=122 time=0.0015624999999999999\n",
      "note_on channel=5 note=77 velocity=122 time=0.015624999999999998\n",
      "note_off channel=2 note=77 velocity=0 time=0.07343749999999999\n",
      "note_off channel=5 note=77 velocity=0 time=0.012499999999999999\n",
      "note_off channel=7 note=63 velocity=0 time=0.0031249999999999997\n",
      "note_off channel=1 note=36 velocity=0 time=0.0062499999999999995\n",
      "note_off channel=7 note=60 velocity=0 time=0.012499999999999999\n",
      "note_on channel=5 note=75 velocity=117 time=0.007812499999999999\n",
      "note_off channel=7 note=67 velocity=0 time=0.0015624999999999999\n",
      "note_on channel=2 note=75 velocity=117 time=0.0015624999999999999\n",
      "note_on channel=9 note=64 velocity=32 time=0.0031249999999999997\n",
      "note_off channel=9 note=64 velocity=0 time=0.007812499999999999\n",
      "note_off channel=5 note=75 velocity=0 time=0.0875\n",
      "note_off channel=2 note=75 velocity=0 time=0\n",
      "note_on channel=5 note=72 velocity=123 time=0.0453125\n",
      "note_on channel=2 note=72 velocity=123 time=0.0031249999999999997\n",
      "note_on channel=9 note=70 velocity=80 time=0.0062499999999999995\n",
      "note_on channel=9 note=63 velocity=46 time=0\n",
      "note_on channel=9 note=42 velocity=72 time=0\n",
      "note_on channel=7 note=60 velocity=59 time=0\n",
      "note_on channel=1 note=31 velocity=120 time=0\n",
      "note_off channel=9 note=42 velocity=0 time=0.007812499999999999\n",
      "note_off channel=9 note=63 velocity=0 time=0\n",
      "note_off channel=9 note=70 velocity=0 time=0\n",
      "note_off channel=6 note=55 velocity=0 time=0.024999999999999998\n",
      "note_off channel=6 note=60 velocity=0 time=0\n",
      "note_off channel=6 note=63 velocity=0 time=0\n",
      "note_off channel=6 note=67 velocity=0 time=0.0031249999999999997\n",
      "note_off channel=7 note=60 velocity=0 time=0.0062499999999999995\n",
      "note_off channel=1 note=31 velocity=0 time=0.024999999999999998\n",
      "note_off channel=5 note=72 velocity=0 time=0.01875\n",
      "note_off channel=2 note=72 velocity=0 time=0.0031249999999999997\n",
      "note_on channel=9 note=63 velocity=46 time=0.06093749999999999\n",
      "note_on channel=9 note=42 velocity=53 time=0\n",
      "note_on channel=1 note=34 velocity=122 time=0\n",
      "note_off channel=9 note=42 velocity=0 time=0.007812499999999999\n",
      "note_off channel=9 note=63 velocity=0 time=0\n",
      "note_off channel=1 note=34 velocity=0 time=0.056249999999999994\n",
      "note_on channel=6 note=65 velocity=116 time=0.0796875\n",
      "note_on channel=6 note=62 velocity=116 time=0\n",
      "note_on channel=6 note=60 velocity=115 time=0\n",
      "note_on channel=7 note=60 velocity=91 time=0.0031249999999999997\n",
      "note_on channel=6 note=55 velocity=114 time=0\n",
      "note_on channel=5 note=77 velocity=123 time=0\n",
      "note_on channel=2 note=77 velocity=123 time=0\n",
      "note_on channel=9 note=70 velocity=85 time=0.0031249999999999997\n",
      "note_on channel=9 note=64 velocity=51 time=0\n",
      "note_on channel=5 note=74 velocity=117 time=0\n",
      "note_on channel=1 note=36 velocity=120 time=0\n",
      "note_off channel=9 note=64 velocity=0 time=0.007812499999999999\n",
      "note_off channel=9 note=70 velocity=0 time=0\n",
      "note_on channel=9 note=42 velocity=68 time=0.0015624999999999999\n",
      "note_on channel=9 note=35 velocity=111 time=0\n",
      "note_off channel=9 note=35 velocity=0 time=0.007812499999999999\n",
      "note_off channel=9 note=42 velocity=0 time=0\n",
      "note_off channel=7 note=60 velocity=0 time=0.021875\n",
      "note_off channel=1 note=36 velocity=0 time=0.09999999999999999\n",
      "note_on channel=7 note=60 velocity=92 time=0.007812499999999999\n",
      "note_on channel=9 note=64 velocity=26 time=0.0031249999999999997\n",
      "note_off channel=9 note=64 velocity=0 time=0.007812499999999999\n",
      "note_off channel=7 note=60 velocity=0 time=0.009375\n",
      "note_on channel=7 note=60 velocity=89 time=0.1265625\n",
      "note_on channel=9 note=70 velocity=82 time=0.0062499999999999995\n",
      "note_on channel=9 note=64 velocity=43 time=0\n",
      "note_on channel=9 note=42 velocity=72 time=0\n",
      "note_on channel=1 note=36 velocity=121 time=0\n",
      "note_off channel=9 note=42 velocity=0 time=0.007812499999999999\n",
      "note_off channel=9 note=64 velocity=0 time=0\n",
      "note_off channel=9 note=70 velocity=0 time=0\n",
      "note_off channel=7 note=60 velocity=0 time=0.031249999999999997\n",
      "note_off channel=5 note=74 velocity=0 time=0.09999999999999999\n",
      "note_on channel=7 note=60 velocity=108 time=0.007812499999999999\n",
      "note_on channel=9 note=63 velocity=44 time=0.0031249999999999997\n",
      "note_on channel=9 note=42 velocity=53 time=0\n",
      "note_off channel=9 note=42 velocity=0 time=0.007812499999999999\n",
      "note_off channel=9 note=63 velocity=0 time=0\n",
      "note_off channel=5 note=77 velocity=0 time=0.0031249999999999997\n",
      "note_off channel=2 note=77 velocity=0 time=0.0031249999999999997\n",
      "note_off channel=7 note=60 velocity=0 time=0.0031249999999999997\n",
      "note_on channel=7 note=67 velocity=110 time=0.1265625\n",
      "note_on channel=7 note=63 velocity=119 time=0\n",
      "note_on channel=7 note=60 velocity=108 time=0\n",
      "note_on channel=9 note=70 velocity=91 time=0.0062499999999999995\n",
      "note_on channel=9 note=63 velocity=68 time=0\n",
      "note_on channel=9 note=42 velocity=77 time=0.0031249999999999997\n",
      "note_on channel=9 note=40 velocity=106 time=0\n",
      "note_on channel=5 note=79 velocity=121 time=0\n",
      "note_on channel=2 note=79 velocity=106 time=0\n",
      "note_off channel=9 note=63 velocity=0 time=0.0046875\n",
      "note_off channel=9 note=70 velocity=0 time=0\n",
      "note_on channel=9 note=35 velocity=111 time=0.0015624999999999999\n",
      "note_off channel=9 note=40 velocity=0 time=0.0015624999999999999\n",
      "note_off channel=9 note=42 velocity=0 time=0\n",
      "note_off channel=9 note=35 velocity=0 time=0.0062499999999999995\n",
      "note_off channel=6 note=62 velocity=0 time=0.04375\n",
      "note_off channel=6 note=65 velocity=0 time=0.024999999999999998\n",
      "note_off channel=6 note=55 velocity=0 time=0.0031249999999999997\n",
      "note_off channel=6 note=60 velocity=0 time=0.012499999999999999\n",
      "note_off channel=5 note=79 velocity=0 time=0\n",
      "note_off channel=2 note=79 velocity=0 time=0\n",
      "note_off channel=7 note=63 velocity=0 time=0.040624999999999994\n",
      "note_off channel=7 note=60 velocity=0 time=0.0031249999999999997\n",
      "note_on channel=9 note=63 velocity=22 time=0.0046875\n",
      "note_on channel=7 note=60 velocity=102 time=0.0031249999999999997\n",
      "note_off channel=9 note=63 velocity=0 time=0.0046875\n",
      "note_off channel=7 note=60 velocity=0 time=0.0062499999999999995\n",
      "note_off channel=7 note=67 velocity=0 time=0.0031249999999999997\n",
      "note_off channel=1 note=36 velocity=0 time=0.09999999999999999\n",
      "note_on channel=5 note=75 velocity=123 time=0.023437499999999997\n",
      "note_on channel=2 note=75 velocity=108 time=0\n",
      "note_on channel=6 note=67 velocity=116 time=0.0031249999999999997\n",
      "note_on channel=6 note=63 velocity=111 time=0\n",
      "note_on channel=6 note=60 velocity=115 time=0.0031249999999999997\n",
      "note_on channel=6 note=55 velocity=114 time=0\n",
      "note_on channel=9 note=70 velocity=81 time=0.0031249999999999997\n",
      "note_on channel=9 note=63 velocity=43 time=0\n",
      "note_on channel=9 note=42 velocity=72 time=0\n",
      "note_on channel=5 note=72 velocity=117 time=0\n",
      "note_on channel=1 note=31 velocity=120 time=0\n",
      "note_on channel=7 note=60 velocity=65 time=0.0031249999999999997\n",
      "note_off channel=9 note=42 velocity=0 time=0.0046875\n",
      "note_off channel=9 note=63 velocity=0 time=0\n",
      "note_off channel=9 note=70 velocity=0 time=0\n",
      "note_off channel=7 note=60 velocity=0 time=0.04687499999999999\n",
      "note_on channel=9 note=63 velocity=48 time=0.0953125\n",
      "note_on channel=9 note=42 velocity=53 time=0\n",
      "note_on channel=7 note=60 velocity=107 time=0.0031249999999999997\n",
      "note_off channel=9 note=42 velocity=0 time=0.0046875\n",
      "note_off channel=9 note=63 velocity=0 time=0\n",
      "note_off channel=7 note=60 velocity=0 time=0.015624999999999998\n",
      "note_on channel=9 note=70 velocity=85 time=0.1265625\n",
      "note_on channel=9 note=64 velocity=49 time=0\n",
      "note_on channel=9 note=42 velocity=82 time=0\n",
      "note_on channel=9 note=35 velocity=111 time=0\n",
      "note_on channel=7 note=60 velocity=87 time=0.0031249999999999997\n",
      "note_off channel=9 note=35 velocity=0 time=0.0046875\n",
      "note_off channel=9 note=42 velocity=0 time=0\n",
      "note_off channel=9 note=64 velocity=0 time=0\n",
      "note_off channel=9 note=70 velocity=0 time=0\n",
      "note_off channel=7 note=60 velocity=0 time=0.024999999999999998\n",
      "note_on channel=9 note=63 velocity=43 time=0.11718749999999999\n",
      "note_off channel=9 note=63 velocity=0 time=0.007812499999999999\n",
      "note_off channel=1 note=31 velocity=0 time=0.06562499999999999\n",
      "note_off channel=5 note=75 velocity=0 time=0.06249999999999999\n",
      "note_off channel=2 note=75 velocity=0 time=0\n",
      "note_off channel=5 note=72 velocity=0 time=0.0031249999999999997\n",
      "note_on channel=9 note=70 velocity=80 time=0.0109375\n",
      "note_on channel=9 note=63 velocity=41 time=0\n",
      "note_on channel=9 note=42 velocity=72 time=0\n",
      "note_on channel=7 note=60 velocity=98 time=0\n",
      "note_on channel=1 note=36 velocity=108 time=0\n",
      "note_off channel=9 note=42 velocity=0 time=0.007812499999999999\n",
      "note_off channel=9 note=63 velocity=0 time=0\n",
      "note_off channel=9 note=70 velocity=0 time=0\n",
      "note_off channel=7 note=60 velocity=0 time=0.034374999999999996\n",
      "note_on channel=7 note=60 velocity=94 time=0.10468749999999999\n",
      "note_on channel=9 note=63 velocity=59 time=0.0031249999999999997\n",
      "note_on channel=9 note=42 velocity=53 time=0\n",
      "note_off channel=9 note=42 velocity=0 time=0.007812499999999999\n",
      "note_off channel=9 note=63 velocity=0 time=0\n",
      "note_off channel=7 note=60 velocity=0 time=0.009375\n",
      "note_on channel=7 note=60 velocity=106 time=0.1265625\n",
      "note_on channel=7 note=67 velocity=108 time=0.0031249999999999997\n",
      "note_on channel=7 note=63 velocity=113 time=0\n",
      "note_on channel=9 note=70 velocity=91 time=0.0031249999999999997\n",
      "note_on channel=9 note=62 velocity=84 time=0\n",
      "note_on channel=9 note=42 velocity=82 time=0\n",
      "note_on channel=9 note=40 velocity=111 time=0\n",
      "note_on channel=9 note=35 velocity=111 time=0\n",
      "note_on channel=5 note=87 velocity=112 time=0\n",
      "note_on channel=2 note=87 velocity=97 time=0\n",
      "note_off channel=9 note=35 velocity=0 time=0.007812499999999999\n",
      "note_off channel=9 note=40 velocity=0 time=0\n",
      "note_off channel=9 note=42 velocity=0 time=0\n",
      "note_off channel=9 note=62 velocity=0 time=0\n",
      "note_off channel=9 note=70 velocity=0 time=0\n",
      "note_off channel=5 note=87 velocity=0 time=0.056249999999999994\n",
      "note_off channel=2 note=87 velocity=0 time=0\n",
      "note_on channel=5 note=82 velocity=110 time=0.0109375\n",
      "note_on channel=2 note=82 velocity=95 time=0\n",
      "note_off channel=7 note=63 velocity=0 time=0.007812499999999999\n",
      "note_off channel=7 note=67 velocity=0 time=0.015624999999999998\n",
      "note_off channel=7 note=60 velocity=0 time=0.0031249999999999997\n",
      "note_off channel=5 note=82 velocity=0 time=0.0375\n",
      "note_off channel=2 note=82 velocity=0 time=0\n",
      "note_on channel=7 note=60 velocity=84 time=0.007812499999999999\n",
      "note_on channel=9 note=64 velocity=30 time=0.0031249999999999997\n",
      "note_on channel=5 note=79 velocity=108 time=0\n",
      "note_on channel=2 note=79 velocity=93 time=0\n",
      "note_off channel=9 note=64 velocity=0 time=0.007812499999999999\n",
      "note_off channel=7 note=60 velocity=0 time=0.0062499999999999995\n",
      "note_off channel=1 note=36 velocity=0 time=0.0062499999999999995\n",
      "note_off channel=5 note=79 velocity=0 time=0.04375\n",
      "note_off channel=2 note=79 velocity=0 time=0\n",
      "note_on channel=5 note=77 velocity=108 time=0.0109375\n",
      "note_on channel=2 note=77 velocity=93 time=0\n",
      "note_off channel=5 note=77 velocity=0 time=0.0640625\n",
      "note_off channel=2 note=77 velocity=0 time=0\n",
      "note_off channel=6 note=55 velocity=0 time=0.0031249999999999997\n",
      "note_off channel=6 note=60 velocity=0 time=0\n",
      "note_on channel=7 note=60 velocity=81 time=0.0046875\n",
      "note_on channel=9 note=70 velocity=84 time=0.0031249999999999997\n",
      "note_on channel=9 note=63 velocity=44 time=0\n",
      "note_on channel=9 note=42 velocity=72 time=0\n",
      "note_on channel=5 note=75 velocity=108 time=0\n",
      "note_on channel=2 note=75 velocity=93 time=0\n",
      "note_on channel=1 note=34 velocity=105 time=0\n",
      "note_off channel=9 note=42 velocity=0 time=0.007812499999999999\n",
      "note_off channel=9 note=63 velocity=0 time=0\n",
      "note_off channel=9 note=70 velocity=0 time=0\n",
      "note_off channel=6 note=63 velocity=0 time=0.009375\n",
      "note_off channel=6 note=67 velocity=0 time=0.021875\n",
      "note_off channel=7 note=60 velocity=0 time=0.009375\n",
      "note_off channel=5 note=75 velocity=0 time=0.015624999999999998\n",
      "note_off channel=2 note=75 velocity=0 time=0\n",
      "note_on channel=5 note=72 velocity=108 time=0.0109375\n",
      "note_on channel=2 note=72 velocity=93 time=0\n",
      "note_off channel=1 note=34 velocity=0 time=0.0296875\n",
      "note_off channel=5 note=72 velocity=0 time=0.034374999999999996\n",
      "note_off channel=2 note=72 velocity=0 time=0\n",
      "note_on channel=9 note=63 velocity=52 time=0.0109375\n",
      "note_on channel=9 note=42 velocity=53 time=0\n",
      "note_on channel=5 note=70 velocity=105 time=0\n",
      "note_on channel=2 note=70 velocity=90 time=0\n",
      "note_on channel=1 note=36 velocity=103 time=0\n",
      "note_off channel=9 note=42 velocity=0 time=0.007812499999999999\n",
      "note_off channel=9 note=63 velocity=0 time=0\n",
      "note_off channel=5 note=70 velocity=0 time=0.056249999999999994\n",
      "note_off channel=2 note=70 velocity=0 time=0\n",
      "note_off channel=1 note=36 velocity=0 time=0.0062499999999999995\n",
      "note_on channel=5 note=67 velocity=106 time=0.0046875\n",
      "note_on channel=2 note=67 velocity=91 time=0\n",
      "note_off channel=5 note=67 velocity=0 time=0.0640625\n",
      "note_off channel=2 note=67 velocity=0 time=0\n",
      "note_on channel=9 note=70 velocity=97 time=0.0109375\n",
      "note_on channel=9 note=49 velocity=70 time=0\n",
      "note_on channel=9 note=35 velocity=114 time=0\n",
      "note_on channel=5 note=65 velocity=96 time=0\n",
      "note_on channel=2 note=65 velocity=81 time=0\n",
      "note_on channel=1 note=29 velocity=103 time=0\n",
      "note_on channel=6 note=53 velocity=89 time=0.0031249999999999997\n",
      "note_on channel=6 note=41 velocity=85 time=0\n",
      "note_on channel=6 note=65 velocity=92 time=0.0031249999999999997\n",
      "note_on channel=6 note=56 velocity=97 time=0\n",
      "note_off channel=9 note=35 velocity=0 time=0.0015624999999999999\n",
      "note_off channel=9 note=49 velocity=0 time=0\n",
      "note_off channel=9 note=70 velocity=0 time=0\n",
      "note_on channel=7 note=56 velocity=99 time=0.0015624999999999999\n",
      "note_on channel=6 note=60 velocity=91 time=0\n",
      "note_on channel=7 note=65 velocity=105 time=0.0031249999999999997\n",
      "note_on channel=7 note=60 velocity=110 time=0\n",
      "note_off channel=5 note=65 velocity=0 time=0.20156249999999998\n",
      "note_off channel=2 note=65 velocity=0 time=0\n",
      "note_on channel=9 note=70 velocity=84 time=0.08593749999999999\n",
      "note_off channel=9 note=70 velocity=0 time=0.007812499999999999\n",
      "note_on channel=9 note=40 velocity=71 time=0.1421875\n",
      "note_off channel=9 note=40 velocity=0 time=0.007812499999999999\n",
      "note_on channel=9 note=70 velocity=87 time=0.1421875\n",
      "note_on channel=9 note=40 velocity=101 time=0\n",
      "note_on channel=9 note=35 velocity=111 time=0\n",
      "note_off channel=9 note=35 velocity=0 time=0.007812499999999999\n",
      "note_off channel=9 note=40 velocity=0 time=0\n",
      "note_off channel=9 note=70 velocity=0 time=0\n",
      "note_off channel=7 note=56 velocity=0 time=0.0875\n",
      "note_off channel=6 note=65 velocity=0 time=0\n",
      "note_off channel=7 note=65 velocity=0 time=0.0062499999999999995\n",
      "note_off channel=6 note=56 velocity=0 time=0.0062499999999999995\n",
      "note_off channel=6 note=53 velocity=0 time=0.0031249999999999997\n",
      "note_off channel=7 note=60 velocity=0 time=0.028124999999999997\n",
      "note_off channel=6 note=60 velocity=0 time=0.031249999999999997\n",
      "note_off channel=6 note=41 velocity=0 time=0.06562499999999999\n",
      "note_off channel=1 note=29 velocity=0 time=0.024999999999999998\n",
      "note_on channel=6 note=43 velocity=78 time=0.0296875\n",
      "note_on channel=7 note=58 velocity=80 time=0.0031249999999999997\n",
      "note_on channel=7 note=67 velocity=97 time=0.0031249999999999997\n",
      "note_on channel=6 note=67 velocity=91 time=0\n",
      "note_on channel=6 note=62 velocity=99 time=0\n",
      "note_on channel=6 note=58 velocity=91 time=0\n",
      "note_on channel=6 note=55 velocity=98 time=0\n",
      "note_on channel=9 note=70 velocity=72 time=0.0031249999999999997\n",
      "note_on channel=9 note=57 velocity=62 time=0\n",
      "note_on channel=9 note=35 velocity=113 time=0\n",
      "note_on channel=7 note=62 velocity=99 time=0\n",
      "note_on channel=1 note=31 velocity=99 time=0\n",
      "note_off channel=9 note=35 velocity=0 time=0.007812499999999999\n",
      "note_off channel=9 note=57 velocity=0 time=0\n",
      "note_off channel=9 note=70 velocity=0 time=0\n",
      "note_on channel=9 note=70 velocity=91 time=0.2921875\n",
      "note_off channel=9 note=70 velocity=0 time=0.007812499999999999\n",
      "note_on channel=9 note=40 velocity=81 time=0.1421875\n",
      "note_on channel=5 note=67 velocity=120 time=0.0031249999999999997\n",
      "note_on channel=2 note=67 velocity=105 time=0\n",
      "note_off channel=9 note=40 velocity=0 time=0.0046875\n",
      "note_off channel=5 note=67 velocity=0 time=0.11249999999999999\n",
      "note_off channel=2 note=67 velocity=0 time=0\n",
      "note_on channel=9 note=70 velocity=78 time=0.0296875\n",
      "note_on channel=9 note=40 velocity=111 time=0\n",
      "note_on channel=5 note=70 velocity=122 time=0\n",
      "note_on channel=2 note=70 velocity=107 time=0\n",
      "note_off channel=9 note=40 velocity=0 time=0.007812499999999999\n",
      "note_off channel=9 note=70 velocity=0 time=0\n",
      "note_off channel=5 note=70 velocity=0 time=0.11249999999999999\n",
      "note_off channel=2 note=70 velocity=0 time=0\n",
      "note_on channel=5 note=72 velocity=117 time=0.032812499999999994\n",
      "note_on channel=2 note=72 velocity=102 time=0\n",
      "note_off channel=5 note=72 velocity=0 time=0.12343749999999999\n",
      "note_off channel=2 note=72 velocity=0 time=0\n",
      "note_on channel=9 note=35 velocity=111 time=0.020312499999999997\n",
      "note_on channel=9 note=70 velocity=94 time=0.0031249999999999997\n",
      "note_on channel=9 note=47 velocity=108 time=0\n",
      "note_on channel=5 note=74 velocity=123 time=0\n",
      "note_on channel=2 note=74 velocity=108 time=0\n",
      "note_on channel=9 note=42 velocity=77 time=0.0031249999999999997\n",
      "note_off channel=9 note=35 velocity=0 time=0.0015624999999999999\n",
      "note_off channel=9 note=47 velocity=0 time=0.0031249999999999997\n",
      "note_off channel=9 note=70 velocity=0 time=0\n",
      "note_off channel=9 note=42 velocity=0 time=0.0031249999999999997\n",
      "note_on channel=9 note=47 velocity=87 time=0.1359375\n",
      "note_on channel=5 note=77 velocity=119 time=0.0062499999999999995\n",
      "note_on channel=2 note=77 velocity=104 time=0\n",
      "note_off channel=9 note=47 velocity=0 time=0.0015624999999999999\n",
      "note_off channel=5 note=74 velocity=0 time=0.0062499999999999995\n",
      "note_off channel=2 note=74 velocity=0 time=0\n",
      "note_off channel=5 note=77 velocity=0 time=0.11875\n",
      "note_off channel=2 note=77 velocity=0 time=0\n",
      "note_on channel=9 note=70 velocity=80 time=0.020312499999999997\n",
      "note_on channel=9 note=43 velocity=99 time=0\n",
      "note_on channel=5 note=72 velocity=122 time=0.0031249999999999997\n",
      "note_on channel=2 note=72 velocity=107 time=0\n",
      "note_off channel=9 note=43 velocity=0 time=0.0046875\n",
      "note_off channel=9 note=70 velocity=0 time=0\n",
      "note_off channel=7 note=67 velocity=0 time=0\n",
      "note_off channel=7 note=58 velocity=0 time=0.034374999999999996\n",
      "note_off channel=6 note=62 velocity=0 time=0.0031249999999999997\n",
      "note_off channel=6 note=58 velocity=0 time=0.0062499999999999995\n",
      "note_off channel=6 note=55 velocity=0 time=0.0375\n",
      "note_off channel=5 note=72 velocity=0 time=0.0062499999999999995\n",
      "note_off channel=2 note=72 velocity=0 time=0\n",
      "note_off channel=7 note=62 velocity=0 time=0.0031249999999999997\n",
      "note_off channel=6 note=67 velocity=0 time=0.0062499999999999995\n",
      "note_on channel=5 note=74 velocity=119 time=0.048437499999999994\n",
      "note_on channel=2 note=74 velocity=104 time=0\n",
      "note_off channel=1 note=31 velocity=0 time=0.023437499999999997\n",
      "note_off channel=6 note=43 velocity=0 time=0.0062499999999999995\n",
      "note_off channel=5 note=74 velocity=0 time=0.06874999999999999\n",
      "note_off channel=2 note=74 velocity=0 time=0\n",
      "note_on channel=9 note=70 velocity=85 time=0.048437499999999994\n",
      "note_on channel=9 note=49 velocity=70 time=0\n",
      "note_on channel=9 note=35 velocity=114 time=0\n",
      "note_on channel=1 note=32 velocity=93 time=0\n",
      "note_on channel=5 note=75 velocity=124 time=0.0031249999999999997\n",
      "note_on channel=2 note=75 velocity=109 time=0\n",
      "note_on channel=7 note=68 velocity=82 time=0.0031249999999999997\n",
      "note_on channel=7 note=63 velocity=92 time=0\n",
      "note_on channel=7 note=60 velocity=94 time=0\n",
      "note_on channel=6 note=68 velocity=98 time=0\n",
      "note_on channel=6 note=63 velocity=107 time=0\n",
      "note_on channel=6 note=60 velocity=89 time=0\n",
      "note_off channel=9 note=35 velocity=0 time=0.0015624999999999999\n",
      "note_off channel=9 note=49 velocity=0 time=0\n",
      "note_off channel=9 note=70 velocity=0 time=0\n",
      "note_on channel=6 note=56 velocity=97 time=0.0046875\n",
      "note_on channel=6 note=44 velocity=79 time=0\n",
      "note_off channel=5 note=75 velocity=0 time=0.1734375\n",
      "note_off channel=2 note=75 velocity=0 time=0\n",
      "note_on channel=9 note=70 velocity=82 time=0.1140625\n",
      "note_on channel=9 note=40 velocity=42 time=0\n",
      "note_off channel=9 note=40 velocity=0 time=0.007812499999999999\n",
      "note_off channel=9 note=70 velocity=0 time=0\n",
      "note_on channel=9 note=40 velocity=71 time=0.1421875\n",
      "note_off channel=9 note=40 velocity=0 time=0.007812499999999999\n",
      "note_on channel=9 note=70 velocity=91 time=0.1421875\n",
      "note_on channel=9 note=40 velocity=101 time=0\n",
      "note_on channel=9 note=35 velocity=111 time=0\n",
      "note_off channel=9 note=35 velocity=0 time=0.007812499999999999\n",
      "note_off channel=9 note=40 velocity=0 time=0\n",
      "note_off channel=9 note=70 velocity=0 time=0\n",
      "note_off channel=6 note=63 velocity=0 time=0.08124999999999999\n",
      "note_off channel=7 note=68 velocity=0 time=0.009375\n",
      "note_off channel=6 note=60 velocity=0 time=0.012499999999999999\n",
      "note_off channel=7 note=60 velocity=0 time=0.01875\n",
      "note_off channel=6 note=56 velocity=0 time=0.053125\n",
      "note_off channel=1 note=32 velocity=0 time=0.034374999999999996\n",
      "note_off channel=6 note=68 velocity=0 time=0.049999999999999996\n",
      "note_off channel=7 note=63 velocity=0 time=0.012499999999999999\n",
      "note_on channel=9 note=70 velocity=81 time=0.020312499999999997\n",
      "note_on channel=9 note=57 velocity=62 time=0\n",
      "note_on channel=9 note=35 velocity=113 time=0\n",
      "note_on channel=7 note=67 velocity=100 time=0\n",
      "note_on channel=7 note=62 velocity=96 time=0\n",
      "note_on channel=1 note=31 velocity=94 time=0\n",
      "note_on channel=7 note=58 velocity=98 time=0.0031249999999999997\n",
      "note_on channel=6 note=67 velocity=90 time=0\n",
      "note_on channel=6 note=58 velocity=94 time=0.0031249999999999997\n",
      "note_on channel=6 note=55 velocity=79 time=0\n",
      "note_off channel=9 note=35 velocity=0 time=0.0015624999999999999\n",
      "note_off channel=9 note=57 velocity=0 time=0\n",
      "note_off channel=9 note=70 velocity=0 time=0\n",
      "note_on channel=6 note=62 velocity=81 time=0.0015624999999999999\n",
      "note_on channel=6 note=43 velocity=82 time=0\n",
      "note_off channel=6 note=44 velocity=0 time=0.048437499999999994\n",
      "note_on channel=5 note=72 velocity=123 time=0.23281249999999998\n",
      "note_on channel=2 note=72 velocity=108 time=0\n",
      "note_on channel=9 note=70 velocity=85 time=0.009375\n",
      "note_on channel=9 note=47 velocity=66 time=0\n",
      "note_off channel=9 note=47 velocity=0 time=0.007812499999999999\n",
      "note_off channel=9 note=70 velocity=0 time=0\n",
      "note_on channel=5 note=74 velocity=108 time=0.1328125\n",
      "note_on channel=2 note=74 velocity=93 time=0\n",
      "note_on channel=9 note=47 velocity=81 time=0.009375\n",
      "note_off channel=9 note=47 velocity=0 time=0.007812499999999999\n",
      "note_off channel=5 note=72 velocity=0 time=0.01875\n",
      "note_off channel=2 note=72 velocity=0 time=0\n",
      "note_off channel=5 note=74 velocity=0 time=0.10625\n",
      "note_off channel=2 note=74 velocity=0 time=0\n",
      "note_on channel=5 note=77 velocity=119 time=0.007812499999999999\n",
      "note_on channel=2 note=77 velocity=104 time=0\n",
      "note_on channel=9 note=70 velocity=80 time=0.009375\n",
      "note_on channel=9 note=47 velocity=101 time=0\n",
      "note_off channel=9 note=47 velocity=0 time=0.007812499999999999\n",
      "note_off channel=9 note=70 velocity=0 time=0\n",
      "note_on channel=5 note=72 velocity=118 time=0.1328125\n",
      "note_on channel=2 note=72 velocity=103 time=0\n",
      "note_off channel=5 note=77 velocity=0 time=0.0109375\n",
      "note_off channel=2 note=77 velocity=0 time=0\n",
      "note_off channel=5 note=72 velocity=0 time=0.13749999999999998\n",
      "note_off channel=2 note=72 velocity=0 time=0\n",
      "note_on channel=5 note=74 velocity=117 time=0.0015624999999999999\n",
      "note_on channel=2 note=74 velocity=102 time=0\n",
      "note_on channel=9 note=35 velocity=111 time=0.0062499999999999995\n",
      "note_on channel=9 note=70 velocity=91 time=0.0031249999999999997\n",
      "note_on channel=9 note=43 velocity=108 time=0\n",
      "note_off channel=9 note=35 velocity=0 time=0.0046875\n",
      "note_off channel=9 note=43 velocity=0 time=0.0031249999999999997\n",
      "note_off channel=9 note=70 velocity=0 time=0\n",
      "note_off channel=5 note=74 velocity=0 time=0.12187499999999998\n",
      "note_off channel=2 note=74 velocity=0 time=0\n",
      "note_on channel=5 note=70 velocity=116 time=0.0109375\n",
      "note_on channel=2 note=70 velocity=101 time=0\n",
      "note_on channel=9 note=43 velocity=87 time=0.0062499999999999995\n",
      "note_off channel=9 note=43 velocity=0 time=0.007812499999999999\n",
      "note_off channel=6 note=62 velocity=0 time=0.08437499999999999\n",
      "note_off channel=7 note=62 velocity=0 time=0.015624999999999998\n",
      "note_off channel=5 note=70 velocity=0 time=0.0062499999999999995\n",
      "note_off channel=2 note=70 velocity=0 time=0\n",
      "note_on channel=5 note=67 velocity=114 time=0.0265625\n",
      "note_on channel=2 note=67 velocity=99 time=0\n",
      "note_off channel=7 note=58 velocity=0 time=0.0046875\n",
      "note_on channel=9 note=70 velocity=84 time=0.007812499999999999\n",
      "note_on channel=9 note=43 velocity=95 time=0\n",
      "note_off channel=9 note=43 velocity=0 time=0.007812499999999999\n",
      "note_off channel=9 note=70 velocity=0 time=0\n",
      "note_off channel=6 note=58 velocity=0 time=0.034374999999999996\n",
      "note_off channel=7 note=67 velocity=0 time=0.015624999999999998\n",
      "note_off channel=6 note=67 velocity=0 time=0.049999999999999996\n",
      "note_off channel=1 note=31 velocity=0 time=0\n",
      "note_off channel=5 note=67 velocity=0 time=0.009375\n",
      "note_off channel=2 note=67 velocity=0 time=0\n",
      "note_off channel=6 note=55 velocity=0 time=0.024999999999999998\n",
      "note_off channel=6 note=43 velocity=0 time=0.049999999999999996\n",
      "note_on channel=9 note=70 velocity=97 time=0.10781249999999999\n",
      "note_on channel=9 note=49 velocity=70 time=0\n",
      "note_on channel=9 note=35 velocity=114 time=0\n",
      "note_on channel=6 note=56 velocity=81 time=0\n",
      "note_on channel=6 note=53 velocity=85 time=0\n",
      "note_on channel=5 note=65 velocity=123 time=0\n",
      "note_on channel=2 note=65 velocity=108 time=0\n",
      "note_on channel=1 note=29 velocity=97 time=0\n",
      "note_on channel=6 note=60 velocity=89 time=0.0031249999999999997\n",
      "note_on channel=6 note=41 velocity=75 time=0\n",
      "note_on channel=7 note=65 velocity=91 time=0.0031249999999999997\n",
      "note_on channel=7 note=60 velocity=90 time=0\n",
      "note_on channel=7 note=56 velocity=82 time=0\n",
      "note_on channel=6 note=65 velocity=85 time=0\n",
      "note_off channel=9 note=35 velocity=0 time=0.0015624999999999999\n",
      "note_off channel=9 note=49 velocity=0 time=0\n",
      "note_off channel=9 note=70 velocity=0 time=0\n",
      "note_off channel=5 note=65 velocity=0 time=0.15312499999999998\n",
      "note_off channel=2 note=65 velocity=0 time=0\n",
      "note_on channel=9 note=70 velocity=84 time=0.13906249999999998\n",
      "note_off channel=9 note=70 velocity=0 time=0.007812499999999999\n",
      "note_on channel=9 note=40 velocity=71 time=0.1421875\n",
      "note_off channel=9 note=40 velocity=0 time=0.007812499999999999\n",
      "note_on channel=9 note=70 velocity=87 time=0.1421875\n",
      "note_on channel=9 note=40 velocity=101 time=0\n",
      "note_on channel=9 note=35 velocity=111 time=0\n",
      "note_off channel=9 note=35 velocity=0 time=0.007812499999999999\n",
      "note_off channel=9 note=40 velocity=0 time=0\n",
      "note_off channel=9 note=70 velocity=0 time=0\n",
      "note_off channel=7 note=56 velocity=0 time=0.059375\n",
      "note_off channel=7 note=65 velocity=0 time=0\n",
      "note_off channel=6 note=65 velocity=0 time=0.024999999999999998\n",
      "note_off channel=6 note=56 velocity=0 time=0.034374999999999996\n",
      "note_off channel=7 note=60 velocity=0 time=0.0031249999999999997\n",
      "note_off channel=6 note=53 velocity=0 time=0.0062499999999999995\n",
      "note_off channel=6 note=60 velocity=0 time=0.0062499999999999995\n",
      "note_off channel=1 note=29 velocity=0 time=0.028124999999999997\n",
      "note_off channel=6 note=41 velocity=0 time=0.04375\n",
      "note_on channel=7 note=67 velocity=98 time=0.0828125\n",
      "note_on channel=7 note=58 velocity=93 time=0\n",
      "note_on channel=6 note=67 velocity=89 time=0\n",
      "note_on channel=6 note=62 velocity=91 time=0\n",
      "note_on channel=6 note=58 velocity=91 time=0\n",
      "note_on channel=6 note=55 velocity=87 time=0\n",
      "note_on channel=6 note=43 velocity=77 time=0\n",
      "note_on channel=9 note=70 velocity=72 time=0.0031249999999999997\n",
      "note_on channel=9 note=57 velocity=62 time=0\n",
      "note_on channel=9 note=35 velocity=113 time=0\n",
      "note_on channel=7 note=62 velocity=108 time=0\n",
      "note_on channel=1 note=31 velocity=105 time=0\n",
      "note_off channel=9 note=35 velocity=0 time=0.007812499999999999\n",
      "note_off channel=9 note=57 velocity=0 time=0\n",
      "note_off channel=9 note=70 velocity=0 time=0\n",
      "note_on channel=9 note=70 velocity=91 time=0.2921875\n",
      "note_off channel=9 note=70 velocity=0 time=0.007812499999999999\n",
      "note_off channel=6 note=62 velocity=0 time=0.08124999999999999\n",
      "note_on channel=5 note=67 velocity=123 time=0.05468749999999999\n",
      "note_on channel=2 note=67 velocity=108 time=0\n",
      "note_on channel=9 note=40 velocity=81 time=0.0062499999999999995\n",
      "note_off channel=9 note=40 velocity=0 time=0.007812499999999999\n",
      "note_on channel=6 note=62 velocity=16 time=0.12031249999999999\n",
      "note_off channel=5 note=67 velocity=0 time=0.0046875\n",
      "note_off channel=2 note=67 velocity=0 time=0\n",
      "note_on channel=5 note=70 velocity=122 time=0.0109375\n",
      "note_on channel=2 note=70 velocity=107 time=0\n",
      "note_on channel=9 note=70 velocity=78 time=0.0062499999999999995\n",
      "note_on channel=9 note=40 velocity=111 time=0\n",
      "note_off channel=9 note=40 velocity=0 time=0.007812499999999999\n",
      "note_off channel=9 note=70 velocity=0 time=0\n",
      "note_off channel=5 note=70 velocity=0 time=0.12499999999999999\n",
      "note_off channel=2 note=70 velocity=0 time=0\n",
      "note_on channel=5 note=72 velocity=116 time=0.0109375\n",
      "note_on channel=2 note=72 velocity=101 time=0\n",
      "note_off channel=5 note=72 velocity=0 time=0.13906249999999998\n",
      "note_off channel=2 note=72 velocity=0 time=0\n",
      "note_on channel=5 note=74 velocity=122 time=0.0109375\n",
      "note_on channel=2 note=74 velocity=107 time=0\n",
      "note_on channel=9 note=35 velocity=111 time=0.0031249999999999997\n",
      "note_on channel=9 note=70 velocity=94 time=0.0031249999999999997\n",
      "note_on channel=9 note=47 velocity=108 time=0\n",
      "note_off channel=9 note=35 velocity=0 time=0.0046875\n",
      "note_off channel=9 note=47 velocity=0 time=0.0031249999999999997\n",
      "note_off channel=9 note=70 velocity=0 time=0\n",
      "note_on channel=5 note=77 velocity=116 time=0.1359375\n",
      "note_on channel=2 note=77 velocity=101 time=0\n",
      "note_off channel=5 note=74 velocity=0 time=0.0046875\n",
      "note_off channel=2 note=74 velocity=0 time=0\n",
      "note_off channel=6 note=62 velocity=0 time=0.09999999999999999\n",
      "note_off channel=7 note=62 velocity=0 time=0.009375\n",
      "note_off channel=6 note=58 velocity=0 time=0.009375\n",
      "note_off channel=5 note=77 velocity=0 time=0.015624999999999998\n",
      "note_off channel=2 note=77 velocity=0 time=0\n",
      "note_off channel=6 note=67 velocity=0 time=0.0031249999999999997\n",
      "note_on channel=5 note=70 velocity=120 time=0.007812499999999999\n",
      "note_on channel=2 note=70 velocity=105 time=0\n",
      "note_on channel=9 note=70 velocity=80 time=0.0062499999999999995\n",
      "note_on channel=9 note=43 velocity=99 time=0\n",
      "note_off channel=9 note=43 velocity=0 time=0.007812499999999999\n",
      "note_off channel=9 note=70 velocity=0 time=0\n",
      "note_off channel=7 note=67 velocity=0 time=0.012499999999999999\n",
      "note_off channel=6 note=55 velocity=0 time=0.0031249999999999997\n",
      "note_off channel=7 note=58 velocity=0 time=0.012499999999999999\n",
      "note_off channel=6 note=43 velocity=0 time=0.056249999999999994\n",
      "note_off channel=5 note=70 velocity=0 time=0.040624999999999994\n",
      "note_off channel=2 note=70 velocity=0 time=0\n",
      "note_on channel=5 note=72 velocity=118 time=0.0109375\n",
      "note_on channel=2 note=72 velocity=103 time=0\n",
      "note_on channel=9 note=43 velocity=64 time=0.0062499999999999995\n",
      "note_off channel=9 note=43 velocity=0 time=0.007812499999999999\n",
      "note_off channel=1 note=31 velocity=0 time=0.015624999999999998\n",
      "note_off channel=5 note=72 velocity=0 time=0.10625\n",
      "note_off channel=2 note=72 velocity=0 time=0\n",
      "note_on channel=6 note=68 velocity=99 time=0.007812499999999999\n",
      "note_on channel=6 note=56 velocity=85 time=0\n",
      "note_on channel=6 note=63 velocity=113 time=0.0031249999999999997\n",
      "note_on channel=6 note=60 velocity=89 time=0\n",
      "note_on channel=6 note=44 velocity=78 time=0\n",
      "note_on channel=5 note=82 velocity=123 time=0\n",
      "note_on channel=2 note=82 velocity=108 time=0\n",
      "note_on channel=9 note=70 velocity=85 time=0.009375\n",
      "note_on channel=9 note=49 velocity=70 time=0\n",
      "note_on channel=9 note=35 velocity=114 time=0\n",
      "note_on channel=1 note=32 velocity=96 time=0\n",
      "note_off channel=9 note=35 velocity=0 time=0.007812499999999999\n",
      "note_off channel=9 note=49 velocity=0 time=0\n",
      "note_off channel=9 note=70 velocity=0 time=0\n",
      "note_on channel=7 note=68 velocity=92 time=0.0015624999999999999\n",
      "note_on channel=7 note=63 velocity=85 time=0\n",
      "note_on channel=7 note=60 velocity=85 time=0\n",
      "note_off channel=5 note=82 velocity=0 time=0.11718749999999999\n",
      "note_off channel=2 note=82 velocity=0 time=0\n",
      "note_on channel=5 note=82 velocity=123 time=0.014062499999999999\n",
      "note_on channel=2 note=82 velocity=108 time=0\n",
      "note_off channel=5 note=82 velocity=0 time=0.1359375\n",
      "note_off channel=2 note=82 velocity=0 time=0\n",
      "note_on channel=5 note=82 velocity=123 time=0.014062499999999999\n",
      "note_on channel=2 note=82 velocity=108 time=0\n",
      "note_on channel=9 note=70 velocity=82 time=0.009375\n",
      "note_on channel=9 note=40 velocity=42 time=0\n",
      "note_off channel=9 note=40 velocity=0 time=0.007812499999999999\n",
      "note_off channel=9 note=70 velocity=0 time=0\n",
      "note_off channel=5 note=82 velocity=0 time=0.11875\n",
      "note_off channel=2 note=82 velocity=0 time=0\n",
      "note_on channel=5 note=82 velocity=118 time=0.014062499999999999\n",
      "note_on channel=2 note=82 velocity=103 time=0\n",
      "note_on channel=9 note=40 velocity=71 time=0.009375\n",
      "note_off channel=9 note=40 velocity=0 time=0.007812499999999999\n",
      "note_off channel=5 note=82 velocity=0 time=0.11249999999999999\n",
      "note_off channel=2 note=82 velocity=0 time=0\n",
      "note_on channel=5 note=82 velocity=116 time=0.020312499999999997\n",
      "note_on channel=2 note=82 velocity=101 time=0\n",
      "note_on channel=9 note=70 velocity=91 time=0.009375\n",
      "note_on channel=9 note=40 velocity=101 time=0\n",
      "note_on channel=9 note=35 velocity=111 time=0\n",
      "note_off channel=9 note=35 velocity=0 time=0.007812499999999999\n",
      "note_off channel=9 note=40 velocity=0 time=0\n",
      "note_off channel=9 note=70 velocity=0 time=0\n",
      "note_off channel=6 note=68 velocity=0 time=0.021875\n",
      "note_off channel=6 note=60 velocity=0 time=0.0031249999999999997\n",
      "note_off channel=7 note=60 velocity=0 time=0.012499999999999999\n",
      "note_off channel=7 note=68 velocity=0 time=0.012499999999999999\n",
      "note_off channel=6 note=63 velocity=0 time=0.012499999999999999\n",
      "note_off channel=6 note=56 velocity=0 time=0.040624999999999994\n",
      "note_off channel=6 note=44 velocity=0 time=0.04687499999999999\n",
      "note_off channel=1 note=32 velocity=0 time=0.0062499999999999995\n",
      "note_off channel=7 note=63 velocity=0 time=0.0375\n",
      "note_off channel=5 note=82 velocity=0 time=0.075\n",
      "note_off channel=2 note=82 velocity=0 time=0\n",
      "note_on channel=5 note=82 velocity=118 time=0.014062499999999999\n",
      "note_on channel=2 note=82 velocity=103 time=0\n",
      "note_on channel=6 note=68 velocity=78 time=0.0031249999999999997\n",
      "note_on channel=6 note=58 velocity=105 time=0.0031249999999999997\n",
      "note_on channel=6 note=46 velocity=94 time=0\n",
      "note_on channel=9 note=70 velocity=81 time=0.0031249999999999997\n",
      "note_on channel=9 note=57 velocity=62 time=0\n",
      "note_on channel=9 note=35 velocity=113 time=0\n",
      "note_on channel=6 note=63 velocity=69 time=0\n",
      "note_on channel=1 note=34 velocity=104 time=0\n",
      "note_on channel=6 note=65 velocity=89 time=0.0062499999999999995\n",
      "note_off channel=9 note=35 velocity=0 time=0.0015624999999999999\n",
      "note_off channel=9 note=57 velocity=0 time=0\n",
      "note_off channel=9 note=70 velocity=0 time=0\n",
      "note_on channel=7 note=70 velocity=84 time=0.0015624999999999999\n",
      "note_on channel=7 note=65 velocity=94 time=0\n",
      "note_on channel=7 note=63 velocity=85 time=0\n",
      "note_off channel=1 note=34 velocity=0 time=0.28281249999999997\n",
      "note_on channel=9 note=70 velocity=85 time=0.007812499999999999\n",
      "note_on channel=9 note=47 velocity=66 time=0\n",
      "note_on channel=1 note=46 velocity=99 time=0\n",
      "note_off channel=9 note=47 velocity=0 time=0.007812499999999999\n",
      "note_off channel=9 note=70 velocity=0 time=0\n",
      "note_on channel=9 note=47 velocity=81 time=0.1421875\n",
      "note_off channel=9 note=47 velocity=0 time=0.007812499999999999\n",
      "note_off channel=1 note=46 velocity=0 time=0.134375\n",
      "note_on channel=9 note=70 velocity=80 time=0.007812499999999999\n",
      "note_on channel=9 note=47 velocity=101 time=0\n",
      "note_on channel=1 note=44 velocity=52 time=0\n",
      "note_off channel=9 note=47 velocity=0 time=0.007812499999999999\n",
      "note_off channel=9 note=70 velocity=0 time=0\n",
      "note_off channel=1 note=44 velocity=0 time=0.09374999999999999\n",
      "note_off channel=5 note=82 velocity=0 time=0.028124999999999997\n",
      "note_off channel=2 note=82 velocity=0 time=0\n",
      "note_on channel=1 note=45 velocity=79 time=0.020312499999999997\n",
      "note_off channel=1 note=45 velocity=0 time=0.0984375\n",
      "note_on channel=5 note=70 velocity=123 time=0.042187499999999996\n",
      "note_on channel=2 note=70 velocity=108 time=0\n",
      "note_on channel=9 note=35 velocity=111 time=0.0062499999999999995\n",
      "note_on channel=9 note=70 velocity=91 time=0.0031249999999999997\n",
      "note_on channel=9 note=43 velocity=108 time=0\n",
      "note_on channel=1 note=46 velocity=94 time=0\n",
      "note_off channel=9 note=35 velocity=0 time=0.0046875\n",
      "note_off channel=9 note=43 velocity=0 time=0.0031249999999999997\n",
      "note_off channel=9 note=70 velocity=0 time=0\n",
      "note_off channel=5 note=70 velocity=0 time=0.11875\n",
      "note_off channel=2 note=70 velocity=0 time=0\n",
      "note_on channel=5 note=72 velocity=123 time=0.014062499999999999\n",
      "note_on channel=2 note=72 velocity=108 time=0\n",
      "note_off channel=1 note=46 velocity=0 time=0.10156249999999999\n",
      "note_off channel=5 note=72 velocity=0 time=0.034374999999999996\n",
      "note_off channel=2 note=72 velocity=0 time=0\n",
      "note_on channel=5 note=75 velocity=123 time=0.014062499999999999\n",
      "note_on channel=2 note=75 velocity=108 time=0\n",
      "note_on channel=9 note=70 velocity=84 time=0.009375\n",
      "note_on channel=9 note=46 velocity=62 time=0\n",
      "note_on channel=9 note=43 velocity=95 time=0\n",
      "note_on channel=1 note=34 velocity=102 time=0\n",
      "note_off channel=9 note=43 velocity=0 time=0.007812499999999999\n",
      "note_off channel=9 note=46 velocity=0 time=0\n",
      "note_off channel=9 note=70 velocity=0 time=0\n",
      "note_off channel=7 note=63 velocity=0 time=0.04687499999999999\n",
      "note_off channel=7 note=65 velocity=0 time=0\n",
      "note_off channel=7 note=70 velocity=0 time=0.024999999999999998\n",
      "note_off channel=6 note=65 velocity=0 time=0.04687499999999999\n",
      "note_off channel=5 note=75 velocity=0 time=0\n",
      "note_off channel=2 note=75 velocity=0 time=0\n",
      "note_on channel=9 note=43 velocity=72 time=0.023437499999999997\n",
      "note_off channel=9 note=43 velocity=0 time=0.007812499999999999\n",
      "note_off channel=6 note=63 velocity=0 time=0.015624999999999998\n",
      "note_off channel=6 note=58 velocity=0 time=0.0062499999999999995\n",
      "note_off channel=6 note=46 velocity=0 time=0.04687499999999999\n",
      "note_off channel=6 note=68 velocity=0 time=0.015624999999999998\n",
      "note_off channel=1 note=34 velocity=0 time=0.0062499999999999995\n",
      "note_on channel=9 note=70 velocity=97 time=0.0515625\n",
      "note_on channel=9 note=64 velocity=52 time=0\n",
      "note_on channel=9 note=49 velocity=56 time=0\n",
      "note_on channel=9 note=35 velocity=111 time=0\n",
      "note_on channel=6 note=65 velocity=120 time=0\n",
      "note_on channel=6 note=62 velocity=120 time=0\n",
      "note_on channel=6 note=58 velocity=118 time=0\n",
      "note_on channel=5 note=77 velocity=124 time=0\n",
      "note_on channel=5 note=74 velocity=118 time=0\n",
      "note_on channel=2 note=77 velocity=124 time=0\n",
      "note_on channel=1 note=39 velocity=120 time=0\n",
      "note_on channel=7 note=67 velocity=65 time=0.0062499999999999995\n",
      "note_on channel=7 note=58 velocity=77 time=0\n",
      "note_off channel=9 note=35 velocity=0 time=0.0015624999999999999\n",
      "note_off channel=9 note=49 velocity=0 time=0\n",
      "note_off channel=9 note=64 velocity=0 time=0\n",
      "note_off channel=9 note=70 velocity=0 time=0\n",
      "note_off channel=7 note=67 velocity=0 time=0.040624999999999994\n",
      "note_off channel=7 note=58 velocity=0 time=0.0031249999999999997\n",
      "note_off channel=1 note=39 velocity=0 time=0.0875\n",
      "note_on channel=9 note=64 velocity=29 time=0.0109375\n",
      "note_off channel=9 note=64 velocity=0 time=0.007812499999999999\n",
      "note_on channel=9 note=70 velocity=84 time=0.1421875\n",
      "note_on channel=9 note=64 velocity=48 time=0\n",
      "note_on channel=9 note=42 velocity=72 time=0\n",
      "note_on channel=1 note=39 velocity=121 time=0\n",
      "note_off channel=9 note=42 velocity=0 time=0.007812499999999999\n",
      "note_off channel=9 note=64 velocity=0 time=0\n",
      "note_off channel=9 note=70 velocity=0 time=0\n",
      "note_on channel=7 note=63 velocity=94 time=0.0015624999999999999\n",
      "note_off channel=7 note=63 velocity=0 time=0.017187499999999998\n",
      "note_off channel=5 note=77 velocity=0 time=0.075\n",
      "note_off channel=2 note=77 velocity=0 time=0\n",
      "note_off channel=5 note=74 velocity=0 time=0.0375\n",
      "note_on channel=9 note=63 velocity=46 time=0.0109375\n",
      "note_on channel=9 note=42 velocity=53 time=0\n",
      "note_on channel=7 note=63 velocity=98 time=0.0062499999999999995\n",
      "note_off channel=9 note=42 velocity=0 time=0.0015624999999999999\n",
      "note_off channel=9 note=63 velocity=0 time=0\n",
      "note_off channel=7 note=63 velocity=0 time=0\n",
      "note_on channel=9 note=70 velocity=87 time=0.1421875\n",
      "note_on channel=9 note=63 velocity=64 time=0\n",
      "note_on channel=9 note=42 velocity=72 time=0\n",
      "note_on channel=9 note=40 velocity=111 time=0\n",
      "note_on channel=9 note=35 velocity=111 time=0\n",
      "note_on channel=7 note=67 velocity=115 time=0.0031249999999999997\n",
      "note_on channel=7 note=63 velocity=124 time=0\n",
      "note_on channel=7 note=58 velocity=113 time=0.0031249999999999997\n",
      "note_on channel=2 note=82 velocity=124 time=0\n",
      "note_off channel=9 note=35 velocity=0 time=0.0015624999999999999\n",
      "note_off channel=9 note=40 velocity=0 time=0\n",
      "note_off channel=9 note=42 velocity=0 time=0\n",
      "note_off channel=9 note=63 velocity=0 time=0\n",
      "note_off channel=9 note=70 velocity=0 time=0\n",
      "note_on channel=5 note=82 velocity=124 time=0.007812499999999999\n",
      "note_off channel=2 note=82 velocity=0 time=0.0515625\n",
      "note_off channel=5 note=82 velocity=0 time=0.009375\n",
      "note_off channel=6 note=58 velocity=0 time=0.06562499999999999\n",
      "note_on channel=9 note=63 velocity=30 time=0.007812499999999999\n",
      "note_off channel=7 note=63 velocity=0 time=0.0015624999999999999\n",
      "note_off channel=6 note=65 velocity=0 time=0\n",
      "note_off channel=6 note=62 velocity=0 time=0.0031249999999999997\n",
      "note_off channel=9 note=63 velocity=0 time=0.0031249999999999997\n",
      "note_off channel=7 note=58 velocity=0 time=0.028124999999999997\n",
      "note_off channel=7 note=67 velocity=0 time=0.024999999999999998\n",
      "note_off channel=1 note=39 velocity=0 time=0.056249999999999994\n",
      "note_on channel=6 note=67 velocity=118 time=0.0296875\n",
      "note_on channel=6 note=58 velocity=112 time=0\n",
      "note_on channel=9 note=70 velocity=72 time=0.0031249999999999997\n",
      "note_on channel=9 note=63 velocity=49 time=0\n",
      "note_on channel=9 note=42 velocity=72 time=0\n",
      "note_on channel=7 note=63 velocity=93 time=0\n",
      "note_on channel=6 note=63 velocity=116 time=0\n",
      "note_on channel=5 note=75 velocity=113 time=0\n",
      "note_on channel=1 note=34 velocity=119 time=0\n",
      "note_on channel=2 note=79 velocity=122 time=0.0031249999999999997\n",
      "note_off channel=7 note=63 velocity=0 time=0.0015624999999999999\n",
      "note_on channel=5 note=79 velocity=122 time=0.0015624999999999999\n",
      "note_off channel=9 note=42 velocity=0 time=0.0015624999999999999\n",
      "note_off channel=9 note=63 velocity=0 time=0\n",
      "note_off channel=9 note=70 velocity=0 time=0\n",
      "note_on channel=7 note=63 velocity=62 time=0.1328125\n",
      "note_on channel=9 note=63 velocity=49 time=0.009375\n",
      "note_on channel=9 note=42 velocity=53 time=0\n",
      "note_off channel=9 note=42 velocity=0 time=0.007812499999999999\n",
      "note_off channel=9 note=63 velocity=0 time=0\n",
      "note_off channel=7 note=63 velocity=0 time=0.009375\n",
      "note_on channel=9 note=42 velocity=80 time=0.12968749999999998\n",
      "note_on channel=9 note=35 velocity=111 time=0\n",
      "note_on channel=9 note=70 velocity=91 time=0.0031249999999999997\n",
      "note_on channel=9 note=64 velocity=47 time=0\n",
      "note_off channel=9 note=35 velocity=0 time=0.0046875\n",
      "note_off channel=9 note=42 velocity=0 time=0\n",
      "note_on channel=7 note=63 velocity=87 time=0.0015624999999999999\n",
      "note_off channel=9 note=64 velocity=0 time=0.0015624999999999999\n",
      "note_off channel=9 note=70 velocity=0 time=0\n",
      "note_off channel=7 note=63 velocity=0 time=0.009375\n",
      "note_on channel=9 note=63 velocity=39 time=0.1328125\n",
      "note_off channel=9 note=63 velocity=0 time=0.007812499999999999\n",
      "note_off channel=1 note=34 velocity=0 time=0.11562499999999999\n",
      "note_off channel=5 note=75 velocity=0 time=0.015624999999999998\n",
      "note_on channel=9 note=70 velocity=78 time=0.0109375\n",
      "note_on channel=9 note=63 velocity=43 time=0\n",
      "note_on channel=9 note=42 velocity=72 time=0\n",
      "note_on channel=1 note=39 velocity=108 time=0\n",
      "note_on channel=7 note=63 velocity=93 time=0.0031249999999999997\n",
      "note_off channel=9 note=42 velocity=0 time=0.0046875\n",
      "note_off channel=9 note=63 velocity=0 time=0\n",
      "note_off channel=9 note=70 velocity=0 time=0\n",
      "note_off channel=7 note=63 velocity=0 time=0.0062499999999999995\n",
      "note_off channel=2 note=79 velocity=0 time=0.075\n",
      "note_off channel=5 note=79 velocity=0 time=0.0031249999999999997\n",
      "note_on channel=9 note=63 velocity=61 time=0.057812499999999996\n",
      "note_on channel=9 note=42 velocity=53 time=0\n",
      "note_on channel=7 note=63 velocity=92 time=0\n",
      "note_off channel=7 note=63 velocity=0 time=0.0046875\n",
      "note_off channel=9 note=42 velocity=0 time=0.0031249999999999997\n",
      "note_off channel=9 note=63 velocity=0 time=0\n",
      "note_on channel=5 note=70 velocity=124 time=0.1359375\n",
      "note_on channel=9 note=35 velocity=111 time=0.0031249999999999997\n",
      "note_on channel=7 note=67 velocity=105 time=0\n",
      "note_on channel=7 note=63 velocity=119 time=0\n",
      "note_on channel=7 note=58 velocity=110 time=0\n",
      "note_on channel=2 note=70 velocity=124 time=0\n",
      "note_on channel=9 note=70 velocity=94 time=0.0031249999999999997\n",
      "note_on channel=9 note=62 velocity=89 time=0\n",
      "note_on channel=9 note=42 velocity=77 time=0.0031249999999999997\n",
      "note_on channel=9 note=40 velocity=108 time=0\n",
      "note_off channel=9 note=35 velocity=0 time=0.0015624999999999999\n",
      "note_off channel=9 note=62 velocity=0 time=0.0031249999999999997\n",
      "note_off channel=9 note=70 velocity=0 time=0\n",
      "note_off channel=9 note=40 velocity=0 time=0.0031249999999999997\n",
      "note_off channel=9 note=42 velocity=0 time=0\n",
      "note_off channel=5 note=70 velocity=0 time=0.09374999999999999\n",
      "note_off channel=2 note=70 velocity=0 time=0.0031249999999999997\n",
      "note_off channel=7 note=63 velocity=0 time=0.01875\n",
      "note_on channel=5 note=72 velocity=114 time=0.007812499999999999\n",
      "note_on channel=2 note=72 velocity=114 time=0.0062499999999999995\n",
      "note_on channel=9 note=64 velocity=32 time=0.009375\n",
      "note_off channel=7 note=58 velocity=0 time=0.0015624999999999999\n",
      "note_off channel=9 note=64 velocity=0 time=0.0062499999999999995\n",
      "note_off channel=7 note=67 velocity=0 time=0.009375\n",
      "note_off channel=5 note=72 velocity=0 time=0.059375\n",
      "note_off channel=2 note=72 velocity=0 time=0.0062499999999999995\n",
      "note_on channel=5 note=75 velocity=124 time=0.0265625\n",
      "note_on channel=2 note=75 velocity=124 time=0.01875\n",
      "note_off channel=1 note=39 velocity=0 time=0.0109375\n",
      "note_on channel=9 note=70 velocity=80 time=0.0109375\n",
      "note_on channel=9 note=63 velocity=46 time=0\n",
      "note_on channel=9 note=42 velocity=72 time=0\n",
      "note_on channel=1 note=34 velocity=105 time=0\n",
      "note_on channel=7 note=63 velocity=72 time=0.0031249999999999997\n",
      "note_off channel=9 note=42 velocity=0 time=0.0046875\n",
      "note_off channel=9 note=63 velocity=0 time=0\n",
      "note_off channel=9 note=70 velocity=0 time=0\n",
      "note_off channel=6 note=63 velocity=0 time=0.009375\n",
      "note_off channel=7 note=63 velocity=0 time=0.012499999999999999\n",
      "note_off channel=6 note=67 velocity=0 time=0.034374999999999996\n",
      "note_off channel=5 note=75 velocity=0 time=0\n",
      "note_off channel=6 note=58 velocity=0 time=0.0031249999999999997\n",
      "note_off channel=2 note=75 velocity=0 time=0.015624999999999998\n",
      "note_off channel=1 note=34 velocity=0 time=0.021875\n",
      "note_on channel=9 note=63 velocity=46 time=0.0453125\n",
      "note_on channel=9 note=42 velocity=53 time=0\n",
      "note_on channel=1 note=36 velocity=103 time=0\n",
      "note_on channel=7 note=63 velocity=96 time=0.0031249999999999997\n",
      "note_off channel=9 note=42 velocity=0 time=0.0046875\n",
      "note_off channel=9 note=63 velocity=0 time=0\n",
      "note_off channel=7 note=63 velocity=0 time=0\n",
      "note_off channel=1 note=36 velocity=0 time=0.06249999999999999\n",
      "note_on channel=6 note=65 velocity=117 time=0.07656249999999999\n",
      "note_on channel=9 note=70 velocity=85 time=0.0031249999999999997\n",
      "note_on channel=9 note=64 velocity=51 time=0\n",
      "note_on channel=6 note=62 velocity=119 time=0\n",
      "note_on channel=6 note=58 velocity=111 time=0\n",
      "note_on channel=5 note=77 velocity=123 time=0\n",
      "note_on channel=5 note=74 velocity=114 time=0\n",
      "note_on channel=2 note=77 velocity=123 time=0\n",
      "note_on channel=1 note=39 velocity=120 time=0\n",
      "note_on channel=7 note=63 velocity=72 time=0.0031249999999999997\n",
      "note_off channel=9 note=64 velocity=0 time=0.0046875\n",
      "note_off channel=9 note=70 velocity=0 time=0\n",
      "note_on channel=9 note=42 velocity=80 time=0.0015624999999999999\n",
      "note_on channel=9 note=35 velocity=111 time=0\n",
      "note_off channel=9 note=35 velocity=0 time=0.007812499999999999\n",
      "note_off channel=9 note=42 velocity=0 time=0\n",
      "note_off channel=7 note=63 velocity=0 time=0\n",
      "note_off channel=1 note=39 velocity=0 time=0.12187499999999998\n",
      "note_on channel=9 note=64 velocity=26 time=0.0109375\n",
      "note_off channel=9 note=64 velocity=0 time=0.007812499999999999\n",
      "note_on channel=9 note=70 velocity=82 time=0.1421875\n",
      "note_on channel=9 note=64 velocity=43 time=0\n",
      "note_on channel=9 note=42 velocity=72 time=0\n",
      "note_on channel=7 note=63 velocity=82 time=0\n",
      "note_on channel=1 note=39 velocity=121 time=0\n",
      "note_off channel=9 note=42 velocity=0 time=0.007812499999999999\n",
      "note_off channel=9 note=64 velocity=0 time=0\n",
      "note_off channel=9 note=70 velocity=0 time=0\n",
      "note_off channel=7 note=63 velocity=0 time=0.0031249999999999997\n",
      "note_off channel=5 note=74 velocity=0 time=0.128125\n",
      "note_on channel=7 note=63 velocity=104 time=0.007812499999999999\n",
      "note_on channel=9 note=63 velocity=44 time=0.0031249999999999997\n",
      "note_on channel=9 note=42 velocity=53 time=0\n",
      "note_off channel=9 note=42 velocity=0 time=0.007812499999999999\n",
      "note_off channel=9 note=63 velocity=0 time=0\n",
      "note_off channel=5 note=77 velocity=0 time=0\n",
      "note_off channel=2 note=77 velocity=0 time=0\n",
      "note_off channel=7 note=63 velocity=0 time=0.0031249999999999997\n",
      "note_on channel=5 note=82 velocity=124 time=0.12031249999999999\n",
      "note_on channel=2 note=82 velocity=124 time=0.009375\n",
      "note_on channel=7 note=63 velocity=113 time=0.0062499999999999995\n",
      "note_on channel=9 note=70 velocity=91 time=0.0031249999999999997\n",
      "note_on channel=9 note=63 velocity=68 time=0\n",
      "note_on channel=7 note=67 velocity=107 time=0\n",
      "note_on channel=7 note=58 velocity=104 time=0\n",
      "note_on channel=9 note=42 velocity=77 time=0.0031249999999999997\n",
      "note_on channel=9 note=40 velocity=106 time=0\n",
      "note_off channel=9 note=63 velocity=0 time=0.0046875\n",
      "note_off channel=9 note=70 velocity=0 time=0\n",
      "note_on channel=9 note=35 velocity=111 time=0.0015624999999999999\n",
      "note_off channel=9 note=40 velocity=0 time=0.0015624999999999999\n",
      "note_off channel=9 note=42 velocity=0 time=0\n",
      "note_off channel=9 note=35 velocity=0 time=0.0062499999999999995\n",
      "note_off channel=6 note=62 velocity=0 time=0.04687499999999999\n",
      "note_off channel=5 note=82 velocity=0 time=0.009375\n",
      "note_off channel=6 note=65 velocity=0 time=0.009375\n",
      "note_off channel=2 note=82 velocity=0 time=0\n",
      "note_off channel=6 note=58 velocity=0 time=0.0062499999999999995\n",
      "note_off channel=7 note=63 velocity=0 time=0.01875\n",
      "note_off channel=7 note=58 velocity=0 time=0.040624999999999994\n",
      "note_on channel=9 note=63 velocity=22 time=0.0015624999999999999\n",
      "note_on channel=7 note=63 velocity=88 time=0.0031249999999999997\n",
      "note_off channel=9 note=63 velocity=0 time=0.0046875\n",
      "note_off channel=7 note=67 velocity=0 time=0\n",
      "note_off channel=7 note=63 velocity=0 time=0.0062499999999999995\n",
      "note_off channel=1 note=39 velocity=0 time=0.103125\n",
      "note_on channel=5 note=79 velocity=122 time=0.007812499999999999\n",
      "note_on channel=2 note=79 velocity=122 time=0.012499999999999999\n",
      "note_on channel=9 note=70 velocity=81 time=0.012499999999999999\n",
      "note_on channel=9 note=63 velocity=43 time=0\n",
      "note_on channel=9 note=42 velocity=72 time=0\n",
      "note_on channel=6 note=67 velocity=117 time=0\n",
      "note_on channel=6 note=63 velocity=117 time=0\n",
      "note_on channel=6 note=58 velocity=113 time=0\n",
      "note_on channel=5 note=75 velocity=113 time=0\n",
      "note_on channel=1 note=34 velocity=119 time=0\n",
      "note_on channel=7 note=63 velocity=74 time=0.0062499999999999995\n",
      "note_off channel=9 note=42 velocity=0 time=0.0015624999999999999\n",
      "note_off channel=9 note=63 velocity=0 time=0\n",
      "note_off channel=9 note=70 velocity=0 time=0\n",
      "note_off channel=7 note=63 velocity=0 time=0.028124999999999997\n",
      "note_on channel=9 note=63 velocity=48 time=0.1140625\n",
      "note_on channel=9 note=42 velocity=53 time=0\n",
      "note_on channel=7 note=63 velocity=101 time=0.0031249999999999997\n",
      "note_off channel=9 note=42 velocity=0 time=0.0046875\n",
      "note_off channel=9 note=63 velocity=0 time=0\n",
      "note_off channel=7 note=63 velocity=0 time=0.0062499999999999995\n",
      "note_on channel=9 note=70 velocity=85 time=0.1359375\n",
      "note_on channel=9 note=64 velocity=49 time=0\n",
      "note_on channel=9 note=42 velocity=82 time=0\n",
      "note_on channel=9 note=35 velocity=111 time=0\n",
      "note_on channel=7 note=63 velocity=69 time=0.0031249999999999997\n",
      "note_off channel=9 note=35 velocity=0 time=0.0046875\n",
      "note_off channel=9 note=42 velocity=0 time=0\n",
      "note_off channel=9 note=64 velocity=0 time=0\n",
      "note_off channel=9 note=70 velocity=0 time=0\n",
      "note_off channel=7 note=63 velocity=0 time=0.015624999999999998\n",
      "note_on channel=9 note=63 velocity=43 time=0.1265625\n",
      "note_on channel=7 note=63 velocity=90 time=0.0031249999999999997\n",
      "note_off channel=9 note=63 velocity=0 time=0.0046875\n",
      "note_off channel=7 note=63 velocity=0 time=0.0031249999999999997\n",
      "note_off channel=1 note=34 velocity=0 time=0.11249999999999999\n",
      "note_on channel=9 note=70 velocity=80 time=0.0265625\n",
      "note_on channel=9 note=63 velocity=41 time=0\n",
      "note_on channel=9 note=42 velocity=72 time=0\n",
      "note_on channel=1 note=39 velocity=108 time=0\n",
      "note_on channel=7 note=63 velocity=87 time=0.0031249999999999997\n",
      "note_off channel=9 note=42 velocity=0 time=0.0046875\n",
      "note_off channel=9 note=63 velocity=0 time=0\n",
      "note_off channel=9 note=70 velocity=0 time=0\n",
      "note_off channel=7 note=63 velocity=0 time=0.0062499999999999995\n",
      "note_off channel=5 note=79 velocity=0 time=0.059375\n",
      "note_off channel=5 note=75 velocity=0 time=0.0031249999999999997\n",
      "note_off channel=2 note=79 velocity=0 time=0.0062499999999999995\n",
      "note_on channel=7 note=63 velocity=107 time=0.0640625\n",
      "note_on channel=9 note=63 velocity=59 time=0.0031249999999999997\n",
      "note_on channel=9 note=42 velocity=53 time=0\n",
      "note_off channel=9 note=42 velocity=0 time=0.007812499999999999\n",
      "note_off channel=9 note=63 velocity=0 time=0\n",
      "note_off channel=7 note=63 velocity=0 time=0\n",
      "note_on channel=5 note=70 velocity=124 time=0.12343749999999999\n",
      "note_on channel=2 note=70 velocity=124 time=0.009375\n",
      "note_on channel=7 note=67 velocity=98 time=0.0062499999999999995\n",
      "note_on channel=7 note=63 velocity=119 time=0\n",
      "note_on channel=7 note=58 velocity=112 time=0\n",
      "note_on channel=9 note=70 velocity=91 time=0.0031249999999999997\n",
      "note_on channel=9 note=62 velocity=84 time=0\n",
      "note_on channel=9 note=42 velocity=64 time=0\n",
      "note_on channel=9 note=40 velocity=111 time=0\n",
      "note_on channel=9 note=35 velocity=111 time=0\n",
      "note_off channel=9 note=35 velocity=0 time=0.007812499999999999\n",
      "note_off channel=9 note=40 velocity=0 time=0\n",
      "note_off channel=9 note=42 velocity=0 time=0\n",
      "note_off channel=9 note=62 velocity=0 time=0\n",
      "note_off channel=9 note=70 velocity=0 time=0\n",
      "note_off channel=5 note=70 velocity=0 time=0.08124999999999999\n",
      "note_off channel=2 note=70 velocity=0 time=0.009375\n",
      "note_on channel=5 note=72 velocity=115 time=0.0265625\n",
      "note_off channel=7 note=63 velocity=0 time=0.0109375\n",
      "note_on channel=2 note=72 velocity=115 time=0.0015624999999999999\n",
      "note_off channel=7 note=58 velocity=0 time=0.0109375\n",
      "note_on channel=9 note=64 velocity=30 time=0.0015624999999999999\n",
      "note_off channel=9 note=64 velocity=0 time=0.007812499999999999\n",
      "note_off channel=7 note=67 velocity=0 time=0\n",
      "note_off channel=5 note=72 velocity=0 time=0.04687499999999999\n",
      "note_off channel=2 note=72 velocity=0 time=0.009375\n",
      "note_off channel=6 note=58 velocity=0 time=0.0031249999999999997\n",
      "note_off channel=6 note=63 velocity=0 time=0.0031249999999999997\n",
      "note_off channel=6 note=67 velocity=0 time=0.012499999999999999\n",
      "note_on channel=5 note=75 velocity=125 time=0.0265625\n",
      "note_on channel=2 note=75 velocity=125 time=0.01875\n",
      "note_off channel=1 note=39 velocity=0 time=0.0109375\n",
      "note_on channel=9 note=70 velocity=84 time=0.0109375\n",
      "note_on channel=9 note=63 velocity=44 time=0\n",
      "note_on channel=9 note=42 velocity=72 time=0\n",
      "note_on channel=7 note=63 velocity=75 time=0\n",
      "note_on channel=1 note=34 velocity=105 time=0\n",
      "note_off channel=9 note=42 velocity=0 time=0.007812499999999999\n",
      "note_off channel=9 note=63 velocity=0 time=0\n",
      "note_off channel=9 note=70 velocity=0 time=0\n",
      "note_off channel=7 note=63 velocity=0 time=0.034374999999999996\n",
      "note_off channel=5 note=75 velocity=0 time=0.028124999999999997\n",
      "note_off channel=2 note=75 velocity=0 time=0.01875\n",
      "note_off channel=1 note=34 velocity=0 time=0.015624999999999998\n",
      "note_on channel=9 note=63 velocity=52 time=0.0453125\n",
      "note_on channel=9 note=42 velocity=53 time=0\n",
      "note_on channel=1 note=35 velocity=103 time=0\n",
      "note_off channel=9 note=42 velocity=0 time=0.007812499999999999\n",
      "note_off channel=9 note=63 velocity=0 time=0\n",
      "note_off channel=1 note=35 velocity=0 time=0.06249999999999999\n",
      "note_on channel=5 note=77 velocity=124 time=0.0671875\n",
      "note_on channel=2 note=77 velocity=124 time=0.0062499999999999995\n",
      "note_on channel=6 note=65 velocity=114 time=0.0031249999999999997\n",
      "note_on channel=6 note=55 velocity=115 time=0\n",
      "note_on channel=9 note=70 velocity=97 time=0.0031249999999999997\n",
      "note_on channel=9 note=64 velocity=52 time=0\n",
      "note_on channel=9 note=42 velocity=80 time=0\n",
      "note_on channel=9 note=35 velocity=110 time=0\n",
      "note_on channel=6 note=62 velocity=117 time=0\n",
      "note_on channel=6 note=60 velocity=117 time=0\n",
      "note_on channel=5 note=74 velocity=114 time=0\n",
      "note_on channel=1 note=36 velocity=120 time=0\n",
      "note_off channel=9 note=35 velocity=0 time=0.007812499999999999\n",
      "note_off channel=9 note=42 velocity=0 time=0\n",
      "note_off channel=9 note=64 velocity=0 time=0\n",
      "note_off channel=9 note=70 velocity=0 time=0\n",
      "note_off channel=1 note=36 velocity=0 time=0.13124999999999998\n",
      "note_on channel=9 note=64 velocity=29 time=0.0109375\n",
      "note_off channel=9 note=64 velocity=0 time=0.007812499999999999\n",
      "note_on channel=9 note=70 velocity=84 time=0.1421875\n",
      "note_on channel=9 note=64 velocity=48 time=0\n",
      "note_on channel=9 note=42 velocity=72 time=0\n",
      "note_on channel=7 note=60 velocity=97 time=0\n",
      "note_on channel=1 note=36 velocity=121 time=0\n",
      "note_off channel=9 note=42 velocity=0 time=0.007812499999999999\n",
      "note_off channel=9 note=64 velocity=0 time=0\n",
      "note_off channel=9 note=70 velocity=0 time=0\n",
      "note_off channel=7 note=60 velocity=0 time=0.028124999999999997\n",
      "note_off channel=5 note=74 velocity=0 time=0.103125\n",
      "note_on channel=9 note=63 velocity=46 time=0.0109375\n",
      "note_on channel=9 note=42 velocity=53 time=0\n",
      "note_on channel=7 note=60 velocity=106 time=0\n",
      "note_off channel=9 note=42 velocity=0 time=0.007812499999999999\n",
      "note_off channel=9 note=63 velocity=0 time=0\n",
      "note_off channel=7 note=60 velocity=0 time=0.015624999999999998\n",
      "note_off channel=5 note=77 velocity=0 time=0.01875\n",
      "note_off channel=2 note=77 velocity=0 time=0.0062499999999999995\n",
      "note_on channel=9 note=70 velocity=87 time=0.10156249999999999\n",
      "note_on channel=9 note=63 velocity=64 time=0\n",
      "note_on channel=9 note=42 velocity=72 time=0\n",
      "note_on channel=9 note=40 velocity=111 time=0\n",
      "note_on channel=9 note=35 velocity=110 time=0\n",
      "note_on channel=7 note=67 velocity=106 time=0\n",
      "note_on channel=7 note=63 velocity=113 time=0\n",
      "note_on channel=7 note=60 velocity=107 time=0\n",
      "note_on channel=5 note=79 velocity=124 time=0.0031249999999999997\n",
      "note_on channel=2 note=79 velocity=124 time=0\n",
      "note_off channel=9 note=35 velocity=0 time=0.0046875\n",
      "note_off channel=9 note=40 velocity=0 time=0\n",
      "note_off channel=9 note=42 velocity=0 time=0\n",
      "note_off channel=9 note=63 velocity=0 time=0\n",
      "note_off channel=9 note=70 velocity=0 time=0\n",
      "note_off channel=6 note=62 velocity=0 time=0.053125\n",
      "note_off channel=6 note=55 velocity=0 time=0.021875\n",
      "note_off channel=2 note=79 velocity=0 time=0.0031249999999999997\n",
      "note_off channel=5 note=79 velocity=0 time=0.0031249999999999997\n",
      "note_off channel=6 note=65 velocity=0 time=0.0062499999999999995\n",
      "note_off channel=6 note=60 velocity=0 time=0.0375\n",
      "note_off channel=7 note=63 velocity=0 time=0.0062499999999999995\n",
      "note_on channel=9 note=63 velocity=30 time=0.0109375\n",
      "note_off channel=7 note=60 velocity=0 time=0.0015624999999999999\n",
      "note_off channel=9 note=63 velocity=0 time=0.0062499999999999995\n",
      "note_off channel=7 note=67 velocity=0 time=0.0062499999999999995\n",
      "note_off channel=1 note=36 velocity=0 time=0.103125\n",
      "note_on channel=9 note=70 velocity=72 time=0.032812499999999994\n",
      "note_on channel=9 note=63 velocity=49 time=0\n",
      "note_on channel=9 note=42 velocity=72 time=0\n",
      "note_on channel=5 note=72 velocity=109 time=0\n",
      "note_on channel=1 note=31 velocity=120 time=0\n",
      "note_on channel=6 note=67 velocity=113 time=0.0031249999999999997\n",
      "note_on channel=6 note=63 velocity=111 time=0\n",
      "note_on channel=6 note=60 velocity=117 time=0\n",
      "note_on channel=6 note=55 velocity=116 time=0\n",
      "note_on channel=5 note=75 velocity=123 time=0\n",
      "note_on channel=2 note=75 velocity=123 time=0\n",
      "note_on channel=7 note=60 velocity=76 time=0.0031249999999999997\n",
      "note_off channel=9 note=42 velocity=0 time=0.0015624999999999999\n",
      "note_off channel=9 note=63 velocity=0 time=0\n",
      "note_off channel=9 note=70 velocity=0 time=0\n",
      "note_off channel=7 note=60 velocity=0 time=0.034374999999999996\n",
      "note_on channel=9 note=63 velocity=49 time=0.10781249999999999\n",
      "note_on channel=9 note=42 velocity=53 time=0\n",
      "note_on channel=7 note=60 velocity=87 time=0.0062499999999999995\n",
      "note_off channel=9 note=42 velocity=0 time=0.0015624999999999999\n",
      "note_off channel=9 note=63 velocity=0 time=0\n",
      "note_off channel=7 note=60 velocity=0 time=0.015624999999999998\n",
      "note_on channel=9 note=42 velocity=77 time=0.12343749999999999\n",
      "note_on channel=9 note=70 velocity=91 time=0.0031249999999999997\n",
      "note_on channel=9 note=64 velocity=47 time=0\n",
      "note_on channel=9 note=35 velocity=111 time=0\n",
      "note_off channel=9 note=42 velocity=0 time=0.0046875\n",
      "note_on channel=7 note=60 velocity=76 time=0.0015624999999999999\n",
      "note_off channel=9 note=35 velocity=0 time=0.0015624999999999999\n",
      "note_off channel=9 note=64 velocity=0 time=0\n",
      "note_off channel=9 note=70 velocity=0 time=0\n",
      "note_off channel=7 note=60 velocity=0 time=0.024999999999999998\n",
      "note_on channel=9 note=63 velocity=39 time=0.11718749999999999\n",
      "note_off channel=9 note=63 velocity=0 time=0.007812499999999999\n",
      "note_off channel=1 note=31 velocity=0 time=0.06562499999999999\n",
      "note_off channel=5 note=72 velocity=0 time=0.06562499999999999\n",
      "note_on channel=9 note=70 velocity=78 time=0.0109375\n",
      "note_on channel=9 note=63 velocity=43 time=0\n",
      "note_on channel=9 note=42 velocity=72 time=0\n",
      "note_on channel=1 note=36 velocity=116 time=0\n",
      "note_on channel=7 note=60 velocity=83 time=0.0031249999999999997\n",
      "note_off channel=9 note=42 velocity=0 time=0.0046875\n",
      "note_off channel=9 note=63 velocity=0 time=0\n",
      "note_off channel=9 note=70 velocity=0 time=0\n",
      "note_off channel=7 note=60 velocity=0 time=0.021875\n",
      "note_off channel=5 note=75 velocity=0 time=0.09374999999999999\n",
      "note_off channel=2 note=75 velocity=0 time=0\n",
      "note_on channel=9 note=63 velocity=61 time=0.0265625\n",
      "note_on channel=9 note=42 velocity=53 time=0\n",
      "note_off channel=9 note=42 velocity=0 time=0.007812499999999999\n",
      "note_off channel=9 note=63 velocity=0 time=0\n",
      "note_on channel=7 note=60 velocity=103 time=0.13906249999999998\n",
      "note_on channel=9 note=70 velocity=94 time=0.0031249999999999997\n",
      "note_on channel=9 note=62 velocity=89 time=0\n",
      "note_on channel=9 note=35 velocity=111 time=0\n",
      "note_on channel=7 note=67 velocity=108 time=0\n",
      "note_on channel=7 note=63 velocity=112 time=0\n",
      "note_on channel=9 note=42 velocity=77 time=0.0031249999999999997\n",
      "note_on channel=9 note=40 velocity=108 time=0\n",
      "note_off channel=9 note=35 velocity=0 time=0.0046875\n",
      "note_off channel=9 note=62 velocity=0 time=0\n",
      "note_off channel=9 note=70 velocity=0 time=0\n",
      "note_off channel=9 note=40 velocity=0 time=0.0031249999999999997\n",
      "note_off channel=9 note=42 velocity=0 time=0\n",
      "note_on channel=2 note=77 velocity=122 time=0.0015624999999999999\n",
      "note_on channel=5 note=77 velocity=122 time=0.015624999999999998\n",
      "note_off channel=2 note=77 velocity=0 time=0.07343749999999999\n",
      "note_off channel=5 note=77 velocity=0 time=0.012499999999999999\n",
      "note_off channel=7 note=63 velocity=0 time=0.0031249999999999997\n",
      "note_off channel=1 note=36 velocity=0 time=0.0062499999999999995\n",
      "note_off channel=7 note=60 velocity=0 time=0.012499999999999999\n",
      "note_on channel=5 note=75 velocity=117 time=0.007812499999999999\n",
      "note_off channel=7 note=67 velocity=0 time=0.0015624999999999999\n",
      "note_on channel=2 note=75 velocity=117 time=0.0015624999999999999\n",
      "note_on channel=9 note=64 velocity=32 time=0.0031249999999999997\n",
      "note_off channel=9 note=64 velocity=0 time=0.007812499999999999\n",
      "note_off channel=5 note=75 velocity=0 time=0.0875\n",
      "note_off channel=2 note=75 velocity=0 time=0\n",
      "note_on channel=5 note=72 velocity=123 time=0.0453125\n",
      "note_on channel=2 note=72 velocity=123 time=0.0031249999999999997\n",
      "note_on channel=9 note=70 velocity=80 time=0.0062499999999999995\n",
      "note_on channel=9 note=63 velocity=46 time=0\n",
      "note_on channel=9 note=42 velocity=72 time=0\n",
      "note_on channel=7 note=60 velocity=59 time=0\n",
      "note_on channel=1 note=31 velocity=120 time=0\n",
      "note_off channel=9 note=42 velocity=0 time=0.007812499999999999\n",
      "note_off channel=9 note=63 velocity=0 time=0\n",
      "note_off channel=9 note=70 velocity=0 time=0\n",
      "note_off channel=6 note=55 velocity=0 time=0.024999999999999998\n",
      "note_off channel=6 note=60 velocity=0 time=0\n",
      "note_off channel=6 note=63 velocity=0 time=0\n",
      "note_off channel=6 note=67 velocity=0 time=0.0031249999999999997\n",
      "note_off channel=7 note=60 velocity=0 time=0.0062499999999999995\n",
      "note_off channel=1 note=31 velocity=0 time=0.024999999999999998\n",
      "note_off channel=5 note=72 velocity=0 time=0.01875\n",
      "note_off channel=2 note=72 velocity=0 time=0.0031249999999999997\n",
      "note_on channel=9 note=63 velocity=46 time=0.06093749999999999\n",
      "note_on channel=9 note=42 velocity=53 time=0\n",
      "note_on channel=1 note=34 velocity=122 time=0\n",
      "note_off channel=9 note=42 velocity=0 time=0.007812499999999999\n",
      "note_off channel=9 note=63 velocity=0 time=0\n",
      "note_off channel=1 note=34 velocity=0 time=0.056249999999999994\n",
      "note_on channel=6 note=65 velocity=116 time=0.0796875\n",
      "note_on channel=6 note=62 velocity=116 time=0\n",
      "note_on channel=6 note=60 velocity=115 time=0\n",
      "note_on channel=7 note=60 velocity=91 time=0.0031249999999999997\n",
      "note_on channel=6 note=55 velocity=114 time=0\n",
      "note_on channel=5 note=77 velocity=123 time=0\n",
      "note_on channel=2 note=77 velocity=123 time=0\n",
      "note_on channel=9 note=70 velocity=85 time=0.0031249999999999997\n",
      "note_on channel=9 note=64 velocity=51 time=0\n",
      "note_on channel=5 note=74 velocity=117 time=0\n",
      "note_on channel=1 note=36 velocity=120 time=0\n",
      "note_off channel=9 note=64 velocity=0 time=0.007812499999999999\n",
      "note_off channel=9 note=70 velocity=0 time=0\n",
      "note_on channel=9 note=42 velocity=68 time=0.0015624999999999999\n",
      "note_on channel=9 note=35 velocity=111 time=0\n",
      "note_off channel=9 note=35 velocity=0 time=0.007812499999999999\n",
      "note_off channel=9 note=42 velocity=0 time=0\n",
      "note_off channel=7 note=60 velocity=0 time=0.021875\n",
      "note_off channel=1 note=36 velocity=0 time=0.09999999999999999\n",
      "note_on channel=7 note=60 velocity=92 time=0.007812499999999999\n",
      "note_on channel=9 note=64 velocity=26 time=0.0031249999999999997\n",
      "note_off channel=9 note=64 velocity=0 time=0.007812499999999999\n",
      "note_off channel=7 note=60 velocity=0 time=0.009375\n",
      "note_on channel=7 note=60 velocity=89 time=0.1265625\n",
      "note_on channel=9 note=70 velocity=82 time=0.0062499999999999995\n",
      "note_on channel=9 note=64 velocity=43 time=0\n",
      "note_on channel=9 note=42 velocity=72 time=0\n",
      "note_on channel=1 note=36 velocity=121 time=0\n",
      "note_off channel=9 note=42 velocity=0 time=0.007812499999999999\n",
      "note_off channel=9 note=64 velocity=0 time=0\n",
      "note_off channel=9 note=70 velocity=0 time=0\n",
      "note_off channel=7 note=60 velocity=0 time=0.031249999999999997\n",
      "note_off channel=5 note=74 velocity=0 time=0.09999999999999999\n",
      "note_on channel=7 note=60 velocity=108 time=0.007812499999999999\n",
      "note_on channel=9 note=63 velocity=44 time=0.0031249999999999997\n",
      "note_on channel=9 note=42 velocity=53 time=0\n",
      "note_off channel=9 note=42 velocity=0 time=0.007812499999999999\n",
      "note_off channel=9 note=63 velocity=0 time=0\n",
      "note_off channel=5 note=77 velocity=0 time=0.0031249999999999997\n",
      "note_off channel=2 note=77 velocity=0 time=0.0031249999999999997\n",
      "note_off channel=7 note=60 velocity=0 time=0.0031249999999999997\n",
      "note_on channel=7 note=67 velocity=110 time=0.1265625\n",
      "note_on channel=7 note=63 velocity=119 time=0\n",
      "note_on channel=7 note=60 velocity=108 time=0\n",
      "note_on channel=9 note=70 velocity=91 time=0.0062499999999999995\n",
      "note_on channel=9 note=63 velocity=68 time=0\n",
      "note_on channel=9 note=42 velocity=77 time=0.0031249999999999997\n",
      "note_on channel=9 note=40 velocity=106 time=0\n",
      "note_on channel=5 note=79 velocity=121 time=0\n",
      "note_on channel=2 note=79 velocity=121 time=0\n",
      "note_off channel=9 note=63 velocity=0 time=0.0046875\n",
      "note_off channel=9 note=70 velocity=0 time=0\n",
      "note_on channel=9 note=35 velocity=111 time=0.0015624999999999999\n",
      "note_off channel=9 note=40 velocity=0 time=0.0015624999999999999\n",
      "note_off channel=9 note=42 velocity=0 time=0\n",
      "note_off channel=9 note=35 velocity=0 time=0.0062499999999999995\n",
      "note_off channel=6 note=62 velocity=0 time=0.04375\n",
      "note_off channel=6 note=65 velocity=0 time=0.024999999999999998\n",
      "note_off channel=6 note=55 velocity=0 time=0.0031249999999999997\n",
      "note_off channel=2 note=79 velocity=0 time=0.009375\n",
      "note_off channel=6 note=60 velocity=0 time=0.0031249999999999997\n",
      "note_off channel=5 note=79 velocity=0 time=0\n",
      "note_off channel=7 note=63 velocity=0 time=0.040624999999999994\n",
      "note_off channel=7 note=60 velocity=0 time=0.0031249999999999997\n",
      "note_on channel=9 note=63 velocity=22 time=0.0046875\n",
      "note_on channel=7 note=60 velocity=102 time=0.0031249999999999997\n",
      "note_off channel=9 note=63 velocity=0 time=0.0046875\n",
      "note_off channel=7 note=60 velocity=0 time=0.0062499999999999995\n",
      "note_off channel=7 note=67 velocity=0 time=0.0031249999999999997\n",
      "note_off channel=1 note=36 velocity=0 time=0.09999999999999999\n",
      "note_on channel=5 note=75 velocity=123 time=0.023437499999999997\n",
      "note_on channel=6 note=67 velocity=116 time=0.0031249999999999997\n",
      "note_on channel=6 note=63 velocity=111 time=0\n",
      "note_on channel=2 note=75 velocity=123 time=0\n",
      "note_on channel=6 note=60 velocity=115 time=0.0031249999999999997\n",
      "note_on channel=6 note=55 velocity=114 time=0\n",
      "note_on channel=9 note=70 velocity=81 time=0.0031249999999999997\n",
      "note_on channel=9 note=63 velocity=43 time=0\n",
      "note_on channel=9 note=42 velocity=72 time=0\n",
      "note_on channel=5 note=72 velocity=117 time=0\n",
      "note_on channel=1 note=31 velocity=120 time=0\n",
      "note_on channel=7 note=60 velocity=65 time=0.0031249999999999997\n",
      "note_off channel=9 note=42 velocity=0 time=0.0046875\n",
      "note_off channel=9 note=63 velocity=0 time=0\n",
      "note_off channel=9 note=70 velocity=0 time=0\n",
      "note_off channel=7 note=60 velocity=0 time=0.04687499999999999\n",
      "note_on channel=9 note=63 velocity=48 time=0.0953125\n",
      "note_on channel=9 note=42 velocity=53 time=0\n",
      "note_on channel=7 note=60 velocity=107 time=0.0031249999999999997\n",
      "note_off channel=9 note=42 velocity=0 time=0.0046875\n",
      "note_off channel=9 note=63 velocity=0 time=0\n",
      "note_off channel=7 note=60 velocity=0 time=0.015624999999999998\n",
      "note_on channel=9 note=70 velocity=85 time=0.1265625\n",
      "note_on channel=9 note=64 velocity=49 time=0\n",
      "note_on channel=9 note=42 velocity=82 time=0\n",
      "note_on channel=9 note=35 velocity=111 time=0\n",
      "note_on channel=7 note=60 velocity=87 time=0.0031249999999999997\n",
      "note_off channel=9 note=35 velocity=0 time=0.0046875\n",
      "note_off channel=9 note=42 velocity=0 time=0\n",
      "note_off channel=9 note=64 velocity=0 time=0\n",
      "note_off channel=9 note=70 velocity=0 time=0\n",
      "note_off channel=7 note=60 velocity=0 time=0.024999999999999998\n",
      "note_on channel=9 note=63 velocity=43 time=0.11718749999999999\n",
      "note_off channel=9 note=63 velocity=0 time=0.007812499999999999\n",
      "note_off channel=1 note=31 velocity=0 time=0.06562499999999999\n",
      "note_off channel=5 note=75 velocity=0 time=0.06249999999999999\n",
      "note_off channel=5 note=72 velocity=0 time=0.0031249999999999997\n",
      "note_off channel=2 note=75 velocity=0 time=0\n",
      "note_on channel=9 note=70 velocity=80 time=0.0109375\n",
      "note_on channel=9 note=63 velocity=41 time=0\n",
      "note_on channel=9 note=42 velocity=72 time=0\n",
      "note_on channel=7 note=60 velocity=98 time=0\n",
      "note_on channel=5 note=82 velocity=112 time=0\n",
      "note_on channel=2 note=82 velocity=112 time=0\n",
      "note_on channel=1 note=36 velocity=108 time=0\n",
      "note_off channel=9 note=42 velocity=0 time=0.007812499999999999\n",
      "note_off channel=9 note=63 velocity=0 time=0\n",
      "note_off channel=9 note=70 velocity=0 time=0\n",
      "note_off channel=7 note=60 velocity=0 time=0.034374999999999996\n",
      "note_off channel=5 note=82 velocity=0 time=0.09687499999999999\n",
      "note_off channel=2 note=82 velocity=0 time=0\n",
      "note_on channel=7 note=60 velocity=94 time=0.007812499999999999\n",
      "note_on channel=9 note=63 velocity=59 time=0.0031249999999999997\n",
      "note_on channel=9 note=42 velocity=53 time=0\n",
      "note_off channel=9 note=42 velocity=0 time=0.007812499999999999\n",
      "note_off channel=9 note=63 velocity=0 time=0\n",
      "note_off channel=7 note=60 velocity=0 time=0.009375\n",
      "note_on channel=7 note=60 velocity=106 time=0.1265625\n",
      "note_on channel=7 note=67 velocity=108 time=0.0031249999999999997\n",
      "note_on channel=7 note=63 velocity=113 time=0\n",
      "note_on channel=9 note=70 velocity=91 time=0.0031249999999999997\n",
      "note_on channel=9 note=62 velocity=84 time=0\n",
      "note_on channel=9 note=42 velocity=82 time=0\n",
      "note_on channel=9 note=40 velocity=111 time=0\n",
      "note_on channel=9 note=35 velocity=111 time=0\n",
      "note_on channel=5 note=70 velocity=124 time=0\n",
      "note_on channel=2 note=70 velocity=124 time=0\n",
      "note_off channel=9 note=35 velocity=0 time=0.007812499999999999\n",
      "note_off channel=9 note=40 velocity=0 time=0\n",
      "note_off channel=9 note=42 velocity=0 time=0\n",
      "note_off channel=9 note=62 velocity=0 time=0\n",
      "note_off channel=9 note=70 velocity=0 time=0\n",
      "note_off channel=7 note=63 velocity=0 time=0.075\n",
      "note_off channel=7 note=67 velocity=0 time=0.015624999999999998\n",
      "note_off channel=7 note=60 velocity=0 time=0.0031249999999999997\n",
      "note_off channel=5 note=70 velocity=0 time=0.0062499999999999995\n",
      "note_off channel=2 note=70 velocity=0 time=0\n",
      "note_on channel=5 note=72 velocity=115 time=0.0359375\n",
      "note_on channel=7 note=60 velocity=84 time=0.0031249999999999997\n",
      "note_on channel=2 note=72 velocity=115 time=0\n",
      "note_on channel=9 note=64 velocity=30 time=0.0031249999999999997\n",
      "note_off channel=9 note=64 velocity=0 time=0.007812499999999999\n",
      "note_off channel=7 note=60 velocity=0 time=0.0062499999999999995\n",
      "note_off channel=1 note=36 velocity=0 time=0.0062499999999999995\n",
      "note_off channel=5 note=72 velocity=0 time=0.0875\n",
      "note_off channel=2 note=72 velocity=0 time=0\n",
      "note_on channel=5 note=75 velocity=125 time=0.020312499999999997\n",
      "note_on channel=2 note=75 velocity=125 time=0.009375\n",
      "note_off channel=6 note=55 velocity=0 time=0.0046875\n",
      "note_off channel=6 note=60 velocity=0 time=0\n",
      "note_on channel=7 note=60 velocity=81 time=0.0046875\n",
      "note_on channel=9 note=70 velocity=84 time=0.0031249999999999997\n",
      "note_on channel=9 note=63 velocity=44 time=0\n",
      "note_on channel=9 note=42 velocity=72 time=0\n",
      "note_on channel=1 note=34 velocity=105 time=0\n",
      "note_off channel=9 note=42 velocity=0 time=0.007812499999999999\n",
      "note_off channel=9 note=63 velocity=0 time=0\n",
      "note_off channel=9 note=70 velocity=0 time=0\n",
      "note_off channel=6 note=63 velocity=0 time=0.009375\n",
      "note_off channel=6 note=67 velocity=0 time=0.021875\n",
      "note_off channel=7 note=60 velocity=0 time=0.009375\n",
      "note_off channel=5 note=75 velocity=0 time=0.040624999999999994\n",
      "note_off channel=2 note=75 velocity=0 time=0.009375\n",
      "note_off channel=1 note=34 velocity=0 time=0.0062499999999999995\n",
      "note_on channel=9 note=63 velocity=52 time=0.0453125\n",
      "note_on channel=9 note=42 velocity=53 time=0\n",
      "note_on channel=1 note=36 velocity=103 time=0\n",
      "note_off channel=9 note=42 velocity=0 time=0.007812499999999999\n",
      "note_off channel=9 note=63 velocity=0 time=0\n",
      "note_off channel=1 note=36 velocity=0 time=0.06249999999999999\n",
      "note_on channel=9 note=70 velocity=97 time=0.0796875\n",
      "note_on channel=9 note=64 velocity=52 time=0\n",
      "note_on channel=9 note=49 velocity=56 time=0\n",
      "note_on channel=9 note=35 velocity=111 time=0\n",
      "note_on channel=6 note=65 velocity=120 time=0\n",
      "note_on channel=6 note=62 velocity=120 time=0\n",
      "note_on channel=6 note=58 velocity=118 time=0\n",
      "note_on channel=5 note=77 velocity=124 time=0\n",
      "note_on channel=5 note=74 velocity=118 time=0\n",
      "note_on channel=2 note=77 velocity=124 time=0\n",
      "note_on channel=1 note=39 velocity=120 time=0\n",
      "note_on channel=7 note=67 velocity=65 time=0.0062499999999999995\n",
      "note_on channel=7 note=58 velocity=77 time=0\n",
      "note_off channel=9 note=35 velocity=0 time=0.0015624999999999999\n",
      "note_off channel=9 note=49 velocity=0 time=0\n",
      "note_off channel=9 note=64 velocity=0 time=0\n",
      "note_off channel=9 note=70 velocity=0 time=0\n",
      "note_off channel=7 note=67 velocity=0 time=0.040624999999999994\n",
      "note_off channel=7 note=58 velocity=0 time=0.0031249999999999997\n",
      "note_off channel=1 note=39 velocity=0 time=0.0875\n",
      "note_on channel=9 note=64 velocity=29 time=0.0109375\n",
      "note_off channel=9 note=64 velocity=0 time=0.007812499999999999\n",
      "note_on channel=9 note=70 velocity=84 time=0.1421875\n",
      "note_on channel=9 note=64 velocity=48 time=0\n",
      "note_on channel=9 note=42 velocity=72 time=0\n",
      "note_on channel=1 note=39 velocity=121 time=0\n",
      "note_off channel=9 note=42 velocity=0 time=0.007812499999999999\n",
      "note_off channel=9 note=64 velocity=0 time=0\n",
      "note_off channel=9 note=70 velocity=0 time=0\n",
      "note_on channel=7 note=63 velocity=94 time=0.0015624999999999999\n",
      "note_off channel=7 note=63 velocity=0 time=0.017187499999999998\n",
      "note_off channel=5 note=77 velocity=0 time=0.075\n",
      "note_off channel=2 note=77 velocity=0 time=0\n",
      "note_off channel=5 note=74 velocity=0 time=0.0375\n",
      "note_on channel=9 note=63 velocity=46 time=0.0109375\n",
      "note_on channel=9 note=42 velocity=53 time=0\n",
      "note_on channel=7 note=63 velocity=98 time=0.0062499999999999995\n",
      "note_off channel=9 note=42 velocity=0 time=0.0015624999999999999\n",
      "note_off channel=9 note=63 velocity=0 time=0\n",
      "note_off channel=7 note=63 velocity=0 time=0\n",
      "note_on channel=9 note=70 velocity=87 time=0.1421875\n",
      "note_on channel=9 note=63 velocity=64 time=0\n",
      "note_on channel=9 note=42 velocity=72 time=0\n",
      "note_on channel=9 note=40 velocity=111 time=0\n",
      "note_on channel=9 note=35 velocity=111 time=0\n",
      "note_on channel=7 note=67 velocity=115 time=0.0031249999999999997\n",
      "note_on channel=7 note=63 velocity=124 time=0\n",
      "note_on channel=7 note=58 velocity=113 time=0.0031249999999999997\n",
      "note_on channel=2 note=82 velocity=124 time=0\n",
      "note_off channel=9 note=35 velocity=0 time=0.0015624999999999999\n",
      "note_off channel=9 note=40 velocity=0 time=0\n",
      "note_off channel=9 note=42 velocity=0 time=0\n",
      "note_off channel=9 note=63 velocity=0 time=0\n",
      "note_off channel=9 note=70 velocity=0 time=0\n",
      "note_on channel=5 note=82 velocity=124 time=0.007812499999999999\n",
      "note_off channel=2 note=82 velocity=0 time=0.0515625\n",
      "note_off channel=5 note=82 velocity=0 time=0.009375\n",
      "note_off channel=6 note=58 velocity=0 time=0.06562499999999999\n",
      "note_on channel=9 note=63 velocity=30 time=0.007812499999999999\n",
      "note_off channel=7 note=63 velocity=0 time=0.0015624999999999999\n",
      "note_off channel=6 note=65 velocity=0 time=0\n",
      "note_off channel=6 note=62 velocity=0 time=0.0031249999999999997\n",
      "note_off channel=9 note=63 velocity=0 time=0.0031249999999999997\n",
      "note_off channel=7 note=58 velocity=0 time=0.028124999999999997\n",
      "note_off channel=7 note=67 velocity=0 time=0.024999999999999998\n",
      "note_off channel=1 note=39 velocity=0 time=0.056249999999999994\n",
      "note_on channel=6 note=67 velocity=118 time=0.0296875\n",
      "note_on channel=6 note=58 velocity=112 time=0\n",
      "note_on channel=9 note=70 velocity=72 time=0.0031249999999999997\n",
      "note_on channel=9 note=63 velocity=49 time=0\n",
      "note_on channel=9 note=42 velocity=72 time=0\n",
      "note_on channel=7 note=63 velocity=93 time=0\n",
      "note_on channel=6 note=63 velocity=116 time=0\n",
      "note_on channel=5 note=75 velocity=113 time=0\n",
      "note_on channel=1 note=34 velocity=119 time=0\n",
      "note_on channel=2 note=79 velocity=122 time=0.0031249999999999997\n",
      "note_off channel=7 note=63 velocity=0 time=0.0015624999999999999\n",
      "note_on channel=5 note=79 velocity=122 time=0.0015624999999999999\n",
      "note_off channel=9 note=42 velocity=0 time=0.0015624999999999999\n",
      "note_off channel=9 note=63 velocity=0 time=0\n",
      "note_off channel=9 note=70 velocity=0 time=0\n",
      "note_on channel=7 note=63 velocity=62 time=0.1328125\n",
      "note_on channel=9 note=63 velocity=49 time=0.009375\n",
      "note_on channel=9 note=42 velocity=53 time=0\n",
      "note_off channel=9 note=42 velocity=0 time=0.007812499999999999\n",
      "note_off channel=9 note=63 velocity=0 time=0\n",
      "note_off channel=7 note=63 velocity=0 time=0.009375\n",
      "note_on channel=9 note=42 velocity=80 time=0.12968749999999998\n",
      "note_on channel=9 note=35 velocity=111 time=0\n",
      "note_on channel=9 note=70 velocity=91 time=0.0031249999999999997\n",
      "note_on channel=9 note=64 velocity=47 time=0\n",
      "note_off channel=9 note=35 velocity=0 time=0.0046875\n",
      "note_off channel=9 note=42 velocity=0 time=0\n",
      "note_on channel=7 note=63 velocity=87 time=0.0015624999999999999\n",
      "note_off channel=9 note=64 velocity=0 time=0.0015624999999999999\n",
      "note_off channel=9 note=70 velocity=0 time=0\n",
      "note_off channel=7 note=63 velocity=0 time=0.009375\n",
      "note_on channel=9 note=63 velocity=39 time=0.1328125\n",
      "note_off channel=9 note=63 velocity=0 time=0.007812499999999999\n",
      "note_off channel=1 note=34 velocity=0 time=0.11562499999999999\n",
      "note_off channel=5 note=75 velocity=0 time=0.015624999999999998\n",
      "note_on channel=9 note=70 velocity=78 time=0.0109375\n",
      "note_on channel=9 note=63 velocity=43 time=0\n",
      "note_on channel=9 note=42 velocity=72 time=0\n",
      "note_on channel=1 note=39 velocity=108 time=0\n",
      "note_on channel=7 note=63 velocity=93 time=0.0031249999999999997\n",
      "note_off channel=9 note=42 velocity=0 time=0.0046875\n",
      "note_off channel=9 note=63 velocity=0 time=0\n",
      "note_off channel=9 note=70 velocity=0 time=0\n",
      "note_off channel=7 note=63 velocity=0 time=0.0062499999999999995\n",
      "note_off channel=2 note=79 velocity=0 time=0.075\n",
      "note_off channel=5 note=79 velocity=0 time=0.0031249999999999997\n",
      "note_on channel=9 note=63 velocity=61 time=0.057812499999999996\n",
      "note_on channel=9 note=42 velocity=53 time=0\n",
      "note_on channel=7 note=63 velocity=92 time=0\n",
      "note_off channel=7 note=63 velocity=0 time=0.0046875\n",
      "note_off channel=9 note=42 velocity=0 time=0.0031249999999999997\n",
      "note_off channel=9 note=63 velocity=0 time=0\n",
      "note_on channel=5 note=70 velocity=124 time=0.1359375\n",
      "note_on channel=9 note=35 velocity=111 time=0.0031249999999999997\n",
      "note_on channel=7 note=67 velocity=105 time=0\n",
      "note_on channel=7 note=63 velocity=119 time=0\n",
      "note_on channel=7 note=58 velocity=110 time=0\n",
      "note_on channel=2 note=70 velocity=124 time=0\n",
      "note_on channel=9 note=70 velocity=94 time=0.0031249999999999997\n",
      "note_on channel=9 note=62 velocity=89 time=0\n",
      "note_on channel=9 note=42 velocity=77 time=0.0031249999999999997\n",
      "note_on channel=9 note=40 velocity=108 time=0\n",
      "note_off channel=9 note=35 velocity=0 time=0.0015624999999999999\n",
      "note_off channel=9 note=62 velocity=0 time=0.0031249999999999997\n",
      "note_off channel=9 note=70 velocity=0 time=0\n",
      "note_off channel=9 note=40 velocity=0 time=0.0031249999999999997\n",
      "note_off channel=9 note=42 velocity=0 time=0\n",
      "note_off channel=5 note=70 velocity=0 time=0.09374999999999999\n",
      "note_off channel=2 note=70 velocity=0 time=0.0031249999999999997\n",
      "note_off channel=7 note=63 velocity=0 time=0.01875\n",
      "note_on channel=5 note=72 velocity=114 time=0.007812499999999999\n",
      "note_on channel=2 note=72 velocity=114 time=0.0062499999999999995\n",
      "note_on channel=9 note=64 velocity=32 time=0.009375\n",
      "note_off channel=7 note=58 velocity=0 time=0.0015624999999999999\n",
      "note_off channel=9 note=64 velocity=0 time=0.0062499999999999995\n",
      "note_off channel=7 note=67 velocity=0 time=0.009375\n",
      "note_off channel=5 note=72 velocity=0 time=0.059375\n",
      "note_off channel=2 note=72 velocity=0 time=0.0062499999999999995\n",
      "note_on channel=5 note=75 velocity=124 time=0.0265625\n",
      "note_on channel=2 note=75 velocity=124 time=0.01875\n",
      "note_off channel=1 note=39 velocity=0 time=0.0109375\n",
      "note_on channel=9 note=70 velocity=80 time=0.0109375\n",
      "note_on channel=9 note=63 velocity=46 time=0\n",
      "note_on channel=9 note=42 velocity=72 time=0\n",
      "note_on channel=1 note=34 velocity=105 time=0\n",
      "note_on channel=7 note=63 velocity=72 time=0.0031249999999999997\n",
      "note_off channel=9 note=42 velocity=0 time=0.0046875\n",
      "note_off channel=9 note=63 velocity=0 time=0\n",
      "note_off channel=9 note=70 velocity=0 time=0\n",
      "note_off channel=6 note=63 velocity=0 time=0.009375\n",
      "note_off channel=7 note=63 velocity=0 time=0.012499999999999999\n",
      "note_off channel=6 note=67 velocity=0 time=0.034374999999999996\n",
      "note_off channel=5 note=75 velocity=0 time=0\n",
      "note_off channel=6 note=58 velocity=0 time=0.0031249999999999997\n",
      "note_off channel=2 note=75 velocity=0 time=0.015624999999999998\n",
      "note_off channel=1 note=34 velocity=0 time=0.021875\n",
      "note_on channel=9 note=63 velocity=46 time=0.0453125\n",
      "note_on channel=9 note=42 velocity=53 time=0\n",
      "note_on channel=1 note=36 velocity=103 time=0\n",
      "note_on channel=7 note=63 velocity=96 time=0.0031249999999999997\n",
      "note_off channel=9 note=42 velocity=0 time=0.0046875\n",
      "note_off channel=9 note=63 velocity=0 time=0\n",
      "note_off channel=7 note=63 velocity=0 time=0\n",
      "note_off channel=1 note=36 velocity=0 time=0.06249999999999999\n",
      "note_on channel=6 note=65 velocity=117 time=0.07656249999999999\n",
      "note_on channel=9 note=70 velocity=85 time=0.0031249999999999997\n",
      "note_on channel=9 note=64 velocity=51 time=0\n",
      "note_on channel=6 note=62 velocity=119 time=0\n",
      "note_on channel=6 note=58 velocity=111 time=0\n",
      "note_on channel=5 note=77 velocity=123 time=0\n",
      "note_on channel=5 note=74 velocity=114 time=0\n",
      "note_on channel=2 note=77 velocity=123 time=0\n",
      "note_on channel=1 note=39 velocity=120 time=0\n",
      "note_on channel=7 note=63 velocity=72 time=0.0031249999999999997\n",
      "note_off channel=9 note=64 velocity=0 time=0.0046875\n",
      "note_off channel=9 note=70 velocity=0 time=0\n",
      "note_on channel=9 note=42 velocity=80 time=0.0015624999999999999\n",
      "note_on channel=9 note=35 velocity=111 time=0\n",
      "note_off channel=9 note=35 velocity=0 time=0.007812499999999999\n",
      "note_off channel=9 note=42 velocity=0 time=0\n",
      "note_off channel=7 note=63 velocity=0 time=0\n",
      "note_off channel=1 note=39 velocity=0 time=0.12187499999999998\n",
      "note_on channel=9 note=64 velocity=26 time=0.0109375\n",
      "note_off channel=9 note=64 velocity=0 time=0.007812499999999999\n",
      "note_on channel=9 note=70 velocity=82 time=0.1421875\n",
      "note_on channel=9 note=64 velocity=43 time=0\n",
      "note_on channel=9 note=42 velocity=72 time=0\n",
      "note_on channel=7 note=63 velocity=82 time=0\n",
      "note_on channel=1 note=39 velocity=121 time=0\n",
      "note_off channel=9 note=42 velocity=0 time=0.007812499999999999\n",
      "note_off channel=9 note=64 velocity=0 time=0\n",
      "note_off channel=9 note=70 velocity=0 time=0\n",
      "note_off channel=7 note=63 velocity=0 time=0.0031249999999999997\n",
      "note_off channel=5 note=74 velocity=0 time=0.128125\n",
      "note_on channel=7 note=63 velocity=104 time=0.007812499999999999\n",
      "note_on channel=9 note=63 velocity=44 time=0.0031249999999999997\n",
      "note_on channel=9 note=42 velocity=53 time=0\n",
      "note_off channel=9 note=42 velocity=0 time=0.007812499999999999\n",
      "note_off channel=9 note=63 velocity=0 time=0\n",
      "note_off channel=5 note=77 velocity=0 time=0\n",
      "note_off channel=2 note=77 velocity=0 time=0\n",
      "note_off channel=7 note=63 velocity=0 time=0.0031249999999999997\n",
      "note_on channel=5 note=82 velocity=124 time=0.12031249999999999\n",
      "note_on channel=2 note=82 velocity=124 time=0.009375\n",
      "note_on channel=7 note=63 velocity=113 time=0.0062499999999999995\n",
      "note_on channel=9 note=70 velocity=91 time=0.0031249999999999997\n",
      "note_on channel=9 note=63 velocity=68 time=0\n",
      "note_on channel=7 note=67 velocity=107 time=0\n",
      "note_on channel=7 note=58 velocity=104 time=0\n",
      "note_on channel=9 note=42 velocity=77 time=0.0031249999999999997\n",
      "note_on channel=9 note=40 velocity=106 time=0\n",
      "note_off channel=9 note=63 velocity=0 time=0.0046875\n",
      "note_off channel=9 note=70 velocity=0 time=0\n",
      "note_on channel=9 note=35 velocity=111 time=0.0015624999999999999\n",
      "note_off channel=9 note=40 velocity=0 time=0.0015624999999999999\n",
      "note_off channel=9 note=42 velocity=0 time=0\n",
      "note_off channel=9 note=35 velocity=0 time=0.0062499999999999995\n",
      "note_off channel=6 note=62 velocity=0 time=0.04687499999999999\n",
      "note_off channel=5 note=82 velocity=0 time=0.009375\n",
      "note_off channel=6 note=65 velocity=0 time=0.009375\n",
      "note_off channel=2 note=82 velocity=0 time=0\n",
      "note_off channel=6 note=58 velocity=0 time=0.0062499999999999995\n",
      "note_off channel=7 note=63 velocity=0 time=0.01875\n",
      "note_off channel=7 note=58 velocity=0 time=0.040624999999999994\n",
      "note_on channel=9 note=63 velocity=22 time=0.0015624999999999999\n",
      "note_on channel=7 note=63 velocity=88 time=0.0031249999999999997\n",
      "note_off channel=9 note=63 velocity=0 time=0.0046875\n",
      "note_off channel=7 note=67 velocity=0 time=0\n",
      "note_off channel=7 note=63 velocity=0 time=0.0062499999999999995\n",
      "note_off channel=1 note=39 velocity=0 time=0.103125\n",
      "note_on channel=5 note=79 velocity=122 time=0.007812499999999999\n",
      "note_on channel=2 note=79 velocity=122 time=0.012499999999999999\n",
      "note_on channel=9 note=70 velocity=81 time=0.012499999999999999\n",
      "note_on channel=9 note=63 velocity=43 time=0\n",
      "note_on channel=9 note=42 velocity=72 time=0\n",
      "note_on channel=6 note=67 velocity=117 time=0\n",
      "note_on channel=6 note=63 velocity=117 time=0\n",
      "note_on channel=6 note=58 velocity=113 time=0\n",
      "note_on channel=5 note=75 velocity=113 time=0\n",
      "note_on channel=1 note=34 velocity=119 time=0\n",
      "note_on channel=7 note=63 velocity=74 time=0.0062499999999999995\n",
      "note_off channel=9 note=42 velocity=0 time=0.0015624999999999999\n",
      "note_off channel=9 note=63 velocity=0 time=0\n",
      "note_off channel=9 note=70 velocity=0 time=0\n",
      "note_off channel=7 note=63 velocity=0 time=0.028124999999999997\n",
      "note_on channel=9 note=63 velocity=48 time=0.1140625\n",
      "note_on channel=9 note=42 velocity=53 time=0\n",
      "note_on channel=7 note=63 velocity=101 time=0.0031249999999999997\n",
      "note_off channel=9 note=42 velocity=0 time=0.0046875\n",
      "note_off channel=9 note=63 velocity=0 time=0\n",
      "note_off channel=7 note=63 velocity=0 time=0.0062499999999999995\n",
      "note_on channel=9 note=70 velocity=85 time=0.1359375\n",
      "note_on channel=9 note=64 velocity=49 time=0\n",
      "note_on channel=9 note=42 velocity=82 time=0\n",
      "note_on channel=9 note=35 velocity=111 time=0\n",
      "note_on channel=7 note=63 velocity=69 time=0.0031249999999999997\n",
      "note_off channel=9 note=35 velocity=0 time=0.0046875\n",
      "note_off channel=9 note=42 velocity=0 time=0\n",
      "note_off channel=9 note=64 velocity=0 time=0\n",
      "note_off channel=9 note=70 velocity=0 time=0\n",
      "note_off channel=7 note=63 velocity=0 time=0.015624999999999998\n",
      "note_on channel=9 note=63 velocity=43 time=0.1265625\n",
      "note_on channel=7 note=63 velocity=90 time=0.0031249999999999997\n",
      "note_off channel=9 note=63 velocity=0 time=0.0046875\n",
      "note_off channel=7 note=63 velocity=0 time=0.0031249999999999997\n",
      "note_off channel=1 note=34 velocity=0 time=0.11249999999999999\n",
      "note_on channel=9 note=70 velocity=80 time=0.0265625\n",
      "note_on channel=9 note=63 velocity=41 time=0\n",
      "note_on channel=9 note=42 velocity=72 time=0\n",
      "note_on channel=1 note=39 velocity=108 time=0\n",
      "note_on channel=7 note=63 velocity=87 time=0.0031249999999999997\n",
      "note_off channel=9 note=42 velocity=0 time=0.0046875\n",
      "note_off channel=9 note=63 velocity=0 time=0\n",
      "note_off channel=9 note=70 velocity=0 time=0\n",
      "note_off channel=7 note=63 velocity=0 time=0.0062499999999999995\n",
      "note_off channel=5 note=79 velocity=0 time=0.059375\n",
      "note_off channel=5 note=75 velocity=0 time=0.0031249999999999997\n",
      "note_off channel=2 note=79 velocity=0 time=0.0062499999999999995\n",
      "note_on channel=7 note=63 velocity=107 time=0.0640625\n",
      "note_on channel=9 note=63 velocity=59 time=0.0031249999999999997\n",
      "note_on channel=9 note=42 velocity=53 time=0\n",
      "note_off channel=9 note=42 velocity=0 time=0.007812499999999999\n",
      "note_off channel=9 note=63 velocity=0 time=0\n",
      "note_off channel=7 note=63 velocity=0 time=0\n",
      "note_on channel=5 note=70 velocity=124 time=0.12343749999999999\n",
      "note_on channel=2 note=70 velocity=124 time=0.009375\n",
      "note_on channel=7 note=67 velocity=98 time=0.0062499999999999995\n",
      "note_on channel=7 note=63 velocity=119 time=0\n",
      "note_on channel=7 note=58 velocity=112 time=0\n",
      "note_on channel=9 note=70 velocity=91 time=0.0031249999999999997\n",
      "note_on channel=9 note=62 velocity=84 time=0\n",
      "note_on channel=9 note=42 velocity=64 time=0\n",
      "note_on channel=9 note=40 velocity=111 time=0\n",
      "note_on channel=9 note=35 velocity=111 time=0\n",
      "note_off channel=9 note=35 velocity=0 time=0.007812499999999999\n",
      "note_off channel=9 note=40 velocity=0 time=0\n",
      "note_off channel=9 note=42 velocity=0 time=0\n",
      "note_off channel=9 note=62 velocity=0 time=0\n",
      "note_off channel=9 note=70 velocity=0 time=0\n",
      "note_off channel=5 note=70 velocity=0 time=0.08124999999999999\n",
      "note_off channel=2 note=70 velocity=0 time=0.009375\n",
      "note_on channel=5 note=72 velocity=115 time=0.0265625\n",
      "note_off channel=7 note=63 velocity=0 time=0.0109375\n",
      "note_on channel=2 note=72 velocity=115 time=0.0015624999999999999\n",
      "note_off channel=7 note=58 velocity=0 time=0.0109375\n",
      "note_on channel=9 note=64 velocity=30 time=0.0015624999999999999\n",
      "note_off channel=9 note=64 velocity=0 time=0.007812499999999999\n",
      "note_off channel=7 note=67 velocity=0 time=0\n",
      "note_off channel=5 note=72 velocity=0 time=0.04687499999999999\n",
      "note_off channel=2 note=72 velocity=0 time=0.009375\n",
      "note_off channel=6 note=58 velocity=0 time=0.0031249999999999997\n",
      "note_off channel=6 note=63 velocity=0 time=0.0031249999999999997\n",
      "note_off channel=6 note=67 velocity=0 time=0.012499999999999999\n",
      "note_on channel=5 note=75 velocity=125 time=0.0265625\n",
      "note_on channel=2 note=75 velocity=125 time=0.01875\n",
      "note_off channel=1 note=39 velocity=0 time=0.0109375\n",
      "note_on channel=9 note=70 velocity=84 time=0.0109375\n",
      "note_on channel=9 note=63 velocity=44 time=0\n",
      "note_on channel=9 note=42 velocity=72 time=0\n",
      "note_on channel=7 note=63 velocity=75 time=0\n",
      "note_on channel=1 note=34 velocity=105 time=0\n",
      "note_off channel=9 note=42 velocity=0 time=0.007812499999999999\n",
      "note_off channel=9 note=63 velocity=0 time=0\n",
      "note_off channel=9 note=70 velocity=0 time=0\n",
      "note_off channel=7 note=63 velocity=0 time=0.034374999999999996\n",
      "note_off channel=5 note=75 velocity=0 time=0.028124999999999997\n",
      "note_off channel=2 note=75 velocity=0 time=0.01875\n",
      "note_off channel=1 note=34 velocity=0 time=0.015624999999999998\n",
      "note_on channel=9 note=63 velocity=52 time=0.0453125\n",
      "note_on channel=9 note=42 velocity=53 time=0\n",
      "note_on channel=1 note=35 velocity=103 time=0\n",
      "note_off channel=9 note=42 velocity=0 time=0.007812499999999999\n",
      "note_off channel=9 note=63 velocity=0 time=0\n",
      "note_off channel=1 note=35 velocity=0 time=0.06249999999999999\n",
      "note_on channel=5 note=77 velocity=124 time=0.0671875\n",
      "note_on channel=2 note=77 velocity=124 time=0.0062499999999999995\n",
      "note_on channel=6 note=65 velocity=114 time=0.0031249999999999997\n",
      "note_on channel=6 note=55 velocity=115 time=0\n",
      "note_on channel=9 note=70 velocity=97 time=0.0031249999999999997\n",
      "note_on channel=9 note=64 velocity=52 time=0\n",
      "note_on channel=9 note=42 velocity=80 time=0\n",
      "note_on channel=9 note=35 velocity=110 time=0\n",
      "note_on channel=6 note=62 velocity=117 time=0\n",
      "note_on channel=6 note=60 velocity=117 time=0\n",
      "note_on channel=5 note=74 velocity=114 time=0\n",
      "note_on channel=1 note=36 velocity=120 time=0\n",
      "note_off channel=9 note=35 velocity=0 time=0.007812499999999999\n",
      "note_off channel=9 note=42 velocity=0 time=0\n",
      "note_off channel=9 note=64 velocity=0 time=0\n",
      "note_off channel=9 note=70 velocity=0 time=0\n",
      "note_off channel=1 note=36 velocity=0 time=0.13124999999999998\n",
      "note_on channel=9 note=64 velocity=29 time=0.0109375\n",
      "note_off channel=9 note=64 velocity=0 time=0.007812499999999999\n",
      "note_on channel=9 note=70 velocity=84 time=0.1421875\n",
      "note_on channel=9 note=64 velocity=48 time=0\n",
      "note_on channel=9 note=42 velocity=72 time=0\n",
      "note_on channel=7 note=60 velocity=97 time=0\n",
      "note_on channel=1 note=36 velocity=121 time=0\n",
      "note_off channel=9 note=42 velocity=0 time=0.007812499999999999\n",
      "note_off channel=9 note=64 velocity=0 time=0\n",
      "note_off channel=9 note=70 velocity=0 time=0\n",
      "note_off channel=7 note=60 velocity=0 time=0.028124999999999997\n",
      "note_off channel=5 note=74 velocity=0 time=0.103125\n",
      "note_on channel=9 note=63 velocity=46 time=0.0109375\n",
      "note_on channel=9 note=42 velocity=53 time=0\n",
      "note_on channel=7 note=60 velocity=106 time=0\n",
      "note_off channel=9 note=42 velocity=0 time=0.007812499999999999\n",
      "note_off channel=9 note=63 velocity=0 time=0\n",
      "note_off channel=7 note=60 velocity=0 time=0.015624999999999998\n",
      "note_off channel=5 note=77 velocity=0 time=0.01875\n",
      "note_off channel=2 note=77 velocity=0 time=0.0062499999999999995\n",
      "note_on channel=9 note=70 velocity=87 time=0.10156249999999999\n",
      "note_on channel=9 note=63 velocity=64 time=0\n",
      "note_on channel=9 note=42 velocity=72 time=0\n",
      "note_on channel=9 note=40 velocity=111 time=0\n",
      "note_on channel=9 note=35 velocity=110 time=0\n",
      "note_on channel=7 note=67 velocity=106 time=0\n",
      "note_on channel=7 note=63 velocity=113 time=0\n",
      "note_on channel=7 note=60 velocity=107 time=0\n",
      "note_on channel=5 note=79 velocity=124 time=0.0031249999999999997\n",
      "note_on channel=2 note=79 velocity=124 time=0\n",
      "note_off channel=9 note=35 velocity=0 time=0.0046875\n",
      "note_off channel=9 note=40 velocity=0 time=0\n",
      "note_off channel=9 note=42 velocity=0 time=0\n",
      "note_off channel=9 note=63 velocity=0 time=0\n",
      "note_off channel=9 note=70 velocity=0 time=0\n",
      "note_off channel=6 note=62 velocity=0 time=0.053125\n",
      "note_off channel=6 note=55 velocity=0 time=0.021875\n",
      "note_off channel=2 note=79 velocity=0 time=0.0031249999999999997\n",
      "note_off channel=5 note=79 velocity=0 time=0.0031249999999999997\n",
      "note_off channel=6 note=65 velocity=0 time=0.0062499999999999995\n",
      "note_off channel=6 note=60 velocity=0 time=0.0375\n",
      "note_off channel=7 note=63 velocity=0 time=0.0062499999999999995\n",
      "note_on channel=9 note=63 velocity=30 time=0.0109375\n",
      "note_off channel=7 note=60 velocity=0 time=0.0015624999999999999\n",
      "note_off channel=9 note=63 velocity=0 time=0.0062499999999999995\n",
      "note_off channel=7 note=67 velocity=0 time=0.0062499999999999995\n",
      "note_off channel=1 note=36 velocity=0 time=0.103125\n",
      "note_on channel=9 note=70 velocity=72 time=0.032812499999999994\n",
      "note_on channel=9 note=63 velocity=49 time=0\n",
      "note_on channel=9 note=42 velocity=72 time=0\n",
      "note_on channel=5 note=72 velocity=109 time=0\n",
      "note_on channel=1 note=31 velocity=120 time=0\n",
      "note_on channel=6 note=67 velocity=113 time=0.0031249999999999997\n",
      "note_on channel=6 note=63 velocity=111 time=0\n",
      "note_on channel=6 note=60 velocity=117 time=0\n",
      "note_on channel=6 note=55 velocity=116 time=0\n",
      "note_on channel=5 note=75 velocity=123 time=0\n",
      "note_on channel=2 note=75 velocity=123 time=0\n",
      "note_on channel=7 note=60 velocity=76 time=0.0031249999999999997\n",
      "note_off channel=9 note=42 velocity=0 time=0.0015624999999999999\n",
      "note_off channel=9 note=63 velocity=0 time=0\n",
      "note_off channel=9 note=70 velocity=0 time=0\n",
      "note_off channel=7 note=60 velocity=0 time=0.034374999999999996\n",
      "note_on channel=9 note=63 velocity=49 time=0.10781249999999999\n",
      "note_on channel=9 note=42 velocity=53 time=0\n",
      "note_on channel=7 note=60 velocity=87 time=0.0062499999999999995\n",
      "note_off channel=9 note=42 velocity=0 time=0.0015624999999999999\n",
      "note_off channel=9 note=63 velocity=0 time=0\n",
      "note_off channel=7 note=60 velocity=0 time=0.015624999999999998\n",
      "note_on channel=9 note=42 velocity=77 time=0.12343749999999999\n",
      "note_on channel=9 note=70 velocity=91 time=0.0031249999999999997\n",
      "note_on channel=9 note=64 velocity=47 time=0\n",
      "note_on channel=9 note=35 velocity=111 time=0\n",
      "note_off channel=9 note=42 velocity=0 time=0.0046875\n",
      "note_on channel=7 note=60 velocity=76 time=0.0015624999999999999\n",
      "note_off channel=9 note=35 velocity=0 time=0.0015624999999999999\n",
      "note_off channel=9 note=64 velocity=0 time=0\n",
      "note_off channel=9 note=70 velocity=0 time=0\n",
      "note_off channel=7 note=60 velocity=0 time=0.024999999999999998\n",
      "note_on channel=9 note=63 velocity=39 time=0.11718749999999999\n",
      "note_off channel=9 note=63 velocity=0 time=0.007812499999999999\n",
      "note_off channel=1 note=31 velocity=0 time=0.06562499999999999\n",
      "note_off channel=5 note=72 velocity=0 time=0.06562499999999999\n",
      "note_on channel=9 note=70 velocity=78 time=0.0109375\n",
      "note_on channel=9 note=63 velocity=43 time=0\n",
      "note_on channel=9 note=42 velocity=72 time=0\n",
      "note_on channel=1 note=36 velocity=116 time=0\n",
      "note_on channel=7 note=60 velocity=83 time=0.0031249999999999997\n",
      "note_off channel=9 note=42 velocity=0 time=0.0046875\n",
      "note_off channel=9 note=63 velocity=0 time=0\n",
      "note_off channel=9 note=70 velocity=0 time=0\n",
      "note_off channel=7 note=60 velocity=0 time=0.021875\n",
      "note_off channel=5 note=75 velocity=0 time=0.09374999999999999\n",
      "note_off channel=2 note=75 velocity=0 time=0\n",
      "note_on channel=9 note=63 velocity=61 time=0.0265625\n",
      "note_on channel=9 note=42 velocity=53 time=0\n",
      "note_off channel=9 note=42 velocity=0 time=0.007812499999999999\n",
      "note_off channel=9 note=63 velocity=0 time=0\n",
      "note_on channel=7 note=60 velocity=103 time=0.13906249999999998\n",
      "note_on channel=9 note=70 velocity=94 time=0.0031249999999999997\n",
      "note_on channel=9 note=62 velocity=89 time=0\n",
      "note_on channel=9 note=35 velocity=111 time=0\n",
      "note_on channel=7 note=67 velocity=108 time=0\n",
      "note_on channel=7 note=63 velocity=112 time=0\n",
      "note_on channel=9 note=42 velocity=77 time=0.0031249999999999997\n",
      "note_on channel=9 note=40 velocity=108 time=0\n",
      "note_off channel=9 note=35 velocity=0 time=0.0046875\n",
      "note_off channel=9 note=62 velocity=0 time=0\n",
      "note_off channel=9 note=70 velocity=0 time=0\n",
      "note_off channel=9 note=40 velocity=0 time=0.0031249999999999997\n",
      "note_off channel=9 note=42 velocity=0 time=0\n",
      "note_on channel=2 note=77 velocity=122 time=0.0015624999999999999\n",
      "note_on channel=5 note=77 velocity=122 time=0.015624999999999998\n",
      "note_off channel=2 note=77 velocity=0 time=0.07343749999999999\n",
      "note_off channel=5 note=77 velocity=0 time=0.012499999999999999\n",
      "note_off channel=7 note=63 velocity=0 time=0.0031249999999999997\n",
      "note_off channel=1 note=36 velocity=0 time=0.0062499999999999995\n",
      "note_off channel=7 note=60 velocity=0 time=0.012499999999999999\n",
      "note_on channel=5 note=75 velocity=117 time=0.007812499999999999\n",
      "note_off channel=7 note=67 velocity=0 time=0.0015624999999999999\n",
      "note_on channel=2 note=75 velocity=117 time=0.0015624999999999999\n",
      "note_on channel=9 note=64 velocity=32 time=0.0031249999999999997\n",
      "note_off channel=9 note=64 velocity=0 time=0.007812499999999999\n",
      "note_off channel=5 note=75 velocity=0 time=0.0875\n",
      "note_off channel=2 note=75 velocity=0 time=0\n",
      "note_on channel=5 note=72 velocity=123 time=0.0453125\n",
      "note_on channel=2 note=72 velocity=123 time=0.0031249999999999997\n",
      "note_on channel=9 note=70 velocity=80 time=0.0062499999999999995\n",
      "note_on channel=9 note=63 velocity=46 time=0\n",
      "note_on channel=9 note=42 velocity=72 time=0\n",
      "note_on channel=7 note=60 velocity=59 time=0\n",
      "note_on channel=1 note=31 velocity=120 time=0\n",
      "note_off channel=9 note=42 velocity=0 time=0.007812499999999999\n",
      "note_off channel=9 note=63 velocity=0 time=0\n",
      "note_off channel=9 note=70 velocity=0 time=0\n",
      "note_off channel=6 note=55 velocity=0 time=0.024999999999999998\n",
      "note_off channel=6 note=60 velocity=0 time=0\n",
      "note_off channel=6 note=63 velocity=0 time=0\n",
      "note_off channel=6 note=67 velocity=0 time=0.0031249999999999997\n",
      "note_off channel=7 note=60 velocity=0 time=0.0062499999999999995\n",
      "note_off channel=1 note=31 velocity=0 time=0.024999999999999998\n",
      "note_off channel=5 note=72 velocity=0 time=0.01875\n",
      "note_off channel=2 note=72 velocity=0 time=0.0031249999999999997\n",
      "note_on channel=9 note=63 velocity=46 time=0.06093749999999999\n",
      "note_on channel=9 note=42 velocity=53 time=0\n",
      "note_on channel=1 note=34 velocity=122 time=0\n",
      "note_off channel=9 note=42 velocity=0 time=0.007812499999999999\n",
      "note_off channel=9 note=63 velocity=0 time=0\n",
      "note_off channel=1 note=34 velocity=0 time=0.056249999999999994\n",
      "note_on channel=6 note=65 velocity=116 time=0.0796875\n",
      "note_on channel=6 note=62 velocity=116 time=0\n",
      "note_on channel=6 note=60 velocity=115 time=0\n",
      "note_on channel=7 note=60 velocity=91 time=0.0031249999999999997\n",
      "note_on channel=6 note=55 velocity=114 time=0\n",
      "note_on channel=5 note=77 velocity=123 time=0\n",
      "note_on channel=2 note=77 velocity=123 time=0\n",
      "note_on channel=9 note=70 velocity=85 time=0.0031249999999999997\n",
      "note_on channel=9 note=64 velocity=51 time=0\n",
      "note_on channel=5 note=74 velocity=117 time=0\n",
      "note_on channel=1 note=36 velocity=120 time=0\n",
      "note_off channel=9 note=64 velocity=0 time=0.007812499999999999\n",
      "note_off channel=9 note=70 velocity=0 time=0\n",
      "note_on channel=9 note=42 velocity=68 time=0.0015624999999999999\n",
      "note_on channel=9 note=35 velocity=111 time=0\n",
      "note_off channel=9 note=35 velocity=0 time=0.007812499999999999\n",
      "note_off channel=9 note=42 velocity=0 time=0\n",
      "note_off channel=7 note=60 velocity=0 time=0.021875\n",
      "note_off channel=1 note=36 velocity=0 time=0.09999999999999999\n",
      "note_on channel=7 note=60 velocity=92 time=0.007812499999999999\n",
      "note_on channel=9 note=64 velocity=26 time=0.0031249999999999997\n",
      "note_off channel=9 note=64 velocity=0 time=0.007812499999999999\n",
      "note_off channel=7 note=60 velocity=0 time=0.009375\n",
      "note_on channel=7 note=60 velocity=89 time=0.1265625\n",
      "note_on channel=9 note=70 velocity=82 time=0.0062499999999999995\n",
      "note_on channel=9 note=64 velocity=43 time=0\n",
      "note_on channel=9 note=42 velocity=72 time=0\n",
      "note_on channel=1 note=36 velocity=121 time=0\n",
      "note_off channel=9 note=42 velocity=0 time=0.007812499999999999\n",
      "note_off channel=9 note=64 velocity=0 time=0\n",
      "note_off channel=9 note=70 velocity=0 time=0\n",
      "note_off channel=7 note=60 velocity=0 time=0.031249999999999997\n",
      "note_off channel=5 note=74 velocity=0 time=0.09999999999999999\n",
      "note_on channel=7 note=60 velocity=108 time=0.007812499999999999\n",
      "note_on channel=9 note=63 velocity=44 time=0.0031249999999999997\n",
      "note_on channel=9 note=42 velocity=53 time=0\n",
      "note_off channel=9 note=42 velocity=0 time=0.007812499999999999\n",
      "note_off channel=9 note=63 velocity=0 time=0\n",
      "note_off channel=5 note=77 velocity=0 time=0.0031249999999999997\n",
      "note_off channel=2 note=77 velocity=0 time=0.0031249999999999997\n",
      "note_off channel=7 note=60 velocity=0 time=0.0031249999999999997\n",
      "note_on channel=7 note=67 velocity=110 time=0.1265625\n",
      "note_on channel=7 note=63 velocity=119 time=0\n",
      "note_on channel=7 note=60 velocity=108 time=0\n",
      "note_on channel=9 note=70 velocity=91 time=0.0062499999999999995\n",
      "note_on channel=9 note=63 velocity=68 time=0\n",
      "note_on channel=9 note=42 velocity=77 time=0.0031249999999999997\n",
      "note_on channel=9 note=40 velocity=106 time=0\n",
      "note_on channel=5 note=79 velocity=121 time=0\n",
      "note_on channel=2 note=79 velocity=106 time=0\n",
      "note_off channel=9 note=63 velocity=0 time=0.0046875\n",
      "note_off channel=9 note=70 velocity=0 time=0\n",
      "note_on channel=9 note=35 velocity=111 time=0.0015624999999999999\n",
      "note_off channel=9 note=40 velocity=0 time=0.0015624999999999999\n",
      "note_off channel=9 note=42 velocity=0 time=0\n",
      "note_off channel=9 note=35 velocity=0 time=0.0062499999999999995\n",
      "note_off channel=6 note=62 velocity=0 time=0.04375\n",
      "note_off channel=6 note=65 velocity=0 time=0.024999999999999998\n",
      "note_off channel=6 note=55 velocity=0 time=0.0031249999999999997\n",
      "note_off channel=6 note=60 velocity=0 time=0.012499999999999999\n",
      "note_off channel=5 note=79 velocity=0 time=0\n",
      "note_off channel=2 note=79 velocity=0 time=0\n",
      "note_off channel=7 note=63 velocity=0 time=0.040624999999999994\n",
      "note_off channel=7 note=60 velocity=0 time=0.0031249999999999997\n",
      "note_on channel=9 note=63 velocity=22 time=0.0046875\n",
      "note_on channel=7 note=60 velocity=102 time=0.0031249999999999997\n",
      "note_off channel=9 note=63 velocity=0 time=0.0046875\n",
      "note_off channel=7 note=60 velocity=0 time=0.0062499999999999995\n",
      "note_off channel=7 note=67 velocity=0 time=0.0031249999999999997\n",
      "note_off channel=1 note=36 velocity=0 time=0.09999999999999999\n",
      "note_on channel=5 note=75 velocity=123 time=0.023437499999999997\n",
      "note_on channel=2 note=75 velocity=108 time=0\n",
      "note_on channel=6 note=67 velocity=116 time=0.0031249999999999997\n",
      "note_on channel=6 note=63 velocity=111 time=0\n",
      "note_on channel=6 note=60 velocity=115 time=0.0031249999999999997\n",
      "note_on channel=6 note=55 velocity=114 time=0\n",
      "note_on channel=9 note=70 velocity=81 time=0.0031249999999999997\n",
      "note_on channel=9 note=63 velocity=43 time=0\n",
      "note_on channel=9 note=42 velocity=72 time=0\n",
      "note_on channel=5 note=72 velocity=117 time=0\n",
      "note_on channel=1 note=31 velocity=120 time=0\n",
      "note_on channel=7 note=60 velocity=65 time=0.0031249999999999997\n",
      "note_off channel=9 note=42 velocity=0 time=0.0046875\n",
      "note_off channel=9 note=63 velocity=0 time=0\n",
      "note_off channel=9 note=70 velocity=0 time=0\n",
      "note_off channel=7 note=60 velocity=0 time=0.04687499999999999\n",
      "note_on channel=9 note=63 velocity=48 time=0.0953125\n",
      "note_on channel=9 note=42 velocity=53 time=0\n",
      "note_on channel=7 note=60 velocity=107 time=0.0031249999999999997\n",
      "note_off channel=9 note=42 velocity=0 time=0.0046875\n",
      "note_off channel=9 note=63 velocity=0 time=0\n",
      "note_off channel=7 note=60 velocity=0 time=0.015624999999999998\n",
      "note_on channel=9 note=70 velocity=85 time=0.1265625\n",
      "note_on channel=9 note=64 velocity=49 time=0\n",
      "note_on channel=9 note=42 velocity=82 time=0\n",
      "note_on channel=9 note=35 velocity=111 time=0\n",
      "note_on channel=7 note=60 velocity=87 time=0.0031249999999999997\n",
      "note_off channel=9 note=35 velocity=0 time=0.0046875\n",
      "note_off channel=9 note=42 velocity=0 time=0\n",
      "note_off channel=9 note=64 velocity=0 time=0\n",
      "note_off channel=9 note=70 velocity=0 time=0\n",
      "note_off channel=7 note=60 velocity=0 time=0.024999999999999998\n",
      "note_on channel=9 note=63 velocity=43 time=0.11718749999999999\n",
      "note_off channel=9 note=63 velocity=0 time=0.007812499999999999\n",
      "note_off channel=1 note=31 velocity=0 time=0.06562499999999999\n",
      "note_off channel=5 note=75 velocity=0 time=0.06249999999999999\n",
      "note_off channel=2 note=75 velocity=0 time=0\n",
      "note_off channel=5 note=72 velocity=0 time=0.0031249999999999997\n",
      "note_on channel=9 note=70 velocity=80 time=0.0109375\n",
      "note_on channel=9 note=63 velocity=41 time=0\n",
      "note_on channel=9 note=42 velocity=72 time=0\n",
      "note_on channel=7 note=60 velocity=98 time=0\n",
      "note_on channel=1 note=36 velocity=108 time=0\n",
      "note_off channel=9 note=42 velocity=0 time=0.007812499999999999\n",
      "note_off channel=9 note=63 velocity=0 time=0\n",
      "note_off channel=9 note=70 velocity=0 time=0\n",
      "note_off channel=7 note=60 velocity=0 time=0.034374999999999996\n",
      "note_on channel=7 note=60 velocity=94 time=0.10468749999999999\n",
      "note_on channel=9 note=63 velocity=59 time=0.0031249999999999997\n",
      "note_on channel=9 note=42 velocity=53 time=0\n",
      "note_off channel=9 note=42 velocity=0 time=0.007812499999999999\n",
      "note_off channel=9 note=63 velocity=0 time=0\n",
      "note_off channel=7 note=60 velocity=0 time=0.009375\n",
      "note_on channel=7 note=60 velocity=106 time=0.1265625\n",
      "note_on channel=7 note=67 velocity=108 time=0.0031249999999999997\n",
      "note_on channel=7 note=63 velocity=113 time=0\n",
      "note_on channel=9 note=70 velocity=91 time=0.0031249999999999997\n",
      "note_on channel=9 note=62 velocity=84 time=0\n",
      "note_on channel=9 note=42 velocity=82 time=0\n",
      "note_on channel=9 note=40 velocity=111 time=0\n",
      "note_on channel=9 note=35 velocity=111 time=0\n",
      "note_on channel=5 note=87 velocity=112 time=0\n",
      "note_on channel=2 note=87 velocity=97 time=0\n",
      "note_off channel=9 note=35 velocity=0 time=0.007812499999999999\n",
      "note_off channel=9 note=40 velocity=0 time=0\n",
      "note_off channel=9 note=42 velocity=0 time=0\n",
      "note_off channel=9 note=62 velocity=0 time=0\n",
      "note_off channel=9 note=70 velocity=0 time=0\n",
      "note_off channel=5 note=87 velocity=0 time=0.056249999999999994\n",
      "note_off channel=2 note=87 velocity=0 time=0\n",
      "note_on channel=5 note=82 velocity=110 time=0.0109375\n",
      "note_on channel=2 note=82 velocity=95 time=0\n",
      "note_off channel=7 note=63 velocity=0 time=0.007812499999999999\n",
      "note_off channel=7 note=67 velocity=0 time=0.015624999999999998\n",
      "note_off channel=7 note=60 velocity=0 time=0.0031249999999999997\n",
      "note_off channel=5 note=82 velocity=0 time=0.0375\n",
      "note_off channel=2 note=82 velocity=0 time=0\n",
      "note_on channel=7 note=60 velocity=84 time=0.007812499999999999\n",
      "note_on channel=9 note=64 velocity=30 time=0.0031249999999999997\n",
      "note_on channel=5 note=79 velocity=108 time=0\n",
      "note_on channel=2 note=79 velocity=93 time=0\n",
      "note_off channel=9 note=64 velocity=0 time=0.007812499999999999\n",
      "note_off channel=7 note=60 velocity=0 time=0.0062499999999999995\n",
      "note_off channel=1 note=36 velocity=0 time=0.0062499999999999995\n",
      "note_off channel=5 note=79 velocity=0 time=0.04375\n",
      "note_off channel=2 note=79 velocity=0 time=0\n",
      "note_on channel=5 note=77 velocity=108 time=0.0109375\n",
      "note_on channel=2 note=77 velocity=93 time=0\n",
      "note_off channel=5 note=77 velocity=0 time=0.0640625\n",
      "note_off channel=2 note=77 velocity=0 time=0\n",
      "note_off channel=6 note=55 velocity=0 time=0.0031249999999999997\n",
      "note_off channel=6 note=60 velocity=0 time=0\n",
      "note_on channel=7 note=60 velocity=81 time=0.0046875\n",
      "note_on channel=9 note=70 velocity=84 time=0.0031249999999999997\n",
      "note_on channel=9 note=63 velocity=44 time=0\n",
      "note_on channel=9 note=42 velocity=72 time=0\n",
      "note_on channel=5 note=75 velocity=108 time=0\n",
      "note_on channel=2 note=75 velocity=93 time=0\n",
      "note_on channel=1 note=34 velocity=105 time=0\n",
      "note_off channel=9 note=42 velocity=0 time=0.007812499999999999\n",
      "note_off channel=9 note=63 velocity=0 time=0\n",
      "note_off channel=9 note=70 velocity=0 time=0\n",
      "note_off channel=6 note=63 velocity=0 time=0.009375\n",
      "note_off channel=6 note=67 velocity=0 time=0.021875\n",
      "note_off channel=7 note=60 velocity=0 time=0.009375\n",
      "note_off channel=5 note=75 velocity=0 time=0.015624999999999998\n",
      "note_off channel=2 note=75 velocity=0 time=0\n",
      "note_on channel=5 note=72 velocity=108 time=0.0109375\n",
      "note_on channel=2 note=72 velocity=93 time=0\n",
      "note_off channel=1 note=34 velocity=0 time=0.0296875\n",
      "note_off channel=5 note=72 velocity=0 time=0.034374999999999996\n",
      "note_off channel=2 note=72 velocity=0 time=0\n",
      "note_on channel=9 note=63 velocity=52 time=0.0109375\n",
      "note_on channel=9 note=42 velocity=53 time=0\n",
      "note_on channel=5 note=70 velocity=105 time=0\n",
      "note_on channel=2 note=70 velocity=90 time=0\n",
      "note_on channel=1 note=36 velocity=103 time=0\n",
      "note_off channel=9 note=42 velocity=0 time=0.007812499999999999\n",
      "note_off channel=9 note=63 velocity=0 time=0\n",
      "note_off channel=5 note=70 velocity=0 time=0.056249999999999994\n",
      "note_off channel=2 note=70 velocity=0 time=0\n",
      "note_off channel=1 note=36 velocity=0 time=0.0062499999999999995\n",
      "note_on channel=5 note=67 velocity=106 time=0.0046875\n",
      "note_on channel=2 note=67 velocity=91 time=0\n",
      "note_off channel=5 note=67 velocity=0 time=0.0640625\n",
      "note_off channel=2 note=67 velocity=0 time=0\n",
      "note_on channel=9 note=70 velocity=97 time=0.0109375\n",
      "note_on channel=9 note=49 velocity=70 time=0\n",
      "note_on channel=9 note=35 velocity=114 time=0\n",
      "note_on channel=5 note=65 velocity=96 time=0\n",
      "note_on channel=2 note=65 velocity=81 time=0\n",
      "note_on channel=1 note=29 velocity=103 time=0\n",
      "note_on channel=6 note=53 velocity=89 time=0.0031249999999999997\n",
      "note_on channel=6 note=41 velocity=85 time=0\n",
      "note_on channel=6 note=65 velocity=92 time=0.0031249999999999997\n",
      "note_on channel=6 note=56 velocity=97 time=0\n",
      "note_off channel=9 note=35 velocity=0 time=0.0015624999999999999\n",
      "note_off channel=9 note=49 velocity=0 time=0\n",
      "note_off channel=9 note=70 velocity=0 time=0\n",
      "note_on channel=7 note=56 velocity=99 time=0.0015624999999999999\n",
      "note_on channel=6 note=60 velocity=91 time=0\n",
      "note_on channel=7 note=65 velocity=105 time=0.0031249999999999997\n",
      "note_on channel=7 note=60 velocity=110 time=0\n",
      "note_off channel=5 note=65 velocity=0 time=0.20156249999999998\n",
      "note_off channel=2 note=65 velocity=0 time=0\n",
      "note_on channel=9 note=70 velocity=84 time=0.08593749999999999\n",
      "note_off channel=9 note=70 velocity=0 time=0.007812499999999999\n",
      "note_on channel=9 note=40 velocity=71 time=0.1421875\n",
      "note_off channel=9 note=40 velocity=0 time=0.007812499999999999\n",
      "note_on channel=9 note=70 velocity=87 time=0.1421875\n",
      "note_on channel=9 note=40 velocity=101 time=0\n",
      "note_on channel=9 note=35 velocity=111 time=0\n",
      "note_off channel=9 note=35 velocity=0 time=0.007812499999999999\n",
      "note_off channel=9 note=40 velocity=0 time=0\n",
      "note_off channel=9 note=70 velocity=0 time=0\n",
      "note_off channel=7 note=56 velocity=0 time=0.0875\n",
      "note_off channel=6 note=65 velocity=0 time=0\n",
      "note_off channel=7 note=65 velocity=0 time=0.0062499999999999995\n",
      "note_off channel=6 note=56 velocity=0 time=0.0062499999999999995\n",
      "note_off channel=6 note=53 velocity=0 time=0.0031249999999999997\n",
      "note_off channel=7 note=60 velocity=0 time=0.028124999999999997\n",
      "note_off channel=6 note=60 velocity=0 time=0.031249999999999997\n",
      "note_off channel=6 note=41 velocity=0 time=0.06562499999999999\n",
      "note_off channel=1 note=29 velocity=0 time=0.024999999999999998\n",
      "note_on channel=6 note=43 velocity=78 time=0.0296875\n",
      "note_on channel=7 note=58 velocity=80 time=0.0031249999999999997\n",
      "note_on channel=7 note=67 velocity=97 time=0.0031249999999999997\n",
      "note_on channel=6 note=67 velocity=91 time=0\n",
      "note_on channel=6 note=62 velocity=99 time=0\n",
      "note_on channel=6 note=58 velocity=91 time=0\n",
      "note_on channel=6 note=55 velocity=98 time=0\n",
      "note_on channel=9 note=70 velocity=72 time=0.0031249999999999997\n",
      "note_on channel=9 note=57 velocity=62 time=0\n",
      "note_on channel=9 note=35 velocity=113 time=0\n",
      "note_on channel=7 note=62 velocity=99 time=0\n",
      "note_on channel=1 note=31 velocity=99 time=0\n",
      "note_off channel=9 note=35 velocity=0 time=0.007812499999999999\n",
      "note_off channel=9 note=57 velocity=0 time=0\n",
      "note_off channel=9 note=70 velocity=0 time=0\n",
      "note_on channel=9 note=70 velocity=91 time=0.2921875\n",
      "note_off channel=9 note=70 velocity=0 time=0.007812499999999999\n",
      "note_on channel=9 note=40 velocity=81 time=0.1421875\n",
      "note_on channel=5 note=67 velocity=120 time=0.0031249999999999997\n",
      "note_on channel=2 note=67 velocity=105 time=0\n",
      "note_off channel=9 note=40 velocity=0 time=0.0046875\n",
      "note_off channel=5 note=67 velocity=0 time=0.11249999999999999\n",
      "note_off channel=2 note=67 velocity=0 time=0\n",
      "note_on channel=9 note=70 velocity=78 time=0.0296875\n",
      "note_on channel=9 note=40 velocity=111 time=0\n",
      "note_on channel=5 note=70 velocity=122 time=0\n",
      "note_on channel=2 note=70 velocity=107 time=0\n",
      "note_off channel=9 note=40 velocity=0 time=0.007812499999999999\n",
      "note_off channel=9 note=70 velocity=0 time=0\n",
      "note_off channel=5 note=70 velocity=0 time=0.11249999999999999\n",
      "note_off channel=2 note=70 velocity=0 time=0\n",
      "note_on channel=5 note=72 velocity=117 time=0.032812499999999994\n",
      "note_on channel=2 note=72 velocity=102 time=0\n",
      "note_off channel=5 note=72 velocity=0 time=0.12343749999999999\n",
      "note_off channel=2 note=72 velocity=0 time=0\n",
      "note_on channel=9 note=35 velocity=111 time=0.020312499999999997\n",
      "note_on channel=9 note=70 velocity=94 time=0.0031249999999999997\n",
      "note_on channel=9 note=47 velocity=108 time=0\n",
      "note_on channel=5 note=74 velocity=123 time=0\n",
      "note_on channel=2 note=74 velocity=108 time=0\n",
      "note_on channel=9 note=42 velocity=77 time=0.0031249999999999997\n",
      "note_off channel=9 note=35 velocity=0 time=0.0015624999999999999\n",
      "note_off channel=9 note=47 velocity=0 time=0.0031249999999999997\n",
      "note_off channel=9 note=70 velocity=0 time=0\n",
      "note_off channel=9 note=42 velocity=0 time=0.0031249999999999997\n",
      "note_on channel=9 note=47 velocity=87 time=0.1359375\n",
      "note_on channel=5 note=77 velocity=119 time=0.0062499999999999995\n",
      "note_on channel=2 note=77 velocity=104 time=0\n",
      "note_off channel=9 note=47 velocity=0 time=0.0015624999999999999\n",
      "note_off channel=5 note=74 velocity=0 time=0.0062499999999999995\n",
      "note_off channel=2 note=74 velocity=0 time=0\n",
      "note_off channel=5 note=77 velocity=0 time=0.11875\n",
      "note_off channel=2 note=77 velocity=0 time=0\n",
      "note_on channel=9 note=70 velocity=80 time=0.020312499999999997\n",
      "note_on channel=9 note=43 velocity=99 time=0\n",
      "note_on channel=5 note=72 velocity=122 time=0.0031249999999999997\n",
      "note_on channel=2 note=72 velocity=107 time=0\n",
      "note_off channel=9 note=43 velocity=0 time=0.0046875\n",
      "note_off channel=9 note=70 velocity=0 time=0\n",
      "note_off channel=7 note=67 velocity=0 time=0\n",
      "note_off channel=7 note=58 velocity=0 time=0.034374999999999996\n",
      "note_off channel=6 note=62 velocity=0 time=0.0031249999999999997\n",
      "note_off channel=6 note=58 velocity=0 time=0.0062499999999999995\n",
      "note_off channel=6 note=55 velocity=0 time=0.0375\n",
      "note_off channel=5 note=72 velocity=0 time=0.0062499999999999995\n",
      "note_off channel=2 note=72 velocity=0 time=0\n",
      "note_off channel=7 note=62 velocity=0 time=0.0031249999999999997\n",
      "note_off channel=6 note=67 velocity=0 time=0.0062499999999999995\n",
      "note_on channel=5 note=74 velocity=119 time=0.048437499999999994\n",
      "note_on channel=2 note=74 velocity=104 time=0\n",
      "note_off channel=1 note=31 velocity=0 time=0.023437499999999997\n",
      "note_off channel=6 note=43 velocity=0 time=0.0062499999999999995\n",
      "note_off channel=5 note=74 velocity=0 time=0.06874999999999999\n",
      "note_off channel=2 note=74 velocity=0 time=0\n",
      "note_on channel=9 note=70 velocity=85 time=0.048437499999999994\n",
      "note_on channel=9 note=49 velocity=70 time=0\n",
      "note_on channel=9 note=35 velocity=114 time=0\n",
      "note_on channel=1 note=32 velocity=93 time=0\n",
      "note_on channel=5 note=75 velocity=124 time=0.0031249999999999997\n",
      "note_on channel=2 note=75 velocity=109 time=0\n",
      "note_on channel=7 note=68 velocity=82 time=0.0031249999999999997\n",
      "note_on channel=7 note=63 velocity=92 time=0\n",
      "note_on channel=7 note=60 velocity=94 time=0\n",
      "note_on channel=6 note=68 velocity=98 time=0\n",
      "note_on channel=6 note=63 velocity=107 time=0\n",
      "note_on channel=6 note=60 velocity=89 time=0\n",
      "note_off channel=9 note=35 velocity=0 time=0.0015624999999999999\n",
      "note_off channel=9 note=49 velocity=0 time=0\n",
      "note_off channel=9 note=70 velocity=0 time=0\n",
      "note_on channel=6 note=56 velocity=97 time=0.0046875\n",
      "note_on channel=6 note=44 velocity=79 time=0\n",
      "note_off channel=5 note=75 velocity=0 time=0.1734375\n",
      "note_off channel=2 note=75 velocity=0 time=0\n",
      "note_on channel=9 note=70 velocity=82 time=0.1140625\n",
      "note_on channel=9 note=40 velocity=42 time=0\n",
      "note_off channel=9 note=40 velocity=0 time=0.007812499999999999\n",
      "note_off channel=9 note=70 velocity=0 time=0\n",
      "note_on channel=9 note=40 velocity=71 time=0.1421875\n",
      "note_off channel=9 note=40 velocity=0 time=0.007812499999999999\n",
      "note_on channel=9 note=70 velocity=91 time=0.1421875\n",
      "note_on channel=9 note=40 velocity=101 time=0\n",
      "note_on channel=9 note=35 velocity=111 time=0\n",
      "note_off channel=9 note=35 velocity=0 time=0.007812499999999999\n",
      "note_off channel=9 note=40 velocity=0 time=0\n",
      "note_off channel=9 note=70 velocity=0 time=0\n",
      "note_off channel=6 note=63 velocity=0 time=0.08124999999999999\n",
      "note_off channel=7 note=68 velocity=0 time=0.009375\n",
      "note_off channel=6 note=60 velocity=0 time=0.012499999999999999\n",
      "note_off channel=7 note=60 velocity=0 time=0.01875\n",
      "note_off channel=6 note=56 velocity=0 time=0.053125\n",
      "note_off channel=1 note=32 velocity=0 time=0.034374999999999996\n",
      "note_off channel=6 note=68 velocity=0 time=0.049999999999999996\n",
      "note_off channel=7 note=63 velocity=0 time=0.012499999999999999\n",
      "note_on channel=9 note=70 velocity=81 time=0.020312499999999997\n",
      "note_on channel=9 note=57 velocity=62 time=0\n",
      "note_on channel=9 note=35 velocity=113 time=0\n",
      "note_on channel=7 note=67 velocity=100 time=0\n",
      "note_on channel=7 note=62 velocity=96 time=0\n",
      "note_on channel=1 note=31 velocity=94 time=0\n",
      "note_on channel=7 note=58 velocity=98 time=0.0031249999999999997\n",
      "note_on channel=6 note=67 velocity=90 time=0\n",
      "note_on channel=6 note=58 velocity=94 time=0.0031249999999999997\n",
      "note_on channel=6 note=55 velocity=79 time=0\n",
      "note_off channel=9 note=35 velocity=0 time=0.0015624999999999999\n",
      "note_off channel=9 note=57 velocity=0 time=0\n",
      "note_off channel=9 note=70 velocity=0 time=0\n",
      "note_on channel=6 note=62 velocity=81 time=0.0015624999999999999\n",
      "note_on channel=6 note=43 velocity=82 time=0\n",
      "note_off channel=6 note=44 velocity=0 time=0.048437499999999994\n",
      "note_on channel=5 note=72 velocity=123 time=0.23281249999999998\n",
      "note_on channel=2 note=72 velocity=108 time=0\n",
      "note_on channel=9 note=70 velocity=85 time=0.009375\n",
      "note_on channel=9 note=47 velocity=66 time=0\n",
      "note_off channel=9 note=47 velocity=0 time=0.007812499999999999\n",
      "note_off channel=9 note=70 velocity=0 time=0\n",
      "note_on channel=5 note=74 velocity=108 time=0.1328125\n",
      "note_on channel=2 note=74 velocity=93 time=0\n",
      "note_on channel=9 note=47 velocity=81 time=0.009375\n",
      "note_off channel=9 note=47 velocity=0 time=0.007812499999999999\n",
      "note_off channel=5 note=72 velocity=0 time=0.01875\n",
      "note_off channel=2 note=72 velocity=0 time=0\n",
      "note_off channel=5 note=74 velocity=0 time=0.10625\n",
      "note_off channel=2 note=74 velocity=0 time=0\n",
      "note_on channel=5 note=77 velocity=119 time=0.007812499999999999\n",
      "note_on channel=2 note=77 velocity=104 time=0\n",
      "note_on channel=9 note=70 velocity=80 time=0.009375\n",
      "note_on channel=9 note=47 velocity=101 time=0\n",
      "note_off channel=9 note=47 velocity=0 time=0.007812499999999999\n",
      "note_off channel=9 note=70 velocity=0 time=0\n",
      "note_on channel=5 note=72 velocity=118 time=0.1328125\n",
      "note_on channel=2 note=72 velocity=103 time=0\n",
      "note_off channel=5 note=77 velocity=0 time=0.0109375\n",
      "note_off channel=2 note=77 velocity=0 time=0\n",
      "note_off channel=5 note=72 velocity=0 time=0.13749999999999998\n",
      "note_off channel=2 note=72 velocity=0 time=0\n",
      "note_on channel=5 note=74 velocity=117 time=0.0015624999999999999\n",
      "note_on channel=2 note=74 velocity=102 time=0\n",
      "note_on channel=9 note=35 velocity=111 time=0.0062499999999999995\n",
      "note_on channel=9 note=70 velocity=91 time=0.0031249999999999997\n",
      "note_on channel=9 note=43 velocity=108 time=0\n",
      "note_off channel=9 note=35 velocity=0 time=0.0046875\n",
      "note_off channel=9 note=43 velocity=0 time=0.0031249999999999997\n",
      "note_off channel=9 note=70 velocity=0 time=0\n",
      "note_off channel=5 note=74 velocity=0 time=0.12187499999999998\n",
      "note_off channel=2 note=74 velocity=0 time=0\n",
      "note_on channel=5 note=70 velocity=116 time=0.0109375\n",
      "note_on channel=2 note=70 velocity=101 time=0\n",
      "note_on channel=9 note=43 velocity=87 time=0.0062499999999999995\n",
      "note_off channel=9 note=43 velocity=0 time=0.007812499999999999\n",
      "note_off channel=6 note=62 velocity=0 time=0.08437499999999999\n",
      "note_off channel=7 note=62 velocity=0 time=0.015624999999999998\n",
      "note_off channel=5 note=70 velocity=0 time=0.0062499999999999995\n",
      "note_off channel=2 note=70 velocity=0 time=0\n",
      "note_on channel=5 note=67 velocity=114 time=0.0265625\n",
      "note_on channel=2 note=67 velocity=99 time=0\n",
      "note_off channel=7 note=58 velocity=0 time=0.0046875\n",
      "note_on channel=9 note=70 velocity=84 time=0.007812499999999999\n",
      "note_on channel=9 note=43 velocity=95 time=0\n",
      "note_off channel=9 note=43 velocity=0 time=0.007812499999999999\n",
      "note_off channel=9 note=70 velocity=0 time=0\n",
      "note_off channel=6 note=58 velocity=0 time=0.034374999999999996\n",
      "note_off channel=7 note=67 velocity=0 time=0.015624999999999998\n",
      "note_off channel=6 note=67 velocity=0 time=0.049999999999999996\n",
      "note_off channel=1 note=31 velocity=0 time=0\n",
      "note_off channel=5 note=67 velocity=0 time=0.009375\n",
      "note_off channel=2 note=67 velocity=0 time=0\n",
      "note_off channel=6 note=55 velocity=0 time=0.024999999999999998\n",
      "note_off channel=6 note=43 velocity=0 time=0.049999999999999996\n",
      "note_on channel=9 note=70 velocity=97 time=0.10781249999999999\n",
      "note_on channel=9 note=49 velocity=70 time=0\n",
      "note_on channel=9 note=35 velocity=114 time=0\n",
      "note_on channel=6 note=56 velocity=81 time=0\n",
      "note_on channel=6 note=53 velocity=85 time=0\n",
      "note_on channel=5 note=65 velocity=123 time=0\n",
      "note_on channel=2 note=65 velocity=108 time=0\n",
      "note_on channel=1 note=29 velocity=97 time=0\n",
      "note_on channel=6 note=60 velocity=89 time=0.0031249999999999997\n",
      "note_on channel=6 note=41 velocity=75 time=0\n",
      "note_on channel=7 note=65 velocity=91 time=0.0031249999999999997\n",
      "note_on channel=7 note=60 velocity=90 time=0\n",
      "note_on channel=7 note=56 velocity=82 time=0\n",
      "note_on channel=6 note=65 velocity=85 time=0\n",
      "note_off channel=9 note=35 velocity=0 time=0.0015624999999999999\n",
      "note_off channel=9 note=49 velocity=0 time=0\n",
      "note_off channel=9 note=70 velocity=0 time=0\n",
      "note_off channel=5 note=65 velocity=0 time=0.15312499999999998\n",
      "note_off channel=2 note=65 velocity=0 time=0\n",
      "note_on channel=9 note=70 velocity=84 time=0.13906249999999998\n",
      "note_off channel=9 note=70 velocity=0 time=0.007812499999999999\n",
      "note_on channel=9 note=40 velocity=71 time=0.1421875\n",
      "note_off channel=9 note=40 velocity=0 time=0.007812499999999999\n",
      "note_on channel=9 note=70 velocity=87 time=0.1421875\n",
      "note_on channel=9 note=40 velocity=101 time=0\n",
      "note_on channel=9 note=35 velocity=111 time=0\n",
      "note_off channel=9 note=35 velocity=0 time=0.007812499999999999\n",
      "note_off channel=9 note=40 velocity=0 time=0\n",
      "note_off channel=9 note=70 velocity=0 time=0\n",
      "note_off channel=7 note=56 velocity=0 time=0.059375\n",
      "note_off channel=7 note=65 velocity=0 time=0\n",
      "note_off channel=6 note=65 velocity=0 time=0.024999999999999998\n",
      "note_off channel=6 note=56 velocity=0 time=0.034374999999999996\n",
      "note_off channel=7 note=60 velocity=0 time=0.0031249999999999997\n",
      "note_off channel=6 note=53 velocity=0 time=0.0062499999999999995\n",
      "note_off channel=6 note=60 velocity=0 time=0.0062499999999999995\n",
      "note_off channel=1 note=29 velocity=0 time=0.028124999999999997\n",
      "note_off channel=6 note=41 velocity=0 time=0.04375\n",
      "note_on channel=7 note=67 velocity=98 time=0.0828125\n",
      "note_on channel=7 note=58 velocity=93 time=0\n",
      "note_on channel=6 note=67 velocity=89 time=0\n",
      "note_on channel=6 note=62 velocity=91 time=0\n",
      "note_on channel=6 note=58 velocity=91 time=0\n",
      "note_on channel=6 note=55 velocity=87 time=0\n",
      "note_on channel=6 note=43 velocity=77 time=0\n",
      "note_on channel=9 note=70 velocity=72 time=0.0031249999999999997\n",
      "note_on channel=9 note=57 velocity=62 time=0\n",
      "note_on channel=9 note=35 velocity=113 time=0\n",
      "note_on channel=7 note=62 velocity=108 time=0\n",
      "note_on channel=1 note=31 velocity=105 time=0\n",
      "note_off channel=9 note=35 velocity=0 time=0.007812499999999999\n",
      "note_off channel=9 note=57 velocity=0 time=0\n",
      "note_off channel=9 note=70 velocity=0 time=0\n",
      "note_on channel=9 note=70 velocity=91 time=0.2921875\n",
      "note_off channel=9 note=70 velocity=0 time=0.007812499999999999\n",
      "note_off channel=6 note=62 velocity=0 time=0.08124999999999999\n",
      "note_on channel=5 note=67 velocity=123 time=0.05468749999999999\n",
      "note_on channel=2 note=67 velocity=108 time=0\n",
      "note_on channel=9 note=40 velocity=81 time=0.0062499999999999995\n",
      "note_off channel=9 note=40 velocity=0 time=0.007812499999999999\n",
      "note_on channel=6 note=62 velocity=16 time=0.12031249999999999\n",
      "note_off channel=5 note=67 velocity=0 time=0.0046875\n",
      "note_off channel=2 note=67 velocity=0 time=0\n",
      "note_on channel=5 note=70 velocity=122 time=0.0109375\n",
      "note_on channel=2 note=70 velocity=107 time=0\n",
      "note_on channel=9 note=70 velocity=78 time=0.0062499999999999995\n",
      "note_on channel=9 note=40 velocity=111 time=0\n",
      "note_off channel=9 note=40 velocity=0 time=0.007812499999999999\n",
      "note_off channel=9 note=70 velocity=0 time=0\n",
      "note_off channel=5 note=70 velocity=0 time=0.12499999999999999\n",
      "note_off channel=2 note=70 velocity=0 time=0\n",
      "note_on channel=5 note=72 velocity=116 time=0.0109375\n",
      "note_on channel=2 note=72 velocity=101 time=0\n",
      "note_off channel=5 note=72 velocity=0 time=0.13906249999999998\n",
      "note_off channel=2 note=72 velocity=0 time=0\n",
      "note_on channel=5 note=74 velocity=122 time=0.0109375\n",
      "note_on channel=2 note=74 velocity=107 time=0\n",
      "note_on channel=9 note=35 velocity=111 time=0.0031249999999999997\n",
      "note_on channel=9 note=70 velocity=94 time=0.0031249999999999997\n",
      "note_on channel=9 note=47 velocity=108 time=0\n",
      "note_off channel=9 note=35 velocity=0 time=0.0046875\n",
      "note_off channel=9 note=47 velocity=0 time=0.0031249999999999997\n",
      "note_off channel=9 note=70 velocity=0 time=0\n",
      "note_on channel=5 note=77 velocity=116 time=0.1359375\n",
      "note_on channel=2 note=77 velocity=101 time=0\n",
      "note_off channel=5 note=74 velocity=0 time=0.0046875\n",
      "note_off channel=2 note=74 velocity=0 time=0\n",
      "note_off channel=6 note=62 velocity=0 time=0.09999999999999999\n",
      "note_off channel=7 note=62 velocity=0 time=0.009375\n",
      "note_off channel=6 note=58 velocity=0 time=0.009375\n",
      "note_off channel=5 note=77 velocity=0 time=0.015624999999999998\n",
      "note_off channel=2 note=77 velocity=0 time=0\n",
      "note_off channel=6 note=67 velocity=0 time=0.0031249999999999997\n",
      "note_on channel=5 note=70 velocity=120 time=0.007812499999999999\n",
      "note_on channel=2 note=70 velocity=105 time=0\n",
      "note_on channel=9 note=70 velocity=80 time=0.0062499999999999995\n",
      "note_on channel=9 note=43 velocity=99 time=0\n",
      "note_off channel=9 note=43 velocity=0 time=0.007812499999999999\n",
      "note_off channel=9 note=70 velocity=0 time=0\n",
      "note_off channel=7 note=67 velocity=0 time=0.012499999999999999\n",
      "note_off channel=6 note=55 velocity=0 time=0.0031249999999999997\n",
      "note_off channel=7 note=58 velocity=0 time=0.012499999999999999\n",
      "note_off channel=6 note=43 velocity=0 time=0.056249999999999994\n",
      "note_off channel=5 note=70 velocity=0 time=0.040624999999999994\n",
      "note_off channel=2 note=70 velocity=0 time=0\n",
      "note_on channel=5 note=72 velocity=118 time=0.0109375\n",
      "note_on channel=2 note=72 velocity=103 time=0\n",
      "note_on channel=9 note=43 velocity=64 time=0.0062499999999999995\n",
      "note_off channel=9 note=43 velocity=0 time=0.007812499999999999\n",
      "note_off channel=1 note=31 velocity=0 time=0.015624999999999998\n",
      "note_off channel=5 note=72 velocity=0 time=0.10625\n",
      "note_off channel=2 note=72 velocity=0 time=0\n",
      "note_on channel=6 note=68 velocity=99 time=0.007812499999999999\n",
      "note_on channel=6 note=56 velocity=85 time=0\n",
      "note_on channel=6 note=63 velocity=113 time=0.0031249999999999997\n",
      "note_on channel=6 note=60 velocity=89 time=0\n",
      "note_on channel=6 note=44 velocity=78 time=0\n",
      "note_on channel=2 note=75 velocity=108 time=0\n",
      "note_on channel=5 note=75 velocity=123 time=0.0062499999999999995\n",
      "note_off channel=6 note=63 velocity=0 time=0.0015624999999999999\n",
      "note_off channel=6 note=56 velocity=0 time=0\n",
      "note_on channel=9 note=70 velocity=97 time=0.0015624999999999999\n",
      "note_on channel=9 note=49 velocity=56 time=0\n",
      "note_on channel=9 note=35 velocity=111 time=0\n",
      "note_on channel=1 note=32 velocity=120 time=0\n",
      "note_off channel=6 note=60 velocity=0 time=0.0015624999999999999\n",
      "note_on channel=6 note=63 velocity=112 time=0.0046875\n",
      "note_on channel=6 note=56 velocity=97 time=0\n",
      "note_off channel=9 note=35 velocity=0 time=0.0015624999999999999\n",
      "note_off channel=9 note=49 velocity=0 time=0\n",
      "note_off channel=9 note=70 velocity=0 time=0\n",
      "note_on channel=6 note=60 velocity=109 time=0.0015624999999999999\n",
      "note_on channel=7 note=63 velocity=112 time=0.009375\n",
      "note_on channel=7 note=56 velocity=97 time=0\n",
      "note_off channel=2 note=75 velocity=0 time=0.10781249999999999\n",
      "note_off channel=5 note=75 velocity=0 time=0.0062499999999999995\n",
      "note_on channel=9 note=70 velocity=84 time=0.1671875\n",
      "note_on channel=9 note=42 velocity=72 time=0\n",
      "note_on channel=9 note=40 velocity=74 time=0\n",
      "note_off channel=9 note=40 velocity=0 time=0.007812499999999999\n",
      "note_off channel=9 note=42 velocity=0 time=0\n",
      "note_off channel=9 note=70 velocity=0 time=0\n",
      "note_off channel=7 note=56 velocity=0 time=0.06249999999999999\n",
      "note_off channel=7 note=63 velocity=0 time=0.009375\n",
      "note_off channel=6 note=60 velocity=0 time=0.0375\n",
      "note_off channel=6 note=56 velocity=0 time=0.01875\n",
      "note_off channel=6 note=63 velocity=0 time=0.028124999999999997\n",
      "note_off channel=1 note=32 velocity=0 time=0.0062499999999999995\n",
      "note_on channel=5 note=79 velocity=123 time=0.11718749999999999\n",
      "note_on channel=2 note=79 velocity=123 time=0\n",
      "note_on channel=6 note=57 velocity=98 time=0.0062499999999999995\n",
      "note_on channel=6 note=67 velocity=85 time=0.0031249999999999997\n",
      "note_on channel=6 note=63 velocity=90 time=0\n",
      "note_on channel=6 note=60 velocity=92 time=0\n",
      "note_on channel=9 note=70 velocity=87 time=0.0031249999999999997\n",
      "note_on channel=9 note=42 velocity=72 time=0\n",
      "note_on channel=9 note=40 velocity=111 time=0\n",
      "note_on channel=9 note=35 velocity=111 time=0\n",
      "note_on channel=7 note=63 velocity=110 time=0\n",
      "note_on channel=7 note=57 velocity=100 time=0\n",
      "note_on channel=1 note=33 velocity=120 time=0\n",
      "note_off channel=9 note=35 velocity=0 time=0.007812499999999999\n",
      "note_off channel=9 note=40 velocity=0 time=0\n",
      "note_off channel=9 note=42 velocity=0 time=0\n",
      "note_off channel=9 note=70 velocity=0 time=0\n",
      "note_off channel=6 note=68 velocity=0 time=0.021875\n",
      "note_off channel=6 note=60 velocity=0 time=0.0031249999999999997\n",
      "note_off channel=6 note=63 velocity=0 time=0.0375\n",
      "note_off channel=6 note=44 velocity=0 time=0.0875\n",
      "note_off channel=5 note=79 velocity=0 time=0.0375\n",
      "note_off channel=2 note=79 velocity=0 time=0\n",
      "note_on channel=9 note=70 velocity=72 time=0.10468749999999999\n",
      "note_on channel=9 note=42 velocity=72 time=0\n",
      "note_on channel=9 note=40 velocity=74 time=0\n",
      "note_off channel=9 note=40 velocity=0 time=0.007812499999999999\n",
      "note_off channel=9 note=42 velocity=0 time=0\n",
      "note_off channel=9 note=70 velocity=0 time=0\n",
      "note_off channel=7 note=63 velocity=0 time=0.08124999999999999\n",
      "note_off channel=7 note=57 velocity=0 time=0.0062499999999999995\n",
      "note_off channel=6 note=57 velocity=0 time=0.01875\n",
      "note_off channel=1 note=33 velocity=0 time=0.021875\n",
      "note_on channel=9 note=47 velocity=53 time=0.014062499999999999\n",
      "note_off channel=9 note=47 velocity=0 time=0.007812499999999999\n",
      "note_off channel=6 note=67 velocity=0 time=0.0031249999999999997\n",
      "note_on channel=7 note=58 velocity=107 time=0.12031249999999999\n",
      "note_on channel=6 note=63 velocity=107 time=0.009375\n",
      "note_on channel=6 note=58 velocity=96 time=0\n",
      "note_on channel=5 note=82 velocity=123 time=0\n",
      "note_on channel=2 note=82 velocity=123 time=0\n",
      "note_on channel=6 note=67 velocity=89 time=0.0031249999999999997\n",
      "note_on channel=9 note=35 velocity=111 time=0.0031249999999999997\n",
      "note_on channel=9 note=70 velocity=91 time=0.0031249999999999997\n",
      "note_on channel=9 note=43 velocity=53 time=0\n",
      "note_on channel=1 note=34 velocity=121 time=0\n",
      "note_on channel=7 note=63 velocity=108 time=0.0031249999999999997\n",
      "note_off channel=9 note=35 velocity=0 time=0.0015624999999999999\n",
      "note_off channel=9 note=43 velocity=0 time=0.0031249999999999997\n",
      "note_off channel=9 note=70 velocity=0 time=0\n",
      "note_off channel=5 note=82 velocity=0 time=0.13749999999999998\n",
      "note_off channel=2 note=82 velocity=0 time=0\n",
      "note_on channel=9 note=70 velocity=78 time=0.15468749999999998\n",
      "note_on channel=9 note=43 velocity=78 time=0\n",
      "note_off channel=9 note=43 velocity=0 time=0.007812499999999999\n",
      "note_off channel=9 note=70 velocity=0 time=0\n",
      "note_off channel=7 note=58 velocity=0 time=0.09999999999999999\n",
      "note_off channel=7 note=63 velocity=0 time=0.0031249999999999997\n",
      "note_off channel=1 note=34 velocity=0 time=0.015624999999999998\n",
      "note_off channel=6 note=58 velocity=0 time=0.028124999999999997\n",
      "note_off channel=6 note=67 velocity=0 time=0.01875\n",
      "note_off channel=6 note=63 velocity=0 time=0.021875\n",
      "note_on channel=7 note=59 velocity=109 time=0.0984375\n",
      "note_on channel=9 note=35 velocity=111 time=0.0031249999999999997\n",
      "note_on channel=5 note=87 velocity=124 time=0\n",
      "note_on channel=2 note=87 velocity=124 time=0\n",
      "note_on channel=9 note=70 velocity=94 time=0.0031249999999999997\n",
      "note_on channel=9 note=46 velocity=77 time=0\n",
      "note_on channel=7 note=63 velocity=110 time=0\n",
      "note_on channel=1 note=35 velocity=120 time=0\n",
      "note_on channel=9 note=40 velocity=108 time=0.0031249999999999997\n",
      "note_on channel=6 note=67 velocity=91 time=0\n",
      "note_on channel=6 note=63 velocity=107 time=0\n",
      "note_on channel=6 note=59 velocity=98 time=0\n",
      "note_off channel=9 note=35 velocity=0 time=0.0015624999999999999\n",
      "note_off channel=9 note=46 velocity=0 time=0.0031249999999999997\n",
      "note_off channel=9 note=70 velocity=0 time=0\n",
      "note_off channel=9 note=40 velocity=0 time=0.0031249999999999997\n",
      "note_off channel=5 note=87 velocity=0 time=0.140625\n",
      "note_off channel=2 note=87 velocity=0 time=0\n",
      "note_off channel=7 note=63 velocity=0 time=0.11249999999999999\n",
      "note_off channel=7 note=59 velocity=0 time=0.031249999999999997\n",
      "note_on channel=9 note=70 velocity=80 time=0.0046875\n",
      "note_on channel=9 note=42 velocity=72 time=0\n",
      "note_off channel=9 note=42 velocity=0 time=0.007812499999999999\n",
      "note_off channel=9 note=70 velocity=0 time=0\n",
      "note_on channel=7 note=60 velocity=61 time=0.0265625\n",
      "note_off channel=7 note=60 velocity=0 time=0.048437499999999994\n",
      "note_on channel=7 note=59 velocity=52 time=0.014062499999999999\n",
      "note_off channel=1 note=35 velocity=0 time=0.014062499999999999\n",
      "note_off channel=7 note=59 velocity=0 time=0.021875\n",
      "note_on channel=7 note=57 velocity=67 time=0.0109375\n",
      "note_off channel=7 note=57 velocity=0 time=0.032812499999999994\n",
      "note_off channel=6 note=59 velocity=0 time=0.0062499999999999995\n",
      "note_off channel=6 note=63 velocity=0 time=0\n",
      "note_on channel=7 note=55 velocity=67 time=0.0015624999999999999\n",
      "note_off channel=7 note=55 velocity=0 time=0.0359375\n",
      "note_off channel=6 note=67 velocity=0 time=0.009375\n",
      "note_on channel=5 note=84 velocity=125 time=0.0671875\n",
      "note_on channel=2 note=84 velocity=125 time=0\n",
      "note_on channel=9 note=42 velocity=80 time=0.0031249999999999997\n",
      "note_on channel=9 note=35 velocity=110 time=0\n",
      "note_on channel=6 note=63 velocity=99 time=0\n",
      "note_on channel=6 note=60 velocity=99 time=0\n",
      "note_on channel=1 note=36 velocity=116 time=0\n",
      "note_on channel=6 note=48 velocity=101 time=0.0031249999999999997\n",
      "note_off channel=9 note=35 velocity=0 time=0.0046875\n",
      "note_off channel=9 note=42 velocity=0 time=0\n",
      "note_off channel=5 note=84 velocity=0 time=0.08437499999999999\n",
      "note_off channel=2 note=84 velocity=0 time=0\n",
      "note_off channel=1 note=36 velocity=0 time=0.028124999999999997\n",
      "note_on channel=5 note=84 velocity=118 time=0.014062499999999999\n",
      "note_off channel=6 note=60 velocity=0 time=0.0109375\n",
      "note_off channel=6 note=48 velocity=0 time=0.0031249999999999997\n",
      "note_off channel=6 note=63 velocity=0 time=0.012499999999999999\n",
      "note_off channel=5 note=84 velocity=0 time=0.053125\n",
      "note_on channel=6 note=67 velocity=97 time=0.08593749999999999\n",
      "note_on channel=1 note=39 velocity=117 time=0\n",
      "note_on channel=6 note=63 velocity=115 time=0.0031249999999999997\n",
      "note_on channel=6 note=60 velocity=118 time=0\n",
      "note_on channel=6 note=55 velocity=117 time=0\n",
      "note_on channel=5 note=84 velocity=122 time=0\n",
      "note_off channel=6 note=60 velocity=0 time=0.0796875\n",
      "note_off channel=6 note=67 velocity=0 time=0.009375\n",
      "note_off channel=6 note=55 velocity=0 time=0.0031249999999999997\n",
      "note_off channel=6 note=63 velocity=0 time=0.01875\n",
      "note_off channel=5 note=84 velocity=0 time=0.08437499999999999\n",
      "note_on channel=9 note=42 velocity=72 time=0.10156249999999999\n",
      "note_on channel=9 note=40 velocity=111 time=0\n",
      "note_on channel=9 note=35 velocity=110 time=0\n",
      "note_off channel=9 note=35 velocity=0 time=0.007812499999999999\n",
      "note_off channel=9 note=40 velocity=0 time=0\n",
      "note_off channel=9 note=42 velocity=0 time=0\n",
      "note_on channel=6 note=67 velocity=97 time=0.14531249999999998\n",
      "note_on channel=6 note=63 velocity=115 time=0.0031249999999999997\n",
      "note_on channel=6 note=58 velocity=119 time=0\n",
      "note_on channel=6 note=55 velocity=117 time=0\n",
      "note_off channel=6 note=58 velocity=0 time=0.0984375\n",
      "note_off channel=6 note=63 velocity=0 time=0.021875\n",
      "note_off channel=6 note=67 velocity=0 time=0\n",
      "note_off channel=6 note=55 velocity=0 time=0.0031249999999999997\n",
      "note_off channel=1 note=39 velocity=0 time=0.009375\n",
      "note_on channel=9 note=42 velocity=77 time=0.3078125\n",
      "note_on channel=6 note=67 velocity=95 time=0\n",
      "note_on channel=9 note=35 velocity=111 time=0.0031249999999999997\n",
      "note_on channel=6 note=63 velocity=116 time=0\n",
      "note_on channel=6 note=60 velocity=118 time=0\n",
      "note_on channel=6 note=55 velocity=115 time=0\n",
      "note_on channel=1 note=36 velocity=118 time=0\n",
      "note_off channel=9 note=42 velocity=0 time=0.0046875\n",
      "note_off channel=9 note=35 velocity=0 time=0.0031249999999999997\n",
      "note_off channel=6 note=60 velocity=0 time=0.06562499999999999\n",
      "note_off channel=6 note=67 velocity=0 time=0.028124999999999997\n",
      "note_off channel=6 note=55 velocity=0 time=0.0031249999999999997\n",
      "note_off channel=6 note=63 velocity=0 time=0.0031249999999999997\n",
      "note_off channel=1 note=36 velocity=0 time=0\n",
      "note_on channel=1 note=36 velocity=117 time=0.19218749999999998\n",
      "note_on channel=6 note=62 velocity=89 time=0.15\n",
      "note_on channel=6 note=58 velocity=113 time=0.0062499999999999995\n",
      "note_on channel=6 note=55 velocity=119 time=0\n",
      "note_on channel=6 note=50 velocity=106 time=0\n",
      "note_off channel=1 note=36 velocity=0 time=0.10468749999999999\n",
      "note_on channel=9 note=35 velocity=111 time=0.0390625\n",
      "note_on channel=1 note=31 velocity=117 time=0\n",
      "note_on channel=9 note=42 velocity=77 time=0.0031249999999999997\n",
      "note_on channel=9 note=40 velocity=108 time=0\n",
      "note_off channel=9 note=35 velocity=0 time=0.0046875\n",
      "note_off channel=9 note=40 velocity=0 time=0.0031249999999999997\n",
      "note_off channel=9 note=42 velocity=0 time=0\n",
      "note_off channel=6 note=50 velocity=0 time=0.21562499999999998\n",
      "note_off channel=1 note=31 velocity=0 time=0.015624999999999998\n",
      "note_off channel=6 note=62 velocity=0 time=0.015624999999999998\n",
      "note_off channel=6 note=55 velocity=0 time=0.0062499999999999995\n",
      "note_on channel=6 note=62 velocity=108 time=0.0296875\n",
      "note_on channel=6 note=50 velocity=94 time=0.0031249999999999997\n",
      "note_on channel=6 note=53 velocity=110 time=0.0031249999999999997\n",
      "note_on channel=1 note=34 velocity=114 time=0\n",
      "note_off channel=6 note=62 velocity=0 time=0.22343749999999998\n",
      "note_off channel=6 note=53 velocity=0 time=0.0062499999999999995\n",
      "note_off channel=6 note=50 velocity=0 time=0.009375\n",
      "note_off channel=6 note=58 velocity=0 time=0.012499999999999999\n",
      "note_off channel=1 note=34 velocity=0 time=0.012499999999999999\n",
      "note_on channel=5 note=72 velocity=124 time=0.0265625\n",
      "note_on channel=6 note=67 velocity=97 time=0.009375\n",
      "note_on channel=6 note=63 velocity=97 time=0\n",
      "note_on channel=6 note=60 velocity=97 time=0\n",
      "note_on channel=1 note=36 velocity=118 time=0\n",
      "note_on channel=6 note=48 velocity=97 time=0.0031249999999999997\n",
      "note_on channel=9 note=42 velocity=68 time=0.0062499999999999995\n",
      "note_on channel=9 note=35 velocity=111 time=0\n",
      "note_off channel=9 note=35 velocity=0 time=0.007812499999999999\n",
      "note_off channel=9 note=42 velocity=0 time=0\n",
      "note_off channel=6 note=67 velocity=0 time=0.06562499999999999\n",
      "note_off channel=5 note=72 velocity=0 time=0\n",
      "note_off channel=1 note=36 velocity=0 time=0.009375\n",
      "note_on channel=5 note=72 velocity=116 time=0.0390625\n",
      "note_off channel=6 note=60 velocity=0 time=0.014062499999999999\n",
      "note_off channel=6 note=48 velocity=0 time=0.0031249999999999997\n",
      "note_off channel=6 note=63 velocity=0 time=0.012499999999999999\n",
      "note_off channel=5 note=72 velocity=0 time=0.06562499999999999\n",
      "note_on channel=6 note=55 velocity=118 time=0.0703125\n",
      "note_on channel=6 note=63 velocity=115 time=0.0031249999999999997\n",
      "note_on channel=1 note=36 velocity=120 time=0\n",
      "note_on channel=5 note=72 velocity=124 time=0.0031249999999999997\n",
      "note_on channel=6 note=60 velocity=105 time=0.0031249999999999997\n",
      "note_off channel=6 note=60 velocity=0 time=0.0359375\n",
      "note_off channel=6 note=63 velocity=0 time=0.103125\n",
      "note_off channel=6 note=55 velocity=0 time=0.0031249999999999997\n",
      "note_off channel=5 note=72 velocity=0 time=0.053125\n",
      "note_off channel=1 note=36 velocity=0 time=0.08437499999999999\n",
      "note_on channel=1 note=39 velocity=110 time=0.014062499999999999\n",
      "note_on channel=9 note=42 velocity=77 time=0.0031249999999999997\n",
      "note_on channel=9 note=40 velocity=106 time=0\n",
      "note_on channel=9 note=35 velocity=111 time=0.0062499999999999995\n",
      "note_off channel=9 note=40 velocity=0 time=0.0015624999999999999\n",
      "note_off channel=9 note=42 velocity=0 time=0\n",
      "note_off channel=9 note=35 velocity=0 time=0.0062499999999999995\n",
      "note_off channel=1 note=39 velocity=0 time=0.078125\n",
      "note_on channel=6 note=55 velocity=112 time=0.0515625\n",
      "note_on channel=6 note=63 velocity=113 time=0.0031249999999999997\n",
      "note_on channel=6 note=58 velocity=105 time=0\n",
      "note_off channel=6 note=58 velocity=0 time=0.11718749999999999\n",
      "note_off channel=6 note=63 velocity=0 time=0.012499999999999999\n",
      "note_off channel=6 note=55 velocity=0 time=0.009375\n",
      "note_on channel=1 note=39 velocity=120 time=0.0109375\n",
      "note_off channel=1 note=39 velocity=0 time=0.28593749999999996\n",
      "note_on channel=9 note=42 velocity=82 time=0.014062499999999999\n",
      "note_on channel=9 note=35 velocity=111 time=0\n",
      "note_on channel=6 note=63 velocity=114 time=0\n",
      "note_on channel=6 note=55 velocity=114 time=0\n",
      "note_on channel=1 note=36 velocity=118 time=0\n",
      "note_on channel=6 note=60 velocity=117 time=0.0031249999999999997\n",
      "note_off channel=9 note=35 velocity=0 time=0.0046875\n",
      "note_off channel=9 note=42 velocity=0 time=0\n",
      "note_off channel=6 note=60 velocity=0 time=0.06249999999999999\n",
      "note_off channel=1 note=36 velocity=0 time=0.009375\n",
      "note_off channel=6 note=63 velocity=0 time=0.024999999999999998\n",
      "note_off channel=6 note=55 velocity=0 time=0.012499999999999999\n",
      "note_on channel=1 note=36 velocity=120 time=0.1828125\n",
      "note_on channel=6 note=58 velocity=113 time=0.15625\n",
      "note_on channel=6 note=55 velocity=117 time=0\n",
      "note_on channel=6 note=50 velocity=114 time=0\n",
      "note_off channel=1 note=36 velocity=0 time=0.0953125\n",
      "note_on channel=9 note=42 velocity=82 time=0.048437499999999994\n",
      "note_on channel=9 note=40 velocity=111 time=0\n",
      "note_on channel=9 note=35 velocity=111 time=0\n",
      "note_on channel=1 note=31 velocity=108 time=0\n",
      "note_off channel=9 note=35 velocity=0 time=0.007812499999999999\n",
      "note_off channel=9 note=40 velocity=0 time=0\n",
      "note_off channel=9 note=42 velocity=0 time=0\n",
      "note_off channel=6 note=55 velocity=0 time=0.23437499999999997\n",
      "note_off channel=1 note=31 velocity=0 time=0.040624999999999994\n",
      "note_on channel=6 note=53 velocity=117 time=0.014062499999999999\n",
      "note_on channel=1 note=34 velocity=118 time=0.0031249999999999997\n",
      "note_off channel=1 note=34 velocity=0 time=0.14531249999999998\n",
      "note_off channel=6 note=50 velocity=0 time=0.031249999999999997\n",
      "note_off channel=6 note=53 velocity=0 time=0.049999999999999996\n",
      "note_off channel=6 note=58 velocity=0 time=0\n",
      "note_on channel=15 note=72 velocity=1 time=0.07343749999999999\n",
      "note_on channel=9 note=70 velocity=97 time=0\n",
      "note_on channel=9 note=42 velocity=80 time=0\n",
      "note_on channel=9 note=35 velocity=111 time=0\n",
      "note_on channel=6 note=63 velocity=99 time=0\n",
      "note_on channel=6 note=60 velocity=99 time=0\n",
      "note_on channel=4 note=79 velocity=99 time=0\n",
      "note_on channel=3 note=79 velocity=124 time=0\n",
      "note_on channel=1 note=36 velocity=118 time=0\n",
      "note_on channel=6 note=48 velocity=101 time=0.0031249999999999997\n",
      "note_off channel=9 note=35 velocity=0 time=0.0046875\n",
      "note_off channel=9 note=42 velocity=0 time=0\n",
      "note_off channel=9 note=70 velocity=0 time=0\n",
      "note_off channel=1 note=36 velocity=0 time=0.10625\n",
      "note_off channel=6 note=60 velocity=0 time=0.031249999999999997\n",
      "note_off channel=6 note=48 velocity=0 time=0.0031249999999999997\n",
      "note_off channel=6 note=63 velocity=0 time=0.012499999999999999\n",
      "note_on channel=9 note=70 velocity=84 time=0.13906249999999998\n",
      "note_on channel=6 note=67 velocity=97 time=0\n",
      "note_on channel=1 note=36 velocity=119 time=0\n",
      "note_on channel=6 note=63 velocity=115 time=0.0031249999999999997\n",
      "note_on channel=6 note=60 velocity=118 time=0\n",
      "note_on channel=6 note=55 velocity=117 time=0\n",
      "note_off channel=9 note=70 velocity=0 time=0.0046875\n",
      "note_off channel=6 note=60 velocity=0 time=0.075\n",
      "note_off channel=6 note=67 velocity=0 time=0.009375\n",
      "note_off channel=6 note=55 velocity=0 time=0.0031249999999999997\n",
      "note_off channel=6 note=63 velocity=0 time=0.01875\n",
      "note_off channel=4 note=79 velocity=0 time=0.0062499999999999995\n",
      "note_off channel=3 note=79 velocity=0 time=0\n",
      "note_on channel=4 note=77 velocity=100 time=0.1640625\n",
      "note_on channel=3 note=77 velocity=125 time=0\n",
      "note_off channel=1 note=36 velocity=0 time=0.0015624999999999999\n",
      "note_off channel=15 note=72 velocity=0 time=0.009375\n",
      "note_on channel=15 note=67 velocity=1 time=0.0046875\n",
      "note_on channel=9 note=70 velocity=87 time=0\n",
      "note_on channel=9 note=42 velocity=72 time=0\n",
      "note_on channel=9 note=40 velocity=111 time=0\n",
      "note_on channel=9 note=35 velocity=111 time=0\n",
      "note_on channel=1 note=39 velocity=116 time=0\n",
      "note_off channel=9 note=35 velocity=0 time=0.007812499999999999\n",
      "note_off channel=9 note=40 velocity=0 time=0\n",
      "note_off channel=9 note=42 velocity=0 time=0\n",
      "note_off channel=9 note=70 velocity=0 time=0\n",
      "note_off channel=1 note=39 velocity=0 time=0.071875\n",
      "note_off channel=3 note=77 velocity=0 time=0.053125\n",
      "note_on channel=4 note=75 velocity=97 time=0.007812499999999999\n",
      "note_on channel=3 note=75 velocity=122 time=0\n",
      "note_off channel=4 note=77 velocity=0 time=0.0046875\n",
      "note_on channel=6 note=67 velocity=97 time=0.007812499999999999\n",
      "note_on channel=6 note=63 velocity=115 time=0.0031249999999999997\n",
      "note_on channel=6 note=58 velocity=119 time=0\n",
      "note_on channel=6 note=55 velocity=117 time=0\n",
      "note_off channel=6 note=58 velocity=0 time=0.0984375\n",
      "note_off channel=6 note=63 velocity=0 time=0.021875\n",
      "note_off channel=6 note=67 velocity=0 time=0\n",
      "note_off channel=6 note=55 velocity=0 time=0.0031249999999999997\n",
      "note_on channel=9 note=70 velocity=72 time=0.020312499999999997\n",
      "note_on channel=1 note=39 velocity=116 time=0\n",
      "note_off channel=9 note=70 velocity=0 time=0.007812499999999999\n",
      "note_off channel=4 note=75 velocity=0 time=0.08124999999999999\n",
      "note_off channel=3 note=75 velocity=0 time=0\n",
      "note_off channel=15 note=67 velocity=0 time=0.056249999999999994\n",
      "note_on channel=15 note=72 velocity=1 time=0.0046875\n",
      "note_on channel=4 note=79 velocity=98 time=0.024999999999999998\n",
      "note_on channel=3 note=79 velocity=123 time=0\n",
      "note_off channel=1 note=39 velocity=0 time=0.1109375\n",
      "note_on channel=9 note=42 velocity=80 time=0.0109375\n",
      "note_on channel=9 note=35 velocity=111 time=0\n",
      "note_on channel=6 note=67 velocity=95 time=0\n",
      "note_on channel=9 note=70 velocity=91 time=0.0031249999999999997\n",
      "note_on channel=6 note=63 velocity=116 time=0\n",
      "note_on channel=6 note=60 velocity=118 time=0\n",
      "note_on channel=6 note=55 velocity=115 time=0\n",
      "note_on channel=1 note=36 velocity=113 time=0\n",
      "note_off channel=9 note=35 velocity=0 time=0.0046875\n",
      "note_off channel=9 note=42 velocity=0 time=0\n",
      "note_off channel=9 note=70 velocity=0 time=0.0031249999999999997\n",
      "note_on channel=5 note=65 velocity=125 time=0.0109375\n",
      "note_off channel=6 note=60 velocity=0 time=0.05468749999999999\n",
      "note_off channel=1 note=36 velocity=0 time=0\n",
      "note_off channel=6 note=67 velocity=0 time=0.028124999999999997\n",
      "note_off channel=6 note=55 velocity=0 time=0.0031249999999999997\n",
      "note_off channel=6 note=63 velocity=0 time=0.0031249999999999997\n",
      "note_off channel=5 note=65 velocity=0 time=0.04687499999999999\n",
      "note_on channel=5 note=66 velocity=116 time=0.0015624999999999999\n",
      "note_off channel=5 note=66 velocity=0 time=0.1140625\n",
      "note_on channel=9 note=70 velocity=78 time=0.0296875\n",
      "note_on channel=1 note=36 velocity=121 time=0\n",
      "note_on channel=5 note=67 velocity=117 time=0.0062499999999999995\n",
      "note_off channel=9 note=70 velocity=0 time=0.0015624999999999999\n",
      "note_off channel=5 note=67 velocity=0 time=0.13124999999999998\n",
      "note_on channel=6 note=62 velocity=89 time=0.0109375\n",
      "note_on channel=6 note=58 velocity=113 time=0.0062499999999999995\n",
      "note_on channel=6 note=55 velocity=119 time=0\n",
      "note_on channel=6 note=50 velocity=106 time=0\n",
      "note_on channel=5 note=70 velocity=122 time=0.0031249999999999997\n",
      "note_off channel=4 note=79 velocity=0 time=0.0015624999999999999\n",
      "note_off channel=3 note=79 velocity=0 time=0\n",
      "note_off channel=5 note=70 velocity=0 time=0.08437499999999999\n",
      "note_on channel=5 note=75 velocity=121 time=0.0109375\n",
      "note_off channel=1 note=36 velocity=0 time=0.020312499999999997\n",
      "note_on channel=9 note=35 velocity=111 time=0.020312499999999997\n",
      "note_on channel=9 note=70 velocity=94 time=0.0031249999999999997\n",
      "note_on channel=1 note=31 velocity=118 time=0\n",
      "note_on channel=9 note=42 velocity=77 time=0.0031249999999999997\n",
      "note_on channel=9 note=40 velocity=108 time=0\n",
      "note_off channel=9 note=35 velocity=0 time=0.0015624999999999999\n",
      "note_off channel=9 note=70 velocity=0 time=0.0031249999999999997\n",
      "note_off channel=9 note=40 velocity=0 time=0.0031249999999999997\n",
      "note_off channel=9 note=42 velocity=0 time=0\n",
      "note_off channel=5 note=75 velocity=0 time=0.08437499999999999\n",
      "note_on channel=5 note=72 velocity=119 time=0.0390625\n",
      "note_off channel=6 note=50 velocity=0 time=0.09218749999999999\n",
      "note_off channel=5 note=72 velocity=0 time=0.012499999999999999\n",
      "note_off channel=6 note=62 velocity=0 time=0.01875\n",
      "note_off channel=6 note=55 velocity=0 time=0.0062499999999999995\n",
      "note_on channel=5 note=77 velocity=114 time=0.0046875\n",
      "note_off channel=1 note=31 velocity=0 time=0.0015624999999999999\n",
      "note_off channel=6 note=58 velocity=0 time=0.01875\n",
      "note_on channel=6 note=50 velocity=94 time=0.007812499999999999\n",
      "note_on channel=9 note=70 velocity=80 time=0.0031249999999999997\n",
      "note_on channel=6 note=58 velocity=90 time=0\n",
      "note_on channel=6 note=53 velocity=110 time=0\n",
      "note_on channel=1 note=34 velocity=118 time=0\n",
      "note_off channel=9 note=70 velocity=0 time=0.007812499999999999\n",
      "note_on channel=5 note=75 velocity=115 time=0.12968749999999998\n",
      "note_off channel=5 note=77 velocity=0 time=0.017187499999999998\n",
      "note_off channel=6 note=58 velocity=0 time=0.071875\n",
      "note_off channel=6 note=53 velocity=0 time=0.0031249999999999997\n",
      "note_off channel=6 note=50 velocity=0 time=0.009375\n",
      "note_off channel=1 note=34 velocity=0 time=0.01875\n",
      "note_off channel=15 note=72 velocity=0 time=0.0375\n",
      "note_on channel=9 note=70 velocity=85 time=0.0046875\n",
      "note_on channel=6 note=67 velocity=97 time=0\n",
      "note_on channel=6 note=63 velocity=97 time=0\n",
      "note_on channel=6 note=60 velocity=97 time=0\n",
      "note_on channel=1 note=36 velocity=118 time=0\n",
      "note_on channel=6 note=48 velocity=97 time=0.0031249999999999997\n",
      "note_off channel=9 note=70 velocity=0 time=0.0046875\n",
      "note_on channel=9 note=42 velocity=80 time=0.0015624999999999999\n",
      "note_on channel=9 note=35 velocity=111 time=0\n",
      "note_off channel=9 note=35 velocity=0 time=0.007812499999999999\n",
      "note_off channel=9 note=42 velocity=0 time=0\n",
      "note_off channel=6 note=67 velocity=0 time=0.06562499999999999\n",
      "note_off channel=1 note=36 velocity=0 time=0.01875\n",
      "note_off channel=6 note=60 velocity=0 time=0.04375\n",
      "note_off channel=6 note=48 velocity=0 time=0.0031249999999999997\n",
      "note_off channel=6 note=63 velocity=0 time=0.012499999999999999\n",
      "note_on channel=6 note=55 velocity=118 time=0.1359375\n",
      "note_on channel=9 note=70 velocity=82 time=0.0031249999999999997\n",
      "note_on channel=6 note=63 velocity=115 time=0\n",
      "note_on channel=1 note=36 velocity=118 time=0\n",
      "note_on channel=6 note=60 velocity=105 time=0.0062499999999999995\n",
      "note_off channel=9 note=70 velocity=0 time=0.0015624999999999999\n",
      "note_off channel=6 note=60 velocity=0 time=0.034374999999999996\n",
      "note_off channel=6 note=63 velocity=0 time=0.103125\n",
      "note_off channel=6 note=55 velocity=0 time=0.0031249999999999997\n",
      "note_off channel=1 note=36 velocity=0 time=0.13749999999999998\n",
      "note_on channel=9 note=70 velocity=91 time=0.014062499999999999\n",
      "note_on channel=1 note=39 velocity=111 time=0\n",
      "note_on channel=9 note=42 velocity=77 time=0.0031249999999999997\n",
      "note_on channel=9 note=40 velocity=106 time=0\n",
      "note_off channel=9 note=70 velocity=0 time=0.0046875\n",
      "note_on channel=9 note=35 velocity=111 time=0.0015624999999999999\n",
      "note_off channel=9 note=40 velocity=0 time=0.0015624999999999999\n",
      "note_off channel=9 note=42 velocity=0 time=0\n",
      "note_off channel=9 note=35 velocity=0 time=0.0062499999999999995\n",
      "note_off channel=1 note=39 velocity=0 time=0.071875\n",
      "note_on channel=6 note=55 velocity=112 time=0.057812499999999996\n",
      "note_on channel=6 note=63 velocity=113 time=0.0031249999999999997\n",
      "note_on channel=6 note=58 velocity=105 time=0\n",
      "note_off channel=6 note=58 velocity=0 time=0.11718749999999999\n",
      "note_off channel=6 note=63 velocity=0 time=0.012499999999999999\n",
      "note_off channel=6 note=55 velocity=0 time=0.009375\n",
      "note_on channel=9 note=70 velocity=81 time=0.0109375\n",
      "note_on channel=1 note=39 velocity=115 time=0\n",
      "note_off channel=9 note=70 velocity=0 time=0.007812499999999999\n",
      "note_off channel=1 note=39 velocity=0 time=0.27812499999999996\n",
      "note_on channel=9 note=70 velocity=85 time=0.014062499999999999\n",
      "note_on channel=9 note=42 velocity=82 time=0\n",
      "note_on channel=9 note=35 velocity=111 time=0\n",
      "note_on channel=6 note=63 velocity=114 time=0\n",
      "note_on channel=6 note=55 velocity=114 time=0\n",
      "note_on channel=1 note=36 velocity=119 time=0\n",
      "note_on channel=6 note=60 velocity=117 time=0.0031249999999999997\n",
      "note_off channel=9 note=35 velocity=0 time=0.0046875\n",
      "note_off channel=9 note=42 velocity=0 time=0\n",
      "note_off channel=9 note=70 velocity=0 time=0\n",
      "note_off channel=6 note=60 velocity=0 time=0.06249999999999999\n",
      "note_off channel=1 note=36 velocity=0 time=0.01875\n",
      "note_off channel=6 note=63 velocity=0 time=0.015624999999999998\n",
      "note_off channel=6 note=55 velocity=0 time=0.012499999999999999\n",
      "note_on channel=9 note=70 velocity=80 time=0.1828125\n",
      "note_on channel=1 note=36 velocity=120 time=0\n",
      "note_off channel=9 note=70 velocity=0 time=0.007812499999999999\n",
      "note_on channel=6 note=58 velocity=113 time=0.1484375\n",
      "note_on channel=6 note=55 velocity=117 time=0\n",
      "note_on channel=6 note=50 velocity=114 time=0\n",
      "note_off channel=1 note=36 velocity=0 time=0.10781249999999999\n",
      "note_on channel=9 note=70 velocity=91 time=0.0359375\n",
      "note_on channel=9 note=42 velocity=64 time=0\n",
      "note_on channel=9 note=40 velocity=111 time=0\n",
      "note_on channel=9 note=35 velocity=111 time=0\n",
      "note_on channel=1 note=31 velocity=120 time=0\n",
      "note_off channel=9 note=35 velocity=0 time=0.007812499999999999\n",
      "note_off channel=9 note=40 velocity=0 time=0\n",
      "note_off channel=9 note=42 velocity=0 time=0\n",
      "note_off channel=9 note=70 velocity=0 time=0\n",
      "note_off channel=6 note=55 velocity=0 time=0.23437499999999997\n",
      "note_off channel=1 note=31 velocity=0 time=0.01875\n",
      "note_off channel=5 note=75 velocity=0 time=0.009375\n",
      "note_on channel=6 note=53 velocity=117 time=0.0265625\n",
      "note_on channel=9 note=70 velocity=84 time=0.0031249999999999997\n",
      "note_on channel=1 note=34 velocity=115 time=0\n",
      "note_off channel=9 note=70 velocity=0 time=0.007812499999999999\n",
      "note_off channel=6 note=50 velocity=0 time=0.16874999999999998\n",
      "note_off channel=6 note=53 velocity=0 time=0.049999999999999996\n",
      "note_off channel=6 note=58 velocity=0 time=0\n",
      "note_off channel=1 note=34 velocity=0 time=0.056249999999999994\n",
      "note_on channel=15 note=72 velocity=1 time=0.017187499999999998\n",
      "note_on channel=9 note=70 velocity=97 time=0\n",
      "note_on channel=9 note=42 velocity=80 time=0\n",
      "note_on channel=9 note=35 velocity=110 time=0\n",
      "note_on channel=6 note=63 velocity=99 time=0\n",
      "note_on channel=6 note=60 velocity=99 time=0\n",
      "note_on channel=1 note=36 velocity=116 time=0\n",
      "note_on channel=6 note=48 velocity=101 time=0.0031249999999999997\n",
      "note_on channel=4 note=72 velocity=100 time=0\n",
      "note_on channel=3 note=72 velocity=125 time=0\n",
      "note_off channel=9 note=35 velocity=0 time=0.0046875\n",
      "note_off channel=9 note=42 velocity=0 time=0\n",
      "note_off channel=9 note=70 velocity=0 time=0\n",
      "note_off channel=1 note=36 velocity=0 time=0.11249999999999999\n",
      "note_off channel=6 note=60 velocity=0 time=0.024999999999999998\n",
      "note_off channel=6 note=48 velocity=0 time=0.0031249999999999997\n",
      "note_off channel=6 note=63 velocity=0 time=0.012499999999999999\n",
      "note_on channel=9 note=70 velocity=84 time=0.13906249999999998\n",
      "note_on channel=6 note=67 velocity=97 time=0\n",
      "note_on channel=1 note=36 velocity=117 time=0\n",
      "note_on channel=6 note=63 velocity=115 time=0.0031249999999999997\n",
      "note_on channel=6 note=60 velocity=118 time=0\n",
      "note_on channel=6 note=55 velocity=117 time=0\n",
      "note_off channel=9 note=70 velocity=0 time=0.0046875\n",
      "note_off channel=6 note=60 velocity=0 time=0.075\n",
      "note_off channel=6 note=67 velocity=0 time=0.009375\n",
      "note_off channel=6 note=55 velocity=0 time=0.0031249999999999997\n",
      "note_off channel=4 note=72 velocity=0 time=0.0031249999999999997\n",
      "note_off channel=3 note=72 velocity=0 time=0\n",
      "note_off channel=6 note=63 velocity=0 time=0.015624999999999998\n",
      "note_off channel=1 note=36 velocity=0 time=0.17187499999999997\n",
      "note_on channel=4 note=75 velocity=101 time=0.007812499999999999\n",
      "note_on channel=3 note=75 velocity=126 time=0\n",
      "note_off channel=15 note=72 velocity=0 time=0.0015624999999999999\n",
      "note_on channel=15 note=67 velocity=1 time=0.0046875\n",
      "note_on channel=9 note=70 velocity=87 time=0\n",
      "note_on channel=9 note=42 velocity=72 time=0\n",
      "note_on channel=9 note=40 velocity=111 time=0\n",
      "note_on channel=9 note=35 velocity=110 time=0\n",
      "note_on channel=1 note=39 velocity=113 time=0\n",
      "note_off channel=9 note=35 velocity=0 time=0.007812499999999999\n",
      "note_off channel=9 note=40 velocity=0 time=0\n",
      "note_off channel=9 note=42 velocity=0 time=0\n",
      "note_off channel=9 note=70 velocity=0 time=0\n",
      "note_off channel=1 note=39 velocity=0 time=0.090625\n",
      "note_off channel=4 note=75 velocity=0 time=0.024999999999999998\n",
      "note_off channel=3 note=75 velocity=0 time=0\n",
      "note_on channel=6 note=67 velocity=97 time=0.0296875\n",
      "note_on channel=6 note=63 velocity=115 time=0.0031249999999999997\n",
      "note_on channel=6 note=58 velocity=119 time=0\n",
      "note_on channel=6 note=55 velocity=117 time=0\n",
      "note_on channel=4 note=77 velocity=96 time=0\n",
      "note_on channel=3 note=77 velocity=121 time=0\n",
      "note_off channel=6 note=58 velocity=0 time=0.0984375\n",
      "note_off channel=6 note=63 velocity=0 time=0.021875\n",
      "note_off channel=6 note=67 velocity=0 time=0\n",
      "note_off channel=6 note=55 velocity=0 time=0.0031249999999999997\n",
      "note_on channel=9 note=70 velocity=72 time=0.020312499999999997\n",
      "note_on channel=1 note=39 velocity=116 time=0\n",
      "note_off channel=9 note=70 velocity=0 time=0.007812499999999999\n",
      "note_off channel=15 note=67 velocity=0 time=0.13749999999999998\n",
      "note_on channel=15 note=72 velocity=1 time=0.0046875\n",
      "note_off channel=4 note=77 velocity=0 time=0.0015624999999999999\n",
      "note_off channel=3 note=77 velocity=0 time=0\n",
      "note_on channel=4 note=72 velocity=100 time=0.0265625\n",
      "note_on channel=3 note=72 velocity=125 time=0\n",
      "note_off channel=1 note=39 velocity=0 time=0.0984375\n",
      "note_on channel=9 note=42 velocity=77 time=0.020312499999999997\n",
      "note_on channel=6 note=67 velocity=95 time=0\n",
      "note_on channel=9 note=70 velocity=91 time=0.0031249999999999997\n",
      "note_on channel=9 note=35 velocity=111 time=0\n",
      "note_on channel=6 note=63 velocity=116 time=0\n",
      "note_on channel=6 note=60 velocity=118 time=0\n",
      "note_on channel=6 note=55 velocity=115 time=0\n",
      "note_on channel=1 note=36 velocity=118 time=0\n",
      "note_on channel=5 note=65 velocity=125 time=0.0031249999999999997\n",
      "note_off channel=9 note=42 velocity=0 time=0.0015624999999999999\n",
      "note_off channel=9 note=35 velocity=0 time=0.0031249999999999997\n",
      "note_off channel=9 note=70 velocity=0 time=0\n",
      "note_off channel=6 note=60 velocity=0 time=0.06562499999999999\n",
      "note_off channel=6 note=67 velocity=0 time=0.028124999999999997\n",
      "note_off channel=6 note=55 velocity=0 time=0.0031249999999999997\n",
      "note_off channel=6 note=63 velocity=0 time=0.0031249999999999997\n",
      "note_off channel=1 note=36 velocity=0 time=0\n",
      "note_off channel=5 note=65 velocity=0 time=0.024999999999999998\n",
      "note_on channel=5 note=66 velocity=118 time=0.0109375\n",
      "note_off channel=5 note=66 velocity=0 time=0.1109375\n",
      "note_on channel=5 note=67 velocity=115 time=0.0390625\n",
      "note_on channel=9 note=70 velocity=78 time=0.0062499999999999995\n",
      "note_on channel=1 note=36 velocity=117 time=0\n",
      "note_off channel=9 note=70 velocity=0 time=0.007812499999999999\n",
      "note_off channel=5 note=67 velocity=0 time=0.11875\n",
      "note_on channel=5 note=70 velocity=121 time=0.017187499999999998\n",
      "note_on channel=6 note=62 velocity=89 time=0.0062499999999999995\n",
      "note_on channel=6 note=58 velocity=113 time=0.0062499999999999995\n",
      "note_on channel=6 note=55 velocity=119 time=0\n",
      "note_on channel=6 note=50 velocity=106 time=0\n",
      "note_off channel=5 note=70 velocity=0 time=0.07343749999999999\n",
      "note_off channel=4 note=72 velocity=0 time=0.021875\n",
      "note_off channel=3 note=72 velocity=0 time=0\n",
      "note_off channel=1 note=36 velocity=0 time=0.009375\n",
      "note_on channel=5 note=72 velocity=120 time=0.017187499999999998\n",
      "note_on channel=9 note=70 velocity=94 time=0.021875\n",
      "note_on channel=9 note=35 velocity=111 time=0\n",
      "note_on channel=1 note=31 velocity=117 time=0\n",
      "note_on channel=9 note=42 velocity=77 time=0.0031249999999999997\n",
      "note_on channel=9 note=40 velocity=108 time=0\n",
      "note_off channel=9 note=35 velocity=0 time=0.0046875\n",
      "note_off channel=9 note=70 velocity=0 time=0\n",
      "note_off channel=9 note=40 velocity=0 time=0.0031249999999999997\n",
      "note_off channel=9 note=42 velocity=0 time=0\n",
      "note_off channel=5 note=72 velocity=0 time=0.10937499999999999\n",
      "note_on channel=5 note=70 velocity=117 time=0.017187499999999998\n",
      "note_off channel=5 note=70 velocity=0 time=0.0828125\n",
      "note_off channel=6 note=50 velocity=0 time=0.0062499999999999995\n",
      "note_off channel=1 note=31 velocity=0 time=0.015624999999999998\n",
      "note_off channel=6 note=62 velocity=0 time=0.015624999999999998\n",
      "note_off channel=6 note=55 velocity=0 time=0.0062499999999999995\n",
      "note_on channel=5 note=75 velocity=111 time=0.007812499999999999\n",
      "note_on channel=6 note=62 velocity=68 time=0.021875\n",
      "note_on channel=6 note=50 velocity=94 time=0.0031249999999999997\n",
      "note_on channel=9 note=70 velocity=80 time=0.0031249999999999997\n",
      "note_on channel=6 note=53 velocity=110 time=0\n",
      "note_on channel=1 note=34 velocity=114 time=0\n",
      "note_off channel=9 note=70 velocity=0 time=0.007812499999999999\n",
      "note_off channel=5 note=75 velocity=0 time=0.11562499999999999\n",
      "note_on channel=5 note=72 velocity=117 time=0.007812499999999999\n",
      "note_off channel=6 note=62 velocity=0 time=0.09218749999999999\n",
      "note_off channel=6 note=53 velocity=0 time=0.0062499999999999995\n",
      "note_off channel=6 note=50 velocity=0 time=0.009375\n",
      "note_off channel=6 note=58 velocity=0 time=0.012499999999999999\n",
      "note_off channel=1 note=34 velocity=0 time=0.012499999999999999\n",
      "note_off channel=15 note=72 velocity=0 time=0.031249999999999997\n",
      "note_on channel=9 note=70 velocity=85 time=0.0046875\n",
      "note_on channel=6 note=67 velocity=97 time=0\n",
      "note_on channel=6 note=63 velocity=97 time=0\n",
      "note_on channel=6 note=60 velocity=97 time=0\n",
      "note_on channel=1 note=36 velocity=118 time=0\n",
      "note_on channel=6 note=48 velocity=97 time=0.0031249999999999997\n",
      "note_off channel=9 note=70 velocity=0 time=0.0046875\n",
      "note_on channel=9 note=42 velocity=68 time=0.0015624999999999999\n",
      "note_on channel=9 note=35 velocity=111 time=0\n",
      "note_off channel=9 note=35 velocity=0 time=0.007812499999999999\n",
      "note_off channel=9 note=42 velocity=0 time=0\n",
      "note_off channel=6 note=67 velocity=0 time=0.06562499999999999\n",
      "note_off channel=1 note=36 velocity=0 time=0.009375\n",
      "note_off channel=6 note=60 velocity=0 time=0.053125\n",
      "note_off channel=6 note=48 velocity=0 time=0.0031249999999999997\n",
      "note_off channel=6 note=63 velocity=0 time=0.012499999999999999\n",
      "note_on channel=6 note=55 velocity=118 time=0.1359375\n",
      "note_on channel=9 note=70 velocity=82 time=0.0031249999999999997\n",
      "note_on channel=6 note=63 velocity=115 time=0\n",
      "note_on channel=1 note=36 velocity=120 time=0\n",
      "note_on channel=6 note=60 velocity=105 time=0.0062499999999999995\n",
      "note_off channel=9 note=70 velocity=0 time=0.0015624999999999999\n",
      "note_off channel=6 note=60 velocity=0 time=0.034374999999999996\n",
      "note_off channel=6 note=63 velocity=0 time=0.103125\n",
      "note_off channel=6 note=55 velocity=0 time=0.0031249999999999997\n",
      "note_off channel=1 note=36 velocity=0 time=0.13749999999999998\n",
      "note_on channel=9 note=70 velocity=91 time=0.014062499999999999\n",
      "note_on channel=1 note=39 velocity=110 time=0\n",
      "note_on channel=9 note=42 velocity=77 time=0.0031249999999999997\n",
      "note_on channel=9 note=40 velocity=106 time=0\n",
      "note_off channel=9 note=70 velocity=0 time=0.0046875\n",
      "note_on channel=9 note=35 velocity=111 time=0.0015624999999999999\n",
      "note_off channel=9 note=40 velocity=0 time=0.0015624999999999999\n",
      "note_off channel=9 note=42 velocity=0 time=0\n",
      "note_off channel=9 note=35 velocity=0 time=0.0062499999999999995\n",
      "note_off channel=1 note=39 velocity=0 time=0.078125\n",
      "note_on channel=6 note=55 velocity=112 time=0.0515625\n",
      "note_on channel=6 note=63 velocity=113 time=0.0031249999999999997\n",
      "note_on channel=6 note=58 velocity=105 time=0\n",
      "note_off channel=6 note=58 velocity=0 time=0.11718749999999999\n",
      "note_off channel=6 note=63 velocity=0 time=0.012499999999999999\n",
      "note_off channel=6 note=55 velocity=0 time=0.009375\n",
      "note_on channel=9 note=70 velocity=81 time=0.0109375\n",
      "note_on channel=1 note=39 velocity=120 time=0\n",
      "note_off channel=9 note=70 velocity=0 time=0.007812499999999999\n",
      "note_off channel=1 note=39 velocity=0 time=0.27812499999999996\n",
      "note_on channel=9 note=70 velocity=85 time=0.014062499999999999\n",
      "note_on channel=9 note=42 velocity=82 time=0\n",
      "note_on channel=9 note=35 velocity=111 time=0\n",
      "note_on channel=6 note=63 velocity=114 time=0\n",
      "note_on channel=6 note=55 velocity=114 time=0\n",
      "note_on channel=1 note=36 velocity=118 time=0\n",
      "note_on channel=6 note=60 velocity=117 time=0.0031249999999999997\n",
      "note_off channel=9 note=35 velocity=0 time=0.0046875\n",
      "note_off channel=9 note=42 velocity=0 time=0\n",
      "note_off channel=9 note=70 velocity=0 time=0\n",
      "note_off channel=6 note=60 velocity=0 time=0.06249999999999999\n",
      "note_off channel=1 note=36 velocity=0 time=0.009375\n",
      "note_off channel=6 note=63 velocity=0 time=0.024999999999999998\n",
      "note_off channel=6 note=55 velocity=0 time=0.012499999999999999\n",
      "note_on channel=9 note=70 velocity=80 time=0.1828125\n",
      "note_on channel=1 note=36 velocity=120 time=0\n",
      "note_off channel=9 note=70 velocity=0 time=0.007812499999999999\n",
      "note_on channel=6 note=58 velocity=113 time=0.1484375\n",
      "note_on channel=6 note=55 velocity=117 time=0\n",
      "note_on channel=6 note=50 velocity=114 time=0\n",
      "note_off channel=1 note=36 velocity=0 time=0.0953125\n",
      "note_on channel=9 note=70 velocity=91 time=0.048437499999999994\n",
      "note_on channel=9 note=42 velocity=82 time=0\n",
      "note_on channel=9 note=40 velocity=111 time=0\n",
      "note_on channel=9 note=35 velocity=111 time=0\n",
      "note_on channel=1 note=31 velocity=108 time=0\n",
      "note_off channel=9 note=35 velocity=0 time=0.007812499999999999\n",
      "note_off channel=9 note=40 velocity=0 time=0\n",
      "note_off channel=9 note=42 velocity=0 time=0\n",
      "note_off channel=9 note=70 velocity=0 time=0\n",
      "note_off channel=6 note=55 velocity=0 time=0.23437499999999997\n",
      "note_off channel=5 note=72 velocity=0 time=0.015624999999999998\n",
      "note_off channel=1 note=31 velocity=0 time=0.024999999999999998\n",
      "note_on channel=6 note=53 velocity=117 time=0.014062499999999999\n",
      "note_on channel=9 note=70 velocity=84 time=0.0031249999999999997\n",
      "note_on channel=1 note=34 velocity=118 time=0\n",
      "note_off channel=9 note=70 velocity=0 time=0.007812499999999999\n",
      "note_off channel=1 note=34 velocity=0 time=0.13749999999999998\n",
      "note_off channel=6 note=50 velocity=0 time=0.031249999999999997\n",
      "note_off channel=6 note=53 velocity=0 time=0.049999999999999996\n",
      "note_off channel=6 note=58 velocity=0 time=0\n",
      "note_on channel=4 note=79 velocity=99 time=0.0640625\n",
      "note_on channel=3 note=79 velocity=124 time=0\n",
      "note_on channel=15 note=72 velocity=1 time=0.009375\n",
      "note_on channel=9 note=70 velocity=97 time=0\n",
      "note_on channel=9 note=42 velocity=80 time=0\n",
      "note_on channel=9 note=35 velocity=111 time=0\n",
      "note_on channel=6 note=63 velocity=99 time=0\n",
      "note_on channel=6 note=60 velocity=99 time=0\n",
      "note_on channel=1 note=36 velocity=118 time=0\n",
      "note_on channel=6 note=48 velocity=101 time=0.0031249999999999997\n",
      "note_off channel=9 note=35 velocity=0 time=0.0046875\n",
      "note_off channel=9 note=42 velocity=0 time=0\n",
      "note_off channel=9 note=70 velocity=0 time=0\n",
      "note_off channel=1 note=36 velocity=0 time=0.10625\n",
      "note_off channel=6 note=60 velocity=0 time=0.031249999999999997\n",
      "note_off channel=6 note=48 velocity=0 time=0.0031249999999999997\n",
      "note_off channel=6 note=63 velocity=0 time=0.012499999999999999\n",
      "note_on channel=9 note=70 velocity=84 time=0.13906249999999998\n",
      "note_on channel=6 note=67 velocity=97 time=0\n",
      "note_on channel=1 note=36 velocity=119 time=0\n",
      "note_on channel=6 note=63 velocity=115 time=0.0031249999999999997\n",
      "note_on channel=6 note=60 velocity=118 time=0\n",
      "note_on channel=6 note=55 velocity=117 time=0\n",
      "note_off channel=9 note=70 velocity=0 time=0.0046875\n",
      "note_off channel=6 note=60 velocity=0 time=0.075\n",
      "note_off channel=6 note=67 velocity=0 time=0.009375\n",
      "note_off channel=6 note=55 velocity=0 time=0.0031249999999999997\n",
      "note_off channel=6 note=63 velocity=0 time=0.01875\n",
      "note_off channel=4 note=79 velocity=0 time=0.0375\n",
      "note_off channel=3 note=79 velocity=0 time=0\n",
      "note_off channel=1 note=36 velocity=0 time=0.134375\n",
      "note_on channel=4 note=77 velocity=98 time=0.0046875\n",
      "note_on channel=3 note=77 velocity=123 time=0\n",
      "note_off channel=15 note=72 velocity=0 time=0.0046875\n",
      "note_on channel=15 note=67 velocity=1 time=0.0046875\n",
      "note_on channel=9 note=70 velocity=87 time=0\n",
      "note_on channel=9 note=42 velocity=72 time=0\n",
      "note_on channel=9 note=40 velocity=111 time=0\n",
      "note_on channel=9 note=35 velocity=111 time=0\n",
      "note_on channel=1 note=39 velocity=116 time=0\n",
      "note_off channel=9 note=35 velocity=0 time=0.007812499999999999\n",
      "note_off channel=9 note=40 velocity=0 time=0\n",
      "note_off channel=9 note=42 velocity=0 time=0\n",
      "note_off channel=9 note=70 velocity=0 time=0\n",
      "note_off channel=1 note=39 velocity=0 time=0.071875\n",
      "note_off channel=3 note=77 velocity=0 time=0.059375\n",
      "note_off channel=4 note=77 velocity=0 time=0.0031249999999999997\n",
      "note_on channel=4 note=75 velocity=99 time=0.0046875\n",
      "note_on channel=3 note=75 velocity=124 time=0\n",
      "note_on channel=6 note=67 velocity=97 time=0.0062499999999999995\n",
      "note_on channel=6 note=63 velocity=115 time=0.0031249999999999997\n",
      "note_on channel=6 note=58 velocity=119 time=0\n",
      "note_on channel=6 note=55 velocity=117 time=0\n",
      "note_off channel=6 note=58 velocity=0 time=0.0984375\n",
      "note_off channel=6 note=63 velocity=0 time=0.021875\n",
      "note_off channel=6 note=67 velocity=0 time=0\n",
      "note_off channel=6 note=55 velocity=0 time=0.0031249999999999997\n",
      "note_on channel=9 note=70 velocity=72 time=0.020312499999999997\n",
      "note_on channel=1 note=39 velocity=116 time=0\n",
      "note_off channel=9 note=70 velocity=0 time=0.007812499999999999\n",
      "note_off channel=15 note=67 velocity=0 time=0.13749999999999998\n",
      "note_on channel=15 note=72 velocity=1 time=0.0046875\n",
      "note_off channel=4 note=75 velocity=0 time=0.0015624999999999999\n",
      "note_off channel=3 note=75 velocity=0 time=0\n",
      "note_on channel=4 note=79 velocity=97 time=0.007812499999999999\n",
      "note_on channel=3 note=79 velocity=122 time=0\n",
      "note_off channel=1 note=39 velocity=0 time=0.1265625\n",
      "note_on channel=5 note=65 velocity=126 time=0.0046875\n",
      "note_on channel=9 note=42 velocity=80 time=0.0062499999999999995\n",
      "note_on channel=9 note=35 velocity=111 time=0\n",
      "note_on channel=6 note=67 velocity=95 time=0\n",
      "note_on channel=9 note=70 velocity=91 time=0.0031249999999999997\n",
      "note_on channel=6 note=63 velocity=116 time=0\n",
      "note_on channel=6 note=60 velocity=118 time=0\n",
      "note_on channel=6 note=55 velocity=115 time=0\n",
      "note_on channel=1 note=36 velocity=113 time=0\n",
      "note_off channel=9 note=35 velocity=0 time=0.0046875\n",
      "note_off channel=9 note=42 velocity=0 time=0\n",
      "note_off channel=9 note=70 velocity=0 time=0.0031249999999999997\n",
      "note_off channel=6 note=60 velocity=0 time=0.06562499999999999\n",
      "note_off channel=1 note=36 velocity=0 time=0\n",
      "note_off channel=6 note=67 velocity=0 time=0.028124999999999997\n",
      "note_off channel=6 note=55 velocity=0 time=0.0031249999999999997\n",
      "note_off channel=6 note=63 velocity=0 time=0.0031249999999999997\n",
      "note_off channel=5 note=65 velocity=0 time=0.012499999999999999\n",
      "note_on channel=5 note=66 velocity=121 time=0.0015624999999999999\n",
      "note_off channel=5 note=66 velocity=0 time=0.0953125\n",
      "note_on channel=5 note=67 velocity=116 time=0.0515625\n",
      "note_on channel=9 note=70 velocity=78 time=0.031249999999999997\n",
      "note_on channel=1 note=36 velocity=121 time=0\n",
      "note_off channel=9 note=70 velocity=0 time=0.007812499999999999\n",
      "note_off channel=5 note=67 velocity=0 time=0.10937499999999999\n",
      "note_on channel=5 note=70 velocity=122 time=0.007812499999999999\n",
      "note_on channel=6 note=62 velocity=89 time=0.024999999999999998\n",
      "note_on channel=6 note=58 velocity=113 time=0.0062499999999999995\n",
      "note_on channel=6 note=55 velocity=119 time=0\n",
      "note_on channel=6 note=50 velocity=106 time=0\n",
      "note_off channel=4 note=79 velocity=0 time=0.0390625\n",
      "note_off channel=3 note=79 velocity=0 time=0\n",
      "note_off channel=5 note=70 velocity=0 time=0.01875\n",
      "note_on channel=5 note=75 velocity=120 time=0.023437499999999997\n",
      "note_off channel=1 note=36 velocity=0 time=0.0390625\n",
      "note_on channel=9 note=35 velocity=111 time=0.020312499999999997\n",
      "note_on channel=9 note=70 velocity=94 time=0.0031249999999999997\n",
      "note_on channel=1 note=31 velocity=118 time=0\n",
      "note_on channel=9 note=42 velocity=77 time=0.0031249999999999997\n",
      "note_on channel=9 note=40 velocity=108 time=0\n",
      "note_off channel=9 note=35 velocity=0 time=0.0015624999999999999\n",
      "note_off channel=9 note=70 velocity=0 time=0.0031249999999999997\n",
      "note_off channel=9 note=40 velocity=0 time=0.0031249999999999997\n",
      "note_off channel=9 note=42 velocity=0 time=0\n",
      "note_off channel=5 note=75 velocity=0 time=0.049999999999999996\n",
      "note_on channel=5 note=72 velocity=120 time=0.042187499999999996\n",
      "note_off channel=5 note=72 velocity=0 time=0.1109375\n",
      "note_off channel=6 note=50 velocity=0 time=0.012499999999999999\n",
      "note_on channel=5 note=77 velocity=112 time=0.0265625\n",
      "note_off channel=6 note=62 velocity=0 time=0.0046875\n",
      "note_off channel=6 note=55 velocity=0 time=0.0062499999999999995\n",
      "note_off channel=1 note=31 velocity=0 time=0.0062499999999999995\n",
      "note_off channel=6 note=58 velocity=0 time=0.01875\n",
      "note_on channel=6 note=50 velocity=94 time=0.007812499999999999\n",
      "note_on channel=9 note=70 velocity=80 time=0.0031249999999999997\n",
      "note_on channel=6 note=58 velocity=90 time=0\n",
      "note_on channel=6 note=53 velocity=110 time=0\n",
      "note_on channel=1 note=34 velocity=118 time=0\n",
      "note_off channel=9 note=70 velocity=0 time=0.007812499999999999\n",
      "note_on channel=5 note=75 velocity=102 time=0.0953125\n",
      "note_off channel=5 note=77 velocity=0 time=0.007812499999999999\n",
      "note_off channel=6 note=58 velocity=0 time=0.11562499999999999\n",
      "note_off channel=6 note=53 velocity=0 time=0.0031249999999999997\n",
      "note_off channel=6 note=50 velocity=0 time=0.009375\n",
      "note_off channel=1 note=34 velocity=0 time=0.01875\n",
      "note_off channel=15 note=72 velocity=0 time=0.0375\n",
      "note_on channel=9 note=70 velocity=85 time=0.0046875\n",
      "note_on channel=6 note=67 velocity=97 time=0\n",
      "note_on channel=6 note=63 velocity=97 time=0\n",
      "note_on channel=6 note=60 velocity=97 time=0\n",
      "note_on channel=1 note=36 velocity=118 time=0\n",
      "note_on channel=6 note=48 velocity=97 time=0.0031249999999999997\n",
      "note_off channel=9 note=70 velocity=0 time=0.0046875\n",
      "note_on channel=9 note=42 velocity=80 time=0.0015624999999999999\n",
      "note_on channel=9 note=35 velocity=111 time=0\n",
      "note_off channel=9 note=35 velocity=0 time=0.007812499999999999\n",
      "note_off channel=9 note=42 velocity=0 time=0\n",
      "note_off channel=6 note=67 velocity=0 time=0.06562499999999999\n",
      "note_off channel=1 note=36 velocity=0 time=0.01875\n",
      "note_off channel=6 note=60 velocity=0 time=0.04375\n",
      "note_off channel=6 note=48 velocity=0 time=0.0031249999999999997\n",
      "note_off channel=6 note=63 velocity=0 time=0.012499999999999999\n",
      "note_on channel=6 note=55 velocity=118 time=0.1359375\n",
      "note_on channel=9 note=70 velocity=82 time=0.0031249999999999997\n",
      "note_on channel=6 note=63 velocity=115 time=0\n",
      "note_on channel=1 note=36 velocity=118 time=0\n",
      "note_on channel=6 note=60 velocity=105 time=0.0062499999999999995\n",
      "note_off channel=9 note=70 velocity=0 time=0.0015624999999999999\n",
      "note_off channel=6 note=60 velocity=0 time=0.034374999999999996\n",
      "note_off channel=6 note=63 velocity=0 time=0.103125\n",
      "note_off channel=6 note=55 velocity=0 time=0.0031249999999999997\n",
      "note_off channel=1 note=36 velocity=0 time=0.13749999999999998\n",
      "note_on channel=9 note=70 velocity=91 time=0.014062499999999999\n",
      "note_on channel=1 note=39 velocity=111 time=0\n",
      "note_on channel=9 note=42 velocity=77 time=0.0031249999999999997\n",
      "note_on channel=9 note=40 velocity=106 time=0\n",
      "note_off channel=9 note=70 velocity=0 time=0.0046875\n",
      "note_on channel=9 note=35 velocity=111 time=0.0015624999999999999\n",
      "note_off channel=9 note=40 velocity=0 time=0.0015624999999999999\n",
      "note_off channel=9 note=42 velocity=0 time=0\n",
      "note_off channel=9 note=35 velocity=0 time=0.0062499999999999995\n",
      "note_off channel=1 note=39 velocity=0 time=0.071875\n",
      "note_on channel=6 note=55 velocity=112 time=0.057812499999999996\n",
      "note_on channel=6 note=63 velocity=113 time=0.0031249999999999997\n",
      "note_on channel=6 note=58 velocity=105 time=0\n",
      "note_off channel=6 note=58 velocity=0 time=0.11718749999999999\n",
      "note_off channel=6 note=63 velocity=0 time=0.012499999999999999\n",
      "note_off channel=6 note=55 velocity=0 time=0.009375\n",
      "note_on channel=9 note=70 velocity=81 time=0.0109375\n",
      "note_on channel=1 note=39 velocity=115 time=0\n",
      "note_off channel=9 note=70 velocity=0 time=0.007812499999999999\n",
      "note_off channel=1 note=39 velocity=0 time=0.27812499999999996\n",
      "note_on channel=9 note=70 velocity=85 time=0.014062499999999999\n",
      "note_on channel=9 note=42 velocity=82 time=0\n",
      "note_on channel=9 note=35 velocity=111 time=0\n",
      "note_on channel=6 note=63 velocity=114 time=0\n",
      "note_on channel=6 note=55 velocity=114 time=0\n",
      "note_on channel=1 note=36 velocity=119 time=0\n",
      "note_on channel=6 note=60 velocity=117 time=0.0031249999999999997\n",
      "note_off channel=9 note=35 velocity=0 time=0.0046875\n",
      "note_off channel=9 note=42 velocity=0 time=0\n",
      "note_off channel=9 note=70 velocity=0 time=0\n",
      "note_off channel=6 note=60 velocity=0 time=0.06249999999999999\n",
      "note_off channel=1 note=36 velocity=0 time=0.01875\n",
      "note_off channel=6 note=63 velocity=0 time=0.015624999999999998\n",
      "note_off channel=6 note=55 velocity=0 time=0.012499999999999999\n",
      "note_on channel=9 note=70 velocity=80 time=0.1828125\n",
      "note_on channel=1 note=36 velocity=120 time=0\n",
      "note_off channel=9 note=70 velocity=0 time=0.007812499999999999\n",
      "note_on channel=6 note=58 velocity=113 time=0.1484375\n",
      "note_on channel=6 note=55 velocity=117 time=0\n",
      "note_on channel=6 note=50 velocity=114 time=0\n",
      "note_off channel=1 note=36 velocity=0 time=0.10781249999999999\n",
      "note_on channel=9 note=70 velocity=91 time=0.0359375\n",
      "note_on channel=9 note=42 velocity=64 time=0\n",
      "note_on channel=9 note=40 velocity=111 time=0\n",
      "note_on channel=9 note=35 velocity=111 time=0\n",
      "note_on channel=1 note=31 velocity=120 time=0\n",
      "note_off channel=9 note=35 velocity=0 time=0.007812499999999999\n",
      "note_off channel=9 note=40 velocity=0 time=0\n",
      "note_off channel=9 note=42 velocity=0 time=0\n",
      "note_off channel=9 note=70 velocity=0 time=0\n",
      "note_off channel=6 note=55 velocity=0 time=0.23437499999999997\n",
      "note_off channel=1 note=31 velocity=0 time=0.01875\n",
      "note_off channel=5 note=75 velocity=0 time=0.009375\n",
      "note_on channel=6 note=53 velocity=117 time=0.0265625\n",
      "note_on channel=9 note=70 velocity=84 time=0.0031249999999999997\n",
      "note_on channel=1 note=34 velocity=115 time=0\n",
      "note_off channel=9 note=70 velocity=0 time=0.007812499999999999\n",
      "note_off channel=6 note=50 velocity=0 time=0.16874999999999998\n",
      "note_off channel=6 note=53 velocity=0 time=0.049999999999999996\n",
      "note_off channel=6 note=58 velocity=0 time=0\n",
      "note_off channel=1 note=34 velocity=0 time=0.056249999999999994\n",
      "note_on channel=4 note=75 velocity=100 time=0.0046875\n",
      "note_on channel=3 note=75 velocity=125 time=0\n",
      "note_on channel=15 note=67 velocity=1 time=0.012499999999999999\n",
      "note_on channel=9 note=70 velocity=97 time=0\n",
      "note_on channel=9 note=42 velocity=80 time=0\n",
      "note_on channel=9 note=35 velocity=110 time=0\n",
      "note_on channel=6 note=63 velocity=99 time=0\n",
      "note_on channel=6 note=60 velocity=99 time=0\n",
      "note_on channel=1 note=36 velocity=116 time=0\n",
      "note_on channel=6 note=48 velocity=101 time=0.0031249999999999997\n",
      "note_off channel=9 note=35 velocity=0 time=0.0046875\n",
      "note_off channel=9 note=42 velocity=0 time=0\n",
      "note_off channel=9 note=70 velocity=0 time=0\n",
      "note_off channel=4 note=75 velocity=0 time=0.09999999999999999\n",
      "note_off channel=3 note=75 velocity=0 time=0\n",
      "note_off channel=1 note=36 velocity=0 time=0.012499999999999999\n",
      "note_off channel=6 note=60 velocity=0 time=0.024999999999999998\n",
      "note_off channel=6 note=48 velocity=0 time=0.0031249999999999997\n",
      "note_off channel=6 note=63 velocity=0 time=0.012499999999999999\n",
      "note_on channel=4 note=77 velocity=97 time=0.1140625\n",
      "note_on channel=3 note=77 velocity=122 time=0\n",
      "note_off channel=15 note=67 velocity=0 time=0.020312499999999997\n",
      "note_on channel=15 note=70 velocity=1 time=0.0046875\n",
      "note_on channel=9 note=70 velocity=84 time=0\n",
      "note_on channel=6 note=67 velocity=97 time=0\n",
      "note_on channel=1 note=36 velocity=117 time=0\n",
      "note_on channel=6 note=63 velocity=115 time=0.0031249999999999997\n",
      "note_on channel=6 note=60 velocity=118 time=0\n",
      "note_on channel=6 note=55 velocity=117 time=0\n",
      "note_off channel=9 note=70 velocity=0 time=0.0046875\n",
      "note_off channel=6 note=60 velocity=0 time=0.075\n",
      "note_off channel=6 note=67 velocity=0 time=0.009375\n",
      "note_off channel=6 note=55 velocity=0 time=0.0031249999999999997\n",
      "note_off channel=6 note=63 velocity=0 time=0.01875\n",
      "note_off channel=4 note=77 velocity=0 time=0.0031249999999999997\n",
      "note_off channel=3 note=77 velocity=0 time=0\n",
      "note_off channel=1 note=36 velocity=0 time=0.16874999999999998\n",
      "note_off channel=15 note=70 velocity=0 time=0.009375\n",
      "note_on channel=4 note=79 velocity=100 time=0.0015624999999999999\n",
      "note_on channel=3 note=79 velocity=125 time=0\n",
      "note_on channel=15 note=72 velocity=1 time=0.0031249999999999997\n",
      "note_on channel=9 note=70 velocity=87 time=0\n",
      "note_on channel=9 note=42 velocity=72 time=0\n",
      "note_on channel=9 note=40 velocity=111 time=0\n",
      "note_on channel=9 note=35 velocity=110 time=0\n",
      "note_on channel=1 note=39 velocity=113 time=0\n",
      "note_off channel=9 note=35 velocity=0 time=0.007812499999999999\n",
      "note_off channel=9 note=40 velocity=0 time=0\n",
      "note_off channel=9 note=42 velocity=0 time=0\n",
      "note_off channel=9 note=70 velocity=0 time=0\n",
      "note_off channel=4 note=79 velocity=0 time=0.075\n",
      "note_off channel=3 note=79 velocity=0 time=0\n",
      "note_off channel=1 note=39 velocity=0 time=0.015624999999999998\n",
      "note_on channel=4 note=82 velocity=99 time=0.0453125\n",
      "note_on channel=3 note=82 velocity=124 time=0\n",
      "note_off channel=15 note=72 velocity=0 time=0.0015624999999999999\n",
      "note_on channel=15 note=75 velocity=1 time=0.0046875\n",
      "note_on channel=6 note=67 velocity=97 time=0.0031249999999999997\n",
      "note_on channel=6 note=63 velocity=115 time=0.0031249999999999997\n",
      "note_on channel=6 note=58 velocity=119 time=0\n",
      "note_on channel=6 note=55 velocity=117 time=0\n",
      "note_off channel=6 note=58 velocity=0 time=0.0984375\n",
      "note_off channel=6 note=63 velocity=0 time=0.021875\n",
      "note_off channel=6 note=67 velocity=0 time=0\n",
      "note_off channel=6 note=55 velocity=0 time=0.0031249999999999997\n",
      "note_on channel=9 note=70 velocity=72 time=0.020312499999999997\n",
      "note_on channel=1 note=39 velocity=116 time=0\n",
      "note_off channel=9 note=70 velocity=0 time=0.007812499999999999\n",
      "note_off channel=4 note=82 velocity=0 time=0.01875\n",
      "note_off channel=3 note=82 velocity=0 time=0\n",
      "note_on channel=4 note=84 velocity=98 time=0.10156249999999999\n",
      "note_on channel=3 note=84 velocity=123 time=0\n",
      "note_off channel=15 note=75 velocity=0 time=0.017187499999999998\n",
      "note_on channel=15 note=75 velocity=1 time=0.0046875\n",
      "note_on channel=15 note=72 velocity=1 time=0\n",
      "note_off channel=1 note=39 velocity=0 time=0.1265625\n",
      "note_on channel=9 note=42 velocity=77 time=0.020312499999999997\n",
      "note_on channel=6 note=67 velocity=95 time=0\n",
      "note_on channel=9 note=70 velocity=91 time=0.0031249999999999997\n",
      "note_on channel=9 note=35 velocity=111 time=0\n",
      "note_on channel=6 note=63 velocity=116 time=0\n",
      "note_on channel=6 note=60 velocity=118 time=0\n",
      "note_on channel=6 note=55 velocity=115 time=0\n",
      "note_on channel=5 note=65 velocity=125 time=0\n",
      "note_on channel=1 note=36 velocity=118 time=0\n",
      "note_off channel=9 note=42 velocity=0 time=0.0046875\n",
      "note_off channel=9 note=35 velocity=0 time=0.0031249999999999997\n",
      "note_off channel=9 note=70 velocity=0 time=0\n",
      "note_off channel=6 note=60 velocity=0 time=0.06562499999999999\n",
      "note_off channel=6 note=67 velocity=0 time=0.028124999999999997\n",
      "note_off channel=6 note=55 velocity=0 time=0.0031249999999999997\n",
      "note_off channel=6 note=63 velocity=0 time=0.0031249999999999997\n",
      "note_off channel=1 note=36 velocity=0 time=0\n",
      "note_off channel=5 note=65 velocity=0 time=0.021875\n",
      "note_on channel=5 note=66 velocity=118 time=0.0109375\n",
      "note_off channel=5 note=66 velocity=0 time=0.1109375\n",
      "note_on channel=5 note=67 velocity=115 time=0.0390625\n",
      "note_on channel=9 note=70 velocity=78 time=0.009375\n",
      "note_on channel=1 note=36 velocity=117 time=0\n",
      "note_off channel=9 note=70 velocity=0 time=0.007812499999999999\n",
      "note_off channel=5 note=67 velocity=0 time=0.11562499999999999\n",
      "note_on channel=5 note=70 velocity=121 time=0.017187499999999998\n",
      "note_on channel=6 note=62 velocity=89 time=0.009375\n",
      "note_on channel=6 note=58 velocity=113 time=0.0062499999999999995\n",
      "note_on channel=6 note=55 velocity=119 time=0\n",
      "note_on channel=6 note=50 velocity=106 time=0\n",
      "note_off channel=5 note=70 velocity=0 time=0.0703125\n",
      "note_off channel=4 note=84 velocity=0 time=0.015624999999999998\n",
      "note_off channel=3 note=84 velocity=0 time=0\n",
      "note_off channel=1 note=36 velocity=0 time=0.01875\n",
      "note_on channel=5 note=72 velocity=120 time=0.014062499999999999\n",
      "note_on channel=9 note=70 velocity=94 time=0.024999999999999998\n",
      "note_on channel=9 note=35 velocity=111 time=0\n",
      "note_on channel=1 note=31 velocity=117 time=0\n",
      "note_on channel=9 note=42 velocity=77 time=0.0031249999999999997\n",
      "note_on channel=9 note=40 velocity=108 time=0\n",
      "note_off channel=9 note=35 velocity=0 time=0.0046875\n",
      "note_off channel=9 note=70 velocity=0 time=0\n",
      "note_off channel=9 note=40 velocity=0 time=0.0031249999999999997\n",
      "note_off channel=9 note=42 velocity=0 time=0\n",
      "note_off channel=5 note=72 velocity=0 time=0.10625\n",
      "note_on channel=5 note=70 velocity=117 time=0.017187499999999998\n",
      "note_off channel=5 note=70 velocity=0 time=0.0828125\n",
      "note_off channel=6 note=50 velocity=0 time=0.009375\n",
      "note_off channel=1 note=31 velocity=0 time=0.015624999999999998\n",
      "note_off channel=6 note=62 velocity=0 time=0.015624999999999998\n",
      "note_off channel=6 note=55 velocity=0 time=0.0062499999999999995\n",
      "note_on channel=5 note=75 velocity=111 time=0.0046875\n",
      "note_on channel=6 note=62 velocity=68 time=0.024999999999999998\n",
      "note_on channel=6 note=50 velocity=94 time=0.0031249999999999997\n",
      "note_on channel=9 note=70 velocity=80 time=0.0031249999999999997\n",
      "note_on channel=6 note=53 velocity=110 time=0\n",
      "note_on channel=1 note=34 velocity=114 time=0\n",
      "note_off channel=9 note=70 velocity=0 time=0.007812499999999999\n",
      "note_off channel=5 note=75 velocity=0 time=0.11249999999999999\n",
      "note_on channel=5 note=72 velocity=117 time=0.007812499999999999\n",
      "note_off channel=6 note=62 velocity=0 time=0.0953125\n",
      "note_off channel=6 note=53 velocity=0 time=0.0062499999999999995\n",
      "note_off channel=6 note=50 velocity=0 time=0.009375\n",
      "note_off channel=6 note=58 velocity=0 time=0.012499999999999999\n",
      "note_off channel=1 note=34 velocity=0 time=0.012499999999999999\n",
      "note_off channel=15 note=72 velocity=0 time=0.031249999999999997\n",
      "note_off channel=15 note=75 velocity=0 time=0\n",
      "note_on channel=9 note=70 velocity=85 time=0.0046875\n",
      "note_on channel=6 note=67 velocity=97 time=0\n",
      "note_on channel=6 note=63 velocity=97 time=0\n",
      "note_on channel=6 note=60 velocity=97 time=0\n",
      "note_on channel=1 note=36 velocity=118 time=0\n",
      "note_on channel=6 note=48 velocity=97 time=0.0031249999999999997\n",
      "note_off channel=9 note=70 velocity=0 time=0.0046875\n",
      "note_on channel=9 note=42 velocity=68 time=0.0015624999999999999\n",
      "note_on channel=9 note=35 velocity=111 time=0\n",
      "note_off channel=9 note=35 velocity=0 time=0.007812499999999999\n",
      "note_off channel=9 note=42 velocity=0 time=0\n",
      "note_off channel=6 note=67 velocity=0 time=0.06562499999999999\n",
      "note_off channel=1 note=36 velocity=0 time=0.009375\n",
      "note_off channel=6 note=60 velocity=0 time=0.053125\n",
      "note_off channel=6 note=48 velocity=0 time=0.0031249999999999997\n",
      "note_off channel=6 note=63 velocity=0 time=0.012499999999999999\n",
      "note_on channel=6 note=55 velocity=118 time=0.1359375\n",
      "note_on channel=9 note=70 velocity=82 time=0.0031249999999999997\n",
      "note_on channel=6 note=63 velocity=115 time=0\n",
      "note_on channel=1 note=36 velocity=120 time=0\n",
      "note_on channel=6 note=60 velocity=105 time=0.0062499999999999995\n",
      "note_off channel=9 note=70 velocity=0 time=0.0015624999999999999\n",
      "note_off channel=6 note=60 velocity=0 time=0.034374999999999996\n",
      "note_off channel=6 note=63 velocity=0 time=0.103125\n",
      "note_off channel=6 note=55 velocity=0 time=0.0031249999999999997\n",
      "note_off channel=1 note=36 velocity=0 time=0.13749999999999998\n",
      "note_on channel=9 note=70 velocity=91 time=0.014062499999999999\n",
      "note_on channel=1 note=39 velocity=110 time=0\n",
      "note_on channel=9 note=42 velocity=77 time=0.0031249999999999997\n",
      "note_on channel=9 note=40 velocity=106 time=0\n",
      "note_off channel=9 note=70 velocity=0 time=0.0046875\n",
      "note_on channel=9 note=35 velocity=111 time=0.0015624999999999999\n",
      "note_off channel=9 note=40 velocity=0 time=0.0015624999999999999\n",
      "note_off channel=9 note=42 velocity=0 time=0\n",
      "note_off channel=9 note=35 velocity=0 time=0.0062499999999999995\n",
      "note_off channel=1 note=39 velocity=0 time=0.078125\n",
      "note_on channel=6 note=55 velocity=112 time=0.0515625\n",
      "note_on channel=6 note=63 velocity=113 time=0.0031249999999999997\n",
      "note_on channel=6 note=58 velocity=105 time=0\n",
      "note_off channel=6 note=58 velocity=0 time=0.11718749999999999\n",
      "note_off channel=6 note=63 velocity=0 time=0.012499999999999999\n",
      "note_off channel=6 note=55 velocity=0 time=0.009375\n",
      "note_on channel=9 note=70 velocity=81 time=0.0109375\n",
      "note_on channel=1 note=39 velocity=120 time=0\n",
      "note_off channel=9 note=70 velocity=0 time=0.007812499999999999\n",
      "note_on channel=9 note=40 velocity=76 time=0.1421875\n",
      "note_off channel=9 note=40 velocity=0 time=0.007812499999999999\n",
      "note_off channel=1 note=39 velocity=0 time=0.128125\n",
      "note_on channel=9 note=70 velocity=85 time=0.014062499999999999\n",
      "note_on channel=9 note=42 velocity=82 time=0\n",
      "note_on channel=9 note=35 velocity=111 time=0\n",
      "note_on channel=6 note=63 velocity=114 time=0\n",
      "note_on channel=6 note=55 velocity=114 time=0\n",
      "note_on channel=1 note=36 velocity=118 time=0\n",
      "note_on channel=6 note=60 velocity=117 time=0.0031249999999999997\n",
      "note_off channel=9 note=35 velocity=0 time=0.0046875\n",
      "note_off channel=9 note=42 velocity=0 time=0\n",
      "note_off channel=9 note=70 velocity=0 time=0\n",
      "note_off channel=6 note=60 velocity=0 time=0.06249999999999999\n",
      "note_off channel=1 note=36 velocity=0 time=0.009375\n",
      "note_off channel=6 note=63 velocity=0 time=0.024999999999999998\n",
      "note_off channel=6 note=55 velocity=0 time=0.012499999999999999\n",
      "note_on channel=9 note=70 velocity=80 time=0.1828125\n",
      "note_on channel=9 note=35 velocity=106 time=0\n",
      "note_on channel=1 note=36 velocity=120 time=0\n",
      "note_off channel=9 note=35 velocity=0 time=0.007812499999999999\n",
      "note_off channel=9 note=70 velocity=0 time=0\n",
      "note_on channel=6 note=58 velocity=113 time=0.1484375\n",
      "note_on channel=6 note=55 velocity=117 time=0\n",
      "note_on channel=6 note=50 velocity=114 time=0\n",
      "note_off channel=1 note=36 velocity=0 time=0.0953125\n",
      "note_on channel=9 note=70 velocity=91 time=0.048437499999999994\n",
      "note_on channel=9 note=46 velocity=82 time=0\n",
      "note_on channel=9 note=40 velocity=111 time=0\n",
      "note_on channel=9 note=35 velocity=111 time=0\n",
      "note_on channel=1 note=31 velocity=108 time=0\n",
      "note_off channel=9 note=35 velocity=0 time=0.007812499999999999\n",
      "note_off channel=9 note=40 velocity=0 time=0\n",
      "note_off channel=9 note=46 velocity=0 time=0\n",
      "note_off channel=9 note=70 velocity=0 time=0\n",
      "note_off channel=6 note=55 velocity=0 time=0.23437499999999997\n",
      "note_off channel=5 note=72 velocity=0 time=0.012499999999999999\n",
      "note_off channel=1 note=31 velocity=0 time=0.028124999999999997\n",
      "note_on channel=6 note=53 velocity=117 time=0.014062499999999999\n",
      "note_on channel=9 note=70 velocity=84 time=0.0031249999999999997\n",
      "note_on channel=1 note=34 velocity=118 time=0\n",
      "note_off channel=9 note=70 velocity=0 time=0.007812499999999999\n",
      "note_off channel=1 note=34 velocity=0 time=0.13749999999999998\n",
      "note_off channel=6 note=50 velocity=0 time=0.031249999999999997\n",
      "note_off channel=6 note=53 velocity=0 time=0.049999999999999996\n",
      "note_off channel=6 note=58 velocity=0 time=0\n",
      "note_on channel=9 note=70 velocity=97 time=0.07343749999999999\n",
      "note_on channel=9 note=42 velocity=80 time=0\n",
      "note_on channel=9 note=35 velocity=111 time=0\n",
      "note_on channel=6 note=63 velocity=99 time=0\n",
      "note_on channel=6 note=60 velocity=99 time=0\n",
      "note_on channel=1 note=36 velocity=118 time=0\n",
      "note_on channel=6 note=48 velocity=101 time=0.0031249999999999997\n",
      "note_off channel=9 note=35 velocity=0 time=0.0046875\n",
      "note_off channel=9 note=42 velocity=0 time=0\n",
      "note_off channel=9 note=70 velocity=0 time=0\n",
      "note_off channel=1 note=36 velocity=0 time=0.10625\n",
      "note_off channel=6 note=60 velocity=0 time=0.031249999999999997\n",
      "note_off channel=6 note=48 velocity=0 time=0.0031249999999999997\n",
      "note_on channel=9 note=40 velocity=96 time=0.0015624999999999999\n",
      "note_off channel=9 note=40 velocity=0 time=0.007812499999999999\n",
      "note_off channel=6 note=63 velocity=0 time=0.0031249999999999997\n",
      "note_on channel=9 note=70 velocity=84 time=0.13906249999999998\n",
      "note_on channel=6 note=67 velocity=97 time=0\n",
      "note_on channel=1 note=36 velocity=119 time=0\n",
      "note_on channel=6 note=63 velocity=115 time=0.0031249999999999997\n",
      "note_on channel=6 note=60 velocity=118 time=0\n",
      "note_on channel=6 note=55 velocity=117 time=0\n",
      "note_off channel=9 note=70 velocity=0 time=0.0046875\n",
      "note_off channel=6 note=60 velocity=0 time=0.075\n",
      "note_off channel=6 note=67 velocity=0 time=0.009375\n",
      "note_off channel=6 note=55 velocity=0 time=0.0031249999999999997\n",
      "note_off channel=6 note=63 velocity=0 time=0.01875\n",
      "note_off channel=1 note=36 velocity=0 time=0.17187499999999997\n",
      "note_on channel=9 note=70 velocity=87 time=0.014062499999999999\n",
      "note_on channel=9 note=42 velocity=72 time=0\n",
      "note_on channel=9 note=40 velocity=111 time=0\n",
      "note_on channel=9 note=35 velocity=111 time=0\n",
      "note_on channel=1 note=39 velocity=116 time=0\n",
      "note_off channel=9 note=35 velocity=0 time=0.007812499999999999\n",
      "note_off channel=9 note=40 velocity=0 time=0\n",
      "note_off channel=9 note=42 velocity=0 time=0\n",
      "note_off channel=9 note=70 velocity=0 time=0\n",
      "note_off channel=1 note=39 velocity=0 time=0.071875\n",
      "note_on channel=6 note=67 velocity=97 time=0.07343749999999999\n",
      "note_on channel=6 note=63 velocity=115 time=0.0031249999999999997\n",
      "note_on channel=6 note=58 velocity=119 time=0\n",
      "note_on channel=6 note=55 velocity=117 time=0\n",
      "note_off channel=6 note=58 velocity=0 time=0.0984375\n",
      "note_off channel=6 note=63 velocity=0 time=0.021875\n",
      "note_off channel=6 note=67 velocity=0 time=0\n",
      "note_off channel=6 note=55 velocity=0 time=0.0031249999999999997\n",
      "note_on channel=9 note=70 velocity=72 time=0.020312499999999997\n",
      "note_on channel=9 note=47 velocity=96 time=0\n",
      "note_on channel=1 note=39 velocity=116 time=0\n",
      "note_off channel=9 note=47 velocity=0 time=0.007812499999999999\n",
      "note_off channel=9 note=70 velocity=0 time=0\n",
      "note_off channel=1 note=39 velocity=0 time=0.27812499999999996\n",
      "note_on channel=9 note=42 velocity=80 time=0.0109375\n",
      "note_on channel=9 note=35 velocity=111 time=0\n",
      "note_on channel=6 note=67 velocity=95 time=0\n",
      "note_on channel=9 note=70 velocity=91 time=0.0031249999999999997\n",
      "note_on channel=9 note=43 velocity=96 time=0\n",
      "note_on channel=6 note=63 velocity=116 time=0\n",
      "note_on channel=6 note=60 velocity=118 time=0\n",
      "note_on channel=6 note=55 velocity=115 time=0\n",
      "note_on channel=1 note=36 velocity=113 time=0\n",
      "note_off channel=9 note=35 velocity=0 time=0.0046875\n",
      "note_off channel=9 note=42 velocity=0 time=0\n",
      "note_off channel=9 note=43 velocity=0 time=0.0031249999999999997\n",
      "note_off channel=9 note=70 velocity=0 time=0\n",
      "note_off channel=6 note=60 velocity=0 time=0.06562499999999999\n",
      "note_off channel=1 note=36 velocity=0 time=0\n",
      "note_off channel=6 note=67 velocity=0 time=0.028124999999999997\n",
      "note_off channel=6 note=55 velocity=0 time=0.0031249999999999997\n",
      "note_off channel=6 note=63 velocity=0 time=0.0031249999999999997\n",
      "note_on channel=9 note=70 velocity=78 time=0.19218749999999998\n",
      "note_on channel=9 note=43 velocity=76 time=0\n",
      "note_on channel=1 note=36 velocity=121 time=0\n",
      "note_off channel=9 note=43 velocity=0 time=0.007812499999999999\n",
      "note_off channel=9 note=70 velocity=0 time=0\n",
      "note_on channel=6 note=62 velocity=89 time=0.1421875\n",
      "note_on channel=6 note=58 velocity=113 time=0.0062499999999999995\n",
      "note_on channel=6 note=55 velocity=119 time=0\n",
      "note_on channel=6 note=50 velocity=106 time=0\n",
      "note_off channel=1 note=36 velocity=0 time=0.12031249999999999\n",
      "note_on channel=9 note=40 velocity=55 time=0.0109375\n",
      "note_on channel=5 note=67 velocity=124 time=0.0031249999999999997\n",
      "note_on channel=2 note=67 velocity=124 time=0\n",
      "note_off channel=9 note=40 velocity=0 time=0.0046875\n",
      "note_on channel=9 note=35 velocity=111 time=0.0015624999999999999\n",
      "note_on channel=9 note=70 velocity=94 time=0.0031249999999999997\n",
      "note_on channel=1 note=31 velocity=118 time=0\n",
      "note_on channel=9 note=40 velocity=98 time=0.0031249999999999997\n",
      "note_off channel=9 note=35 velocity=0 time=0.0015624999999999999\n",
      "note_off channel=9 note=70 velocity=0 time=0.0031249999999999997\n",
      "note_off channel=9 note=40 velocity=0 time=0.0031249999999999997\n",
      "note_off channel=5 note=67 velocity=0 time=0.078125\n",
      "note_off channel=2 note=67 velocity=0 time=0\n",
      "note_on channel=5 note=68 velocity=124 time=0.0015624999999999999\n",
      "note_on channel=2 note=68 velocity=124 time=0\n",
      "note_on channel=9 note=40 velocity=79 time=0.009375\n",
      "note_off channel=9 note=40 velocity=0 time=0.007812499999999999\n",
      "note_off channel=5 note=68 velocity=0 time=0.071875\n",
      "note_off channel=2 note=68 velocity=0 time=0\n",
      "note_on channel=5 note=69 velocity=122 time=0.0109375\n",
      "note_on channel=2 note=69 velocity=122 time=0\n",
      "note_on channel=9 note=40 velocity=66 time=0.009375\n",
      "note_off channel=9 note=40 velocity=0 time=0.007812499999999999\n",
      "note_off channel=6 note=50 velocity=0 time=0.01875\n",
      "note_off channel=6 note=62 velocity=0 time=0.031249999999999997\n",
      "note_off channel=6 note=55 velocity=0 time=0.0062499999999999995\n",
      "note_off channel=1 note=31 velocity=0 time=0.0062499999999999995\n",
      "note_off channel=5 note=69 velocity=0 time=0.009375\n",
      "note_off channel=2 note=69 velocity=0 time=0\n",
      "note_off channel=6 note=58 velocity=0 time=0.009375\n",
      "note_on channel=5 note=70 velocity=122 time=0.0015624999999999999\n",
      "note_on channel=2 note=70 velocity=122 time=0\n",
      "note_on channel=6 note=50 velocity=94 time=0.0062499999999999995\n",
      "note_on channel=9 note=70 velocity=80 time=0.0031249999999999997\n",
      "note_on channel=9 note=40 velocity=76 time=0\n",
      "note_on channel=6 note=58 velocity=90 time=0\n",
      "note_on channel=6 note=53 velocity=110 time=0\n",
      "note_on channel=1 note=34 velocity=118 time=0\n",
      "note_off channel=9 note=40 velocity=0 time=0.007812499999999999\n",
      "note_off channel=9 note=70 velocity=0 time=0\n",
      "note_off channel=5 note=70 velocity=0 time=0.071875\n",
      "note_off channel=2 note=70 velocity=0 time=0\n",
      "note_on channel=5 note=72 velocity=122 time=0.0109375\n",
      "note_on channel=2 note=72 velocity=122 time=0\n",
      "note_on channel=9 note=40 velocity=76 time=0.009375\n",
      "note_off channel=9 note=40 velocity=0 time=0.007812499999999999\n",
      "note_off channel=5 note=72 velocity=0 time=0.071875\n",
      "note_off channel=2 note=72 velocity=0 time=0\n",
      "note_on channel=5 note=74 velocity=123 time=0.0109375\n",
      "note_on channel=2 note=74 velocity=123 time=0\n",
      "note_on channel=9 note=40 velocity=93 time=0.009375\n",
      "note_off channel=9 note=40 velocity=0 time=0.007812499999999999\n",
      "note_off channel=6 note=58 velocity=0 time=0.01875\n",
      "note_off channel=6 note=53 velocity=0 time=0.0031249999999999997\n",
      "note_off channel=6 note=50 velocity=0 time=0.009375\n",
      "note_off channel=1 note=34 velocity=0 time=0.01875\n",
      "note_off channel=5 note=74 velocity=0 time=0.021875\n",
      "note_off channel=2 note=74 velocity=0 time=0\n",
      "note_on channel=5 note=84 velocity=112 time=0.0109375\n",
      "note_on channel=9 note=40 velocity=118 time=0.009375\n",
      "note_on channel=9 note=35 velocity=111 time=0\n",
      "note_on channel=6 note=67 velocity=113 time=0\n",
      "note_on channel=6 note=63 velocity=117 time=0\n",
      "note_on channel=6 note=60 velocity=107 time=0\n",
      "note_on channel=6 note=48 velocity=109 time=0\n",
      "note_on channel=5 note=79 velocity=112 time=0\n",
      "note_on channel=5 note=75 velocity=112 time=0\n",
      "note_on channel=2 note=75 velocity=112 time=0\n",
      "note_on channel=1 note=36 velocity=118 time=0\n",
      "note_off channel=9 note=35 velocity=0 time=0.007812499999999999\n",
      "note_off channel=9 note=40 velocity=0 time=0\n",
      "note_off channel=6 note=67 velocity=0 time=0.18125\n",
      "note_off channel=5 note=84 velocity=0 time=0.012499999999999999\n",
      "note_off channel=5 note=75 velocity=0 time=0.009375\n",
      "note_off channel=5 note=79 velocity=0 time=0\n",
      "note_off channel=6 note=63 velocity=0 time=0.04687499999999999\n",
      "note_on channel=6 note=59 velocity=50 time=0.023437499999999997\n",
      "note_off channel=2 note=75 velocity=0 time=0.007812499999999999\n",
      "note_on channel=6 note=57 velocity=70 time=0.0109375\n",
      "note_off channel=1 note=36 velocity=0 time=0.0015624999999999999\n",
      "note_off channel=6 note=60 velocity=0 time=0.031249999999999997\n",
      "note_off channel=6 note=57 velocity=0 time=0.031249999999999997\n",
      "note_off channel=6 note=59 velocity=0 time=0.015624999999999998\n",
      "note_on channel=6 note=56 velocity=57 time=0.020312499999999997\n",
      "note_off channel=6 note=48 velocity=0 time=0.017187499999999998\n",
      "note_off channel=6 note=56 velocity=0 time=0.04687499999999999\n",
      "note_on channel=6 note=55 velocity=40 time=0.0359375\n",
      "note_off channel=6 note=55 velocity=0 time=0.0640625\n"
     ]
    }
   ],
   "source": [
    "for msg in mid:\n",
    "    if not msg.is_meta:\n",
    "        print(msg)"
   ]
  },
  {
   "cell_type": "code",
   "execution_count": 14,
   "metadata": {},
   "outputs": [],
   "source": [
    "notes = []"
   ]
  },
  {
   "cell_type": "code",
   "execution_count": 15,
   "metadata": {},
   "outputs": [],
   "source": [
    "for msg in mid:\n",
    "    if not msg.is_meta:\n",
    "        notes.append([msg.note, msg.velocity, msg.time])"
   ]
  },
  {
   "cell_type": "code",
   "execution_count": 16,
   "metadata": {},
   "outputs": [],
   "source": [
    "if len(notes) > 30:\n",
    "    for x in range(len(notes)-30):\n",
    "        notes = np.delete(notes, 30, 0)"
   ]
  },
  {
   "cell_type": "code",
   "execution_count": 17,
   "metadata": {},
   "outputs": [],
   "source": [
    "chord = []\n",
    "for msg in midi:\n",
    "    if not msg.is_meta:\n",
    "        chord.append([msg.note, msg.velocity, msg.time])"
   ]
  },
  {
   "cell_type": "code",
   "execution_count": 19,
   "metadata": {},
   "outputs": [],
   "source": [
    "if len(chord) > 30:\n",
    "    for x in range(len(chord)-30):\n",
    "        chord = np.delete(chord, 30, 0)"
   ]
  },
  {
   "cell_type": "code",
   "execution_count": 20,
   "metadata": {},
   "outputs": [],
   "source": [
    "dataset = []\n",
    "dataset.append(notes)\n",
    "dataset.append(chord)"
   ]
  },
  {
   "cell_type": "code",
   "execution_count": 21,
   "metadata": {},
   "outputs": [
    {
     "data": {
      "text/plain": [
       "array([[[3.600000e+01, 1.190000e+02, 2.700000e+00],\n",
       "        [3.600000e+01, 0.000000e+00, 2.859375e-01],\n",
       "        [3.900000e+01, 1.160000e+02, 1.406250e-02],\n",
       "        [3.900000e+01, 0.000000e+00, 7.968750e-02],\n",
       "        [3.900000e+01, 1.160000e+02, 2.203125e-01],\n",
       "        [3.900000e+01, 0.000000e+00, 2.859375e-01],\n",
       "        [3.600000e+01, 1.130000e+02, 1.406250e-02],\n",
       "        [3.600000e+01, 0.000000e+00, 7.343750e-02],\n",
       "        [3.600000e+01, 1.210000e+02, 2.265625e-01],\n",
       "        [3.600000e+01, 0.000000e+00, 2.765625e-01],\n",
       "        [3.100000e+01, 1.180000e+02, 2.343750e-02],\n",
       "        [3.100000e+01, 0.000000e+00, 2.703125e-01],\n",
       "        [3.400000e+01, 1.180000e+02, 2.968750e-02],\n",
       "        [3.400000e+01, 0.000000e+00, 2.578125e-01],\n",
       "        [3.600000e+01, 1.180000e+02, 4.218750e-02],\n",
       "        [3.600000e+01, 0.000000e+00, 1.015625e-01],\n",
       "        [3.600000e+01, 1.180000e+02, 1.984375e-01],\n",
       "        [3.600000e+01, 0.000000e+00, 2.859375e-01],\n",
       "        [3.900000e+01, 1.110000e+02, 1.406250e-02],\n",
       "        [3.900000e+01, 0.000000e+00, 8.906250e-02],\n",
       "        [3.900000e+01, 1.150000e+02, 2.109375e-01],\n",
       "        [3.900000e+01, 0.000000e+00, 2.859375e-01],\n",
       "        [3.600000e+01, 1.190000e+02, 1.406250e-02],\n",
       "        [3.600000e+01, 0.000000e+00, 8.906250e-02],\n",
       "        [3.600000e+01, 1.200000e+02, 2.109375e-01],\n",
       "        [3.600000e+01, 0.000000e+00, 2.640625e-01],\n",
       "        [3.100000e+01, 1.200000e+02, 3.593750e-02],\n",
       "        [3.100000e+01, 0.000000e+00, 2.609375e-01],\n",
       "        [3.400000e+01, 1.150000e+02, 3.906250e-02],\n",
       "        [3.400000e+01, 0.000000e+00, 2.828125e-01]],\n",
       "\n",
       "       [[7.200000e+01, 9.400000e+01, 0.000000e+00],\n",
       "        [7.200000e+01, 1.270000e+02, 1.500000e+00],\n",
       "        [7.100000e+01, 1.200000e+02, 2.500000e-01],\n",
       "        [7.100000e+01, 6.400000e+01, 2.500000e-01],\n",
       "        [7.600000e+01, 1.000000e+02, 0.000000e+00],\n",
       "        [7.400000e+01, 1.150000e+02, 5.000000e-01],\n",
       "        [7.600000e+01, 1.270000e+02, 0.000000e+00],\n",
       "        [7.400000e+01, 1.270000e+02, 5.000000e-01],\n",
       "        [7.400000e+01, 1.160000e+02, 0.000000e+00],\n",
       "        [7.200000e+01, 1.040000e+02, 5.000000e-01],\n",
       "        [7.400000e+01, 1.270000e+02, 0.000000e+00],\n",
       "        [7.200000e+01, 1.270000e+02, 5.000000e-01],\n",
       "        [7.200000e+01, 1.180000e+02, 0.000000e+00],\n",
       "        [6.900000e+01, 1.010000e+02, 1.500000e+00],\n",
       "        [7.200000e+01, 1.270000e+02, 0.000000e+00],\n",
       "        [6.900000e+01, 1.270000e+02, 2.500000e-01],\n",
       "        [7.200000e+01, 1.170000e+02, 0.000000e+00],\n",
       "        [7.200000e+01, 1.270000e+02, 2.500000e-01],\n",
       "        [7.600000e+01, 1.030000e+02, 0.000000e+00],\n",
       "        [7.400000e+01, 1.020000e+02, 5.000000e-01],\n",
       "        [7.600000e+01, 1.270000e+02, 0.000000e+00],\n",
       "        [7.400000e+01, 1.270000e+02, 5.000000e-01],\n",
       "        [7.400000e+01, 1.180000e+02, 0.000000e+00],\n",
       "        [7.200000e+01, 1.110000e+02, 5.000000e-01],\n",
       "        [7.400000e+01, 1.270000e+02, 0.000000e+00],\n",
       "        [6.900000e+01, 1.000000e+02, 2.500000e-01],\n",
       "        [7.200000e+01, 1.270000e+02, 0.000000e+00],\n",
       "        [6.900000e+01, 1.270000e+02, 2.500000e-01],\n",
       "        [7.200000e+01, 1.220000e+02, 0.000000e+00],\n",
       "        [6.900000e+01, 9.600000e+01, 1.250000e+00]]])"
      ]
     },
     "execution_count": 21,
     "metadata": {},
     "output_type": "execute_result"
    }
   ],
   "source": [
    "dataset = np.array(dataset)\n",
    "dataset.reshape(2,30,3)"
   ]
  },
  {
   "cell_type": "code",
   "execution_count": null,
   "metadata": {},
   "outputs": [],
   "source": []
  },
  {
   "cell_type": "code",
   "execution_count": null,
   "metadata": {},
   "outputs": [],
   "source": []
  }
 ],
 "metadata": {
  "kernelspec": {
   "display_name": "Python 3",
   "language": "python",
   "name": "python3"
  },
  "language_info": {
   "codemirror_mode": {
    "name": "ipython",
    "version": 3
   },
   "file_extension": ".py",
   "mimetype": "text/x-python",
   "name": "python",
   "nbconvert_exporter": "python",
   "pygments_lexer": "ipython3",
   "version": "3.7.3"
  }
 },
 "nbformat": 4,
 "nbformat_minor": 2
}
